G04 #@! TF.GenerationSoftware,KiCad,Pcbnew,(5.1.9)-1*
G04 #@! TF.CreationDate,2021-05-31T10:17:52+02:00*
G04 #@! TF.ProjectId,gamerino,67616d65-7269-46e6-9f2e-6b696361645f,01*
G04 #@! TF.SameCoordinates,Original*
G04 #@! TF.FileFunction,Paste,Top*
G04 #@! TF.FilePolarity,Positive*
%FSLAX46Y46*%
G04 Gerber Fmt 4.6, Leading zero omitted, Abs format (unit mm)*
G04 Created by KiCad (PCBNEW (5.1.9)-1) date 2021-05-31 10:17:52*
%MOMM*%
%LPD*%
G01*
G04 APERTURE LIST*
%ADD10R,0.300000X1.000000*%
%ADD11R,1.800000X1.300000*%
%ADD12R,1.300000X1.800000*%
%ADD13R,0.700000X0.700000*%
%ADD14R,1.100000X0.900000*%
%ADD15R,1.800000X1.500000*%
%ADD16R,1.500000X1.800000*%
%ADD17C,0.100000*%
G04 APERTURE END LIST*
D10*
X156250000Y-68500000D03*
G36*
G01*
X154600000Y-68925000D02*
X154600000Y-68075000D01*
G75*
G02*
X154675000Y-68000000I75000J0D01*
G01*
X154825000Y-68000000D01*
G75*
G02*
X154900000Y-68075000I0J-75000D01*
G01*
X154900000Y-68925000D01*
G75*
G02*
X154825000Y-69000000I-75000J0D01*
G01*
X154675000Y-69000000D01*
G75*
G02*
X154600000Y-68925000I0J75000D01*
G01*
G37*
X155250000Y-68500000D03*
X155750000Y-68500000D03*
X99750000Y-112500000D03*
G36*
G01*
X101400000Y-112075000D02*
X101400000Y-112925000D01*
G75*
G02*
X101325000Y-113000000I-75000J0D01*
G01*
X101175000Y-113000000D01*
G75*
G02*
X101100000Y-112925000I0J75000D01*
G01*
X101100000Y-112075000D01*
G75*
G02*
X101175000Y-112000000I75000J0D01*
G01*
X101325000Y-112000000D01*
G75*
G02*
X101400000Y-112075000I0J-75000D01*
G01*
G37*
X100750000Y-112500000D03*
X100250000Y-112500000D03*
D11*
X133550000Y-78000000D03*
X142450000Y-78000000D03*
D12*
X140250000Y-82600000D03*
X140250000Y-73400000D03*
X135750000Y-73400000D03*
X135750000Y-82600000D03*
D13*
X157850000Y-60000000D03*
X163150000Y-60000000D03*
D14*
X158050000Y-58900000D03*
X162950000Y-58900000D03*
X158050000Y-61100000D03*
X162950000Y-61100000D03*
D13*
X112850000Y-60000000D03*
X118150000Y-60000000D03*
D14*
X113050000Y-58900000D03*
X117950000Y-58900000D03*
X113050000Y-61100000D03*
X117950000Y-61100000D03*
D13*
X144350000Y-78000000D03*
X149650000Y-78000000D03*
D14*
X144550000Y-76900000D03*
X149450000Y-76900000D03*
X144550000Y-79100000D03*
X149450000Y-79100000D03*
X131450000Y-79100000D03*
X126550000Y-79100000D03*
X131450000Y-76900000D03*
X126550000Y-76900000D03*
D13*
X131650000Y-78000000D03*
X126350000Y-78000000D03*
D15*
X116000000Y-96700000D03*
X116000000Y-107300000D03*
D16*
X110700000Y-102000000D03*
X121300000Y-102000000D03*
D17*
G36*
X118583274Y-98143934D02*
G01*
X119643934Y-97083274D01*
X120916726Y-98356066D01*
X119856066Y-99416726D01*
X118583274Y-98143934D01*
G37*
G36*
X111083274Y-105643934D02*
G01*
X112143934Y-104583274D01*
X113416726Y-105856066D01*
X112356066Y-106916726D01*
X111083274Y-105643934D01*
G37*
G36*
X113431066Y-98159594D02*
G01*
X112370406Y-97098934D01*
X113218934Y-96250406D01*
X114279594Y-97311066D01*
X113431066Y-98159594D01*
G37*
G36*
X118781066Y-107749594D02*
G01*
X117720406Y-106688934D01*
X118568934Y-105840406D01*
X119629594Y-106901066D01*
X118781066Y-107749594D01*
G37*
M02*
