M48
; DRILL file {KiCad (5.1.9)-1} date 05/31/21 14:33:36
; FORMAT={-:-/ absolute / inch / decimal}
; #@! TF.CreationDate,2021-05-31T14:33:36+02:00
; #@! TF.GenerationSoftware,Kicad,Pcbnew,(5.1.9)-1
; #@! TF.FileFunction,NonPlated,1,2,NPTH
FMAT,2
INCH
T1C0.0354
T2C0.0394
T3C0.0512
T4C0.0551
T5C0.0591
T6C0.0787
T7C0.0866
T8C0.1260
%
G90
G05
T1
X4.4752Y-4.1075
T2
X6.7732Y-3.0709
X7.2063Y-2.6378
X7.2063Y-3.5039
X7.6394Y-3.0709
T3
X4.6587Y-3.924
T4
X3.7598Y-2.3228
X4.0748Y-2.3228
X6.7913Y-2.3228
X7.1063Y-2.3228
T5
X3.4626Y-2.7402
X6.6161Y-4.3858
T6
X4.0591Y-2.689
X6.0197Y-4.437
T7
X4.5374Y-2.5787
X5.4331Y-4.3504
X6.3287Y-2.5787
T8
X3.3465Y-2.5
X3.3465Y-4.2323
X7.5197Y-2.5
X7.5197Y-4.2323
T0
M30
