G04 #@! TF.GenerationSoftware,KiCad,Pcbnew,(5.1.9)-1*
G04 #@! TF.CreationDate,2021-05-31T10:17:52+02:00*
G04 #@! TF.ProjectId,gamerino,67616d65-7269-46e6-9f2e-6b696361645f,01*
G04 #@! TF.SameCoordinates,Original*
G04 #@! TF.FileFunction,Legend,Top*
G04 #@! TF.FilePolarity,Positive*
%FSLAX46Y46*%
G04 Gerber Fmt 4.6, Leading zero omitted, Abs format (unit mm)*
G04 Created by KiCad (PCBNEW (5.1.9)-1) date 2021-05-31 10:17:52*
%MOMM*%
%LPD*%
G01*
G04 APERTURE LIST*
%ADD10C,0.100000*%
%ADD11C,0.150000*%
%ADD12C,0.120000*%
G04 APERTURE END LIST*
D10*
X156750000Y-88300000D02*
X156750000Y-70400000D01*
X154250000Y-88300000D02*
X154250000Y-70400000D01*
X151500000Y-93600000D02*
X151500000Y-88300000D01*
X162050000Y-88300000D02*
X162050000Y-93600000D01*
X160250000Y-88300000D02*
X162050000Y-88300000D01*
X151500000Y-88300000D02*
X160250000Y-88300000D01*
X169550000Y-97563000D02*
X165600000Y-93600000D01*
X160250000Y-93600000D02*
X165587000Y-93600000D01*
X169550000Y-102900000D02*
X169550000Y-97563000D01*
X169550000Y-111400000D02*
X169550000Y-102900000D01*
X151300000Y-112200000D02*
X150950000Y-112200000D01*
X160250000Y-112200000D02*
X166750000Y-112200000D01*
X154650000Y-112700000D02*
X154650000Y-112200000D01*
X151300000Y-112200000D02*
X151300000Y-113400000D01*
X150950000Y-93600000D02*
X150950000Y-112200000D01*
X160250000Y-93600000D02*
X150950000Y-93600000D01*
X160250000Y-112200000D02*
X154650000Y-112200000D01*
X154250000Y-70400000D02*
X156750000Y-70400000D01*
X164500000Y-102900000D02*
G75*
G03*
X164500000Y-102900000I-4250000J0D01*
G01*
X169450543Y-102900000D02*
G75*
G03*
X169450543Y-102900000I-9200543J0D01*
G01*
X154646424Y-112700001D02*
G75*
G02*
X151300001Y-113399999I-1746424J1D01*
G01*
X169550832Y-111400000D02*
G75*
G02*
X166750001Y-112149999I-1500832J0D01*
G01*
D11*
X195750000Y-78000000D02*
G75*
G03*
X195750000Y-78000000I-4250000J0D01*
G01*
X194500000Y-81750000D02*
X194500000Y-81000000D01*
X194500000Y-81750000D02*
X193500000Y-81750000D01*
X189500000Y-81750000D02*
X188500000Y-81750000D01*
X188500000Y-81750000D02*
X188500000Y-81000000D01*
X188500000Y-75000000D02*
X188500000Y-74250000D01*
X188500000Y-74250000D02*
X189500000Y-74250000D01*
X194500000Y-75000000D02*
X194500000Y-74250000D01*
X194500000Y-74250000D02*
X193500000Y-74250000D01*
D10*
X104950543Y-78100000D02*
G75*
G03*
X104950543Y-78100000I-9200543J0D01*
G01*
X100000000Y-78100000D02*
G75*
G03*
X100000000Y-78100000I-4250000J0D01*
G01*
X101750000Y-110600000D02*
X99250000Y-110600000D01*
X95750000Y-68800000D02*
X101350000Y-68800000D01*
X95750000Y-87400000D02*
X105050000Y-87400000D01*
X105050000Y-87400000D02*
X105050000Y-68800000D01*
X104700000Y-68800000D02*
X104700000Y-67600000D01*
X101350000Y-68300000D02*
X101350000Y-68800000D01*
X95750000Y-68800000D02*
X89250000Y-68800000D01*
X104700000Y-68800000D02*
X105050000Y-68800000D01*
X86450000Y-69600000D02*
X86450000Y-78100000D01*
X86450000Y-78100000D02*
X86450000Y-83437000D01*
X95750000Y-87400000D02*
X90413000Y-87400000D01*
X86450000Y-83437000D02*
X90400000Y-87400000D01*
X104500000Y-92700000D02*
X95750000Y-92700000D01*
X95750000Y-92700000D02*
X93950000Y-92700000D01*
X93950000Y-92700000D02*
X93950000Y-87400000D01*
X104500000Y-87400000D02*
X104500000Y-92700000D01*
X101750000Y-92700000D02*
X101750000Y-110600000D01*
X99250000Y-92700000D02*
X99250000Y-110600000D01*
X86449168Y-69600000D02*
G75*
G02*
X89249999Y-68850001I1500832J0D01*
G01*
X101353576Y-68299999D02*
G75*
G02*
X104699999Y-67600001I1746424J-1D01*
G01*
D12*
X141400000Y-81500000D02*
X134600000Y-81500000D01*
X141400000Y-74500000D02*
X134600000Y-74500000D01*
X134600000Y-81500000D02*
X134600000Y-74500000D01*
X141400000Y-81500000D02*
X141400000Y-74500000D01*
X140500000Y-78000000D02*
G75*
G03*
X140500000Y-78000000I-2500000J0D01*
G01*
X142000000Y-78000000D02*
G75*
G03*
X142000000Y-78000000I-4000000J0D01*
G01*
X162600000Y-57700000D02*
X162600000Y-62300000D01*
X162600000Y-57700000D02*
X158400000Y-57700000D01*
X162600000Y-62300000D02*
X158400000Y-62300000D01*
X158400000Y-57700000D02*
X158400000Y-62300000D01*
X117600000Y-57700000D02*
X117600000Y-62300000D01*
X117600000Y-57700000D02*
X113400000Y-57700000D01*
X117600000Y-62300000D02*
X113400000Y-62300000D01*
X113400000Y-57700000D02*
X113400000Y-62300000D01*
X149100000Y-75700000D02*
X149100000Y-80300000D01*
X149100000Y-75700000D02*
X144900000Y-75700000D01*
X149100000Y-80300000D02*
X144900000Y-80300000D01*
X144900000Y-75700000D02*
X144900000Y-80300000D01*
X126900000Y-75700000D02*
X126900000Y-80300000D01*
X131100000Y-80300000D02*
X126900000Y-80300000D01*
X131100000Y-75700000D02*
X126900000Y-75700000D01*
X131100000Y-75700000D02*
X131100000Y-80300000D01*
D11*
X121850000Y-102000000D02*
G75*
G03*
X121850000Y-102000000I-5850000J0D01*
G01*
X91500000Y-56750000D02*
X93000000Y-56750000D01*
X99500000Y-56750000D02*
X98000000Y-56750000D01*
X99500000Y-63250000D02*
X99500000Y-56750000D01*
X91500000Y-63250000D02*
X91500000Y-56750000D01*
X99500000Y-63250000D02*
X91500000Y-63250000D01*
X97800000Y-54520000D02*
X93200000Y-54520000D01*
X176500000Y-56750000D02*
X178000000Y-56750000D01*
X184500000Y-56750000D02*
X183000000Y-56750000D01*
X184500000Y-63250000D02*
X184500000Y-56750000D01*
X176500000Y-63250000D02*
X176500000Y-56750000D01*
X184500000Y-63250000D02*
X176500000Y-63250000D01*
X182800000Y-54520000D02*
X178200000Y-54520000D01*
X184750000Y-67000000D02*
G75*
G03*
X184750000Y-67000000I-4250000J0D01*
G01*
X183500000Y-70750000D02*
X183500000Y-70000000D01*
X183500000Y-70750000D02*
X182500000Y-70750000D01*
X178500000Y-70750000D02*
X177500000Y-70750000D01*
X177500000Y-70750000D02*
X177500000Y-70000000D01*
X177500000Y-64000000D02*
X177500000Y-63250000D01*
X177500000Y-63250000D02*
X178500000Y-63250000D01*
X183500000Y-64000000D02*
X183500000Y-63250000D01*
X183500000Y-63250000D02*
X182500000Y-63250000D01*
X184750000Y-89000000D02*
G75*
G03*
X184750000Y-89000000I-4250000J0D01*
G01*
X183500000Y-92750000D02*
X183500000Y-92000000D01*
X183500000Y-92750000D02*
X182500000Y-92750000D01*
X178500000Y-92750000D02*
X177500000Y-92750000D01*
X177500000Y-92750000D02*
X177500000Y-92000000D01*
X177500000Y-86000000D02*
X177500000Y-85250000D01*
X177500000Y-85250000D02*
X178500000Y-85250000D01*
X183500000Y-86000000D02*
X183500000Y-85250000D01*
X183500000Y-85250000D02*
X182500000Y-85250000D01*
X173750000Y-78000000D02*
G75*
G03*
X173750000Y-78000000I-4250000J0D01*
G01*
X172500000Y-81750000D02*
X172500000Y-81000000D01*
X172500000Y-81750000D02*
X171500000Y-81750000D01*
X167500000Y-81750000D02*
X166500000Y-81750000D01*
X166500000Y-81750000D02*
X166500000Y-81000000D01*
X166500000Y-75000000D02*
X166500000Y-74250000D01*
X166500000Y-74250000D02*
X167500000Y-74250000D01*
X172500000Y-75000000D02*
X172500000Y-74250000D01*
X172500000Y-74250000D02*
X171500000Y-74250000D01*
X158964285Y-112352380D02*
X158964285Y-113066666D01*
X158916666Y-113209523D01*
X158821428Y-113304761D01*
X158678571Y-113352380D01*
X158583333Y-113352380D01*
X159630952Y-112352380D02*
X159821428Y-112352380D01*
X159916666Y-112400000D01*
X160011904Y-112495238D01*
X160059523Y-112685714D01*
X160059523Y-113019047D01*
X160011904Y-113209523D01*
X159916666Y-113304761D01*
X159821428Y-113352380D01*
X159630952Y-113352380D01*
X159535714Y-113304761D01*
X159440476Y-113209523D01*
X159392857Y-113019047D01*
X159392857Y-112685714D01*
X159440476Y-112495238D01*
X159535714Y-112400000D01*
X159630952Y-112352380D01*
X160678571Y-112876190D02*
X160678571Y-113352380D01*
X160345238Y-112352380D02*
X160678571Y-112876190D01*
X161011904Y-112352380D01*
X161297619Y-112447619D02*
X161345238Y-112400000D01*
X161440476Y-112352380D01*
X161678571Y-112352380D01*
X161773809Y-112400000D01*
X161821428Y-112447619D01*
X161869047Y-112542857D01*
X161869047Y-112638095D01*
X161821428Y-112780952D01*
X161250000Y-113352380D01*
X161869047Y-113352380D01*
X189690475Y-83404761D02*
X189833332Y-83452380D01*
X190071427Y-83452380D01*
X190166665Y-83404761D01*
X190214284Y-83357142D01*
X190261903Y-83261904D01*
X190261903Y-83166666D01*
X190214284Y-83071428D01*
X190166665Y-83023809D01*
X190071427Y-82976190D01*
X189880951Y-82928571D01*
X189785713Y-82880952D01*
X189738094Y-82833333D01*
X189690475Y-82738095D01*
X189690475Y-82642857D01*
X189738094Y-82547619D01*
X189785713Y-82500000D01*
X189880951Y-82452380D01*
X190119046Y-82452380D01*
X190261903Y-82500000D01*
X190595237Y-82452380D02*
X190833332Y-83452380D01*
X191023808Y-82738095D01*
X191214284Y-83452380D01*
X191452379Y-82452380D01*
X192357141Y-83452380D02*
X191785713Y-83452380D01*
X192071427Y-83452380D02*
X192071427Y-82452380D01*
X191976189Y-82595238D01*
X191880951Y-82690476D01*
X191785713Y-82738095D01*
X192738094Y-82547619D02*
X192785713Y-82500000D01*
X192880951Y-82452380D01*
X193119046Y-82452380D01*
X193214284Y-82500000D01*
X193261903Y-82547619D01*
X193309522Y-82642857D01*
X193309522Y-82738095D01*
X193261903Y-82880952D01*
X192690475Y-83452380D01*
X193309522Y-83452380D01*
X94464285Y-67552380D02*
X94464285Y-68266666D01*
X94416666Y-68409523D01*
X94321428Y-68504761D01*
X94178571Y-68552380D01*
X94083333Y-68552380D01*
X95130952Y-67552380D02*
X95321428Y-67552380D01*
X95416666Y-67600000D01*
X95511904Y-67695238D01*
X95559523Y-67885714D01*
X95559523Y-68219047D01*
X95511904Y-68409523D01*
X95416666Y-68504761D01*
X95321428Y-68552380D01*
X95130952Y-68552380D01*
X95035714Y-68504761D01*
X94940476Y-68409523D01*
X94892857Y-68219047D01*
X94892857Y-67885714D01*
X94940476Y-67695238D01*
X95035714Y-67600000D01*
X95130952Y-67552380D01*
X96178571Y-68076190D02*
X96178571Y-68552380D01*
X95845238Y-67552380D02*
X96178571Y-68076190D01*
X96511904Y-67552380D01*
X97369047Y-68552380D02*
X96797619Y-68552380D01*
X97083333Y-68552380D02*
X97083333Y-67552380D01*
X96988095Y-67695238D01*
X96892857Y-67790476D01*
X96797619Y-67838095D01*
X133535714Y-110952380D02*
X133535714Y-109952380D01*
X133964285Y-110952380D02*
X133964285Y-110428571D01*
X133916666Y-110333333D01*
X133821428Y-110285714D01*
X133678571Y-110285714D01*
X133583333Y-110333333D01*
X133535714Y-110380952D01*
X134964285Y-110000000D02*
X134869047Y-109952380D01*
X134726190Y-109952380D01*
X134583333Y-110000000D01*
X134488095Y-110095238D01*
X134440476Y-110190476D01*
X134392857Y-110380952D01*
X134392857Y-110523809D01*
X134440476Y-110714285D01*
X134488095Y-110809523D01*
X134583333Y-110904761D01*
X134726190Y-110952380D01*
X134821428Y-110952380D01*
X134964285Y-110904761D01*
X135011904Y-110857142D01*
X135011904Y-110523809D01*
X134821428Y-110523809D01*
X110857142Y-65952380D02*
X110857142Y-64952380D01*
X111285714Y-65952380D02*
X111285714Y-65428571D01*
X111238095Y-65333333D01*
X111142857Y-65285714D01*
X111000000Y-65285714D01*
X110904761Y-65333333D01*
X110857142Y-65380952D01*
X112095238Y-65428571D02*
X111761904Y-65428571D01*
X111761904Y-65952380D02*
X111761904Y-64952380D01*
X112238095Y-64952380D01*
X156333333Y-65952380D02*
X156333333Y-64952380D01*
X156761904Y-65952380D02*
X156761904Y-65428571D01*
X156714285Y-65333333D01*
X156619047Y-65285714D01*
X156476190Y-65285714D01*
X156380952Y-65333333D01*
X156333333Y-65380952D01*
X157238095Y-65428571D02*
X157571428Y-65428571D01*
X157714285Y-65952380D02*
X157238095Y-65952380D01*
X157238095Y-64952380D01*
X157714285Y-64952380D01*
X154761904Y-67702380D02*
X154761904Y-66702380D01*
X155142857Y-66702380D01*
X155238095Y-66750000D01*
X155285714Y-66797619D01*
X155333333Y-66892857D01*
X155333333Y-67035714D01*
X155285714Y-67130952D01*
X155238095Y-67178571D01*
X155142857Y-67226190D01*
X154761904Y-67226190D01*
X156285714Y-67702380D02*
X155714285Y-67702380D01*
X156000000Y-67702380D02*
X156000000Y-66702380D01*
X155904761Y-66845238D01*
X155809523Y-66940476D01*
X155714285Y-66988095D01*
X99761904Y-114202380D02*
X99761904Y-113202380D01*
X100142857Y-113202380D01*
X100238095Y-113250000D01*
X100285714Y-113297619D01*
X100333333Y-113392857D01*
X100333333Y-113535714D01*
X100285714Y-113630952D01*
X100238095Y-113678571D01*
X100142857Y-113726190D01*
X99761904Y-113726190D01*
X100714285Y-113297619D02*
X100761904Y-113250000D01*
X100857142Y-113202380D01*
X101095238Y-113202380D01*
X101190476Y-113250000D01*
X101238095Y-113297619D01*
X101285714Y-113392857D01*
X101285714Y-113488095D01*
X101238095Y-113630952D01*
X100666666Y-114202380D01*
X101285714Y-114202380D01*
X136666666Y-70904761D02*
X136809523Y-70952380D01*
X137047619Y-70952380D01*
X137142857Y-70904761D01*
X137190476Y-70857142D01*
X137238095Y-70761904D01*
X137238095Y-70666666D01*
X137190476Y-70571428D01*
X137142857Y-70523809D01*
X137047619Y-70476190D01*
X136857142Y-70428571D01*
X136761904Y-70380952D01*
X136714285Y-70333333D01*
X136666666Y-70238095D01*
X136666666Y-70142857D01*
X136714285Y-70047619D01*
X136761904Y-70000000D01*
X136857142Y-69952380D01*
X137095238Y-69952380D01*
X137238095Y-70000000D01*
X137571428Y-69952380D02*
X137809523Y-70952380D01*
X138000000Y-70238095D01*
X138190476Y-70952380D01*
X138428571Y-69952380D01*
X138857142Y-70952380D02*
X139047619Y-70952380D01*
X139142857Y-70904761D01*
X139190476Y-70857142D01*
X139285714Y-70714285D01*
X139333333Y-70523809D01*
X139333333Y-70142857D01*
X139285714Y-70047619D01*
X139238095Y-70000000D01*
X139142857Y-69952380D01*
X138952380Y-69952380D01*
X138857142Y-70000000D01*
X138809523Y-70047619D01*
X138761904Y-70142857D01*
X138761904Y-70380952D01*
X138809523Y-70476190D01*
X138857142Y-70523809D01*
X138952380Y-70571428D01*
X139142857Y-70571428D01*
X139238095Y-70523809D01*
X139285714Y-70476190D01*
X139333333Y-70380952D01*
X159166666Y-56904761D02*
X159309523Y-56952380D01*
X159547619Y-56952380D01*
X159642857Y-56904761D01*
X159690476Y-56857142D01*
X159738095Y-56761904D01*
X159738095Y-56666666D01*
X159690476Y-56571428D01*
X159642857Y-56523809D01*
X159547619Y-56476190D01*
X159357142Y-56428571D01*
X159261904Y-56380952D01*
X159214285Y-56333333D01*
X159166666Y-56238095D01*
X159166666Y-56142857D01*
X159214285Y-56047619D01*
X159261904Y-56000000D01*
X159357142Y-55952380D01*
X159595238Y-55952380D01*
X159738095Y-56000000D01*
X160071428Y-55952380D02*
X160309523Y-56952380D01*
X160500000Y-56238095D01*
X160690476Y-56952380D01*
X160928571Y-55952380D01*
X161214285Y-55952380D02*
X161880952Y-55952380D01*
X161452380Y-56952380D01*
X114166666Y-56904761D02*
X114309523Y-56952380D01*
X114547619Y-56952380D01*
X114642857Y-56904761D01*
X114690476Y-56857142D01*
X114738095Y-56761904D01*
X114738095Y-56666666D01*
X114690476Y-56571428D01*
X114642857Y-56523809D01*
X114547619Y-56476190D01*
X114357142Y-56428571D01*
X114261904Y-56380952D01*
X114214285Y-56333333D01*
X114166666Y-56238095D01*
X114166666Y-56142857D01*
X114214285Y-56047619D01*
X114261904Y-56000000D01*
X114357142Y-55952380D01*
X114595238Y-55952380D01*
X114738095Y-56000000D01*
X115071428Y-55952380D02*
X115309523Y-56952380D01*
X115500000Y-56238095D01*
X115690476Y-56952380D01*
X115928571Y-55952380D01*
X116738095Y-55952380D02*
X116547619Y-55952380D01*
X116452380Y-56000000D01*
X116404761Y-56047619D01*
X116309523Y-56190476D01*
X116261904Y-56380952D01*
X116261904Y-56761904D01*
X116309523Y-56857142D01*
X116357142Y-56904761D01*
X116452380Y-56952380D01*
X116642857Y-56952380D01*
X116738095Y-56904761D01*
X116785714Y-56857142D01*
X116833333Y-56761904D01*
X116833333Y-56523809D01*
X116785714Y-56428571D01*
X116738095Y-56380952D01*
X116642857Y-56333333D01*
X116452380Y-56333333D01*
X116357142Y-56380952D01*
X116309523Y-56428571D01*
X116261904Y-56523809D01*
X145190476Y-75404761D02*
X145333333Y-75452380D01*
X145571428Y-75452380D01*
X145666666Y-75404761D01*
X145714285Y-75357142D01*
X145761904Y-75261904D01*
X145761904Y-75166666D01*
X145714285Y-75071428D01*
X145666666Y-75023809D01*
X145571428Y-74976190D01*
X145380952Y-74928571D01*
X145285714Y-74880952D01*
X145238095Y-74833333D01*
X145190476Y-74738095D01*
X145190476Y-74642857D01*
X145238095Y-74547619D01*
X145285714Y-74500000D01*
X145380952Y-74452380D01*
X145619047Y-74452380D01*
X145761904Y-74500000D01*
X146095238Y-74452380D02*
X146333333Y-75452380D01*
X146523809Y-74738095D01*
X146714285Y-75452380D01*
X146952380Y-74452380D01*
X147857142Y-75452380D02*
X147285714Y-75452380D01*
X147571428Y-75452380D02*
X147571428Y-74452380D01*
X147476190Y-74595238D01*
X147380952Y-74690476D01*
X147285714Y-74738095D01*
X148476190Y-74452380D02*
X148571428Y-74452380D01*
X148666666Y-74500000D01*
X148714285Y-74547619D01*
X148761904Y-74642857D01*
X148809523Y-74833333D01*
X148809523Y-75071428D01*
X148761904Y-75261904D01*
X148714285Y-75357142D01*
X148666666Y-75404761D01*
X148571428Y-75452380D01*
X148476190Y-75452380D01*
X148380952Y-75404761D01*
X148333333Y-75357142D01*
X148285714Y-75261904D01*
X148238095Y-75071428D01*
X148238095Y-74833333D01*
X148285714Y-74642857D01*
X148333333Y-74547619D01*
X148380952Y-74500000D01*
X148476190Y-74452380D01*
X127666666Y-75404761D02*
X127809523Y-75452380D01*
X128047619Y-75452380D01*
X128142857Y-75404761D01*
X128190476Y-75357142D01*
X128238095Y-75261904D01*
X128238095Y-75166666D01*
X128190476Y-75071428D01*
X128142857Y-75023809D01*
X128047619Y-74976190D01*
X127857142Y-74928571D01*
X127761904Y-74880952D01*
X127714285Y-74833333D01*
X127666666Y-74738095D01*
X127666666Y-74642857D01*
X127714285Y-74547619D01*
X127761904Y-74500000D01*
X127857142Y-74452380D01*
X128095238Y-74452380D01*
X128238095Y-74500000D01*
X128571428Y-74452380D02*
X128809523Y-75452380D01*
X129000000Y-74738095D01*
X129190476Y-75452380D01*
X129428571Y-74452380D01*
X129952380Y-74880952D02*
X129857142Y-74833333D01*
X129809523Y-74785714D01*
X129761904Y-74690476D01*
X129761904Y-74642857D01*
X129809523Y-74547619D01*
X129857142Y-74500000D01*
X129952380Y-74452380D01*
X130142857Y-74452380D01*
X130238095Y-74500000D01*
X130285714Y-74547619D01*
X130333333Y-74642857D01*
X130333333Y-74690476D01*
X130285714Y-74785714D01*
X130238095Y-74833333D01*
X130142857Y-74880952D01*
X129952380Y-74880952D01*
X129857142Y-74928571D01*
X129809523Y-74976190D01*
X129761904Y-75071428D01*
X129761904Y-75261904D01*
X129809523Y-75357142D01*
X129857142Y-75404761D01*
X129952380Y-75452380D01*
X130142857Y-75452380D01*
X130238095Y-75404761D01*
X130285714Y-75357142D01*
X130333333Y-75261904D01*
X130333333Y-75071428D01*
X130285714Y-74976190D01*
X130238095Y-74928571D01*
X130142857Y-74880952D01*
X84285714Y-103752380D02*
X84285714Y-102752380D01*
X84714285Y-103752380D02*
X84714285Y-103228571D01*
X84666666Y-103133333D01*
X84571428Y-103085714D01*
X84428571Y-103085714D01*
X84333333Y-103133333D01*
X84285714Y-103180952D01*
X85190476Y-103752380D02*
X85190476Y-102752380D01*
X85428571Y-102752380D01*
X85571428Y-102800000D01*
X85666666Y-102895238D01*
X85714285Y-102990476D01*
X85761904Y-103180952D01*
X85761904Y-103323809D01*
X85714285Y-103514285D01*
X85666666Y-103609523D01*
X85571428Y-103704761D01*
X85428571Y-103752380D01*
X85190476Y-103752380D01*
X84357142Y-59752380D02*
X84357142Y-58752380D01*
X84785714Y-59752380D02*
X84785714Y-59228571D01*
X84738095Y-59133333D01*
X84642857Y-59085714D01*
X84500000Y-59085714D01*
X84404761Y-59133333D01*
X84357142Y-59180952D01*
X85214285Y-59466666D02*
X85690476Y-59466666D01*
X85119047Y-59752380D02*
X85452380Y-58752380D01*
X85785714Y-59752380D01*
X190285714Y-59752380D02*
X190285714Y-58752380D01*
X190714285Y-59752380D02*
X190714285Y-59228571D01*
X190666666Y-59133333D01*
X190571428Y-59085714D01*
X190428571Y-59085714D01*
X190333333Y-59133333D01*
X190285714Y-59180952D01*
X191523809Y-59228571D02*
X191666666Y-59276190D01*
X191714285Y-59323809D01*
X191761904Y-59419047D01*
X191761904Y-59561904D01*
X191714285Y-59657142D01*
X191666666Y-59704761D01*
X191571428Y-59752380D01*
X191190476Y-59752380D01*
X191190476Y-58752380D01*
X191523809Y-58752380D01*
X191619047Y-58800000D01*
X191666666Y-58847619D01*
X191714285Y-58942857D01*
X191714285Y-59038095D01*
X191666666Y-59133333D01*
X191619047Y-59180952D01*
X191523809Y-59228571D01*
X191190476Y-59228571D01*
X190285714Y-103752380D02*
X190285714Y-102752380D01*
X190714285Y-103752380D02*
X190714285Y-103228571D01*
X190666666Y-103133333D01*
X190571428Y-103085714D01*
X190428571Y-103085714D01*
X190333333Y-103133333D01*
X190285714Y-103180952D01*
X191761904Y-103657142D02*
X191714285Y-103704761D01*
X191571428Y-103752380D01*
X191476190Y-103752380D01*
X191333333Y-103704761D01*
X191238095Y-103609523D01*
X191190476Y-103514285D01*
X191142857Y-103323809D01*
X191142857Y-103180952D01*
X191190476Y-102990476D01*
X191238095Y-102895238D01*
X191333333Y-102800000D01*
X191476190Y-102752380D01*
X191571428Y-102752380D01*
X191714285Y-102800000D01*
X191761904Y-102847619D01*
X114666666Y-94904761D02*
X114809523Y-94952380D01*
X115047619Y-94952380D01*
X115142857Y-94904761D01*
X115190476Y-94857142D01*
X115238095Y-94761904D01*
X115238095Y-94666666D01*
X115190476Y-94571428D01*
X115142857Y-94523809D01*
X115047619Y-94476190D01*
X114857142Y-94428571D01*
X114761904Y-94380952D01*
X114714285Y-94333333D01*
X114666666Y-94238095D01*
X114666666Y-94142857D01*
X114714285Y-94047619D01*
X114761904Y-94000000D01*
X114857142Y-93952380D01*
X115095238Y-93952380D01*
X115238095Y-94000000D01*
X115571428Y-93952380D02*
X115809523Y-94952380D01*
X116000000Y-94238095D01*
X116190476Y-94952380D01*
X116428571Y-93952380D01*
X117333333Y-94952380D02*
X116761904Y-94952380D01*
X117047619Y-94952380D02*
X117047619Y-93952380D01*
X116952380Y-94095238D01*
X116857142Y-94190476D01*
X116761904Y-94238095D01*
X172309523Y-111784880D02*
X172309523Y-110784880D01*
X172738095Y-111784880D02*
X172738095Y-111261071D01*
X172690476Y-111165833D01*
X172595238Y-111118214D01*
X172452380Y-111118214D01*
X172357142Y-111165833D01*
X172309523Y-111213452D01*
X173119047Y-110784880D02*
X173738095Y-110784880D01*
X173404761Y-111165833D01*
X173547619Y-111165833D01*
X173642857Y-111213452D01*
X173690476Y-111261071D01*
X173738095Y-111356309D01*
X173738095Y-111594404D01*
X173690476Y-111689642D01*
X173642857Y-111737261D01*
X173547619Y-111784880D01*
X173261904Y-111784880D01*
X173166666Y-111737261D01*
X173119047Y-111689642D01*
X147409523Y-111952380D02*
X147409523Y-110952380D01*
X147838095Y-111952380D02*
X147838095Y-111428571D01*
X147790476Y-111333333D01*
X147695238Y-111285714D01*
X147552380Y-111285714D01*
X147457142Y-111333333D01*
X147409523Y-111380952D01*
X148742857Y-111285714D02*
X148742857Y-111952380D01*
X148504761Y-110904761D02*
X148266666Y-111619047D01*
X148885714Y-111619047D01*
X87259523Y-66852380D02*
X87259523Y-65852380D01*
X87688095Y-66852380D02*
X87688095Y-66328571D01*
X87640476Y-66233333D01*
X87545238Y-66185714D01*
X87402380Y-66185714D01*
X87307142Y-66233333D01*
X87259523Y-66280952D01*
X88116666Y-65947619D02*
X88164285Y-65900000D01*
X88259523Y-65852380D01*
X88497619Y-65852380D01*
X88592857Y-65900000D01*
X88640476Y-65947619D01*
X88688095Y-66042857D01*
X88688095Y-66138095D01*
X88640476Y-66280952D01*
X88069047Y-66852380D01*
X88688095Y-66852380D01*
X102409523Y-65552380D02*
X102409523Y-64552380D01*
X102838095Y-65552380D02*
X102838095Y-65028571D01*
X102790476Y-64933333D01*
X102695238Y-64885714D01*
X102552380Y-64885714D01*
X102457142Y-64933333D01*
X102409523Y-64980952D01*
X103838095Y-65552380D02*
X103266666Y-65552380D01*
X103552380Y-65552380D02*
X103552380Y-64552380D01*
X103457142Y-64695238D01*
X103361904Y-64790476D01*
X103266666Y-64838095D01*
X88166666Y-59404761D02*
X88309523Y-59452380D01*
X88547619Y-59452380D01*
X88642857Y-59404761D01*
X88690476Y-59357142D01*
X88738095Y-59261904D01*
X88738095Y-59166666D01*
X88690476Y-59071428D01*
X88642857Y-59023809D01*
X88547619Y-58976190D01*
X88357142Y-58928571D01*
X88261904Y-58880952D01*
X88214285Y-58833333D01*
X88166666Y-58738095D01*
X88166666Y-58642857D01*
X88214285Y-58547619D01*
X88261904Y-58500000D01*
X88357142Y-58452380D01*
X88595238Y-58452380D01*
X88738095Y-58500000D01*
X89071428Y-58452380D02*
X89309523Y-59452380D01*
X89500000Y-58738095D01*
X89690476Y-59452380D01*
X89928571Y-58452380D01*
X90261904Y-58547619D02*
X90309523Y-58500000D01*
X90404761Y-58452380D01*
X90642857Y-58452380D01*
X90738095Y-58500000D01*
X90785714Y-58547619D01*
X90833333Y-58642857D01*
X90833333Y-58738095D01*
X90785714Y-58880952D01*
X90214285Y-59452380D01*
X90833333Y-59452380D01*
X185166666Y-59404761D02*
X185309523Y-59452380D01*
X185547619Y-59452380D01*
X185642857Y-59404761D01*
X185690476Y-59357142D01*
X185738095Y-59261904D01*
X185738095Y-59166666D01*
X185690476Y-59071428D01*
X185642857Y-59023809D01*
X185547619Y-58976190D01*
X185357142Y-58928571D01*
X185261904Y-58880952D01*
X185214285Y-58833333D01*
X185166666Y-58738095D01*
X185166666Y-58642857D01*
X185214285Y-58547619D01*
X185261904Y-58500000D01*
X185357142Y-58452380D01*
X185595238Y-58452380D01*
X185738095Y-58500000D01*
X186071428Y-58452380D02*
X186309523Y-59452380D01*
X186500000Y-58738095D01*
X186690476Y-59452380D01*
X186928571Y-58452380D01*
X187738095Y-58785714D02*
X187738095Y-59452380D01*
X187500000Y-58404761D02*
X187261904Y-59119047D01*
X187880952Y-59119047D01*
X178690475Y-72404761D02*
X178833332Y-72452380D01*
X179071427Y-72452380D01*
X179166665Y-72404761D01*
X179214284Y-72357142D01*
X179261903Y-72261904D01*
X179261903Y-72166666D01*
X179214284Y-72071428D01*
X179166665Y-72023809D01*
X179071427Y-71976190D01*
X178880951Y-71928571D01*
X178785713Y-71880952D01*
X178738094Y-71833333D01*
X178690475Y-71738095D01*
X178690475Y-71642857D01*
X178738094Y-71547619D01*
X178785713Y-71500000D01*
X178880951Y-71452380D01*
X179119046Y-71452380D01*
X179261903Y-71500000D01*
X179595237Y-71452380D02*
X179833332Y-72452380D01*
X180023808Y-71738095D01*
X180214284Y-72452380D01*
X180452379Y-71452380D01*
X181357141Y-72452380D02*
X180785713Y-72452380D01*
X181071427Y-72452380D02*
X181071427Y-71452380D01*
X180976189Y-71595238D01*
X180880951Y-71690476D01*
X180785713Y-71738095D01*
X182214284Y-71785714D02*
X182214284Y-72452380D01*
X181976189Y-71404761D02*
X181738094Y-72119047D01*
X182357141Y-72119047D01*
X178690476Y-94404761D02*
X178833333Y-94452380D01*
X179071428Y-94452380D01*
X179166666Y-94404761D01*
X179214285Y-94357142D01*
X179261904Y-94261904D01*
X179261904Y-94166666D01*
X179214285Y-94071428D01*
X179166666Y-94023809D01*
X179071428Y-93976190D01*
X178880952Y-93928571D01*
X178785714Y-93880952D01*
X178738095Y-93833333D01*
X178690476Y-93738095D01*
X178690476Y-93642857D01*
X178738095Y-93547619D01*
X178785714Y-93500000D01*
X178880952Y-93452380D01*
X179119047Y-93452380D01*
X179261904Y-93500000D01*
X179595238Y-93452380D02*
X179833333Y-94452380D01*
X180023809Y-93738095D01*
X180214285Y-94452380D01*
X180452380Y-93452380D01*
X181357142Y-94452380D02*
X180785714Y-94452380D01*
X181071428Y-94452380D02*
X181071428Y-93452380D01*
X180976190Y-93595238D01*
X180880952Y-93690476D01*
X180785714Y-93738095D01*
X181690476Y-93452380D02*
X182309523Y-93452380D01*
X181976190Y-93833333D01*
X182119047Y-93833333D01*
X182214285Y-93880952D01*
X182261904Y-93928571D01*
X182309523Y-94023809D01*
X182309523Y-94261904D01*
X182261904Y-94357142D01*
X182214285Y-94404761D01*
X182119047Y-94452380D01*
X181833333Y-94452380D01*
X181738095Y-94404761D01*
X181690476Y-94357142D01*
X167690476Y-83404761D02*
X167833333Y-83452380D01*
X168071428Y-83452380D01*
X168166666Y-83404761D01*
X168214285Y-83357142D01*
X168261904Y-83261904D01*
X168261904Y-83166666D01*
X168214285Y-83071428D01*
X168166666Y-83023809D01*
X168071428Y-82976190D01*
X167880952Y-82928571D01*
X167785714Y-82880952D01*
X167738095Y-82833333D01*
X167690476Y-82738095D01*
X167690476Y-82642857D01*
X167738095Y-82547619D01*
X167785714Y-82500000D01*
X167880952Y-82452380D01*
X168119047Y-82452380D01*
X168261904Y-82500000D01*
X168595238Y-82452380D02*
X168833333Y-83452380D01*
X169023809Y-82738095D01*
X169214285Y-83452380D01*
X169452380Y-82452380D01*
X170357142Y-83452380D02*
X169785714Y-83452380D01*
X170071428Y-83452380D02*
X170071428Y-82452380D01*
X169976190Y-82595238D01*
X169880952Y-82690476D01*
X169785714Y-82738095D01*
X171309523Y-83452380D02*
X170738095Y-83452380D01*
X171023809Y-83452380D02*
X171023809Y-82452380D01*
X170928571Y-82595238D01*
X170833333Y-82690476D01*
X170738095Y-82738095D01*
M02*
