G04 #@! TF.GenerationSoftware,KiCad,Pcbnew,(5.1.9)-1*
G04 #@! TF.CreationDate,2021-05-31T15:03:51+02:00*
G04 #@! TF.ProjectId,gamerino,67616d65-7269-46e6-9f2e-6b696361645f,01*
G04 #@! TF.SameCoordinates,Original*
G04 #@! TF.FileFunction,Soldermask,Top*
G04 #@! TF.FilePolarity,Negative*
%FSLAX46Y46*%
G04 Gerber Fmt 4.6, Leading zero omitted, Abs format (unit mm)*
G04 Created by KiCad (PCBNEW (5.1.9)-1) date 2021-05-31 15:03:51*
%MOMM*%
%LPD*%
G01*
G04 APERTURE LIST*
%ADD10O,1.300000X0.800000*%
%ADD11C,2.000000*%
%ADD12R,2.000000X2.000000*%
%ADD13C,2.200000*%
%ADD14R,2.400000X3.050000*%
%ADD15R,0.300000X1.000000*%
%ADD16R,1.800000X1.300000*%
%ADD17R,1.300000X1.800000*%
%ADD18R,0.700000X0.700000*%
%ADD19R,1.100000X0.900000*%
%ADD20C,3.200000*%
%ADD21R,1.800000X1.500000*%
%ADD22R,1.500000X1.800000*%
%ADD23C,0.100000*%
%ADD24C,1.500000*%
%ADD25C,1.100000*%
%ADD26C,1.400000*%
%ADD27C,1.800000*%
%ADD28R,1.700000X1.700000*%
%ADD29O,1.700000X1.700000*%
G04 APERTURE END LIST*
G36*
G01*
X185200000Y-108775000D02*
X184300000Y-108775000D01*
G75*
G02*
X184100000Y-108575000I0J200000D01*
G01*
X184100000Y-108175000D01*
G75*
G02*
X184300000Y-107975000I200000J0D01*
G01*
X185200000Y-107975000D01*
G75*
G02*
X185400000Y-108175000I0J-200000D01*
G01*
X185400000Y-108575000D01*
G75*
G02*
X185200000Y-108775000I-200000J0D01*
G01*
G37*
D10*
X184750000Y-107125000D03*
X90500000Y-106875000D03*
G36*
G01*
X90950000Y-108525000D02*
X90050000Y-108525000D01*
G75*
G02*
X89850000Y-108325000I0J200000D01*
G01*
X89850000Y-107925000D01*
G75*
G02*
X90050000Y-107725000I200000J0D01*
G01*
X90950000Y-107725000D01*
G75*
G02*
X91150000Y-107925000I0J-200000D01*
G01*
X91150000Y-108325000D01*
G75*
G02*
X90950000Y-108525000I-200000J0D01*
G01*
G37*
D11*
X194040000Y-78000000D03*
X191500000Y-75460000D03*
X191500000Y-80540000D03*
X194040000Y-75460000D03*
X194040000Y-80540000D03*
X188960000Y-75460000D03*
D12*
X188960000Y-80540000D03*
G36*
G01*
X166050000Y-58350000D02*
X166950000Y-58350000D01*
G75*
G02*
X167150000Y-58550000I0J-200000D01*
G01*
X167150000Y-58950000D01*
G75*
G02*
X166950000Y-59150000I-200000J0D01*
G01*
X166050000Y-59150000D01*
G75*
G02*
X165850000Y-58950000I0J200000D01*
G01*
X165850000Y-58550000D01*
G75*
G02*
X166050000Y-58350000I200000J0D01*
G01*
G37*
D10*
X166500000Y-60000000D03*
X166500000Y-61250000D03*
G36*
G01*
X110050000Y-58350000D02*
X110950000Y-58350000D01*
G75*
G02*
X111150000Y-58550000I0J-200000D01*
G01*
X111150000Y-58950000D01*
G75*
G02*
X110950000Y-59150000I-200000J0D01*
G01*
X110050000Y-59150000D01*
G75*
G02*
X109850000Y-58950000I0J200000D01*
G01*
X109850000Y-58550000D01*
G75*
G02*
X110050000Y-58350000I200000J0D01*
G01*
G37*
X110500000Y-60000000D03*
X110500000Y-61250000D03*
D13*
X138000000Y-110500000D03*
X115250000Y-65500000D03*
X160750000Y-65500000D03*
D14*
X152500000Y-70250000D03*
X158500000Y-70250000D03*
D15*
X156250000Y-68500000D03*
G36*
G01*
X154600000Y-68925000D02*
X154600000Y-68075000D01*
G75*
G02*
X154675000Y-68000000I75000J0D01*
G01*
X154825000Y-68000000D01*
G75*
G02*
X154900000Y-68075000I0J-75000D01*
G01*
X154900000Y-68925000D01*
G75*
G02*
X154825000Y-69000000I-75000J0D01*
G01*
X154675000Y-69000000D01*
G75*
G02*
X154600000Y-68925000I0J75000D01*
G01*
G37*
X155250000Y-68500000D03*
X155750000Y-68500000D03*
D14*
X103500000Y-110750000D03*
X97500000Y-110750000D03*
D15*
X99750000Y-112500000D03*
G36*
G01*
X101400000Y-112075000D02*
X101400000Y-112925000D01*
G75*
G02*
X101325000Y-113000000I-75000J0D01*
G01*
X101175000Y-113000000D01*
G75*
G02*
X101100000Y-112925000I0J75000D01*
G01*
X101100000Y-112075000D01*
G75*
G02*
X101175000Y-112000000I75000J0D01*
G01*
X101325000Y-112000000D01*
G75*
G02*
X101400000Y-112075000I0J-75000D01*
G01*
G37*
X100750000Y-112500000D03*
X100250000Y-112500000D03*
D16*
X133550000Y-78000000D03*
X142450000Y-78000000D03*
D17*
X140250000Y-82600000D03*
X140250000Y-73400000D03*
X135750000Y-73400000D03*
X135750000Y-82600000D03*
D18*
X157850000Y-60000000D03*
X163150000Y-60000000D03*
D19*
X158050000Y-58900000D03*
X162950000Y-58900000D03*
X158050000Y-61100000D03*
X162950000Y-61100000D03*
D18*
X112850000Y-60000000D03*
X118150000Y-60000000D03*
D19*
X113050000Y-58900000D03*
X117950000Y-58900000D03*
X113050000Y-61100000D03*
X117950000Y-61100000D03*
D18*
X144350000Y-78000000D03*
X149650000Y-78000000D03*
D19*
X144550000Y-76900000D03*
X149450000Y-76900000D03*
X144550000Y-79100000D03*
X149450000Y-79100000D03*
X131450000Y-79100000D03*
X126550000Y-79100000D03*
X131450000Y-76900000D03*
X126550000Y-76900000D03*
D18*
X131650000Y-78000000D03*
X126350000Y-78000000D03*
D20*
X85000000Y-107500000D03*
X85000000Y-63500000D03*
X191000000Y-63500000D03*
X191000000Y-107500000D03*
D21*
X116000000Y-96700000D03*
X116000000Y-107300000D03*
D22*
X110700000Y-102000000D03*
X121300000Y-102000000D03*
D23*
G36*
X118583274Y-98143934D02*
G01*
X119643934Y-97083274D01*
X120916726Y-98356066D01*
X119856066Y-99416726D01*
X118583274Y-98143934D01*
G37*
G36*
X111083274Y-105643934D02*
G01*
X112143934Y-104583274D01*
X113416726Y-105856066D01*
X112356066Y-106916726D01*
X111083274Y-105643934D01*
G37*
D24*
X118330000Y-99670000D03*
D25*
X113670000Y-104330000D03*
D23*
G36*
X113431066Y-98159594D02*
G01*
X112370406Y-97098934D01*
X113218934Y-96250406D01*
X114279594Y-97311066D01*
X113431066Y-98159594D01*
G37*
G36*
X118781066Y-107749594D02*
G01*
X117720406Y-106688934D01*
X118568934Y-105840406D01*
X119629594Y-106901066D01*
X118781066Y-107749594D01*
G37*
D24*
X168050000Y-111400000D03*
D11*
X152900000Y-112700000D03*
D24*
X87950000Y-69600000D03*
D11*
X103100000Y-68300000D03*
D24*
X97500000Y-58450000D03*
X93500000Y-58450000D03*
D26*
X98550000Y-62400000D03*
X92450000Y-62400000D03*
D27*
X95500000Y-59000000D03*
D24*
X101500000Y-58450000D03*
X105500000Y-58450000D03*
D26*
X100450000Y-62400000D03*
X106550000Y-62400000D03*
D27*
X103500000Y-59000000D03*
D24*
X170500000Y-58450000D03*
X174500000Y-58450000D03*
D26*
X169450000Y-62400000D03*
X175550000Y-62400000D03*
D27*
X172500000Y-59000000D03*
D24*
X182500000Y-58450000D03*
X178500000Y-58450000D03*
D26*
X183550000Y-62400000D03*
X177450000Y-62400000D03*
D27*
X180500000Y-59000000D03*
D11*
X183040000Y-67000000D03*
X180500000Y-64460000D03*
X180500000Y-69540000D03*
X183040000Y-64460000D03*
X183040000Y-69540000D03*
X177960000Y-64460000D03*
D12*
X177960000Y-69540000D03*
D11*
X183040000Y-89000000D03*
X180500000Y-86460000D03*
X180500000Y-91540000D03*
X183040000Y-86460000D03*
X183040000Y-91540000D03*
X177960000Y-86460000D03*
D12*
X177960000Y-91540000D03*
D11*
X172040000Y-78000000D03*
X169500000Y-75460000D03*
X169500000Y-80540000D03*
X172040000Y-75460000D03*
X172040000Y-80540000D03*
X166960000Y-75460000D03*
D12*
X166960000Y-80540000D03*
D28*
X151000000Y-66000000D03*
D29*
X151000000Y-63460000D03*
X148460000Y-66000000D03*
X148460000Y-63460000D03*
X145920000Y-66000000D03*
X145920000Y-63460000D03*
M02*
