G04 #@! TF.GenerationSoftware,KiCad,Pcbnew,(5.1.9)-1*
G04 #@! TF.CreationDate,2021-06-01T18:03:46+02:00*
G04 #@! TF.ProjectId,gamerino,67616d65-7269-46e6-9f2e-6b696361645f,01*
G04 #@! TF.SameCoordinates,Original*
G04 #@! TF.FileFunction,Legend,Bot*
G04 #@! TF.FilePolarity,Positive*
%FSLAX46Y46*%
G04 Gerber Fmt 4.6, Leading zero omitted, Abs format (unit mm)*
G04 Created by KiCad (PCBNEW (5.1.9)-1) date 2021-06-01 18:03:46*
%MOMM*%
%LPD*%
G01*
G04 APERTURE LIST*
%ADD10C,0.120000*%
%ADD11C,0.010000*%
%ADD12C,0.200000*%
%ADD13C,0.127000*%
%ADD14C,0.150000*%
G04 APERTURE END LIST*
D10*
X76900000Y-95100000D02*
X79100000Y-95100000D01*
X76900000Y-92100000D02*
X76900000Y-95100000D01*
X79100000Y-92100000D02*
X76900000Y-92100000D01*
X79100000Y-95100000D02*
X79100000Y-92100000D01*
D11*
G36*
X193896090Y-91242348D02*
G01*
X193817546Y-91242778D01*
X193760702Y-91243942D01*
X193721895Y-91246207D01*
X193697462Y-91249940D01*
X193683738Y-91255506D01*
X193677060Y-91263273D01*
X193673764Y-91273605D01*
X193673444Y-91274943D01*
X193668438Y-91299079D01*
X193659171Y-91346701D01*
X193646608Y-91412741D01*
X193631713Y-91492128D01*
X193615449Y-91579796D01*
X193614881Y-91582875D01*
X193598590Y-91668789D01*
X193583348Y-91744696D01*
X193570139Y-91806045D01*
X193559946Y-91848282D01*
X193553752Y-91866855D01*
X193553457Y-91867184D01*
X193535212Y-91876253D01*
X193497595Y-91891367D01*
X193448729Y-91909262D01*
X193448457Y-91909358D01*
X193386907Y-91932493D01*
X193314343Y-91961965D01*
X193245943Y-91991597D01*
X193242706Y-91993062D01*
X193131298Y-92043626D01*
X192884601Y-91875160D01*
X192808923Y-91823803D01*
X192740369Y-91777889D01*
X192682912Y-91740030D01*
X192640524Y-91712837D01*
X192617175Y-91698921D01*
X192614958Y-91697889D01*
X192597990Y-91702484D01*
X192566299Y-91724655D01*
X192518648Y-91765447D01*
X192453802Y-91825905D01*
X192387603Y-91890227D01*
X192323786Y-91953612D01*
X192266671Y-92011451D01*
X192219695Y-92060175D01*
X192186297Y-92096210D01*
X192169915Y-92115984D01*
X192169306Y-92117002D01*
X192167495Y-92130572D01*
X192174317Y-92152733D01*
X192191460Y-92186478D01*
X192220607Y-92234800D01*
X192263445Y-92300692D01*
X192320552Y-92385517D01*
X192371234Y-92460177D01*
X192416539Y-92527140D01*
X192453850Y-92582516D01*
X192480548Y-92622420D01*
X192494015Y-92642962D01*
X192494863Y-92644356D01*
X192493219Y-92664038D01*
X192480755Y-92702293D01*
X192459952Y-92751889D01*
X192452538Y-92767728D01*
X192420186Y-92838290D01*
X192385672Y-92918353D01*
X192357635Y-92987629D01*
X192337432Y-93039045D01*
X192321385Y-93078119D01*
X192312112Y-93098541D01*
X192310959Y-93100114D01*
X192293904Y-93102721D01*
X192253702Y-93109863D01*
X192195698Y-93120523D01*
X192125237Y-93133685D01*
X192047665Y-93148333D01*
X191968328Y-93163449D01*
X191892569Y-93178018D01*
X191825736Y-93191022D01*
X191773172Y-93201445D01*
X191740224Y-93208270D01*
X191732143Y-93210199D01*
X191723795Y-93214962D01*
X191717494Y-93225718D01*
X191712955Y-93246098D01*
X191709896Y-93279734D01*
X191708033Y-93330255D01*
X191707082Y-93401292D01*
X191706760Y-93496476D01*
X191706743Y-93535492D01*
X191706743Y-93852799D01*
X191782943Y-93867839D01*
X191825337Y-93875995D01*
X191888600Y-93887899D01*
X191965038Y-93902116D01*
X192046957Y-93917210D01*
X192069600Y-93921355D01*
X192145194Y-93936053D01*
X192211047Y-93950505D01*
X192261634Y-93963375D01*
X192291426Y-93973322D01*
X192296388Y-93976287D01*
X192308574Y-93997283D01*
X192326047Y-94037967D01*
X192345423Y-94090322D01*
X192349266Y-94101600D01*
X192374661Y-94171523D01*
X192406183Y-94250418D01*
X192437031Y-94321266D01*
X192437183Y-94321595D01*
X192488553Y-94432733D01*
X192319601Y-94681253D01*
X192150648Y-94929772D01*
X192367571Y-95147058D01*
X192433181Y-95211726D01*
X192493021Y-95268733D01*
X192543733Y-95315033D01*
X192581954Y-95347584D01*
X192604325Y-95363343D01*
X192607534Y-95364343D01*
X192626374Y-95356469D01*
X192664820Y-95334578D01*
X192718670Y-95301267D01*
X192783724Y-95259131D01*
X192854060Y-95211943D01*
X192925445Y-95163810D01*
X192989092Y-95121928D01*
X193040959Y-95088871D01*
X193077005Y-95067218D01*
X193093133Y-95059543D01*
X193112811Y-95066037D01*
X193150125Y-95083150D01*
X193197379Y-95107326D01*
X193202388Y-95110013D01*
X193266023Y-95141927D01*
X193309659Y-95157579D01*
X193336798Y-95157745D01*
X193350943Y-95143204D01*
X193351025Y-95143000D01*
X193358095Y-95125779D01*
X193374958Y-95084899D01*
X193400305Y-95023525D01*
X193432829Y-94944819D01*
X193471222Y-94851947D01*
X193514178Y-94748072D01*
X193555778Y-94647502D01*
X193601496Y-94536516D01*
X193643474Y-94433703D01*
X193680452Y-94342215D01*
X193711173Y-94265201D01*
X193734378Y-94205815D01*
X193748810Y-94167209D01*
X193753257Y-94152800D01*
X193742104Y-94136272D01*
X193712931Y-94109930D01*
X193674029Y-94080887D01*
X193563243Y-93989039D01*
X193476649Y-93883759D01*
X193415284Y-93767266D01*
X193380185Y-93641776D01*
X193372392Y-93509507D01*
X193378057Y-93448457D01*
X193408922Y-93321795D01*
X193462080Y-93209941D01*
X193534233Y-93114001D01*
X193622083Y-93035076D01*
X193722335Y-92974270D01*
X193831690Y-92932687D01*
X193946853Y-92911428D01*
X194064525Y-92911599D01*
X194181410Y-92934301D01*
X194294211Y-92980638D01*
X194399631Y-93051713D01*
X194443632Y-93091911D01*
X194528021Y-93195129D01*
X194586778Y-93307925D01*
X194620296Y-93427010D01*
X194628965Y-93549095D01*
X194613177Y-93670893D01*
X194573322Y-93789116D01*
X194509793Y-93900475D01*
X194422979Y-94001684D01*
X194325971Y-94080887D01*
X194285563Y-94111162D01*
X194257018Y-94137219D01*
X194246743Y-94152825D01*
X194252123Y-94169843D01*
X194267425Y-94210500D01*
X194291388Y-94271642D01*
X194322756Y-94350119D01*
X194360268Y-94442780D01*
X194402667Y-94546472D01*
X194444337Y-94647526D01*
X194490310Y-94758607D01*
X194532893Y-94861541D01*
X194570779Y-94953165D01*
X194602660Y-95030316D01*
X194627229Y-95089831D01*
X194643180Y-95128544D01*
X194649090Y-95143000D01*
X194663052Y-95157685D01*
X194690060Y-95157642D01*
X194733587Y-95142099D01*
X194797110Y-95110284D01*
X194797612Y-95110013D01*
X194845440Y-95085323D01*
X194884103Y-95067338D01*
X194905905Y-95059614D01*
X194906867Y-95059543D01*
X194923279Y-95067378D01*
X194959513Y-95089165D01*
X195011526Y-95122328D01*
X195075275Y-95164291D01*
X195145940Y-95211943D01*
X195217884Y-95260191D01*
X195282726Y-95302151D01*
X195336265Y-95335227D01*
X195374303Y-95356821D01*
X195392467Y-95364343D01*
X195409192Y-95354457D01*
X195442820Y-95326826D01*
X195489990Y-95284495D01*
X195547342Y-95230505D01*
X195611516Y-95167899D01*
X195632503Y-95146983D01*
X195849501Y-94929623D01*
X195684332Y-94687220D01*
X195634136Y-94612781D01*
X195590081Y-94545972D01*
X195554638Y-94490665D01*
X195530281Y-94450729D01*
X195519478Y-94430036D01*
X195519162Y-94428563D01*
X195524857Y-94409058D01*
X195540174Y-94369822D01*
X195562463Y-94317430D01*
X195578107Y-94282355D01*
X195607359Y-94215201D01*
X195634906Y-94147358D01*
X195656263Y-94090034D01*
X195662065Y-94072572D01*
X195678548Y-94025938D01*
X195694660Y-93989905D01*
X195703510Y-93976287D01*
X195723040Y-93967952D01*
X195765666Y-93956137D01*
X195825855Y-93942181D01*
X195898078Y-93927422D01*
X195930400Y-93921355D01*
X196012478Y-93906273D01*
X196091205Y-93891669D01*
X196158891Y-93878980D01*
X196207840Y-93869642D01*
X196217057Y-93867839D01*
X196293257Y-93852799D01*
X196293257Y-93535492D01*
X196293086Y-93431154D01*
X196292384Y-93352213D01*
X196290866Y-93295038D01*
X196288251Y-93255999D01*
X196284254Y-93231465D01*
X196278591Y-93217805D01*
X196270980Y-93211389D01*
X196267857Y-93210199D01*
X196249022Y-93205980D01*
X196207412Y-93197562D01*
X196148370Y-93185961D01*
X196077243Y-93172195D01*
X195999375Y-93157280D01*
X195920113Y-93142232D01*
X195844802Y-93128069D01*
X195778787Y-93115806D01*
X195727413Y-93106461D01*
X195696025Y-93101050D01*
X195689041Y-93100114D01*
X195682715Y-93087596D01*
X195668710Y-93054246D01*
X195649645Y-93006377D01*
X195642366Y-92987629D01*
X195613004Y-92915195D01*
X195578429Y-92835170D01*
X195547463Y-92767728D01*
X195524677Y-92716159D01*
X195509518Y-92673785D01*
X195504458Y-92647834D01*
X195505264Y-92644356D01*
X195515959Y-92627936D01*
X195540380Y-92591417D01*
X195575905Y-92538687D01*
X195619913Y-92473635D01*
X195669783Y-92400151D01*
X195679644Y-92385645D01*
X195737508Y-92299704D01*
X195780044Y-92234261D01*
X195808946Y-92186304D01*
X195825910Y-92152820D01*
X195832633Y-92130795D01*
X195830810Y-92117217D01*
X195830764Y-92117131D01*
X195816414Y-92099297D01*
X195784677Y-92064817D01*
X195738990Y-92017268D01*
X195682796Y-91960222D01*
X195619532Y-91897255D01*
X195612398Y-91890227D01*
X195532670Y-91813020D01*
X195471143Y-91756330D01*
X195426579Y-91719110D01*
X195397743Y-91700315D01*
X195385042Y-91697889D01*
X195366506Y-91708471D01*
X195328039Y-91732916D01*
X195273614Y-91768612D01*
X195207202Y-91812947D01*
X195132775Y-91863311D01*
X195115399Y-91875160D01*
X194868703Y-92043626D01*
X194757294Y-91993062D01*
X194689543Y-91963595D01*
X194616817Y-91933959D01*
X194554297Y-91910330D01*
X194551543Y-91909358D01*
X194502640Y-91891457D01*
X194464943Y-91876320D01*
X194446575Y-91867210D01*
X194446544Y-91867184D01*
X194440715Y-91850717D01*
X194430808Y-91810219D01*
X194417805Y-91750242D01*
X194402691Y-91675340D01*
X194386448Y-91590064D01*
X194385119Y-91582875D01*
X194368825Y-91495014D01*
X194353867Y-91415260D01*
X194341209Y-91348681D01*
X194331814Y-91300347D01*
X194326646Y-91275325D01*
X194326556Y-91274943D01*
X194323411Y-91264299D01*
X194317296Y-91256262D01*
X194304547Y-91250467D01*
X194281500Y-91246547D01*
X194244491Y-91244135D01*
X194189856Y-91242865D01*
X194113933Y-91242371D01*
X194013056Y-91242286D01*
X194000000Y-91242286D01*
X193896090Y-91242348D01*
G37*
X193896090Y-91242348D02*
X193817546Y-91242778D01*
X193760702Y-91243942D01*
X193721895Y-91246207D01*
X193697462Y-91249940D01*
X193683738Y-91255506D01*
X193677060Y-91263273D01*
X193673764Y-91273605D01*
X193673444Y-91274943D01*
X193668438Y-91299079D01*
X193659171Y-91346701D01*
X193646608Y-91412741D01*
X193631713Y-91492128D01*
X193615449Y-91579796D01*
X193614881Y-91582875D01*
X193598590Y-91668789D01*
X193583348Y-91744696D01*
X193570139Y-91806045D01*
X193559946Y-91848282D01*
X193553752Y-91866855D01*
X193553457Y-91867184D01*
X193535212Y-91876253D01*
X193497595Y-91891367D01*
X193448729Y-91909262D01*
X193448457Y-91909358D01*
X193386907Y-91932493D01*
X193314343Y-91961965D01*
X193245943Y-91991597D01*
X193242706Y-91993062D01*
X193131298Y-92043626D01*
X192884601Y-91875160D01*
X192808923Y-91823803D01*
X192740369Y-91777889D01*
X192682912Y-91740030D01*
X192640524Y-91712837D01*
X192617175Y-91698921D01*
X192614958Y-91697889D01*
X192597990Y-91702484D01*
X192566299Y-91724655D01*
X192518648Y-91765447D01*
X192453802Y-91825905D01*
X192387603Y-91890227D01*
X192323786Y-91953612D01*
X192266671Y-92011451D01*
X192219695Y-92060175D01*
X192186297Y-92096210D01*
X192169915Y-92115984D01*
X192169306Y-92117002D01*
X192167495Y-92130572D01*
X192174317Y-92152733D01*
X192191460Y-92186478D01*
X192220607Y-92234800D01*
X192263445Y-92300692D01*
X192320552Y-92385517D01*
X192371234Y-92460177D01*
X192416539Y-92527140D01*
X192453850Y-92582516D01*
X192480548Y-92622420D01*
X192494015Y-92642962D01*
X192494863Y-92644356D01*
X192493219Y-92664038D01*
X192480755Y-92702293D01*
X192459952Y-92751889D01*
X192452538Y-92767728D01*
X192420186Y-92838290D01*
X192385672Y-92918353D01*
X192357635Y-92987629D01*
X192337432Y-93039045D01*
X192321385Y-93078119D01*
X192312112Y-93098541D01*
X192310959Y-93100114D01*
X192293904Y-93102721D01*
X192253702Y-93109863D01*
X192195698Y-93120523D01*
X192125237Y-93133685D01*
X192047665Y-93148333D01*
X191968328Y-93163449D01*
X191892569Y-93178018D01*
X191825736Y-93191022D01*
X191773172Y-93201445D01*
X191740224Y-93208270D01*
X191732143Y-93210199D01*
X191723795Y-93214962D01*
X191717494Y-93225718D01*
X191712955Y-93246098D01*
X191709896Y-93279734D01*
X191708033Y-93330255D01*
X191707082Y-93401292D01*
X191706760Y-93496476D01*
X191706743Y-93535492D01*
X191706743Y-93852799D01*
X191782943Y-93867839D01*
X191825337Y-93875995D01*
X191888600Y-93887899D01*
X191965038Y-93902116D01*
X192046957Y-93917210D01*
X192069600Y-93921355D01*
X192145194Y-93936053D01*
X192211047Y-93950505D01*
X192261634Y-93963375D01*
X192291426Y-93973322D01*
X192296388Y-93976287D01*
X192308574Y-93997283D01*
X192326047Y-94037967D01*
X192345423Y-94090322D01*
X192349266Y-94101600D01*
X192374661Y-94171523D01*
X192406183Y-94250418D01*
X192437031Y-94321266D01*
X192437183Y-94321595D01*
X192488553Y-94432733D01*
X192319601Y-94681253D01*
X192150648Y-94929772D01*
X192367571Y-95147058D01*
X192433181Y-95211726D01*
X192493021Y-95268733D01*
X192543733Y-95315033D01*
X192581954Y-95347584D01*
X192604325Y-95363343D01*
X192607534Y-95364343D01*
X192626374Y-95356469D01*
X192664820Y-95334578D01*
X192718670Y-95301267D01*
X192783724Y-95259131D01*
X192854060Y-95211943D01*
X192925445Y-95163810D01*
X192989092Y-95121928D01*
X193040959Y-95088871D01*
X193077005Y-95067218D01*
X193093133Y-95059543D01*
X193112811Y-95066037D01*
X193150125Y-95083150D01*
X193197379Y-95107326D01*
X193202388Y-95110013D01*
X193266023Y-95141927D01*
X193309659Y-95157579D01*
X193336798Y-95157745D01*
X193350943Y-95143204D01*
X193351025Y-95143000D01*
X193358095Y-95125779D01*
X193374958Y-95084899D01*
X193400305Y-95023525D01*
X193432829Y-94944819D01*
X193471222Y-94851947D01*
X193514178Y-94748072D01*
X193555778Y-94647502D01*
X193601496Y-94536516D01*
X193643474Y-94433703D01*
X193680452Y-94342215D01*
X193711173Y-94265201D01*
X193734378Y-94205815D01*
X193748810Y-94167209D01*
X193753257Y-94152800D01*
X193742104Y-94136272D01*
X193712931Y-94109930D01*
X193674029Y-94080887D01*
X193563243Y-93989039D01*
X193476649Y-93883759D01*
X193415284Y-93767266D01*
X193380185Y-93641776D01*
X193372392Y-93509507D01*
X193378057Y-93448457D01*
X193408922Y-93321795D01*
X193462080Y-93209941D01*
X193534233Y-93114001D01*
X193622083Y-93035076D01*
X193722335Y-92974270D01*
X193831690Y-92932687D01*
X193946853Y-92911428D01*
X194064525Y-92911599D01*
X194181410Y-92934301D01*
X194294211Y-92980638D01*
X194399631Y-93051713D01*
X194443632Y-93091911D01*
X194528021Y-93195129D01*
X194586778Y-93307925D01*
X194620296Y-93427010D01*
X194628965Y-93549095D01*
X194613177Y-93670893D01*
X194573322Y-93789116D01*
X194509793Y-93900475D01*
X194422979Y-94001684D01*
X194325971Y-94080887D01*
X194285563Y-94111162D01*
X194257018Y-94137219D01*
X194246743Y-94152825D01*
X194252123Y-94169843D01*
X194267425Y-94210500D01*
X194291388Y-94271642D01*
X194322756Y-94350119D01*
X194360268Y-94442780D01*
X194402667Y-94546472D01*
X194444337Y-94647526D01*
X194490310Y-94758607D01*
X194532893Y-94861541D01*
X194570779Y-94953165D01*
X194602660Y-95030316D01*
X194627229Y-95089831D01*
X194643180Y-95128544D01*
X194649090Y-95143000D01*
X194663052Y-95157685D01*
X194690060Y-95157642D01*
X194733587Y-95142099D01*
X194797110Y-95110284D01*
X194797612Y-95110013D01*
X194845440Y-95085323D01*
X194884103Y-95067338D01*
X194905905Y-95059614D01*
X194906867Y-95059543D01*
X194923279Y-95067378D01*
X194959513Y-95089165D01*
X195011526Y-95122328D01*
X195075275Y-95164291D01*
X195145940Y-95211943D01*
X195217884Y-95260191D01*
X195282726Y-95302151D01*
X195336265Y-95335227D01*
X195374303Y-95356821D01*
X195392467Y-95364343D01*
X195409192Y-95354457D01*
X195442820Y-95326826D01*
X195489990Y-95284495D01*
X195547342Y-95230505D01*
X195611516Y-95167899D01*
X195632503Y-95146983D01*
X195849501Y-94929623D01*
X195684332Y-94687220D01*
X195634136Y-94612781D01*
X195590081Y-94545972D01*
X195554638Y-94490665D01*
X195530281Y-94450729D01*
X195519478Y-94430036D01*
X195519162Y-94428563D01*
X195524857Y-94409058D01*
X195540174Y-94369822D01*
X195562463Y-94317430D01*
X195578107Y-94282355D01*
X195607359Y-94215201D01*
X195634906Y-94147358D01*
X195656263Y-94090034D01*
X195662065Y-94072572D01*
X195678548Y-94025938D01*
X195694660Y-93989905D01*
X195703510Y-93976287D01*
X195723040Y-93967952D01*
X195765666Y-93956137D01*
X195825855Y-93942181D01*
X195898078Y-93927422D01*
X195930400Y-93921355D01*
X196012478Y-93906273D01*
X196091205Y-93891669D01*
X196158891Y-93878980D01*
X196207840Y-93869642D01*
X196217057Y-93867839D01*
X196293257Y-93852799D01*
X196293257Y-93535492D01*
X196293086Y-93431154D01*
X196292384Y-93352213D01*
X196290866Y-93295038D01*
X196288251Y-93255999D01*
X196284254Y-93231465D01*
X196278591Y-93217805D01*
X196270980Y-93211389D01*
X196267857Y-93210199D01*
X196249022Y-93205980D01*
X196207412Y-93197562D01*
X196148370Y-93185961D01*
X196077243Y-93172195D01*
X195999375Y-93157280D01*
X195920113Y-93142232D01*
X195844802Y-93128069D01*
X195778787Y-93115806D01*
X195727413Y-93106461D01*
X195696025Y-93101050D01*
X195689041Y-93100114D01*
X195682715Y-93087596D01*
X195668710Y-93054246D01*
X195649645Y-93006377D01*
X195642366Y-92987629D01*
X195613004Y-92915195D01*
X195578429Y-92835170D01*
X195547463Y-92767728D01*
X195524677Y-92716159D01*
X195509518Y-92673785D01*
X195504458Y-92647834D01*
X195505264Y-92644356D01*
X195515959Y-92627936D01*
X195540380Y-92591417D01*
X195575905Y-92538687D01*
X195619913Y-92473635D01*
X195669783Y-92400151D01*
X195679644Y-92385645D01*
X195737508Y-92299704D01*
X195780044Y-92234261D01*
X195808946Y-92186304D01*
X195825910Y-92152820D01*
X195832633Y-92130795D01*
X195830810Y-92117217D01*
X195830764Y-92117131D01*
X195816414Y-92099297D01*
X195784677Y-92064817D01*
X195738990Y-92017268D01*
X195682796Y-91960222D01*
X195619532Y-91897255D01*
X195612398Y-91890227D01*
X195532670Y-91813020D01*
X195471143Y-91756330D01*
X195426579Y-91719110D01*
X195397743Y-91700315D01*
X195385042Y-91697889D01*
X195366506Y-91708471D01*
X195328039Y-91732916D01*
X195273614Y-91768612D01*
X195207202Y-91812947D01*
X195132775Y-91863311D01*
X195115399Y-91875160D01*
X194868703Y-92043626D01*
X194757294Y-91993062D01*
X194689543Y-91963595D01*
X194616817Y-91933959D01*
X194554297Y-91910330D01*
X194551543Y-91909358D01*
X194502640Y-91891457D01*
X194464943Y-91876320D01*
X194446575Y-91867210D01*
X194446544Y-91867184D01*
X194440715Y-91850717D01*
X194430808Y-91810219D01*
X194417805Y-91750242D01*
X194402691Y-91675340D01*
X194386448Y-91590064D01*
X194385119Y-91582875D01*
X194368825Y-91495014D01*
X194353867Y-91415260D01*
X194341209Y-91348681D01*
X194331814Y-91300347D01*
X194326646Y-91275325D01*
X194326556Y-91274943D01*
X194323411Y-91264299D01*
X194317296Y-91256262D01*
X194304547Y-91250467D01*
X194281500Y-91246547D01*
X194244491Y-91244135D01*
X194189856Y-91242865D01*
X194113933Y-91242371D01*
X194013056Y-91242286D01*
X194000000Y-91242286D01*
X193896090Y-91242348D01*
G36*
X190846405Y-95966966D02*
G01*
X190788979Y-96004497D01*
X190761281Y-96038096D01*
X190739338Y-96099064D01*
X190737595Y-96147308D01*
X190741543Y-96211816D01*
X190890314Y-96276934D01*
X190962651Y-96310202D01*
X191009916Y-96336964D01*
X191034493Y-96360144D01*
X191038763Y-96382667D01*
X191025111Y-96407455D01*
X191010057Y-96423886D01*
X190966254Y-96450235D01*
X190918611Y-96452081D01*
X190874855Y-96431546D01*
X190842711Y-96390752D01*
X190836962Y-96376347D01*
X190809424Y-96331356D01*
X190777742Y-96312182D01*
X190734286Y-96295779D01*
X190734286Y-96357966D01*
X190738128Y-96400283D01*
X190753177Y-96435969D01*
X190784720Y-96476943D01*
X190789408Y-96482267D01*
X190824494Y-96518720D01*
X190854653Y-96538283D01*
X190892385Y-96547283D01*
X190923665Y-96550230D01*
X190979615Y-96550965D01*
X191019445Y-96541660D01*
X191044292Y-96527846D01*
X191083344Y-96497467D01*
X191110375Y-96464613D01*
X191127483Y-96423294D01*
X191136762Y-96367521D01*
X191140307Y-96291305D01*
X191140590Y-96252622D01*
X191139628Y-96206247D01*
X191051993Y-96206247D01*
X191050977Y-96231126D01*
X191048444Y-96235200D01*
X191031726Y-96229665D01*
X190995751Y-96215017D01*
X190947669Y-96194190D01*
X190937614Y-96189714D01*
X190876848Y-96158814D01*
X190843368Y-96131657D01*
X190836010Y-96106220D01*
X190853609Y-96080481D01*
X190868144Y-96069109D01*
X190920590Y-96046364D01*
X190969678Y-96050122D01*
X191010773Y-96077884D01*
X191039242Y-96127152D01*
X191048369Y-96166257D01*
X191051993Y-96206247D01*
X191139628Y-96206247D01*
X191138715Y-96162249D01*
X191131804Y-96095384D01*
X191118116Y-96046695D01*
X191095904Y-96010849D01*
X191063426Y-95982513D01*
X191049267Y-95973355D01*
X190984947Y-95949507D01*
X190914527Y-95948006D01*
X190846405Y-95966966D01*
G37*
X190846405Y-95966966D02*
X190788979Y-96004497D01*
X190761281Y-96038096D01*
X190739338Y-96099064D01*
X190737595Y-96147308D01*
X190741543Y-96211816D01*
X190890314Y-96276934D01*
X190962651Y-96310202D01*
X191009916Y-96336964D01*
X191034493Y-96360144D01*
X191038763Y-96382667D01*
X191025111Y-96407455D01*
X191010057Y-96423886D01*
X190966254Y-96450235D01*
X190918611Y-96452081D01*
X190874855Y-96431546D01*
X190842711Y-96390752D01*
X190836962Y-96376347D01*
X190809424Y-96331356D01*
X190777742Y-96312182D01*
X190734286Y-96295779D01*
X190734286Y-96357966D01*
X190738128Y-96400283D01*
X190753177Y-96435969D01*
X190784720Y-96476943D01*
X190789408Y-96482267D01*
X190824494Y-96518720D01*
X190854653Y-96538283D01*
X190892385Y-96547283D01*
X190923665Y-96550230D01*
X190979615Y-96550965D01*
X191019445Y-96541660D01*
X191044292Y-96527846D01*
X191083344Y-96497467D01*
X191110375Y-96464613D01*
X191127483Y-96423294D01*
X191136762Y-96367521D01*
X191140307Y-96291305D01*
X191140590Y-96252622D01*
X191139628Y-96206247D01*
X191051993Y-96206247D01*
X191050977Y-96231126D01*
X191048444Y-96235200D01*
X191031726Y-96229665D01*
X190995751Y-96215017D01*
X190947669Y-96194190D01*
X190937614Y-96189714D01*
X190876848Y-96158814D01*
X190843368Y-96131657D01*
X190836010Y-96106220D01*
X190853609Y-96080481D01*
X190868144Y-96069109D01*
X190920590Y-96046364D01*
X190969678Y-96050122D01*
X191010773Y-96077884D01*
X191039242Y-96127152D01*
X191048369Y-96166257D01*
X191051993Y-96206247D01*
X191139628Y-96206247D01*
X191138715Y-96162249D01*
X191131804Y-96095384D01*
X191118116Y-96046695D01*
X191095904Y-96010849D01*
X191063426Y-95982513D01*
X191049267Y-95973355D01*
X190984947Y-95949507D01*
X190914527Y-95948006D01*
X190846405Y-95966966D01*
G36*
X191347400Y-95958752D02*
G01*
X191330052Y-95966334D01*
X191288644Y-95999128D01*
X191253235Y-96046547D01*
X191231336Y-96097151D01*
X191227771Y-96122098D01*
X191239721Y-96156927D01*
X191265933Y-96175357D01*
X191294036Y-96186516D01*
X191306905Y-96188572D01*
X191313171Y-96173649D01*
X191325544Y-96141175D01*
X191330972Y-96126502D01*
X191361410Y-96075744D01*
X191405480Y-96050427D01*
X191461990Y-96051206D01*
X191466175Y-96052203D01*
X191496345Y-96066507D01*
X191518524Y-96094393D01*
X191533673Y-96139287D01*
X191542750Y-96204615D01*
X191546714Y-96293804D01*
X191547086Y-96341261D01*
X191547270Y-96416071D01*
X191548478Y-96467069D01*
X191551691Y-96499471D01*
X191557891Y-96518495D01*
X191568060Y-96529356D01*
X191583181Y-96537272D01*
X191584054Y-96537670D01*
X191613172Y-96549981D01*
X191627597Y-96554514D01*
X191629814Y-96540809D01*
X191631711Y-96502925D01*
X191633153Y-96445715D01*
X191634002Y-96374027D01*
X191634171Y-96321565D01*
X191633308Y-96220047D01*
X191629930Y-96143032D01*
X191622858Y-96086023D01*
X191610912Y-96044526D01*
X191592910Y-96014043D01*
X191567673Y-95990080D01*
X191542753Y-95973355D01*
X191482829Y-95951097D01*
X191413089Y-95946076D01*
X191347400Y-95958752D01*
G37*
X191347400Y-95958752D02*
X191330052Y-95966334D01*
X191288644Y-95999128D01*
X191253235Y-96046547D01*
X191231336Y-96097151D01*
X191227771Y-96122098D01*
X191239721Y-96156927D01*
X191265933Y-96175357D01*
X191294036Y-96186516D01*
X191306905Y-96188572D01*
X191313171Y-96173649D01*
X191325544Y-96141175D01*
X191330972Y-96126502D01*
X191361410Y-96075744D01*
X191405480Y-96050427D01*
X191461990Y-96051206D01*
X191466175Y-96052203D01*
X191496345Y-96066507D01*
X191518524Y-96094393D01*
X191533673Y-96139287D01*
X191542750Y-96204615D01*
X191546714Y-96293804D01*
X191547086Y-96341261D01*
X191547270Y-96416071D01*
X191548478Y-96467069D01*
X191551691Y-96499471D01*
X191557891Y-96518495D01*
X191568060Y-96529356D01*
X191583181Y-96537272D01*
X191584054Y-96537670D01*
X191613172Y-96549981D01*
X191627597Y-96554514D01*
X191629814Y-96540809D01*
X191631711Y-96502925D01*
X191633153Y-96445715D01*
X191634002Y-96374027D01*
X191634171Y-96321565D01*
X191633308Y-96220047D01*
X191629930Y-96143032D01*
X191622858Y-96086023D01*
X191610912Y-96044526D01*
X191592910Y-96014043D01*
X191567673Y-95990080D01*
X191542753Y-95973355D01*
X191482829Y-95951097D01*
X191413089Y-95946076D01*
X191347400Y-95958752D01*
G36*
X191855124Y-95956335D02*
G01*
X191813333Y-95975344D01*
X191780531Y-95998378D01*
X191756497Y-96024133D01*
X191739903Y-96057358D01*
X191729423Y-96102800D01*
X191723729Y-96165207D01*
X191721493Y-96249327D01*
X191721257Y-96304721D01*
X191721257Y-96520826D01*
X191758226Y-96537670D01*
X191787344Y-96549981D01*
X191801769Y-96554514D01*
X191804528Y-96541025D01*
X191806718Y-96504653D01*
X191808058Y-96451542D01*
X191808343Y-96409372D01*
X191809566Y-96348447D01*
X191812864Y-96300115D01*
X191817679Y-96270518D01*
X191821504Y-96264229D01*
X191847217Y-96270652D01*
X191887582Y-96287125D01*
X191934321Y-96309458D01*
X191979155Y-96333457D01*
X192013807Y-96354930D01*
X192029998Y-96369685D01*
X192030062Y-96369845D01*
X192028670Y-96397152D01*
X192016182Y-96423219D01*
X191994257Y-96444392D01*
X191962257Y-96451474D01*
X191934908Y-96450649D01*
X191896174Y-96450042D01*
X191875842Y-96459116D01*
X191863631Y-96483092D01*
X191862091Y-96487613D01*
X191856797Y-96521806D01*
X191870953Y-96542568D01*
X191907852Y-96552462D01*
X191947711Y-96554292D01*
X192019438Y-96540727D01*
X192056568Y-96521355D01*
X192102424Y-96475845D01*
X192126744Y-96419983D01*
X192128927Y-96360957D01*
X192108371Y-96305953D01*
X192077451Y-96271486D01*
X192046580Y-96252189D01*
X191998058Y-96227759D01*
X191941515Y-96202985D01*
X191932090Y-96199199D01*
X191869981Y-96171791D01*
X191834178Y-96147634D01*
X191822663Y-96123619D01*
X191833420Y-96096635D01*
X191851886Y-96075543D01*
X191895531Y-96049572D01*
X191943554Y-96047624D01*
X191987594Y-96067637D01*
X192019291Y-96107551D01*
X192023451Y-96117848D01*
X192047673Y-96155724D01*
X192083035Y-96183842D01*
X192127657Y-96206917D01*
X192127657Y-96141485D01*
X192125031Y-96101506D01*
X192113770Y-96069997D01*
X192088801Y-96036378D01*
X192064831Y-96010484D01*
X192027559Y-95973817D01*
X191998599Y-95954121D01*
X191967495Y-95946220D01*
X191932287Y-95944914D01*
X191855124Y-95956335D01*
G37*
X191855124Y-95956335D02*
X191813333Y-95975344D01*
X191780531Y-95998378D01*
X191756497Y-96024133D01*
X191739903Y-96057358D01*
X191729423Y-96102800D01*
X191723729Y-96165207D01*
X191721493Y-96249327D01*
X191721257Y-96304721D01*
X191721257Y-96520826D01*
X191758226Y-96537670D01*
X191787344Y-96549981D01*
X191801769Y-96554514D01*
X191804528Y-96541025D01*
X191806718Y-96504653D01*
X191808058Y-96451542D01*
X191808343Y-96409372D01*
X191809566Y-96348447D01*
X191812864Y-96300115D01*
X191817679Y-96270518D01*
X191821504Y-96264229D01*
X191847217Y-96270652D01*
X191887582Y-96287125D01*
X191934321Y-96309458D01*
X191979155Y-96333457D01*
X192013807Y-96354930D01*
X192029998Y-96369685D01*
X192030062Y-96369845D01*
X192028670Y-96397152D01*
X192016182Y-96423219D01*
X191994257Y-96444392D01*
X191962257Y-96451474D01*
X191934908Y-96450649D01*
X191896174Y-96450042D01*
X191875842Y-96459116D01*
X191863631Y-96483092D01*
X191862091Y-96487613D01*
X191856797Y-96521806D01*
X191870953Y-96542568D01*
X191907852Y-96552462D01*
X191947711Y-96554292D01*
X192019438Y-96540727D01*
X192056568Y-96521355D01*
X192102424Y-96475845D01*
X192126744Y-96419983D01*
X192128927Y-96360957D01*
X192108371Y-96305953D01*
X192077451Y-96271486D01*
X192046580Y-96252189D01*
X191998058Y-96227759D01*
X191941515Y-96202985D01*
X191932090Y-96199199D01*
X191869981Y-96171791D01*
X191834178Y-96147634D01*
X191822663Y-96123619D01*
X191833420Y-96096635D01*
X191851886Y-96075543D01*
X191895531Y-96049572D01*
X191943554Y-96047624D01*
X191987594Y-96067637D01*
X192019291Y-96107551D01*
X192023451Y-96117848D01*
X192047673Y-96155724D01*
X192083035Y-96183842D01*
X192127657Y-96206917D01*
X192127657Y-96141485D01*
X192125031Y-96101506D01*
X192113770Y-96069997D01*
X192088801Y-96036378D01*
X192064831Y-96010484D01*
X192027559Y-95973817D01*
X191998599Y-95954121D01*
X191967495Y-95946220D01*
X191932287Y-95944914D01*
X191855124Y-95956335D01*
G36*
X192220167Y-95958663D02*
G01*
X192217952Y-95996850D01*
X192216216Y-96054886D01*
X192215101Y-96128180D01*
X192214743Y-96205055D01*
X192214743Y-96465196D01*
X192260674Y-96511127D01*
X192292325Y-96539429D01*
X192320110Y-96550893D01*
X192358085Y-96550168D01*
X192373160Y-96548321D01*
X192420274Y-96542948D01*
X192459244Y-96539869D01*
X192468743Y-96539585D01*
X192500767Y-96541445D01*
X192546568Y-96546114D01*
X192564326Y-96548321D01*
X192607943Y-96551735D01*
X192637255Y-96544320D01*
X192666320Y-96521427D01*
X192676812Y-96511127D01*
X192722743Y-96465196D01*
X192722743Y-95978602D01*
X192685774Y-95961758D01*
X192653941Y-95949282D01*
X192635317Y-95944914D01*
X192630542Y-95958718D01*
X192626079Y-95997286D01*
X192622225Y-96056356D01*
X192619278Y-96131663D01*
X192617857Y-96195286D01*
X192613886Y-96445657D01*
X192579241Y-96450556D01*
X192547732Y-96447131D01*
X192532292Y-96436041D01*
X192527977Y-96415308D01*
X192524292Y-96371145D01*
X192521531Y-96309146D01*
X192519988Y-96234909D01*
X192519765Y-96196706D01*
X192519543Y-95976783D01*
X192473834Y-95960849D01*
X192441482Y-95950015D01*
X192423885Y-95944962D01*
X192423377Y-95944914D01*
X192421612Y-95958648D01*
X192419671Y-95996730D01*
X192417718Y-96054482D01*
X192415916Y-96127227D01*
X192414657Y-96195286D01*
X192410686Y-96445657D01*
X192323600Y-96445657D01*
X192319604Y-96217240D01*
X192315608Y-95988822D01*
X192273153Y-95966868D01*
X192241808Y-95951793D01*
X192223256Y-95944951D01*
X192222721Y-95944914D01*
X192220167Y-95958663D01*
G37*
X192220167Y-95958663D02*
X192217952Y-95996850D01*
X192216216Y-96054886D01*
X192215101Y-96128180D01*
X192214743Y-96205055D01*
X192214743Y-96465196D01*
X192260674Y-96511127D01*
X192292325Y-96539429D01*
X192320110Y-96550893D01*
X192358085Y-96550168D01*
X192373160Y-96548321D01*
X192420274Y-96542948D01*
X192459244Y-96539869D01*
X192468743Y-96539585D01*
X192500767Y-96541445D01*
X192546568Y-96546114D01*
X192564326Y-96548321D01*
X192607943Y-96551735D01*
X192637255Y-96544320D01*
X192666320Y-96521427D01*
X192676812Y-96511127D01*
X192722743Y-96465196D01*
X192722743Y-95978602D01*
X192685774Y-95961758D01*
X192653941Y-95949282D01*
X192635317Y-95944914D01*
X192630542Y-95958718D01*
X192626079Y-95997286D01*
X192622225Y-96056356D01*
X192619278Y-96131663D01*
X192617857Y-96195286D01*
X192613886Y-96445657D01*
X192579241Y-96450556D01*
X192547732Y-96447131D01*
X192532292Y-96436041D01*
X192527977Y-96415308D01*
X192524292Y-96371145D01*
X192521531Y-96309146D01*
X192519988Y-96234909D01*
X192519765Y-96196706D01*
X192519543Y-95976783D01*
X192473834Y-95960849D01*
X192441482Y-95950015D01*
X192423885Y-95944962D01*
X192423377Y-95944914D01*
X192421612Y-95958648D01*
X192419671Y-95996730D01*
X192417718Y-96054482D01*
X192415916Y-96127227D01*
X192414657Y-96195286D01*
X192410686Y-96445657D01*
X192323600Y-96445657D01*
X192319604Y-96217240D01*
X192315608Y-95988822D01*
X192273153Y-95966868D01*
X192241808Y-95951793D01*
X192223256Y-95944951D01*
X192222721Y-95944914D01*
X192220167Y-95958663D01*
G36*
X192809883Y-96065358D02*
G01*
X192810067Y-96173837D01*
X192810781Y-96257287D01*
X192812325Y-96319704D01*
X192814999Y-96365085D01*
X192819106Y-96397429D01*
X192824945Y-96420733D01*
X192832818Y-96438995D01*
X192838779Y-96449418D01*
X192888145Y-96505945D01*
X192950736Y-96541377D01*
X193019987Y-96554090D01*
X193089332Y-96542463D01*
X193130625Y-96521568D01*
X193173975Y-96485422D01*
X193203519Y-96441276D01*
X193221345Y-96383462D01*
X193229537Y-96306313D01*
X193230698Y-96249714D01*
X193230542Y-96245647D01*
X193129143Y-96245647D01*
X193128524Y-96310550D01*
X193125686Y-96353514D01*
X193119160Y-96381622D01*
X193107477Y-96401953D01*
X193093517Y-96417288D01*
X193046635Y-96446890D01*
X192996299Y-96449419D01*
X192948724Y-96424705D01*
X192945021Y-96421356D01*
X192929217Y-96403935D01*
X192919307Y-96383209D01*
X192913942Y-96352362D01*
X192911772Y-96304577D01*
X192911429Y-96251748D01*
X192912173Y-96185381D01*
X192915252Y-96141106D01*
X192921939Y-96112009D01*
X192933504Y-96091173D01*
X192942987Y-96080107D01*
X192987040Y-96052198D01*
X193037776Y-96048843D01*
X193086204Y-96070159D01*
X193095550Y-96078073D01*
X193111460Y-96095647D01*
X193121390Y-96116587D01*
X193126722Y-96147782D01*
X193128837Y-96196122D01*
X193129143Y-96245647D01*
X193230542Y-96245647D01*
X193227190Y-96158568D01*
X193215274Y-96090086D01*
X193192865Y-96038600D01*
X193157876Y-95998443D01*
X193130625Y-95977861D01*
X193081093Y-95955625D01*
X193023684Y-95945304D01*
X192970318Y-95948067D01*
X192940457Y-95959212D01*
X192928739Y-95962383D01*
X192920963Y-95950557D01*
X192915535Y-95918866D01*
X192911429Y-95870593D01*
X192906933Y-95816829D01*
X192900687Y-95784482D01*
X192889324Y-95765985D01*
X192869472Y-95753770D01*
X192857000Y-95748362D01*
X192809829Y-95728601D01*
X192809883Y-96065358D01*
G37*
X192809883Y-96065358D02*
X192810067Y-96173837D01*
X192810781Y-96257287D01*
X192812325Y-96319704D01*
X192814999Y-96365085D01*
X192819106Y-96397429D01*
X192824945Y-96420733D01*
X192832818Y-96438995D01*
X192838779Y-96449418D01*
X192888145Y-96505945D01*
X192950736Y-96541377D01*
X193019987Y-96554090D01*
X193089332Y-96542463D01*
X193130625Y-96521568D01*
X193173975Y-96485422D01*
X193203519Y-96441276D01*
X193221345Y-96383462D01*
X193229537Y-96306313D01*
X193230698Y-96249714D01*
X193230542Y-96245647D01*
X193129143Y-96245647D01*
X193128524Y-96310550D01*
X193125686Y-96353514D01*
X193119160Y-96381622D01*
X193107477Y-96401953D01*
X193093517Y-96417288D01*
X193046635Y-96446890D01*
X192996299Y-96449419D01*
X192948724Y-96424705D01*
X192945021Y-96421356D01*
X192929217Y-96403935D01*
X192919307Y-96383209D01*
X192913942Y-96352362D01*
X192911772Y-96304577D01*
X192911429Y-96251748D01*
X192912173Y-96185381D01*
X192915252Y-96141106D01*
X192921939Y-96112009D01*
X192933504Y-96091173D01*
X192942987Y-96080107D01*
X192987040Y-96052198D01*
X193037776Y-96048843D01*
X193086204Y-96070159D01*
X193095550Y-96078073D01*
X193111460Y-96095647D01*
X193121390Y-96116587D01*
X193126722Y-96147782D01*
X193128837Y-96196122D01*
X193129143Y-96245647D01*
X193230542Y-96245647D01*
X193227190Y-96158568D01*
X193215274Y-96090086D01*
X193192865Y-96038600D01*
X193157876Y-95998443D01*
X193130625Y-95977861D01*
X193081093Y-95955625D01*
X193023684Y-95945304D01*
X192970318Y-95948067D01*
X192940457Y-95959212D01*
X192928739Y-95962383D01*
X192920963Y-95950557D01*
X192915535Y-95918866D01*
X192911429Y-95870593D01*
X192906933Y-95816829D01*
X192900687Y-95784482D01*
X192889324Y-95765985D01*
X192869472Y-95753770D01*
X192857000Y-95748362D01*
X192809829Y-95728601D01*
X192809883Y-96065358D01*
G36*
X193470074Y-95949755D02*
G01*
X193404142Y-95974084D01*
X193350727Y-96017117D01*
X193329836Y-96047409D01*
X193307061Y-96102994D01*
X193307534Y-96143186D01*
X193331438Y-96170217D01*
X193340283Y-96174813D01*
X193378470Y-96189144D01*
X193397972Y-96185472D01*
X193404578Y-96161407D01*
X193404914Y-96148114D01*
X193417008Y-96099210D01*
X193448529Y-96064999D01*
X193492341Y-96048476D01*
X193541305Y-96052634D01*
X193581106Y-96074227D01*
X193594550Y-96086544D01*
X193604079Y-96101487D01*
X193610515Y-96124075D01*
X193614683Y-96159328D01*
X193617403Y-96212266D01*
X193619498Y-96287907D01*
X193620040Y-96311857D01*
X193622019Y-96393790D01*
X193624269Y-96451455D01*
X193627643Y-96489608D01*
X193632994Y-96513004D01*
X193641176Y-96526398D01*
X193653041Y-96534545D01*
X193660638Y-96538144D01*
X193692898Y-96550452D01*
X193711889Y-96554514D01*
X193718164Y-96540948D01*
X193721994Y-96499934D01*
X193723400Y-96430999D01*
X193722402Y-96333669D01*
X193722092Y-96318657D01*
X193719899Y-96229859D01*
X193717307Y-96165019D01*
X193713618Y-96119067D01*
X193708136Y-96086935D01*
X193700165Y-96063553D01*
X193689007Y-96043852D01*
X193683170Y-96035410D01*
X193649704Y-95998057D01*
X193612273Y-95969003D01*
X193607691Y-95966467D01*
X193540574Y-95946443D01*
X193470074Y-95949755D01*
G37*
X193470074Y-95949755D02*
X193404142Y-95974084D01*
X193350727Y-96017117D01*
X193329836Y-96047409D01*
X193307061Y-96102994D01*
X193307534Y-96143186D01*
X193331438Y-96170217D01*
X193340283Y-96174813D01*
X193378470Y-96189144D01*
X193397972Y-96185472D01*
X193404578Y-96161407D01*
X193404914Y-96148114D01*
X193417008Y-96099210D01*
X193448529Y-96064999D01*
X193492341Y-96048476D01*
X193541305Y-96052634D01*
X193581106Y-96074227D01*
X193594550Y-96086544D01*
X193604079Y-96101487D01*
X193610515Y-96124075D01*
X193614683Y-96159328D01*
X193617403Y-96212266D01*
X193619498Y-96287907D01*
X193620040Y-96311857D01*
X193622019Y-96393790D01*
X193624269Y-96451455D01*
X193627643Y-96489608D01*
X193632994Y-96513004D01*
X193641176Y-96526398D01*
X193653041Y-96534545D01*
X193660638Y-96538144D01*
X193692898Y-96550452D01*
X193711889Y-96554514D01*
X193718164Y-96540948D01*
X193721994Y-96499934D01*
X193723400Y-96430999D01*
X193722402Y-96333669D01*
X193722092Y-96318657D01*
X193719899Y-96229859D01*
X193717307Y-96165019D01*
X193713618Y-96119067D01*
X193708136Y-96086935D01*
X193700165Y-96063553D01*
X193689007Y-96043852D01*
X193683170Y-96035410D01*
X193649704Y-95998057D01*
X193612273Y-95969003D01*
X193607691Y-95966467D01*
X193540574Y-95946443D01*
X193470074Y-95949755D01*
G36*
X193960256Y-95950968D02*
G01*
X193903384Y-95972087D01*
X193902733Y-95972493D01*
X193867560Y-95998380D01*
X193841593Y-96028633D01*
X193823330Y-96068058D01*
X193811268Y-96121462D01*
X193803904Y-96193651D01*
X193799736Y-96289432D01*
X193799371Y-96303078D01*
X193794124Y-96508842D01*
X193838284Y-96531678D01*
X193870237Y-96547110D01*
X193889530Y-96554423D01*
X193890422Y-96554514D01*
X193893761Y-96541022D01*
X193896413Y-96504626D01*
X193898044Y-96451452D01*
X193898400Y-96408393D01*
X193898408Y-96338641D01*
X193901597Y-96294837D01*
X193912712Y-96273944D01*
X193936499Y-96272925D01*
X193977704Y-96288741D01*
X194039914Y-96317815D01*
X194085659Y-96341963D01*
X194109187Y-96362913D01*
X194116104Y-96385747D01*
X194116114Y-96386877D01*
X194104701Y-96426212D01*
X194070908Y-96447462D01*
X194019191Y-96450539D01*
X193981939Y-96450006D01*
X193962297Y-96460735D01*
X193950048Y-96486505D01*
X193942998Y-96519337D01*
X193953158Y-96537966D01*
X193956983Y-96540632D01*
X193992999Y-96551340D01*
X194043434Y-96552856D01*
X194095374Y-96545759D01*
X194132178Y-96532788D01*
X194183062Y-96489585D01*
X194211986Y-96429446D01*
X194217714Y-96382462D01*
X194213343Y-96340082D01*
X194197525Y-96305488D01*
X194166203Y-96274763D01*
X194115322Y-96243990D01*
X194040824Y-96209252D01*
X194036286Y-96207288D01*
X193969179Y-96176287D01*
X193927768Y-96150862D01*
X193910019Y-96128014D01*
X193913893Y-96104745D01*
X193937357Y-96078056D01*
X193944373Y-96071914D01*
X193991370Y-96048100D01*
X194040067Y-96049103D01*
X194082478Y-96072451D01*
X194110616Y-96115675D01*
X194113231Y-96124160D01*
X194138692Y-96165308D01*
X194170999Y-96185128D01*
X194217714Y-96204770D01*
X194217714Y-96153950D01*
X194203504Y-96080082D01*
X194161325Y-96012327D01*
X194139376Y-95989661D01*
X194089483Y-95960569D01*
X194026033Y-95947400D01*
X193960256Y-95950968D01*
G37*
X193960256Y-95950968D02*
X193903384Y-95972087D01*
X193902733Y-95972493D01*
X193867560Y-95998380D01*
X193841593Y-96028633D01*
X193823330Y-96068058D01*
X193811268Y-96121462D01*
X193803904Y-96193651D01*
X193799736Y-96289432D01*
X193799371Y-96303078D01*
X193794124Y-96508842D01*
X193838284Y-96531678D01*
X193870237Y-96547110D01*
X193889530Y-96554423D01*
X193890422Y-96554514D01*
X193893761Y-96541022D01*
X193896413Y-96504626D01*
X193898044Y-96451452D01*
X193898400Y-96408393D01*
X193898408Y-96338641D01*
X193901597Y-96294837D01*
X193912712Y-96273944D01*
X193936499Y-96272925D01*
X193977704Y-96288741D01*
X194039914Y-96317815D01*
X194085659Y-96341963D01*
X194109187Y-96362913D01*
X194116104Y-96385747D01*
X194116114Y-96386877D01*
X194104701Y-96426212D01*
X194070908Y-96447462D01*
X194019191Y-96450539D01*
X193981939Y-96450006D01*
X193962297Y-96460735D01*
X193950048Y-96486505D01*
X193942998Y-96519337D01*
X193953158Y-96537966D01*
X193956983Y-96540632D01*
X193992999Y-96551340D01*
X194043434Y-96552856D01*
X194095374Y-96545759D01*
X194132178Y-96532788D01*
X194183062Y-96489585D01*
X194211986Y-96429446D01*
X194217714Y-96382462D01*
X194213343Y-96340082D01*
X194197525Y-96305488D01*
X194166203Y-96274763D01*
X194115322Y-96243990D01*
X194040824Y-96209252D01*
X194036286Y-96207288D01*
X193969179Y-96176287D01*
X193927768Y-96150862D01*
X193910019Y-96128014D01*
X193913893Y-96104745D01*
X193937357Y-96078056D01*
X193944373Y-96071914D01*
X193991370Y-96048100D01*
X194040067Y-96049103D01*
X194082478Y-96072451D01*
X194110616Y-96115675D01*
X194113231Y-96124160D01*
X194138692Y-96165308D01*
X194170999Y-96185128D01*
X194217714Y-96204770D01*
X194217714Y-96153950D01*
X194203504Y-96080082D01*
X194161325Y-96012327D01*
X194139376Y-95989661D01*
X194089483Y-95960569D01*
X194026033Y-95947400D01*
X193960256Y-95950968D01*
G36*
X194624114Y-95851289D02*
G01*
X194619861Y-95910613D01*
X194614975Y-95945572D01*
X194608205Y-95960820D01*
X194598298Y-95961015D01*
X194595086Y-95959195D01*
X194552356Y-95946015D01*
X194496773Y-95946785D01*
X194440263Y-95960333D01*
X194404918Y-95977861D01*
X194368679Y-96005861D01*
X194342187Y-96037549D01*
X194324001Y-96077813D01*
X194312678Y-96131543D01*
X194306778Y-96203626D01*
X194304857Y-96298951D01*
X194304823Y-96317237D01*
X194304800Y-96522646D01*
X194350509Y-96538580D01*
X194382973Y-96549420D01*
X194400785Y-96554468D01*
X194401309Y-96554514D01*
X194403063Y-96540828D01*
X194404556Y-96503076D01*
X194405674Y-96446224D01*
X194406303Y-96375234D01*
X194406400Y-96332073D01*
X194406602Y-96246973D01*
X194407642Y-96185981D01*
X194410169Y-96144177D01*
X194414836Y-96116642D01*
X194422293Y-96098456D01*
X194433189Y-96084698D01*
X194439993Y-96078073D01*
X194486728Y-96051375D01*
X194537728Y-96049375D01*
X194583999Y-96071955D01*
X194592556Y-96080107D01*
X194605107Y-96095436D01*
X194613812Y-96113618D01*
X194619369Y-96139909D01*
X194622474Y-96179562D01*
X194623824Y-96237832D01*
X194624114Y-96318173D01*
X194624114Y-96522646D01*
X194669823Y-96538580D01*
X194702287Y-96549420D01*
X194720099Y-96554468D01*
X194720623Y-96554514D01*
X194721963Y-96540623D01*
X194723172Y-96501439D01*
X194724199Y-96440700D01*
X194724998Y-96362141D01*
X194725519Y-96269498D01*
X194725714Y-96166509D01*
X194725714Y-95769342D01*
X194678543Y-95749444D01*
X194631371Y-95729547D01*
X194624114Y-95851289D01*
G37*
X194624114Y-95851289D02*
X194619861Y-95910613D01*
X194614975Y-95945572D01*
X194608205Y-95960820D01*
X194598298Y-95961015D01*
X194595086Y-95959195D01*
X194552356Y-95946015D01*
X194496773Y-95946785D01*
X194440263Y-95960333D01*
X194404918Y-95977861D01*
X194368679Y-96005861D01*
X194342187Y-96037549D01*
X194324001Y-96077813D01*
X194312678Y-96131543D01*
X194306778Y-96203626D01*
X194304857Y-96298951D01*
X194304823Y-96317237D01*
X194304800Y-96522646D01*
X194350509Y-96538580D01*
X194382973Y-96549420D01*
X194400785Y-96554468D01*
X194401309Y-96554514D01*
X194403063Y-96540828D01*
X194404556Y-96503076D01*
X194405674Y-96446224D01*
X194406303Y-96375234D01*
X194406400Y-96332073D01*
X194406602Y-96246973D01*
X194407642Y-96185981D01*
X194410169Y-96144177D01*
X194414836Y-96116642D01*
X194422293Y-96098456D01*
X194433189Y-96084698D01*
X194439993Y-96078073D01*
X194486728Y-96051375D01*
X194537728Y-96049375D01*
X194583999Y-96071955D01*
X194592556Y-96080107D01*
X194605107Y-96095436D01*
X194613812Y-96113618D01*
X194619369Y-96139909D01*
X194622474Y-96179562D01*
X194623824Y-96237832D01*
X194624114Y-96318173D01*
X194624114Y-96522646D01*
X194669823Y-96538580D01*
X194702287Y-96549420D01*
X194720099Y-96554468D01*
X194720623Y-96554514D01*
X194721963Y-96540623D01*
X194723172Y-96501439D01*
X194724199Y-96440700D01*
X194724998Y-96362141D01*
X194725519Y-96269498D01*
X194725714Y-96166509D01*
X194725714Y-95769342D01*
X194678543Y-95749444D01*
X194631371Y-95729547D01*
X194624114Y-95851289D01*
G36*
X195831697Y-95931239D02*
G01*
X195774473Y-95969735D01*
X195730251Y-96025335D01*
X195703833Y-96096086D01*
X195698490Y-96148162D01*
X195699097Y-96169893D01*
X195704178Y-96186531D01*
X195718145Y-96201437D01*
X195745411Y-96217973D01*
X195790388Y-96239498D01*
X195857489Y-96269374D01*
X195857829Y-96269524D01*
X195919593Y-96297813D01*
X195970241Y-96322933D01*
X196004596Y-96342179D01*
X196017482Y-96352848D01*
X196017486Y-96352934D01*
X196006128Y-96376166D01*
X195979569Y-96401774D01*
X195949077Y-96420221D01*
X195933630Y-96423886D01*
X195891485Y-96411212D01*
X195855192Y-96379471D01*
X195837483Y-96344572D01*
X195820448Y-96318845D01*
X195787078Y-96289546D01*
X195747851Y-96264235D01*
X195713244Y-96250471D01*
X195706007Y-96249714D01*
X195697861Y-96262160D01*
X195697370Y-96293972D01*
X195703357Y-96336866D01*
X195714643Y-96382558D01*
X195730050Y-96422761D01*
X195730829Y-96424322D01*
X195777196Y-96489062D01*
X195837289Y-96533097D01*
X195905535Y-96554711D01*
X195976362Y-96552185D01*
X196044196Y-96523804D01*
X196047212Y-96521808D01*
X196100573Y-96473448D01*
X196135660Y-96410352D01*
X196155078Y-96327387D01*
X196157684Y-96304078D01*
X196162299Y-96194055D01*
X196156767Y-96142748D01*
X196017486Y-96142748D01*
X196015676Y-96174753D01*
X196005778Y-96184093D01*
X195981102Y-96177105D01*
X195942205Y-96160587D01*
X195898725Y-96139881D01*
X195897644Y-96139333D01*
X195860791Y-96119949D01*
X195846000Y-96107013D01*
X195849647Y-96093451D01*
X195865005Y-96075632D01*
X195904077Y-96049845D01*
X195946154Y-96047950D01*
X195983897Y-96066717D01*
X196009966Y-96102915D01*
X196017486Y-96142748D01*
X196156767Y-96142748D01*
X196152806Y-96106027D01*
X196128450Y-96036212D01*
X196094544Y-95987302D01*
X196033347Y-95937878D01*
X195965937Y-95913359D01*
X195897120Y-95911797D01*
X195831697Y-95931239D01*
G37*
X195831697Y-95931239D02*
X195774473Y-95969735D01*
X195730251Y-96025335D01*
X195703833Y-96096086D01*
X195698490Y-96148162D01*
X195699097Y-96169893D01*
X195704178Y-96186531D01*
X195718145Y-96201437D01*
X195745411Y-96217973D01*
X195790388Y-96239498D01*
X195857489Y-96269374D01*
X195857829Y-96269524D01*
X195919593Y-96297813D01*
X195970241Y-96322933D01*
X196004596Y-96342179D01*
X196017482Y-96352848D01*
X196017486Y-96352934D01*
X196006128Y-96376166D01*
X195979569Y-96401774D01*
X195949077Y-96420221D01*
X195933630Y-96423886D01*
X195891485Y-96411212D01*
X195855192Y-96379471D01*
X195837483Y-96344572D01*
X195820448Y-96318845D01*
X195787078Y-96289546D01*
X195747851Y-96264235D01*
X195713244Y-96250471D01*
X195706007Y-96249714D01*
X195697861Y-96262160D01*
X195697370Y-96293972D01*
X195703357Y-96336866D01*
X195714643Y-96382558D01*
X195730050Y-96422761D01*
X195730829Y-96424322D01*
X195777196Y-96489062D01*
X195837289Y-96533097D01*
X195905535Y-96554711D01*
X195976362Y-96552185D01*
X196044196Y-96523804D01*
X196047212Y-96521808D01*
X196100573Y-96473448D01*
X196135660Y-96410352D01*
X196155078Y-96327387D01*
X196157684Y-96304078D01*
X196162299Y-96194055D01*
X196156767Y-96142748D01*
X196017486Y-96142748D01*
X196015676Y-96174753D01*
X196005778Y-96184093D01*
X195981102Y-96177105D01*
X195942205Y-96160587D01*
X195898725Y-96139881D01*
X195897644Y-96139333D01*
X195860791Y-96119949D01*
X195846000Y-96107013D01*
X195849647Y-96093451D01*
X195865005Y-96075632D01*
X195904077Y-96049845D01*
X195946154Y-96047950D01*
X195983897Y-96066717D01*
X196009966Y-96102915D01*
X196017486Y-96142748D01*
X196156767Y-96142748D01*
X196152806Y-96106027D01*
X196128450Y-96036212D01*
X196094544Y-95987302D01*
X196033347Y-95937878D01*
X195965937Y-95913359D01*
X195897120Y-95911797D01*
X195831697Y-95931239D01*
G36*
X196958885Y-95921962D02*
G01*
X196890855Y-95957733D01*
X196840649Y-96015301D01*
X196822815Y-96052312D01*
X196808937Y-96107882D01*
X196801833Y-96178096D01*
X196801160Y-96254727D01*
X196806573Y-96329552D01*
X196817730Y-96394342D01*
X196834286Y-96440873D01*
X196839374Y-96448887D01*
X196899645Y-96508707D01*
X196971231Y-96544535D01*
X197048908Y-96555020D01*
X197127452Y-96538810D01*
X197149311Y-96529092D01*
X197191878Y-96499143D01*
X197229237Y-96459433D01*
X197232768Y-96454397D01*
X197247119Y-96430124D01*
X197256606Y-96404178D01*
X197262210Y-96370022D01*
X197264914Y-96321119D01*
X197265701Y-96250935D01*
X197265714Y-96235200D01*
X197265678Y-96230192D01*
X197120571Y-96230192D01*
X197119727Y-96296430D01*
X197116404Y-96340386D01*
X197109417Y-96368779D01*
X197097584Y-96388325D01*
X197091543Y-96394857D01*
X197056814Y-96419680D01*
X197023097Y-96418548D01*
X196989005Y-96397016D01*
X196968671Y-96374029D01*
X196956629Y-96340478D01*
X196949866Y-96287569D01*
X196949402Y-96281399D01*
X196948248Y-96185513D01*
X196960312Y-96114299D01*
X196985430Y-96068194D01*
X197023440Y-96047635D01*
X197037008Y-96046514D01*
X197072636Y-96052152D01*
X197097006Y-96071686D01*
X197111907Y-96109042D01*
X197119125Y-96168150D01*
X197120571Y-96230192D01*
X197265678Y-96230192D01*
X197265174Y-96160413D01*
X197262904Y-96108159D01*
X197257932Y-96071949D01*
X197249287Y-96045299D01*
X197235995Y-96021722D01*
X197233057Y-96017338D01*
X197183687Y-95958249D01*
X197129891Y-95923947D01*
X197064398Y-95910331D01*
X197042158Y-95909665D01*
X196958885Y-95921962D01*
G37*
X196958885Y-95921962D02*
X196890855Y-95957733D01*
X196840649Y-96015301D01*
X196822815Y-96052312D01*
X196808937Y-96107882D01*
X196801833Y-96178096D01*
X196801160Y-96254727D01*
X196806573Y-96329552D01*
X196817730Y-96394342D01*
X196834286Y-96440873D01*
X196839374Y-96448887D01*
X196899645Y-96508707D01*
X196971231Y-96544535D01*
X197048908Y-96555020D01*
X197127452Y-96538810D01*
X197149311Y-96529092D01*
X197191878Y-96499143D01*
X197229237Y-96459433D01*
X197232768Y-96454397D01*
X197247119Y-96430124D01*
X197256606Y-96404178D01*
X197262210Y-96370022D01*
X197264914Y-96321119D01*
X197265701Y-96250935D01*
X197265714Y-96235200D01*
X197265678Y-96230192D01*
X197120571Y-96230192D01*
X197119727Y-96296430D01*
X197116404Y-96340386D01*
X197109417Y-96368779D01*
X197097584Y-96388325D01*
X197091543Y-96394857D01*
X197056814Y-96419680D01*
X197023097Y-96418548D01*
X196989005Y-96397016D01*
X196968671Y-96374029D01*
X196956629Y-96340478D01*
X196949866Y-96287569D01*
X196949402Y-96281399D01*
X196948248Y-96185513D01*
X196960312Y-96114299D01*
X196985430Y-96068194D01*
X197023440Y-96047635D01*
X197037008Y-96046514D01*
X197072636Y-96052152D01*
X197097006Y-96071686D01*
X197111907Y-96109042D01*
X197119125Y-96168150D01*
X197120571Y-96230192D01*
X197265678Y-96230192D01*
X197265174Y-96160413D01*
X197262904Y-96108159D01*
X197257932Y-96071949D01*
X197249287Y-96045299D01*
X197235995Y-96021722D01*
X197233057Y-96017338D01*
X197183687Y-95958249D01*
X197129891Y-95923947D01*
X197064398Y-95910331D01*
X197042158Y-95909665D01*
X196958885Y-95921962D01*
G36*
X195283907Y-95927780D02*
G01*
X195237328Y-95954723D01*
X195204943Y-95981466D01*
X195181258Y-96009484D01*
X195164941Y-96043748D01*
X195154661Y-96089227D01*
X195149086Y-96150892D01*
X195146884Y-96233711D01*
X195146629Y-96293246D01*
X195146629Y-96512391D01*
X195208314Y-96540044D01*
X195270000Y-96567697D01*
X195277257Y-96327670D01*
X195280256Y-96238028D01*
X195283402Y-96172962D01*
X195287299Y-96128026D01*
X195292553Y-96098770D01*
X195299769Y-96080748D01*
X195309550Y-96069511D01*
X195312688Y-96067079D01*
X195360239Y-96048083D01*
X195408303Y-96055600D01*
X195436914Y-96075543D01*
X195448553Y-96089675D01*
X195456609Y-96108220D01*
X195461729Y-96136334D01*
X195464559Y-96179173D01*
X195465744Y-96241895D01*
X195465943Y-96307261D01*
X195465982Y-96389268D01*
X195467386Y-96447316D01*
X195472086Y-96486465D01*
X195482013Y-96511780D01*
X195499097Y-96528323D01*
X195525268Y-96541156D01*
X195560225Y-96554491D01*
X195598404Y-96569007D01*
X195593859Y-96311389D01*
X195592029Y-96218519D01*
X195589888Y-96149889D01*
X195586819Y-96100711D01*
X195582206Y-96066198D01*
X195575432Y-96041562D01*
X195565881Y-96022016D01*
X195554366Y-96004770D01*
X195498810Y-95949680D01*
X195431020Y-95917822D01*
X195357287Y-95910191D01*
X195283907Y-95927780D01*
G37*
X195283907Y-95927780D02*
X195237328Y-95954723D01*
X195204943Y-95981466D01*
X195181258Y-96009484D01*
X195164941Y-96043748D01*
X195154661Y-96089227D01*
X195149086Y-96150892D01*
X195146884Y-96233711D01*
X195146629Y-96293246D01*
X195146629Y-96512391D01*
X195208314Y-96540044D01*
X195270000Y-96567697D01*
X195277257Y-96327670D01*
X195280256Y-96238028D01*
X195283402Y-96172962D01*
X195287299Y-96128026D01*
X195292553Y-96098770D01*
X195299769Y-96080748D01*
X195309550Y-96069511D01*
X195312688Y-96067079D01*
X195360239Y-96048083D01*
X195408303Y-96055600D01*
X195436914Y-96075543D01*
X195448553Y-96089675D01*
X195456609Y-96108220D01*
X195461729Y-96136334D01*
X195464559Y-96179173D01*
X195465744Y-96241895D01*
X195465943Y-96307261D01*
X195465982Y-96389268D01*
X195467386Y-96447316D01*
X195472086Y-96486465D01*
X195482013Y-96511780D01*
X195499097Y-96528323D01*
X195525268Y-96541156D01*
X195560225Y-96554491D01*
X195598404Y-96569007D01*
X195593859Y-96311389D01*
X195592029Y-96218519D01*
X195589888Y-96149889D01*
X195586819Y-96100711D01*
X195582206Y-96066198D01*
X195575432Y-96041562D01*
X195565881Y-96022016D01*
X195554366Y-96004770D01*
X195498810Y-95949680D01*
X195431020Y-95917822D01*
X195357287Y-95910191D01*
X195283907Y-95927780D01*
G36*
X196400256Y-95919918D02*
G01*
X196344799Y-95947568D01*
X196295852Y-95998480D01*
X196282371Y-96017338D01*
X196267686Y-96042015D01*
X196258158Y-96068816D01*
X196252707Y-96104587D01*
X196250253Y-96156169D01*
X196249714Y-96224267D01*
X196252148Y-96317588D01*
X196260606Y-96387657D01*
X196276826Y-96439931D01*
X196302546Y-96479869D01*
X196339503Y-96512929D01*
X196342218Y-96514886D01*
X196378640Y-96534908D01*
X196422498Y-96544815D01*
X196478276Y-96547257D01*
X196568952Y-96547257D01*
X196568990Y-96635283D01*
X196569834Y-96684308D01*
X196574976Y-96713065D01*
X196588413Y-96730311D01*
X196614142Y-96744808D01*
X196620321Y-96747769D01*
X196649236Y-96761648D01*
X196671624Y-96770414D01*
X196688271Y-96771171D01*
X196699964Y-96761023D01*
X196707490Y-96737073D01*
X196711634Y-96696426D01*
X196713185Y-96636186D01*
X196712929Y-96553455D01*
X196711651Y-96445339D01*
X196711252Y-96413000D01*
X196709815Y-96301524D01*
X196708528Y-96228603D01*
X196569029Y-96228603D01*
X196568245Y-96290499D01*
X196564760Y-96330997D01*
X196556876Y-96357708D01*
X196542895Y-96378244D01*
X196533403Y-96388260D01*
X196494596Y-96417567D01*
X196460237Y-96419952D01*
X196424784Y-96395750D01*
X196423886Y-96394857D01*
X196409461Y-96376153D01*
X196400687Y-96350732D01*
X196396261Y-96311584D01*
X196394882Y-96251697D01*
X196394857Y-96238430D01*
X196398188Y-96155901D01*
X196409031Y-96098691D01*
X196428660Y-96063766D01*
X196458350Y-96048094D01*
X196475509Y-96046514D01*
X196516234Y-96053926D01*
X196544168Y-96078330D01*
X196560983Y-96122980D01*
X196568350Y-96191130D01*
X196569029Y-96228603D01*
X196708528Y-96228603D01*
X196708292Y-96215245D01*
X196706323Y-96150333D01*
X196703550Y-96102958D01*
X196699612Y-96069290D01*
X196694151Y-96045498D01*
X196686808Y-96027753D01*
X196677223Y-96012224D01*
X196673113Y-96006381D01*
X196618595Y-95951185D01*
X196549664Y-95919890D01*
X196469928Y-95911165D01*
X196400256Y-95919918D01*
G37*
X196400256Y-95919918D02*
X196344799Y-95947568D01*
X196295852Y-95998480D01*
X196282371Y-96017338D01*
X196267686Y-96042015D01*
X196258158Y-96068816D01*
X196252707Y-96104587D01*
X196250253Y-96156169D01*
X196249714Y-96224267D01*
X196252148Y-96317588D01*
X196260606Y-96387657D01*
X196276826Y-96439931D01*
X196302546Y-96479869D01*
X196339503Y-96512929D01*
X196342218Y-96514886D01*
X196378640Y-96534908D01*
X196422498Y-96544815D01*
X196478276Y-96547257D01*
X196568952Y-96547257D01*
X196568990Y-96635283D01*
X196569834Y-96684308D01*
X196574976Y-96713065D01*
X196588413Y-96730311D01*
X196614142Y-96744808D01*
X196620321Y-96747769D01*
X196649236Y-96761648D01*
X196671624Y-96770414D01*
X196688271Y-96771171D01*
X196699964Y-96761023D01*
X196707490Y-96737073D01*
X196711634Y-96696426D01*
X196713185Y-96636186D01*
X196712929Y-96553455D01*
X196711651Y-96445339D01*
X196711252Y-96413000D01*
X196709815Y-96301524D01*
X196708528Y-96228603D01*
X196569029Y-96228603D01*
X196568245Y-96290499D01*
X196564760Y-96330997D01*
X196556876Y-96357708D01*
X196542895Y-96378244D01*
X196533403Y-96388260D01*
X196494596Y-96417567D01*
X196460237Y-96419952D01*
X196424784Y-96395750D01*
X196423886Y-96394857D01*
X196409461Y-96376153D01*
X196400687Y-96350732D01*
X196396261Y-96311584D01*
X196394882Y-96251697D01*
X196394857Y-96238430D01*
X196398188Y-96155901D01*
X196409031Y-96098691D01*
X196428660Y-96063766D01*
X196458350Y-96048094D01*
X196475509Y-96046514D01*
X196516234Y-96053926D01*
X196544168Y-96078330D01*
X196560983Y-96122980D01*
X196568350Y-96191130D01*
X196569029Y-96228603D01*
X196708528Y-96228603D01*
X196708292Y-96215245D01*
X196706323Y-96150333D01*
X196703550Y-96102958D01*
X196699612Y-96069290D01*
X196694151Y-96045498D01*
X196686808Y-96027753D01*
X196677223Y-96012224D01*
X196673113Y-96006381D01*
X196618595Y-95951185D01*
X196549664Y-95919890D01*
X196469928Y-95911165D01*
X196400256Y-95919918D01*
G36*
X98187689Y-86309728D02*
G01*
X97936908Y-86348867D01*
X97826934Y-86396933D01*
X97762216Y-86541706D01*
X97727307Y-86775647D01*
X97725334Y-86845666D01*
X97748765Y-87090217D01*
X97807018Y-87267742D01*
X97826934Y-87294400D01*
X97969117Y-87350721D01*
X98223011Y-87384432D01*
X98532511Y-87395535D01*
X98841510Y-87384029D01*
X99093902Y-87349913D01*
X99232400Y-87294400D01*
X99297119Y-87149626D01*
X99332027Y-86915685D01*
X99334000Y-86845666D01*
X99310570Y-86601115D01*
X99252316Y-86423591D01*
X99232400Y-86396933D01*
X99091862Y-86341567D01*
X98824518Y-86305796D01*
X98529667Y-86295333D01*
X98187689Y-86309728D01*
G37*
X98187689Y-86309728D02*
X97936908Y-86348867D01*
X97826934Y-86396933D01*
X97762216Y-86541706D01*
X97727307Y-86775647D01*
X97725334Y-86845666D01*
X97748765Y-87090217D01*
X97807018Y-87267742D01*
X97826934Y-87294400D01*
X97969117Y-87350721D01*
X98223011Y-87384432D01*
X98532511Y-87395535D01*
X98841510Y-87384029D01*
X99093902Y-87349913D01*
X99232400Y-87294400D01*
X99297119Y-87149626D01*
X99332027Y-86915685D01*
X99334000Y-86845666D01*
X99310570Y-86601115D01*
X99252316Y-86423591D01*
X99232400Y-86396933D01*
X99091862Y-86341567D01*
X98824518Y-86305796D01*
X98529667Y-86295333D01*
X98187689Y-86309728D01*
G36*
X81300000Y-88970394D02*
G01*
X81300000Y-95744782D01*
X81579198Y-96015391D01*
X81858395Y-96286000D01*
X87446301Y-96286000D01*
X87759818Y-95964930D01*
X88073334Y-95643860D01*
X88073334Y-89512666D01*
X85787334Y-89512666D01*
X85787334Y-91138341D01*
X85237000Y-91753242D01*
X84686667Y-92368143D01*
X84686667Y-95185333D01*
X82400667Y-95185333D01*
X82400667Y-89512666D01*
X85787334Y-89512666D01*
X88073334Y-89512666D01*
X88073334Y-89039032D01*
X87431194Y-88412000D01*
X81841218Y-88412000D01*
X81300000Y-88970394D01*
G37*
X81300000Y-88970394D02*
X81300000Y-95744782D01*
X81579198Y-96015391D01*
X81858395Y-96286000D01*
X87446301Y-96286000D01*
X87759818Y-95964930D01*
X88073334Y-95643860D01*
X88073334Y-89512666D01*
X85787334Y-89512666D01*
X85787334Y-91138341D01*
X85237000Y-91753242D01*
X84686667Y-92368143D01*
X84686667Y-95185333D01*
X82400667Y-95185333D01*
X82400667Y-89512666D01*
X85787334Y-89512666D01*
X88073334Y-89512666D01*
X88073334Y-89039032D01*
X87431194Y-88412000D01*
X81841218Y-88412000D01*
X81300000Y-88970394D01*
G36*
X89318183Y-88733069D02*
G01*
X89004667Y-89054139D01*
X89004667Y-96286000D01*
X90190000Y-96286000D01*
X90190000Y-89512666D01*
X93576667Y-89512666D01*
X93576667Y-91150846D01*
X92984000Y-91762066D01*
X92391334Y-92373285D01*
X92391334Y-95658967D01*
X92712404Y-95972483D01*
X93033473Y-96286000D01*
X95235635Y-96286000D01*
X95862667Y-95643860D01*
X95862667Y-89039032D01*
X95541597Y-88725516D01*
X95220528Y-88412000D01*
X89631700Y-88412000D01*
X89318183Y-88733069D01*
G37*
X89318183Y-88733069D02*
X89004667Y-89054139D01*
X89004667Y-96286000D01*
X90190000Y-96286000D01*
X90190000Y-89512666D01*
X93576667Y-89512666D01*
X93576667Y-91150846D01*
X92984000Y-91762066D01*
X92391334Y-92373285D01*
X92391334Y-95658967D01*
X92712404Y-95972483D01*
X93033473Y-96286000D01*
X95235635Y-96286000D01*
X95862667Y-95643860D01*
X95862667Y-89039032D01*
X95541597Y-88725516D01*
X95220528Y-88412000D01*
X89631700Y-88412000D01*
X89318183Y-88733069D01*
G36*
X97979334Y-91168208D02*
G01*
X96794000Y-92344458D01*
X96794000Y-95658967D01*
X97115070Y-95972483D01*
X97302054Y-96143352D01*
X97461067Y-96237324D01*
X97655684Y-96277246D01*
X97949479Y-96285964D01*
X97987461Y-96286000D01*
X98295789Y-96278938D01*
X98495023Y-96244149D01*
X98645243Y-96161223D01*
X98806531Y-96009752D01*
X98809392Y-96006802D01*
X99080000Y-95727605D01*
X99080000Y-88327333D01*
X97979334Y-88327333D01*
X97979334Y-91168208D01*
G37*
X97979334Y-91168208D02*
X96794000Y-92344458D01*
X96794000Y-95658967D01*
X97115070Y-95972483D01*
X97302054Y-96143352D01*
X97461067Y-96237324D01*
X97655684Y-96277246D01*
X97949479Y-96285964D01*
X97987461Y-96286000D01*
X98295789Y-96278938D01*
X98495023Y-96244149D01*
X98645243Y-96161223D01*
X98806531Y-96009752D01*
X98809392Y-96006802D01*
X99080000Y-95727605D01*
X99080000Y-88327333D01*
X97979334Y-88327333D01*
X97979334Y-91168208D01*
G36*
X100265334Y-89512666D02*
G01*
X103652000Y-89512666D01*
X103652000Y-91168208D01*
X103059334Y-91756333D01*
X102466667Y-92344458D01*
X102466667Y-95658967D01*
X102787737Y-95972483D01*
X103108807Y-96286000D01*
X105310968Y-96286000D01*
X105938000Y-95643860D01*
X105938000Y-89039032D01*
X105616931Y-88725516D01*
X105295861Y-88412000D01*
X100265334Y-88412000D01*
X100265334Y-89512666D01*
G37*
X100265334Y-89512666D02*
X103652000Y-89512666D01*
X103652000Y-91168208D01*
X103059334Y-91756333D01*
X102466667Y-92344458D01*
X102466667Y-95658967D01*
X102787737Y-95972483D01*
X103108807Y-96286000D01*
X105310968Y-96286000D01*
X105938000Y-95643860D01*
X105938000Y-89039032D01*
X105616931Y-88725516D01*
X105295861Y-88412000D01*
X100265334Y-88412000D01*
X100265334Y-89512666D01*
G36*
X107038667Y-88970394D02*
G01*
X107038667Y-92358115D01*
X107317865Y-92628724D01*
X107597062Y-92899333D01*
X110425334Y-92899333D01*
X110425334Y-95185333D01*
X108224000Y-95185333D01*
X108224000Y-94000000D01*
X107038667Y-94000000D01*
X107038667Y-95744782D01*
X107317865Y-96015391D01*
X107597062Y-96286000D01*
X113270783Y-96286000D01*
X113541392Y-96006802D01*
X113812000Y-95727605D01*
X113812000Y-89512666D01*
X111526000Y-89512666D01*
X111526000Y-91798666D01*
X108224000Y-91798666D01*
X108224000Y-89512666D01*
X111526000Y-89512666D01*
X113812000Y-89512666D01*
X113812000Y-88953217D01*
X113532803Y-88682608D01*
X113253606Y-88412000D01*
X107579885Y-88412000D01*
X107038667Y-88970394D01*
G37*
X107038667Y-88970394D02*
X107038667Y-92358115D01*
X107317865Y-92628724D01*
X107597062Y-92899333D01*
X110425334Y-92899333D01*
X110425334Y-95185333D01*
X108224000Y-95185333D01*
X108224000Y-94000000D01*
X107038667Y-94000000D01*
X107038667Y-95744782D01*
X107317865Y-96015391D01*
X107597062Y-96286000D01*
X113270783Y-96286000D01*
X113541392Y-96006802D01*
X113812000Y-95727605D01*
X113812000Y-89512666D01*
X111526000Y-89512666D01*
X111526000Y-91798666D01*
X108224000Y-91798666D01*
X108224000Y-89512666D01*
X111526000Y-89512666D01*
X113812000Y-89512666D01*
X113812000Y-88953217D01*
X113532803Y-88682608D01*
X113253606Y-88412000D01*
X107579885Y-88412000D01*
X107038667Y-88970394D01*
G36*
X115336000Y-88970394D02*
G01*
X115336000Y-96286000D01*
X116521334Y-96286000D01*
X116521334Y-89512666D01*
X119823334Y-89512666D01*
X119823334Y-91253225D01*
X119273000Y-91798666D01*
X118722667Y-92344108D01*
X118722667Y-95744782D01*
X119001865Y-96015391D01*
X119171260Y-96164309D01*
X119329658Y-96245668D01*
X119538569Y-96279536D01*
X119831348Y-96286000D01*
X120136760Y-96279598D01*
X120335492Y-96244885D01*
X120490124Y-96158602D01*
X120663235Y-95997488D01*
X120695151Y-95964930D01*
X121008667Y-95643860D01*
X121008667Y-89512666D01*
X124395334Y-89512666D01*
X124395334Y-91168208D01*
X123210000Y-92344458D01*
X123210000Y-95658967D01*
X123531070Y-95972483D01*
X123852140Y-96286000D01*
X126054301Y-96286000D01*
X126367818Y-95964930D01*
X126681334Y-95643860D01*
X126681334Y-89039032D01*
X126039194Y-88412000D01*
X115877218Y-88412000D01*
X115336000Y-88970394D01*
G37*
X115336000Y-88970394D02*
X115336000Y-96286000D01*
X116521334Y-96286000D01*
X116521334Y-89512666D01*
X119823334Y-89512666D01*
X119823334Y-91253225D01*
X119273000Y-91798666D01*
X118722667Y-92344108D01*
X118722667Y-95744782D01*
X119001865Y-96015391D01*
X119171260Y-96164309D01*
X119329658Y-96245668D01*
X119538569Y-96279536D01*
X119831348Y-96286000D01*
X120136760Y-96279598D01*
X120335492Y-96244885D01*
X120490124Y-96158602D01*
X120663235Y-95997488D01*
X120695151Y-95964930D01*
X121008667Y-95643860D01*
X121008667Y-89512666D01*
X124395334Y-89512666D01*
X124395334Y-91168208D01*
X123210000Y-92344458D01*
X123210000Y-95658967D01*
X123531070Y-95972483D01*
X123852140Y-96286000D01*
X126054301Y-96286000D01*
X126367818Y-95964930D01*
X126681334Y-95643860D01*
X126681334Y-89039032D01*
X126039194Y-88412000D01*
X115877218Y-88412000D01*
X115336000Y-88970394D01*
G36*
X128983943Y-88691197D02*
G01*
X128713334Y-88970394D01*
X128713334Y-91224047D01*
X128120667Y-91835267D01*
X127528000Y-92446486D01*
X127528000Y-95658967D01*
X127849070Y-95972483D01*
X128170140Y-96286000D01*
X133758968Y-96286000D01*
X134386000Y-95643860D01*
X134386000Y-92899333D01*
X132100000Y-92899333D01*
X132100000Y-95185333D01*
X129814000Y-95185333D01*
X129814000Y-92899333D01*
X132100000Y-92899333D01*
X134386000Y-92899333D01*
X134386000Y-92425699D01*
X134064931Y-92112182D01*
X133743861Y-91798666D01*
X129814000Y-91798666D01*
X129814000Y-89512666D01*
X133200667Y-89512666D01*
X133200667Y-90698000D01*
X134386000Y-90698000D01*
X134386000Y-89039032D01*
X134064931Y-88725516D01*
X133743861Y-88412000D01*
X129254551Y-88412000D01*
X128983943Y-88691197D01*
G37*
X128983943Y-88691197D02*
X128713334Y-88970394D01*
X128713334Y-91224047D01*
X128120667Y-91835267D01*
X127528000Y-92446486D01*
X127528000Y-95658967D01*
X127849070Y-95972483D01*
X128170140Y-96286000D01*
X133758968Y-96286000D01*
X134386000Y-95643860D01*
X134386000Y-92899333D01*
X132100000Y-92899333D01*
X132100000Y-95185333D01*
X129814000Y-95185333D01*
X129814000Y-92899333D01*
X132100000Y-92899333D01*
X134386000Y-92899333D01*
X134386000Y-92425699D01*
X134064931Y-92112182D01*
X133743861Y-91798666D01*
X129814000Y-91798666D01*
X129814000Y-89512666D01*
X133200667Y-89512666D01*
X133200667Y-90698000D01*
X134386000Y-90698000D01*
X134386000Y-89039032D01*
X134064931Y-88725516D01*
X133743861Y-88412000D01*
X129254551Y-88412000D01*
X128983943Y-88691197D01*
G36*
X135715517Y-88733069D02*
G01*
X135402000Y-89054139D01*
X135402000Y-99045634D01*
X136044140Y-99672666D01*
X142260000Y-99672666D01*
X142260000Y-98572000D01*
X136587334Y-98572000D01*
X136587334Y-96286000D01*
X141632968Y-96286000D01*
X142260000Y-95643860D01*
X142260000Y-89512666D01*
X139974000Y-89512666D01*
X139974000Y-91150846D01*
X139381334Y-91762066D01*
X138788667Y-92373285D01*
X138788667Y-95185333D01*
X136587334Y-95185333D01*
X136587334Y-89512666D01*
X139974000Y-89512666D01*
X142260000Y-89512666D01*
X142260000Y-89039032D01*
X141938931Y-88725516D01*
X141617861Y-88412000D01*
X136029033Y-88412000D01*
X135715517Y-88733069D01*
G37*
X135715517Y-88733069D02*
X135402000Y-89054139D01*
X135402000Y-99045634D01*
X136044140Y-99672666D01*
X142260000Y-99672666D01*
X142260000Y-98572000D01*
X136587334Y-98572000D01*
X136587334Y-96286000D01*
X141632968Y-96286000D01*
X142260000Y-95643860D01*
X142260000Y-89512666D01*
X139974000Y-89512666D01*
X139974000Y-91150846D01*
X139381334Y-91762066D01*
X138788667Y-92373285D01*
X138788667Y-95185333D01*
X136587334Y-95185333D01*
X136587334Y-89512666D01*
X139974000Y-89512666D01*
X142260000Y-89512666D01*
X142260000Y-89039032D01*
X141938931Y-88725516D01*
X141617861Y-88412000D01*
X136029033Y-88412000D01*
X135715517Y-88733069D01*
D10*
X158070000Y-74340000D02*
X159480000Y-74340000D01*
X159480000Y-76660000D02*
X157450000Y-76660000D01*
X159480000Y-76660000D02*
X159480000Y-76000000D01*
X159480000Y-75000000D02*
X159480000Y-74340000D01*
X147370000Y-79225000D02*
X147370000Y-75925000D01*
X150170000Y-79225000D02*
X147370000Y-79225000D01*
X96587221Y-113510000D02*
X96912779Y-113510000D01*
X96587221Y-112490000D02*
X96912779Y-112490000D01*
X96587221Y-113990000D02*
X96912779Y-113990000D01*
X96587221Y-115010000D02*
X96912779Y-115010000D01*
X184087221Y-112490000D02*
X184412779Y-112490000D01*
X184087221Y-113510000D02*
X184412779Y-113510000D01*
X184087221Y-115010000D02*
X184412779Y-115010000D01*
X184087221Y-113990000D02*
X184412779Y-113990000D01*
X180090000Y-112680000D02*
X180090000Y-111270000D01*
X182410000Y-111270000D02*
X182410000Y-113300000D01*
X182410000Y-111270000D02*
X181750000Y-111270000D01*
X180750000Y-111270000D02*
X180090000Y-111270000D01*
X93250000Y-111270000D02*
X92590000Y-111270000D01*
X94910000Y-111270000D02*
X94250000Y-111270000D01*
X94910000Y-111270000D02*
X94910000Y-113300000D01*
X92590000Y-112680000D02*
X92590000Y-111270000D01*
X94350000Y-108200000D02*
X94350000Y-106350000D01*
X93150000Y-108200000D02*
X93150000Y-106350000D01*
X93150000Y-106350000D02*
X94350000Y-106350000D01*
X180650000Y-106600000D02*
X181850000Y-106600000D01*
X180650000Y-108450000D02*
X180650000Y-106600000D01*
X181850000Y-108450000D02*
X181850000Y-106600000D01*
X183200000Y-110275000D02*
X183200000Y-109275000D01*
X183200000Y-110275000D02*
X184200000Y-110275000D01*
X186400000Y-106025000D02*
X186400000Y-107750000D01*
X185550000Y-106025000D02*
X186400000Y-106025000D01*
X185550000Y-105825000D02*
X185550000Y-106025000D01*
X184750000Y-105825000D02*
X185550000Y-105825000D01*
X184750000Y-106025000D02*
X184750000Y-105825000D01*
X184000000Y-106025000D02*
X184750000Y-106025000D01*
X184000000Y-107750000D02*
X184000000Y-106025000D01*
X186400000Y-109475000D02*
X186400000Y-107750000D01*
X185550000Y-109475000D02*
X186400000Y-109475000D01*
X185550000Y-109675000D02*
X185550000Y-109475000D01*
X184750000Y-109675000D02*
X185550000Y-109675000D01*
X184750000Y-109475000D02*
X184750000Y-109675000D01*
X184000000Y-109475000D02*
X184750000Y-109475000D01*
X184000000Y-107750000D02*
X184000000Y-109475000D01*
X186910000Y-105515000D02*
X186910000Y-109985000D01*
X183490000Y-105515000D02*
X186910000Y-105515000D01*
X183490000Y-109985000D02*
X183490000Y-105515000D01*
X186910000Y-109985000D02*
X183490000Y-109985000D01*
X92660000Y-109735000D02*
X89240000Y-109735000D01*
X89240000Y-109735000D02*
X89240000Y-105265000D01*
X89240000Y-105265000D02*
X92660000Y-105265000D01*
X92660000Y-105265000D02*
X92660000Y-109735000D01*
X89750000Y-107500000D02*
X89750000Y-109225000D01*
X89750000Y-109225000D02*
X90500000Y-109225000D01*
X90500000Y-109225000D02*
X90500000Y-109425000D01*
X90500000Y-109425000D02*
X91300000Y-109425000D01*
X91300000Y-109425000D02*
X91300000Y-109225000D01*
X91300000Y-109225000D02*
X92150000Y-109225000D01*
X92150000Y-109225000D02*
X92150000Y-107500000D01*
X89750000Y-107500000D02*
X89750000Y-105775000D01*
X89750000Y-105775000D02*
X90500000Y-105775000D01*
X90500000Y-105775000D02*
X90500000Y-105575000D01*
X90500000Y-105575000D02*
X91300000Y-105575000D01*
X91300000Y-105575000D02*
X91300000Y-105775000D01*
X91300000Y-105775000D02*
X92150000Y-105775000D01*
X92150000Y-105775000D02*
X92150000Y-107500000D01*
X88950000Y-110025000D02*
X89950000Y-110025000D01*
X88950000Y-110025000D02*
X88950000Y-109025000D01*
X97680000Y-106660000D02*
X96270000Y-106660000D01*
X96270000Y-104340000D02*
X98300000Y-104340000D01*
X96270000Y-104340000D02*
X96270000Y-105000000D01*
X96270000Y-106000000D02*
X96270000Y-106660000D01*
X163600000Y-60000000D02*
X163600000Y-58150000D01*
X162400000Y-60000000D02*
X162400000Y-58150000D01*
X162400000Y-58150000D02*
X163600000Y-58150000D01*
X112500000Y-58150000D02*
X113700000Y-58150000D01*
X112500000Y-60000000D02*
X112500000Y-58150000D01*
X113700000Y-60000000D02*
X113700000Y-58150000D01*
X164340000Y-57140000D02*
X167760000Y-57140000D01*
X167760000Y-57140000D02*
X167760000Y-62860000D01*
X167760000Y-62860000D02*
X164340000Y-62860000D01*
X164340000Y-62860000D02*
X164340000Y-57140000D01*
X167250000Y-60000000D02*
X167250000Y-57650000D01*
X167250000Y-57650000D02*
X166500000Y-57650000D01*
X166500000Y-57650000D02*
X166500000Y-57450000D01*
X166500000Y-57450000D02*
X165700000Y-57450000D01*
X165700000Y-57450000D02*
X165700000Y-57650000D01*
X165700000Y-57650000D02*
X164850000Y-57650000D01*
X164850000Y-57650000D02*
X164850000Y-60000000D01*
X167250000Y-60000000D02*
X167250000Y-62350000D01*
X167250000Y-62350000D02*
X166500000Y-62350000D01*
X166500000Y-62350000D02*
X166500000Y-62550000D01*
X166500000Y-62550000D02*
X165700000Y-62550000D01*
X165700000Y-62550000D02*
X165700000Y-62350000D01*
X165700000Y-62350000D02*
X164850000Y-62350000D01*
X164850000Y-62350000D02*
X164850000Y-60000000D01*
X168050000Y-56850000D02*
X167050000Y-56850000D01*
X168050000Y-56850000D02*
X168050000Y-57850000D01*
X108340000Y-57140000D02*
X111760000Y-57140000D01*
X111760000Y-57140000D02*
X111760000Y-62860000D01*
X111760000Y-62860000D02*
X108340000Y-62860000D01*
X108340000Y-62860000D02*
X108340000Y-57140000D01*
X111250000Y-60000000D02*
X111250000Y-57650000D01*
X111250000Y-57650000D02*
X110500000Y-57650000D01*
X110500000Y-57650000D02*
X110500000Y-57450000D01*
X110500000Y-57450000D02*
X109700000Y-57450000D01*
X109700000Y-57450000D02*
X109700000Y-57650000D01*
X109700000Y-57650000D02*
X108850000Y-57650000D01*
X108850000Y-57650000D02*
X108850000Y-60000000D01*
X111250000Y-60000000D02*
X111250000Y-62350000D01*
X111250000Y-62350000D02*
X110500000Y-62350000D01*
X110500000Y-62350000D02*
X110500000Y-62550000D01*
X110500000Y-62550000D02*
X109700000Y-62550000D01*
X109700000Y-62550000D02*
X109700000Y-62350000D01*
X109700000Y-62350000D02*
X108850000Y-62350000D01*
X108850000Y-62350000D02*
X108850000Y-60000000D01*
X112050000Y-56850000D02*
X111050000Y-56850000D01*
X112050000Y-56850000D02*
X112050000Y-57850000D01*
X132690000Y-101940000D02*
X132690000Y-103560000D01*
X132690000Y-103560000D02*
X133990000Y-103560000D01*
X135010000Y-103560000D02*
X135990000Y-103560000D01*
X137010000Y-103560000D02*
X137990000Y-103560000D01*
X139010000Y-103560000D02*
X139990000Y-103560000D01*
X141010000Y-103560000D02*
X141990000Y-103560000D01*
X143010000Y-103560000D02*
X143310000Y-103560000D01*
X143310000Y-101940000D02*
X143310000Y-103560000D01*
X132690000Y-101940000D02*
X132990000Y-101940000D01*
X134010000Y-101940000D02*
X134990000Y-101940000D01*
X136010000Y-101940000D02*
X136990000Y-101940000D01*
X138010000Y-101940000D02*
X138990000Y-101940000D01*
X140010000Y-101940000D02*
X140990000Y-101940000D01*
X142010000Y-101940000D02*
X143310000Y-101940000D01*
X132990000Y-100860000D02*
X132990000Y-101940000D01*
X137870000Y-69203641D02*
X137870000Y-68896359D01*
X138630000Y-69203641D02*
X138630000Y-68896359D01*
X136720000Y-69203641D02*
X136720000Y-68896359D01*
X137480000Y-69203641D02*
X137480000Y-68896359D01*
D12*
X136805000Y-66870000D02*
G75*
G03*
X136805000Y-66870000I-100000J0D01*
G01*
D13*
X141750000Y-61500000D02*
X141750000Y-62235000D01*
X134250000Y-62175000D02*
X134250000Y-61500000D01*
X141750000Y-64675000D02*
X141750000Y-63765000D01*
X134250000Y-64685000D02*
X134250000Y-63775000D01*
X139580000Y-65850000D02*
X140320000Y-65850000D01*
X135660000Y-65850000D02*
X136440000Y-65850000D01*
D14*
X107500000Y-56750000D02*
X106000000Y-56750000D01*
X99500000Y-56750000D02*
X101000000Y-56750000D01*
X99500000Y-63250000D02*
X99500000Y-56750000D01*
X107500000Y-63250000D02*
X107500000Y-56750000D01*
X99500000Y-63250000D02*
X107500000Y-63250000D01*
X101200000Y-54520000D02*
X105800000Y-54520000D01*
X176500000Y-56750000D02*
X175000000Y-56750000D01*
X168500000Y-56750000D02*
X170000000Y-56750000D01*
X168500000Y-63250000D02*
X168500000Y-56750000D01*
X176500000Y-63250000D02*
X176500000Y-56750000D01*
X168500000Y-63250000D02*
X176500000Y-63250000D01*
X170200000Y-54520000D02*
X174800000Y-54520000D01*
D10*
X132910000Y-85662779D02*
X132910000Y-85337221D01*
X131890000Y-85662779D02*
X131890000Y-85337221D01*
X132935000Y-62690000D02*
X132935000Y-66600000D01*
X131065000Y-62690000D02*
X132935000Y-62690000D01*
X131065000Y-66600000D02*
X131065000Y-62690000D01*
X126350000Y-64185000D02*
X122440000Y-64185000D01*
X122440000Y-64185000D02*
X122440000Y-62315000D01*
X122440000Y-62315000D02*
X126350000Y-62315000D01*
X125662779Y-64740000D02*
X125337221Y-64740000D01*
X125662779Y-65760000D02*
X125337221Y-65760000D01*
X125662779Y-67260000D02*
X125337221Y-67260000D01*
X125662779Y-66240000D02*
X125337221Y-66240000D01*
X130937221Y-76110000D02*
X131262779Y-76110000D01*
X130937221Y-75090000D02*
X131262779Y-75090000D01*
X140260000Y-69587221D02*
X140260000Y-69912779D01*
X139240000Y-69587221D02*
X139240000Y-69912779D01*
X140740000Y-69912779D02*
X140740000Y-69587221D01*
X141760000Y-69912779D02*
X141760000Y-69587221D01*
X154390000Y-78587221D02*
X154390000Y-78912779D01*
X155410000Y-78587221D02*
X155410000Y-78912779D01*
X131290000Y-69258578D02*
X131290000Y-68741422D01*
X132710000Y-69258578D02*
X132710000Y-68741422D01*
X152330000Y-67330000D02*
X152330000Y-66000000D01*
X151000000Y-67330000D02*
X152330000Y-67330000D01*
X152330000Y-64730000D02*
X152330000Y-62130000D01*
X149730000Y-64730000D02*
X152330000Y-64730000D01*
X149730000Y-67330000D02*
X149730000Y-64730000D01*
X152330000Y-62130000D02*
X144590000Y-62130000D01*
X149730000Y-67330000D02*
X144590000Y-67330000D01*
X144590000Y-67330000D02*
X144590000Y-62130000D01*
X147760000Y-73162779D02*
X147760000Y-72837221D01*
X146740000Y-73162779D02*
X146740000Y-72837221D01*
X133490000Y-85662779D02*
X133490000Y-85337221D01*
X134510000Y-85662779D02*
X134510000Y-85337221D01*
X152412779Y-82735000D02*
X152087221Y-82735000D01*
X152412779Y-81715000D02*
X152087221Y-81715000D01*
X159975279Y-77240000D02*
X159649721Y-77240000D01*
X159975279Y-78260000D02*
X159649721Y-78260000D01*
X152740000Y-78912779D02*
X152740000Y-78587221D01*
X153760000Y-78912779D02*
X153760000Y-78587221D01*
X159649721Y-79760000D02*
X159975279Y-79760000D01*
X159649721Y-78740000D02*
X159975279Y-78740000D01*
X128100000Y-63390000D02*
X130550000Y-63390000D01*
X129900000Y-66610000D02*
X128100000Y-66610000D01*
X135125000Y-72870000D02*
X135125000Y-71580000D01*
X134550000Y-72870000D02*
X135125000Y-72870000D01*
X134550000Y-73445000D02*
X134550000Y-72870000D01*
X134550000Y-83090000D02*
X135125000Y-83090000D01*
X134550000Y-82515000D02*
X134550000Y-83090000D01*
X144770000Y-72870000D02*
X144195000Y-72870000D01*
X144770000Y-73445000D02*
X144770000Y-72870000D01*
X144770000Y-83090000D02*
X144195000Y-83090000D01*
X144770000Y-82515000D02*
X144770000Y-83090000D01*
D14*
X160075000Y-88525000D02*
X155425000Y-88525000D01*
X161150000Y-80425000D02*
X155425000Y-80425000D01*
X160075000Y-88525000D02*
X160075000Y-88500000D01*
X155425000Y-88525000D02*
X155425000Y-88500000D01*
X155425000Y-80475000D02*
X155425000Y-80500000D01*
X159488095Y-73723380D02*
X159488095Y-72723380D01*
X159250000Y-72723380D01*
X159107142Y-72771000D01*
X159011904Y-72866238D01*
X158964285Y-72961476D01*
X158916666Y-73151952D01*
X158916666Y-73294809D01*
X158964285Y-73485285D01*
X159011904Y-73580523D01*
X159107142Y-73675761D01*
X159250000Y-73723380D01*
X159488095Y-73723380D01*
X158583333Y-72723380D02*
X157964285Y-72723380D01*
X158297619Y-73104333D01*
X158154761Y-73104333D01*
X158059523Y-73151952D01*
X158011904Y-73199571D01*
X157964285Y-73294809D01*
X157964285Y-73532904D01*
X158011904Y-73628142D01*
X158059523Y-73675761D01*
X158154761Y-73723380D01*
X158440476Y-73723380D01*
X158535714Y-73675761D01*
X158583333Y-73628142D01*
X152109523Y-77047380D02*
X151442857Y-78047380D01*
X151442857Y-77047380D02*
X152109523Y-78047380D01*
X150538095Y-78047380D02*
X151109523Y-78047380D01*
X150823809Y-78047380D02*
X150823809Y-77047380D01*
X150919047Y-77190238D01*
X151014285Y-77285476D01*
X151109523Y-77333095D01*
X100505357Y-113452380D02*
X100838690Y-112976190D01*
X101076785Y-113452380D02*
X101076785Y-112452380D01*
X100695833Y-112452380D01*
X100600595Y-112500000D01*
X100552976Y-112547619D01*
X100505357Y-112642857D01*
X100505357Y-112785714D01*
X100552976Y-112880952D01*
X100600595Y-112928571D01*
X100695833Y-112976190D01*
X101076785Y-112976190D01*
X99552976Y-113452380D02*
X100124404Y-113452380D01*
X99838690Y-113452380D02*
X99838690Y-112452380D01*
X99933928Y-112595238D01*
X100029166Y-112690476D01*
X100124404Y-112738095D01*
X99219642Y-112452380D02*
X98600595Y-112452380D01*
X98933928Y-112833333D01*
X98791071Y-112833333D01*
X98695833Y-112880952D01*
X98648214Y-112928571D01*
X98600595Y-113023809D01*
X98600595Y-113261904D01*
X98648214Y-113357142D01*
X98695833Y-113404761D01*
X98791071Y-113452380D01*
X99076785Y-113452380D01*
X99172023Y-113404761D01*
X99219642Y-113357142D01*
X100642857Y-114702380D02*
X100976190Y-114226190D01*
X101214285Y-114702380D02*
X101214285Y-113702380D01*
X100833333Y-113702380D01*
X100738095Y-113750000D01*
X100690476Y-113797619D01*
X100642857Y-113892857D01*
X100642857Y-114035714D01*
X100690476Y-114130952D01*
X100738095Y-114178571D01*
X100833333Y-114226190D01*
X101214285Y-114226190D01*
X99690476Y-114702380D02*
X100261904Y-114702380D01*
X99976190Y-114702380D02*
X99976190Y-113702380D01*
X100071428Y-113845238D01*
X100166666Y-113940476D01*
X100261904Y-113988095D01*
X99309523Y-113797619D02*
X99261904Y-113750000D01*
X99166666Y-113702380D01*
X98928571Y-113702380D01*
X98833333Y-113750000D01*
X98785714Y-113797619D01*
X98738095Y-113892857D01*
X98738095Y-113988095D01*
X98785714Y-114130952D01*
X99357142Y-114702380D01*
X98738095Y-114702380D01*
X188005357Y-113452380D02*
X188338690Y-112976190D01*
X188576785Y-113452380D02*
X188576785Y-112452380D01*
X188195833Y-112452380D01*
X188100595Y-112500000D01*
X188052976Y-112547619D01*
X188005357Y-112642857D01*
X188005357Y-112785714D01*
X188052976Y-112880952D01*
X188100595Y-112928571D01*
X188195833Y-112976190D01*
X188576785Y-112976190D01*
X187052976Y-113452380D02*
X187624404Y-113452380D01*
X187338690Y-113452380D02*
X187338690Y-112452380D01*
X187433928Y-112595238D01*
X187529166Y-112690476D01*
X187624404Y-112738095D01*
X186100595Y-113452380D02*
X186672023Y-113452380D01*
X186386309Y-113452380D02*
X186386309Y-112452380D01*
X186481547Y-112595238D01*
X186576785Y-112690476D01*
X186672023Y-112738095D01*
X188005357Y-114952380D02*
X188338690Y-114476190D01*
X188576785Y-114952380D02*
X188576785Y-113952380D01*
X188195833Y-113952380D01*
X188100595Y-114000000D01*
X188052976Y-114047619D01*
X188005357Y-114142857D01*
X188005357Y-114285714D01*
X188052976Y-114380952D01*
X188100595Y-114428571D01*
X188195833Y-114476190D01*
X188576785Y-114476190D01*
X187052976Y-114952380D02*
X187624404Y-114952380D01*
X187338690Y-114952380D02*
X187338690Y-113952380D01*
X187433928Y-114095238D01*
X187529166Y-114190476D01*
X187624404Y-114238095D01*
X186433928Y-113952380D02*
X186338690Y-113952380D01*
X186243452Y-114000000D01*
X186195833Y-114047619D01*
X186148214Y-114142857D01*
X186100595Y-114333333D01*
X186100595Y-114571428D01*
X186148214Y-114761904D01*
X186195833Y-114857142D01*
X186243452Y-114904761D01*
X186338690Y-114952380D01*
X186433928Y-114952380D01*
X186529166Y-114904761D01*
X186576785Y-114857142D01*
X186624404Y-114761904D01*
X186672023Y-114571428D01*
X186672023Y-114333333D01*
X186624404Y-114142857D01*
X186576785Y-114047619D01*
X186529166Y-114000000D01*
X186433928Y-113952380D01*
X178845238Y-112547619D02*
X178940476Y-112500000D01*
X179035714Y-112404761D01*
X179178571Y-112261904D01*
X179273809Y-112214285D01*
X179369047Y-112214285D01*
X179321428Y-112452380D02*
X179416666Y-112404761D01*
X179511904Y-112309523D01*
X179559523Y-112119047D01*
X179559523Y-111785714D01*
X179511904Y-111595238D01*
X179416666Y-111500000D01*
X179321428Y-111452380D01*
X179130952Y-111452380D01*
X179035714Y-111500000D01*
X178940476Y-111595238D01*
X178892857Y-111785714D01*
X178892857Y-112119047D01*
X178940476Y-112309523D01*
X179035714Y-112404761D01*
X179130952Y-112452380D01*
X179321428Y-112452380D01*
X177940476Y-112452380D02*
X178511904Y-112452380D01*
X178226190Y-112452380D02*
X178226190Y-111452380D01*
X178321428Y-111595238D01*
X178416666Y-111690476D01*
X178511904Y-111738095D01*
X91595238Y-112547619D02*
X91690476Y-112500000D01*
X91785714Y-112404761D01*
X91928571Y-112261904D01*
X92023809Y-112214285D01*
X92119047Y-112214285D01*
X92071428Y-112452380D02*
X92166666Y-112404761D01*
X92261904Y-112309523D01*
X92309523Y-112119047D01*
X92309523Y-111785714D01*
X92261904Y-111595238D01*
X92166666Y-111500000D01*
X92071428Y-111452380D01*
X91880952Y-111452380D01*
X91785714Y-111500000D01*
X91690476Y-111595238D01*
X91642857Y-111785714D01*
X91642857Y-112119047D01*
X91690476Y-112309523D01*
X91785714Y-112404761D01*
X91880952Y-112452380D01*
X92071428Y-112452380D01*
X91261904Y-111547619D02*
X91214285Y-111500000D01*
X91119047Y-111452380D01*
X90880952Y-111452380D01*
X90785714Y-111500000D01*
X90738095Y-111547619D01*
X90690476Y-111642857D01*
X90690476Y-111738095D01*
X90738095Y-111880952D01*
X91309523Y-112452380D01*
X90690476Y-112452380D01*
X94488095Y-105702380D02*
X94488095Y-104702380D01*
X94250000Y-104702380D01*
X94107142Y-104750000D01*
X94011904Y-104845238D01*
X93964285Y-104940476D01*
X93916666Y-105130952D01*
X93916666Y-105273809D01*
X93964285Y-105464285D01*
X94011904Y-105559523D01*
X94107142Y-105654761D01*
X94250000Y-105702380D01*
X94488095Y-105702380D01*
X93059523Y-104702380D02*
X93250000Y-104702380D01*
X93345238Y-104750000D01*
X93392857Y-104797619D01*
X93488095Y-104940476D01*
X93535714Y-105130952D01*
X93535714Y-105511904D01*
X93488095Y-105607142D01*
X93440476Y-105654761D01*
X93345238Y-105702380D01*
X93154761Y-105702380D01*
X93059523Y-105654761D01*
X93011904Y-105607142D01*
X92964285Y-105511904D01*
X92964285Y-105273809D01*
X93011904Y-105178571D01*
X93059523Y-105130952D01*
X93154761Y-105083333D01*
X93345238Y-105083333D01*
X93440476Y-105130952D01*
X93488095Y-105178571D01*
X93535714Y-105273809D01*
X181988095Y-105702380D02*
X181988095Y-104702380D01*
X181750000Y-104702380D01*
X181607142Y-104750000D01*
X181511904Y-104845238D01*
X181464285Y-104940476D01*
X181416666Y-105130952D01*
X181416666Y-105273809D01*
X181464285Y-105464285D01*
X181511904Y-105559523D01*
X181607142Y-105654761D01*
X181750000Y-105702380D01*
X181988095Y-105702380D01*
X180511904Y-104702380D02*
X180988095Y-104702380D01*
X181035714Y-105178571D01*
X180988095Y-105130952D01*
X180892857Y-105083333D01*
X180654761Y-105083333D01*
X180559523Y-105130952D01*
X180511904Y-105178571D01*
X180464285Y-105273809D01*
X180464285Y-105511904D01*
X180511904Y-105607142D01*
X180559523Y-105654761D01*
X180654761Y-105702380D01*
X180892857Y-105702380D01*
X180988095Y-105654761D01*
X181035714Y-105607142D01*
X185083333Y-103202380D02*
X185083333Y-103916666D01*
X185130952Y-104059523D01*
X185226190Y-104154761D01*
X185369047Y-104202380D01*
X185464285Y-104202380D01*
X184178571Y-103535714D02*
X184178571Y-104202380D01*
X184416666Y-103154761D02*
X184654761Y-103869047D01*
X184035714Y-103869047D01*
X90833333Y-102952380D02*
X90833333Y-103666666D01*
X90880952Y-103809523D01*
X90976190Y-103904761D01*
X91119047Y-103952380D01*
X91214285Y-103952380D01*
X89880952Y-102952380D02*
X90357142Y-102952380D01*
X90404761Y-103428571D01*
X90357142Y-103380952D01*
X90261904Y-103333333D01*
X90023809Y-103333333D01*
X89928571Y-103380952D01*
X89880952Y-103428571D01*
X89833333Y-103523809D01*
X89833333Y-103761904D01*
X89880952Y-103857142D01*
X89928571Y-103904761D01*
X90023809Y-103952380D01*
X90261904Y-103952380D01*
X90357142Y-103904761D01*
X90404761Y-103857142D01*
X97738095Y-103952380D02*
X97738095Y-102952380D01*
X97500000Y-102952380D01*
X97357142Y-103000000D01*
X97261904Y-103095238D01*
X97214285Y-103190476D01*
X97166666Y-103380952D01*
X97166666Y-103523809D01*
X97214285Y-103714285D01*
X97261904Y-103809523D01*
X97357142Y-103904761D01*
X97500000Y-103952380D01*
X97738095Y-103952380D01*
X96309523Y-103285714D02*
X96309523Y-103952380D01*
X96547619Y-102904761D02*
X96785714Y-103619047D01*
X96166666Y-103619047D01*
X163738095Y-57752380D02*
X163738095Y-56752380D01*
X163500000Y-56752380D01*
X163357142Y-56800000D01*
X163261904Y-56895238D01*
X163214285Y-56990476D01*
X163166666Y-57180952D01*
X163166666Y-57323809D01*
X163214285Y-57514285D01*
X163261904Y-57609523D01*
X163357142Y-57704761D01*
X163500000Y-57752380D01*
X163738095Y-57752380D01*
X162785714Y-56847619D02*
X162738095Y-56800000D01*
X162642857Y-56752380D01*
X162404761Y-56752380D01*
X162309523Y-56800000D01*
X162261904Y-56847619D01*
X162214285Y-56942857D01*
X162214285Y-57038095D01*
X162261904Y-57180952D01*
X162833333Y-57752380D01*
X162214285Y-57752380D01*
X113838095Y-57752380D02*
X113838095Y-56752380D01*
X113600000Y-56752380D01*
X113457142Y-56800000D01*
X113361904Y-56895238D01*
X113314285Y-56990476D01*
X113266666Y-57180952D01*
X113266666Y-57323809D01*
X113314285Y-57514285D01*
X113361904Y-57609523D01*
X113457142Y-57704761D01*
X113600000Y-57752380D01*
X113838095Y-57752380D01*
X112314285Y-57752380D02*
X112885714Y-57752380D01*
X112600000Y-57752380D02*
X112600000Y-56752380D01*
X112695238Y-56895238D01*
X112790476Y-56990476D01*
X112885714Y-57038095D01*
X166833333Y-63952380D02*
X166833333Y-64666666D01*
X166880952Y-64809523D01*
X166976190Y-64904761D01*
X167119047Y-64952380D01*
X167214285Y-64952380D01*
X166452380Y-63952380D02*
X165833333Y-63952380D01*
X166166666Y-64333333D01*
X166023809Y-64333333D01*
X165928571Y-64380952D01*
X165880952Y-64428571D01*
X165833333Y-64523809D01*
X165833333Y-64761904D01*
X165880952Y-64857142D01*
X165928571Y-64904761D01*
X166023809Y-64952380D01*
X166309523Y-64952380D01*
X166404761Y-64904761D01*
X166452380Y-64857142D01*
X110833333Y-63952380D02*
X110833333Y-64666666D01*
X110880952Y-64809523D01*
X110976190Y-64904761D01*
X111119047Y-64952380D01*
X111214285Y-64952380D01*
X110404761Y-64047619D02*
X110357142Y-64000000D01*
X110261904Y-63952380D01*
X110023809Y-63952380D01*
X109928571Y-64000000D01*
X109880952Y-64047619D01*
X109833333Y-64142857D01*
X109833333Y-64238095D01*
X109880952Y-64380952D01*
X110452380Y-64952380D01*
X109833333Y-64952380D01*
X145988095Y-103202380D02*
X145988095Y-102202380D01*
X145607142Y-102202380D01*
X145511904Y-102250000D01*
X145464285Y-102297619D01*
X145416666Y-102392857D01*
X145416666Y-102535714D01*
X145464285Y-102630952D01*
X145511904Y-102678571D01*
X145607142Y-102726190D01*
X145988095Y-102726190D01*
X144559523Y-102535714D02*
X144559523Y-103202380D01*
X144797619Y-102154761D02*
X145035714Y-102869047D01*
X144416666Y-102869047D01*
X138175000Y-71089285D02*
X138425000Y-70732142D01*
X138603571Y-71089285D02*
X138603571Y-70339285D01*
X138317857Y-70339285D01*
X138246428Y-70375000D01*
X138210714Y-70410714D01*
X138175000Y-70482142D01*
X138175000Y-70589285D01*
X138210714Y-70660714D01*
X138246428Y-70696428D01*
X138317857Y-70732142D01*
X138603571Y-70732142D01*
X137460714Y-71089285D02*
X137889285Y-71089285D01*
X137675000Y-71089285D02*
X137675000Y-70339285D01*
X137746428Y-70446428D01*
X137817857Y-70517857D01*
X137889285Y-70553571D01*
X137025000Y-71089285D02*
X137275000Y-70732142D01*
X137453571Y-71089285D02*
X137453571Y-70339285D01*
X137167857Y-70339285D01*
X137096428Y-70375000D01*
X137060714Y-70410714D01*
X137025000Y-70482142D01*
X137025000Y-70589285D01*
X137060714Y-70660714D01*
X137096428Y-70696428D01*
X137167857Y-70732142D01*
X137453571Y-70732142D01*
X136739285Y-70410714D02*
X136703571Y-70375000D01*
X136632142Y-70339285D01*
X136453571Y-70339285D01*
X136382142Y-70375000D01*
X136346428Y-70410714D01*
X136310714Y-70482142D01*
X136310714Y-70553571D01*
X136346428Y-70660714D01*
X136775000Y-71089285D01*
X136310714Y-71089285D01*
X143833333Y-62452380D02*
X143833333Y-63166666D01*
X143880952Y-63309523D01*
X143976190Y-63404761D01*
X144119047Y-63452380D01*
X144214285Y-63452380D01*
X142833333Y-63452380D02*
X143404761Y-63452380D01*
X143119047Y-63452380D02*
X143119047Y-62452380D01*
X143214285Y-62595238D01*
X143309523Y-62690476D01*
X143404761Y-62738095D01*
X104833333Y-64904761D02*
X104690476Y-64952380D01*
X104452380Y-64952380D01*
X104357142Y-64904761D01*
X104309523Y-64857142D01*
X104261904Y-64761904D01*
X104261904Y-64666666D01*
X104309523Y-64571428D01*
X104357142Y-64523809D01*
X104452380Y-64476190D01*
X104642857Y-64428571D01*
X104738095Y-64380952D01*
X104785714Y-64333333D01*
X104833333Y-64238095D01*
X104833333Y-64142857D01*
X104785714Y-64047619D01*
X104738095Y-64000000D01*
X104642857Y-63952380D01*
X104404761Y-63952380D01*
X104261904Y-64000000D01*
X103928571Y-63952380D02*
X103690476Y-64952380D01*
X103500000Y-64238095D01*
X103309523Y-64952380D01*
X103071428Y-63952380D01*
X102785714Y-63952380D02*
X102166666Y-63952380D01*
X102500000Y-64333333D01*
X102357142Y-64333333D01*
X102261904Y-64380952D01*
X102214285Y-64428571D01*
X102166666Y-64523809D01*
X102166666Y-64761904D01*
X102214285Y-64857142D01*
X102261904Y-64904761D01*
X102357142Y-64952380D01*
X102642857Y-64952380D01*
X102738095Y-64904761D01*
X102785714Y-64857142D01*
X173833333Y-64904761D02*
X173690476Y-64952380D01*
X173452380Y-64952380D01*
X173357142Y-64904761D01*
X173309523Y-64857142D01*
X173261904Y-64761904D01*
X173261904Y-64666666D01*
X173309523Y-64571428D01*
X173357142Y-64523809D01*
X173452380Y-64476190D01*
X173642857Y-64428571D01*
X173738095Y-64380952D01*
X173785714Y-64333333D01*
X173833333Y-64238095D01*
X173833333Y-64142857D01*
X173785714Y-64047619D01*
X173738095Y-64000000D01*
X173642857Y-63952380D01*
X173404761Y-63952380D01*
X173261904Y-64000000D01*
X172928571Y-63952380D02*
X172690476Y-64952380D01*
X172500000Y-64238095D01*
X172309523Y-64952380D01*
X172071428Y-63952380D01*
X171214285Y-63952380D02*
X171690476Y-63952380D01*
X171738095Y-64428571D01*
X171690476Y-64380952D01*
X171595238Y-64333333D01*
X171357142Y-64333333D01*
X171261904Y-64380952D01*
X171214285Y-64428571D01*
X171166666Y-64523809D01*
X171166666Y-64761904D01*
X171214285Y-64857142D01*
X171261904Y-64904761D01*
X171357142Y-64952380D01*
X171595238Y-64952380D01*
X171690476Y-64904761D01*
X171738095Y-64857142D01*
X130766666Y-85952380D02*
X131100000Y-85476190D01*
X131338095Y-85952380D02*
X131338095Y-84952380D01*
X130957142Y-84952380D01*
X130861904Y-85000000D01*
X130814285Y-85047619D01*
X130766666Y-85142857D01*
X130766666Y-85285714D01*
X130814285Y-85380952D01*
X130861904Y-85428571D01*
X130957142Y-85476190D01*
X131338095Y-85476190D01*
X129909523Y-85285714D02*
X129909523Y-85952380D01*
X130147619Y-84904761D02*
X130385714Y-85619047D01*
X129766666Y-85619047D01*
X132125000Y-62517857D02*
X132160714Y-62553571D01*
X132267857Y-62589285D01*
X132339285Y-62589285D01*
X132446428Y-62553571D01*
X132517857Y-62482142D01*
X132553571Y-62410714D01*
X132589285Y-62267857D01*
X132589285Y-62160714D01*
X132553571Y-62017857D01*
X132517857Y-61946428D01*
X132446428Y-61875000D01*
X132339285Y-61839285D01*
X132267857Y-61839285D01*
X132160714Y-61875000D01*
X132125000Y-61910714D01*
X131410714Y-62589285D02*
X131839285Y-62589285D01*
X131625000Y-62589285D02*
X131625000Y-61839285D01*
X131696428Y-61946428D01*
X131767857Y-62017857D01*
X131839285Y-62053571D01*
X124916666Y-61607142D02*
X124964285Y-61654761D01*
X125107142Y-61702380D01*
X125202380Y-61702380D01*
X125345238Y-61654761D01*
X125440476Y-61559523D01*
X125488095Y-61464285D01*
X125535714Y-61273809D01*
X125535714Y-61130952D01*
X125488095Y-60940476D01*
X125440476Y-60845238D01*
X125345238Y-60750000D01*
X125202380Y-60702380D01*
X125107142Y-60702380D01*
X124964285Y-60750000D01*
X124916666Y-60797619D01*
X124535714Y-60797619D02*
X124488095Y-60750000D01*
X124392857Y-60702380D01*
X124154761Y-60702380D01*
X124059523Y-60750000D01*
X124011904Y-60797619D01*
X123964285Y-60892857D01*
X123964285Y-60988095D01*
X124011904Y-61130952D01*
X124583333Y-61702380D01*
X123964285Y-61702380D01*
X150966666Y-75707142D02*
X151014285Y-75754761D01*
X151157142Y-75802380D01*
X151252380Y-75802380D01*
X151395238Y-75754761D01*
X151490476Y-75659523D01*
X151538095Y-75564285D01*
X151585714Y-75373809D01*
X151585714Y-75230952D01*
X151538095Y-75040476D01*
X151490476Y-74945238D01*
X151395238Y-74850000D01*
X151252380Y-74802380D01*
X151157142Y-74802380D01*
X151014285Y-74850000D01*
X150966666Y-74897619D01*
X150633333Y-74802380D02*
X150014285Y-74802380D01*
X150347619Y-75183333D01*
X150204761Y-75183333D01*
X150109523Y-75230952D01*
X150061904Y-75278571D01*
X150014285Y-75373809D01*
X150014285Y-75611904D01*
X150061904Y-75707142D01*
X150109523Y-75754761D01*
X150204761Y-75802380D01*
X150490476Y-75802380D01*
X150585714Y-75754761D01*
X150633333Y-75707142D01*
X151166666Y-80107142D02*
X151214285Y-80154761D01*
X151357142Y-80202380D01*
X151452380Y-80202380D01*
X151595238Y-80154761D01*
X151690476Y-80059523D01*
X151738095Y-79964285D01*
X151785714Y-79773809D01*
X151785714Y-79630952D01*
X151738095Y-79440476D01*
X151690476Y-79345238D01*
X151595238Y-79250000D01*
X151452380Y-79202380D01*
X151357142Y-79202380D01*
X151214285Y-79250000D01*
X151166666Y-79297619D01*
X150309523Y-79535714D02*
X150309523Y-80202380D01*
X150547619Y-79154761D02*
X150785714Y-79869047D01*
X150166666Y-79869047D01*
X123166666Y-65607142D02*
X123214285Y-65654761D01*
X123357142Y-65702380D01*
X123452380Y-65702380D01*
X123595238Y-65654761D01*
X123690476Y-65559523D01*
X123738095Y-65464285D01*
X123785714Y-65273809D01*
X123785714Y-65130952D01*
X123738095Y-64940476D01*
X123690476Y-64845238D01*
X123595238Y-64750000D01*
X123452380Y-64702380D01*
X123357142Y-64702380D01*
X123214285Y-64750000D01*
X123166666Y-64797619D01*
X122261904Y-64702380D02*
X122738095Y-64702380D01*
X122785714Y-65178571D01*
X122738095Y-65130952D01*
X122642857Y-65083333D01*
X122404761Y-65083333D01*
X122309523Y-65130952D01*
X122261904Y-65178571D01*
X122214285Y-65273809D01*
X122214285Y-65511904D01*
X122261904Y-65607142D01*
X122309523Y-65654761D01*
X122404761Y-65702380D01*
X122642857Y-65702380D01*
X122738095Y-65654761D01*
X122785714Y-65607142D01*
X123166666Y-67107142D02*
X123214285Y-67154761D01*
X123357142Y-67202380D01*
X123452380Y-67202380D01*
X123595238Y-67154761D01*
X123690476Y-67059523D01*
X123738095Y-66964285D01*
X123785714Y-66773809D01*
X123785714Y-66630952D01*
X123738095Y-66440476D01*
X123690476Y-66345238D01*
X123595238Y-66250000D01*
X123452380Y-66202380D01*
X123357142Y-66202380D01*
X123214285Y-66250000D01*
X123166666Y-66297619D01*
X122309523Y-66202380D02*
X122500000Y-66202380D01*
X122595238Y-66250000D01*
X122642857Y-66297619D01*
X122738095Y-66440476D01*
X122785714Y-66630952D01*
X122785714Y-67011904D01*
X122738095Y-67107142D01*
X122690476Y-67154761D01*
X122595238Y-67202380D01*
X122404761Y-67202380D01*
X122309523Y-67154761D01*
X122261904Y-67107142D01*
X122214285Y-67011904D01*
X122214285Y-66773809D01*
X122261904Y-66678571D01*
X122309523Y-66630952D01*
X122404761Y-66583333D01*
X122595238Y-66583333D01*
X122690476Y-66630952D01*
X122738095Y-66678571D01*
X122785714Y-66773809D01*
X131266666Y-74457142D02*
X131314285Y-74504761D01*
X131457142Y-74552380D01*
X131552380Y-74552380D01*
X131695238Y-74504761D01*
X131790476Y-74409523D01*
X131838095Y-74314285D01*
X131885714Y-74123809D01*
X131885714Y-73980952D01*
X131838095Y-73790476D01*
X131790476Y-73695238D01*
X131695238Y-73600000D01*
X131552380Y-73552380D01*
X131457142Y-73552380D01*
X131314285Y-73600000D01*
X131266666Y-73647619D01*
X130933333Y-73552380D02*
X130266666Y-73552380D01*
X130695238Y-74552380D01*
X139875000Y-68017857D02*
X139910714Y-68053571D01*
X140017857Y-68089285D01*
X140089285Y-68089285D01*
X140196428Y-68053571D01*
X140267857Y-67982142D01*
X140303571Y-67910714D01*
X140339285Y-67767857D01*
X140339285Y-67660714D01*
X140303571Y-67517857D01*
X140267857Y-67446428D01*
X140196428Y-67375000D01*
X140089285Y-67339285D01*
X140017857Y-67339285D01*
X139910714Y-67375000D01*
X139875000Y-67410714D01*
X139446428Y-67660714D02*
X139517857Y-67625000D01*
X139553571Y-67589285D01*
X139589285Y-67517857D01*
X139589285Y-67482142D01*
X139553571Y-67410714D01*
X139517857Y-67375000D01*
X139446428Y-67339285D01*
X139303571Y-67339285D01*
X139232142Y-67375000D01*
X139196428Y-67410714D01*
X139160714Y-67482142D01*
X139160714Y-67517857D01*
X139196428Y-67589285D01*
X139232142Y-67625000D01*
X139303571Y-67660714D01*
X139446428Y-67660714D01*
X139517857Y-67696428D01*
X139553571Y-67732142D01*
X139589285Y-67803571D01*
X139589285Y-67946428D01*
X139553571Y-68017857D01*
X139517857Y-68053571D01*
X139446428Y-68089285D01*
X139303571Y-68089285D01*
X139232142Y-68053571D01*
X139196428Y-68017857D01*
X139160714Y-67946428D01*
X139160714Y-67803571D01*
X139196428Y-67732142D01*
X139232142Y-67696428D01*
X139303571Y-67660714D01*
X141375000Y-68017857D02*
X141410714Y-68053571D01*
X141517857Y-68089285D01*
X141589285Y-68089285D01*
X141696428Y-68053571D01*
X141767857Y-67982142D01*
X141803571Y-67910714D01*
X141839285Y-67767857D01*
X141839285Y-67660714D01*
X141803571Y-67517857D01*
X141767857Y-67446428D01*
X141696428Y-67375000D01*
X141589285Y-67339285D01*
X141517857Y-67339285D01*
X141410714Y-67375000D01*
X141375000Y-67410714D01*
X141017857Y-68089285D02*
X140875000Y-68089285D01*
X140803571Y-68053571D01*
X140767857Y-68017857D01*
X140696428Y-67910714D01*
X140660714Y-67767857D01*
X140660714Y-67482142D01*
X140696428Y-67410714D01*
X140732142Y-67375000D01*
X140803571Y-67339285D01*
X140946428Y-67339285D01*
X141017857Y-67375000D01*
X141053571Y-67410714D01*
X141089285Y-67482142D01*
X141089285Y-67660714D01*
X141053571Y-67732142D01*
X141017857Y-67767857D01*
X140946428Y-67803571D01*
X140803571Y-67803571D01*
X140732142Y-67767857D01*
X140696428Y-67732142D01*
X140660714Y-67660714D01*
X155382142Y-77017857D02*
X155417857Y-77053571D01*
X155525000Y-77089285D01*
X155596428Y-77089285D01*
X155703571Y-77053571D01*
X155775000Y-76982142D01*
X155810714Y-76910714D01*
X155846428Y-76767857D01*
X155846428Y-76660714D01*
X155810714Y-76517857D01*
X155775000Y-76446428D01*
X155703571Y-76375000D01*
X155596428Y-76339285D01*
X155525000Y-76339285D01*
X155417857Y-76375000D01*
X155382142Y-76410714D01*
X154667857Y-77089285D02*
X155096428Y-77089285D01*
X154882142Y-77089285D02*
X154882142Y-76339285D01*
X154953571Y-76446428D01*
X155025000Y-76517857D01*
X155096428Y-76553571D01*
X154203571Y-76339285D02*
X154132142Y-76339285D01*
X154060714Y-76375000D01*
X154025000Y-76410714D01*
X153989285Y-76482142D01*
X153953571Y-76625000D01*
X153953571Y-76803571D01*
X153989285Y-76946428D01*
X154025000Y-77017857D01*
X154060714Y-77053571D01*
X154132142Y-77089285D01*
X154203571Y-77089285D01*
X154275000Y-77053571D01*
X154310714Y-77017857D01*
X154346428Y-76946428D01*
X154382142Y-76803571D01*
X154382142Y-76625000D01*
X154346428Y-76482142D01*
X154310714Y-76410714D01*
X154275000Y-76375000D01*
X154203571Y-76339285D01*
X134333333Y-68928571D02*
X134666666Y-68928571D01*
X134666666Y-69452380D02*
X134666666Y-68452380D01*
X134190476Y-68452380D01*
X133285714Y-69452380D02*
X133857142Y-69452380D01*
X133571428Y-69452380D02*
X133571428Y-68452380D01*
X133666666Y-68595238D01*
X133761904Y-68690476D01*
X133857142Y-68738095D01*
X154738095Y-65182380D02*
X154738095Y-64182380D01*
X154357142Y-64182380D01*
X154261904Y-64230000D01*
X154214285Y-64277619D01*
X154166666Y-64372857D01*
X154166666Y-64515714D01*
X154214285Y-64610952D01*
X154261904Y-64658571D01*
X154357142Y-64706190D01*
X154738095Y-64706190D01*
X153833333Y-64182380D02*
X153214285Y-64182380D01*
X153547619Y-64563333D01*
X153404761Y-64563333D01*
X153309523Y-64610952D01*
X153261904Y-64658571D01*
X153214285Y-64753809D01*
X153214285Y-64991904D01*
X153261904Y-65087142D01*
X153309523Y-65134761D01*
X153404761Y-65182380D01*
X153690476Y-65182380D01*
X153785714Y-65134761D01*
X153833333Y-65087142D01*
X149166666Y-73452380D02*
X149500000Y-72976190D01*
X149738095Y-73452380D02*
X149738095Y-72452380D01*
X149357142Y-72452380D01*
X149261904Y-72500000D01*
X149214285Y-72547619D01*
X149166666Y-72642857D01*
X149166666Y-72785714D01*
X149214285Y-72880952D01*
X149261904Y-72928571D01*
X149357142Y-72976190D01*
X149738095Y-72976190D01*
X148833333Y-72452380D02*
X148214285Y-72452380D01*
X148547619Y-72833333D01*
X148404761Y-72833333D01*
X148309523Y-72880952D01*
X148261904Y-72928571D01*
X148214285Y-73023809D01*
X148214285Y-73261904D01*
X148261904Y-73357142D01*
X148309523Y-73404761D01*
X148404761Y-73452380D01*
X148690476Y-73452380D01*
X148785714Y-73404761D01*
X148833333Y-73357142D01*
X135916666Y-85952380D02*
X136250000Y-85476190D01*
X136488095Y-85952380D02*
X136488095Y-84952380D01*
X136107142Y-84952380D01*
X136011904Y-85000000D01*
X135964285Y-85047619D01*
X135916666Y-85142857D01*
X135916666Y-85285714D01*
X135964285Y-85380952D01*
X136011904Y-85428571D01*
X136107142Y-85476190D01*
X136488095Y-85476190D01*
X135011904Y-84952380D02*
X135488095Y-84952380D01*
X135535714Y-85428571D01*
X135488095Y-85380952D01*
X135392857Y-85333333D01*
X135154761Y-85333333D01*
X135059523Y-85380952D01*
X135011904Y-85428571D01*
X134964285Y-85523809D01*
X134964285Y-85761904D01*
X135011904Y-85857142D01*
X135059523Y-85904761D01*
X135154761Y-85952380D01*
X135392857Y-85952380D01*
X135488095Y-85904761D01*
X135535714Y-85857142D01*
X152416666Y-81452380D02*
X152750000Y-80976190D01*
X152988095Y-81452380D02*
X152988095Y-80452380D01*
X152607142Y-80452380D01*
X152511904Y-80500000D01*
X152464285Y-80547619D01*
X152416666Y-80642857D01*
X152416666Y-80785714D01*
X152464285Y-80880952D01*
X152511904Y-80928571D01*
X152607142Y-80976190D01*
X152988095Y-80976190D01*
X151559523Y-80452380D02*
X151750000Y-80452380D01*
X151845238Y-80500000D01*
X151892857Y-80547619D01*
X151988095Y-80690476D01*
X152035714Y-80880952D01*
X152035714Y-81261904D01*
X151988095Y-81357142D01*
X151940476Y-81404761D01*
X151845238Y-81452380D01*
X151654761Y-81452380D01*
X151559523Y-81404761D01*
X151511904Y-81357142D01*
X151464285Y-81261904D01*
X151464285Y-81023809D01*
X151511904Y-80928571D01*
X151559523Y-80880952D01*
X151654761Y-80833333D01*
X151845238Y-80833333D01*
X151940476Y-80880952D01*
X151988095Y-80928571D01*
X152035714Y-81023809D01*
X163166666Y-78202380D02*
X163500000Y-77726190D01*
X163738095Y-78202380D02*
X163738095Y-77202380D01*
X163357142Y-77202380D01*
X163261904Y-77250000D01*
X163214285Y-77297619D01*
X163166666Y-77392857D01*
X163166666Y-77535714D01*
X163214285Y-77630952D01*
X163261904Y-77678571D01*
X163357142Y-77726190D01*
X163738095Y-77726190D01*
X162833333Y-77202380D02*
X162166666Y-77202380D01*
X162595238Y-78202380D01*
X153375000Y-77089285D02*
X153625000Y-76732142D01*
X153803571Y-77089285D02*
X153803571Y-76339285D01*
X153517857Y-76339285D01*
X153446428Y-76375000D01*
X153410714Y-76410714D01*
X153375000Y-76482142D01*
X153375000Y-76589285D01*
X153410714Y-76660714D01*
X153446428Y-76696428D01*
X153517857Y-76732142D01*
X153803571Y-76732142D01*
X152946428Y-76660714D02*
X153017857Y-76625000D01*
X153053571Y-76589285D01*
X153089285Y-76517857D01*
X153089285Y-76482142D01*
X153053571Y-76410714D01*
X153017857Y-76375000D01*
X152946428Y-76339285D01*
X152803571Y-76339285D01*
X152732142Y-76375000D01*
X152696428Y-76410714D01*
X152660714Y-76482142D01*
X152660714Y-76517857D01*
X152696428Y-76589285D01*
X152732142Y-76625000D01*
X152803571Y-76660714D01*
X152946428Y-76660714D01*
X153017857Y-76696428D01*
X153053571Y-76732142D01*
X153089285Y-76803571D01*
X153089285Y-76946428D01*
X153053571Y-77017857D01*
X153017857Y-77053571D01*
X152946428Y-77089285D01*
X152803571Y-77089285D01*
X152732142Y-77053571D01*
X152696428Y-77017857D01*
X152660714Y-76946428D01*
X152660714Y-76803571D01*
X152696428Y-76732142D01*
X152732142Y-76696428D01*
X152803571Y-76660714D01*
X163166666Y-79952380D02*
X163500000Y-79476190D01*
X163738095Y-79952380D02*
X163738095Y-78952380D01*
X163357142Y-78952380D01*
X163261904Y-79000000D01*
X163214285Y-79047619D01*
X163166666Y-79142857D01*
X163166666Y-79285714D01*
X163214285Y-79380952D01*
X163261904Y-79428571D01*
X163357142Y-79476190D01*
X163738095Y-79476190D01*
X162690476Y-79952380D02*
X162500000Y-79952380D01*
X162404761Y-79904761D01*
X162357142Y-79857142D01*
X162261904Y-79714285D01*
X162214285Y-79523809D01*
X162214285Y-79142857D01*
X162261904Y-79047619D01*
X162309523Y-79000000D01*
X162404761Y-78952380D01*
X162595238Y-78952380D01*
X162690476Y-79000000D01*
X162738095Y-79047619D01*
X162785714Y-79142857D01*
X162785714Y-79380952D01*
X162738095Y-79476190D01*
X162690476Y-79523809D01*
X162595238Y-79571428D01*
X162404761Y-79571428D01*
X162309523Y-79523809D01*
X162261904Y-79476190D01*
X162214285Y-79380952D01*
X129761904Y-61952380D02*
X129761904Y-62761904D01*
X129714285Y-62857142D01*
X129666666Y-62904761D01*
X129571428Y-62952380D01*
X129380952Y-62952380D01*
X129285714Y-62904761D01*
X129238095Y-62857142D01*
X129190476Y-62761904D01*
X129190476Y-61952380D01*
X128190476Y-62952380D02*
X128761904Y-62952380D01*
X128476190Y-62952380D02*
X128476190Y-61952380D01*
X128571428Y-62095238D01*
X128666666Y-62190476D01*
X128761904Y-62238095D01*
X146011904Y-71202380D02*
X146011904Y-72011904D01*
X145964285Y-72107142D01*
X145916666Y-72154761D01*
X145821428Y-72202380D01*
X145630952Y-72202380D01*
X145535714Y-72154761D01*
X145488095Y-72107142D01*
X145440476Y-72011904D01*
X145440476Y-71202380D01*
X145011904Y-71297619D02*
X144964285Y-71250000D01*
X144869047Y-71202380D01*
X144630952Y-71202380D01*
X144535714Y-71250000D01*
X144488095Y-71297619D01*
X144440476Y-71392857D01*
X144440476Y-71488095D01*
X144488095Y-71630952D01*
X145059523Y-72202380D01*
X144440476Y-72202380D01*
X157761904Y-78952380D02*
X157761904Y-79761904D01*
X157714285Y-79857142D01*
X157666666Y-79904761D01*
X157571428Y-79952380D01*
X157380952Y-79952380D01*
X157285714Y-79904761D01*
X157238095Y-79857142D01*
X157190476Y-79761904D01*
X157190476Y-78952380D01*
X156809523Y-78952380D02*
X156190476Y-78952380D01*
X156523809Y-79333333D01*
X156380952Y-79333333D01*
X156285714Y-79380952D01*
X156238095Y-79428571D01*
X156190476Y-79523809D01*
X156190476Y-79761904D01*
X156238095Y-79857142D01*
X156285714Y-79904761D01*
X156380952Y-79952380D01*
X156666666Y-79952380D01*
X156761904Y-79904761D01*
X156809523Y-79857142D01*
M02*
