G04 #@! TF.GenerationSoftware,KiCad,Pcbnew,(5.1.5)-3*
G04 #@! TF.CreationDate,2021-06-05T08:31:09+02:00*
G04 #@! TF.ProjectId,gamerino,67616d65-7269-46e6-9f2e-6b696361645f,01*
G04 #@! TF.SameCoordinates,Original*
G04 #@! TF.FileFunction,Soldermask,Top*
G04 #@! TF.FilePolarity,Negative*
%FSLAX46Y46*%
G04 Gerber Fmt 4.6, Leading zero omitted, Abs format (unit mm)*
G04 Created by KiCad (PCBNEW (5.1.5)-3) date 2021-06-05 08:31:09*
%MOMM*%
%LPD*%
G04 APERTURE LIST*
%ADD10R,0.650000X1.060000*%
%ADD11C,1.100000*%
%ADD12R,1.100000X1.100000*%
%ADD13C,0.100000*%
%ADD14O,1.300000X0.800000*%
%ADD15C,2.000000*%
%ADD16R,2.000000X2.000000*%
%ADD17C,2.200000*%
%ADD18R,2.400000X3.050000*%
%ADD19R,0.300000X1.000000*%
%ADD20R,1.800000X1.300000*%
%ADD21R,1.300000X1.800000*%
%ADD22R,0.700000X0.700000*%
%ADD23R,1.100000X0.900000*%
%ADD24C,3.200000*%
%ADD25R,1.800000X1.500000*%
%ADD26R,1.500000X1.800000*%
%ADD27C,1.500000*%
%ADD28C,1.400000*%
%ADD29C,1.800000*%
%ADD30R,1.700000X1.700000*%
%ADD31O,1.700000X1.700000*%
G04 APERTURE END LIST*
D10*
X138620000Y-68970000D03*
X136720000Y-68970000D03*
X136720000Y-66770000D03*
X137670000Y-66770000D03*
X138620000Y-66770000D03*
D11*
X143715000Y-102750000D03*
X142445000Y-102750000D03*
X141175000Y-102750000D03*
X139905000Y-102750000D03*
X138635000Y-102750000D03*
X137365000Y-102750000D03*
X136095000Y-102750000D03*
X134825000Y-102750000D03*
X133555000Y-102750000D03*
D12*
X132285000Y-102750000D03*
D13*
G36*
X185219603Y-107975963D02*
G01*
X185239018Y-107978843D01*
X185258057Y-107983612D01*
X185276537Y-107990224D01*
X185294279Y-107998616D01*
X185311114Y-108008706D01*
X185326879Y-108020398D01*
X185341421Y-108033579D01*
X185354602Y-108048121D01*
X185366294Y-108063886D01*
X185376384Y-108080721D01*
X185384776Y-108098463D01*
X185391388Y-108116943D01*
X185396157Y-108135982D01*
X185399037Y-108155397D01*
X185400000Y-108175000D01*
X185400000Y-108575000D01*
X185399037Y-108594603D01*
X185396157Y-108614018D01*
X185391388Y-108633057D01*
X185384776Y-108651537D01*
X185376384Y-108669279D01*
X185366294Y-108686114D01*
X185354602Y-108701879D01*
X185341421Y-108716421D01*
X185326879Y-108729602D01*
X185311114Y-108741294D01*
X185294279Y-108751384D01*
X185276537Y-108759776D01*
X185258057Y-108766388D01*
X185239018Y-108771157D01*
X185219603Y-108774037D01*
X185200000Y-108775000D01*
X184300000Y-108775000D01*
X184280397Y-108774037D01*
X184260982Y-108771157D01*
X184241943Y-108766388D01*
X184223463Y-108759776D01*
X184205721Y-108751384D01*
X184188886Y-108741294D01*
X184173121Y-108729602D01*
X184158579Y-108716421D01*
X184145398Y-108701879D01*
X184133706Y-108686114D01*
X184123616Y-108669279D01*
X184115224Y-108651537D01*
X184108612Y-108633057D01*
X184103843Y-108614018D01*
X184100963Y-108594603D01*
X184100000Y-108575000D01*
X184100000Y-108175000D01*
X184100963Y-108155397D01*
X184103843Y-108135982D01*
X184108612Y-108116943D01*
X184115224Y-108098463D01*
X184123616Y-108080721D01*
X184133706Y-108063886D01*
X184145398Y-108048121D01*
X184158579Y-108033579D01*
X184173121Y-108020398D01*
X184188886Y-108008706D01*
X184205721Y-107998616D01*
X184223463Y-107990224D01*
X184241943Y-107983612D01*
X184260982Y-107978843D01*
X184280397Y-107975963D01*
X184300000Y-107975000D01*
X185200000Y-107975000D01*
X185219603Y-107975963D01*
G37*
D14*
X184750000Y-107125000D03*
X90500000Y-106875000D03*
D13*
G36*
X90969603Y-107725963D02*
G01*
X90989018Y-107728843D01*
X91008057Y-107733612D01*
X91026537Y-107740224D01*
X91044279Y-107748616D01*
X91061114Y-107758706D01*
X91076879Y-107770398D01*
X91091421Y-107783579D01*
X91104602Y-107798121D01*
X91116294Y-107813886D01*
X91126384Y-107830721D01*
X91134776Y-107848463D01*
X91141388Y-107866943D01*
X91146157Y-107885982D01*
X91149037Y-107905397D01*
X91150000Y-107925000D01*
X91150000Y-108325000D01*
X91149037Y-108344603D01*
X91146157Y-108364018D01*
X91141388Y-108383057D01*
X91134776Y-108401537D01*
X91126384Y-108419279D01*
X91116294Y-108436114D01*
X91104602Y-108451879D01*
X91091421Y-108466421D01*
X91076879Y-108479602D01*
X91061114Y-108491294D01*
X91044279Y-108501384D01*
X91026537Y-108509776D01*
X91008057Y-108516388D01*
X90989018Y-108521157D01*
X90969603Y-108524037D01*
X90950000Y-108525000D01*
X90050000Y-108525000D01*
X90030397Y-108524037D01*
X90010982Y-108521157D01*
X89991943Y-108516388D01*
X89973463Y-108509776D01*
X89955721Y-108501384D01*
X89938886Y-108491294D01*
X89923121Y-108479602D01*
X89908579Y-108466421D01*
X89895398Y-108451879D01*
X89883706Y-108436114D01*
X89873616Y-108419279D01*
X89865224Y-108401537D01*
X89858612Y-108383057D01*
X89853843Y-108364018D01*
X89850963Y-108344603D01*
X89850000Y-108325000D01*
X89850000Y-107925000D01*
X89850963Y-107905397D01*
X89853843Y-107885982D01*
X89858612Y-107866943D01*
X89865224Y-107848463D01*
X89873616Y-107830721D01*
X89883706Y-107813886D01*
X89895398Y-107798121D01*
X89908579Y-107783579D01*
X89923121Y-107770398D01*
X89938886Y-107758706D01*
X89955721Y-107748616D01*
X89973463Y-107740224D01*
X89991943Y-107733612D01*
X90010982Y-107728843D01*
X90030397Y-107725963D01*
X90050000Y-107725000D01*
X90950000Y-107725000D01*
X90969603Y-107725963D01*
G37*
D15*
X194040000Y-78000000D03*
X191500000Y-75460000D03*
X191500000Y-80540000D03*
X194040000Y-75460000D03*
X194040000Y-80540000D03*
X188960000Y-75460000D03*
D16*
X188960000Y-80540000D03*
D13*
G36*
X166969603Y-58350963D02*
G01*
X166989018Y-58353843D01*
X167008057Y-58358612D01*
X167026537Y-58365224D01*
X167044279Y-58373616D01*
X167061114Y-58383706D01*
X167076879Y-58395398D01*
X167091421Y-58408579D01*
X167104602Y-58423121D01*
X167116294Y-58438886D01*
X167126384Y-58455721D01*
X167134776Y-58473463D01*
X167141388Y-58491943D01*
X167146157Y-58510982D01*
X167149037Y-58530397D01*
X167150000Y-58550000D01*
X167150000Y-58950000D01*
X167149037Y-58969603D01*
X167146157Y-58989018D01*
X167141388Y-59008057D01*
X167134776Y-59026537D01*
X167126384Y-59044279D01*
X167116294Y-59061114D01*
X167104602Y-59076879D01*
X167091421Y-59091421D01*
X167076879Y-59104602D01*
X167061114Y-59116294D01*
X167044279Y-59126384D01*
X167026537Y-59134776D01*
X167008057Y-59141388D01*
X166989018Y-59146157D01*
X166969603Y-59149037D01*
X166950000Y-59150000D01*
X166050000Y-59150000D01*
X166030397Y-59149037D01*
X166010982Y-59146157D01*
X165991943Y-59141388D01*
X165973463Y-59134776D01*
X165955721Y-59126384D01*
X165938886Y-59116294D01*
X165923121Y-59104602D01*
X165908579Y-59091421D01*
X165895398Y-59076879D01*
X165883706Y-59061114D01*
X165873616Y-59044279D01*
X165865224Y-59026537D01*
X165858612Y-59008057D01*
X165853843Y-58989018D01*
X165850963Y-58969603D01*
X165850000Y-58950000D01*
X165850000Y-58550000D01*
X165850963Y-58530397D01*
X165853843Y-58510982D01*
X165858612Y-58491943D01*
X165865224Y-58473463D01*
X165873616Y-58455721D01*
X165883706Y-58438886D01*
X165895398Y-58423121D01*
X165908579Y-58408579D01*
X165923121Y-58395398D01*
X165938886Y-58383706D01*
X165955721Y-58373616D01*
X165973463Y-58365224D01*
X165991943Y-58358612D01*
X166010982Y-58353843D01*
X166030397Y-58350963D01*
X166050000Y-58350000D01*
X166950000Y-58350000D01*
X166969603Y-58350963D01*
G37*
D14*
X166500000Y-60000000D03*
X166500000Y-61250000D03*
D13*
G36*
X110969603Y-58350963D02*
G01*
X110989018Y-58353843D01*
X111008057Y-58358612D01*
X111026537Y-58365224D01*
X111044279Y-58373616D01*
X111061114Y-58383706D01*
X111076879Y-58395398D01*
X111091421Y-58408579D01*
X111104602Y-58423121D01*
X111116294Y-58438886D01*
X111126384Y-58455721D01*
X111134776Y-58473463D01*
X111141388Y-58491943D01*
X111146157Y-58510982D01*
X111149037Y-58530397D01*
X111150000Y-58550000D01*
X111150000Y-58950000D01*
X111149037Y-58969603D01*
X111146157Y-58989018D01*
X111141388Y-59008057D01*
X111134776Y-59026537D01*
X111126384Y-59044279D01*
X111116294Y-59061114D01*
X111104602Y-59076879D01*
X111091421Y-59091421D01*
X111076879Y-59104602D01*
X111061114Y-59116294D01*
X111044279Y-59126384D01*
X111026537Y-59134776D01*
X111008057Y-59141388D01*
X110989018Y-59146157D01*
X110969603Y-59149037D01*
X110950000Y-59150000D01*
X110050000Y-59150000D01*
X110030397Y-59149037D01*
X110010982Y-59146157D01*
X109991943Y-59141388D01*
X109973463Y-59134776D01*
X109955721Y-59126384D01*
X109938886Y-59116294D01*
X109923121Y-59104602D01*
X109908579Y-59091421D01*
X109895398Y-59076879D01*
X109883706Y-59061114D01*
X109873616Y-59044279D01*
X109865224Y-59026537D01*
X109858612Y-59008057D01*
X109853843Y-58989018D01*
X109850963Y-58969603D01*
X109850000Y-58950000D01*
X109850000Y-58550000D01*
X109850963Y-58530397D01*
X109853843Y-58510982D01*
X109858612Y-58491943D01*
X109865224Y-58473463D01*
X109873616Y-58455721D01*
X109883706Y-58438886D01*
X109895398Y-58423121D01*
X109908579Y-58408579D01*
X109923121Y-58395398D01*
X109938886Y-58383706D01*
X109955721Y-58373616D01*
X109973463Y-58365224D01*
X109991943Y-58358612D01*
X110010982Y-58353843D01*
X110030397Y-58350963D01*
X110050000Y-58350000D01*
X110950000Y-58350000D01*
X110969603Y-58350963D01*
G37*
D14*
X110500000Y-60000000D03*
X110500000Y-61250000D03*
D17*
X138000000Y-110500000D03*
X115250000Y-65500000D03*
X160750000Y-65500000D03*
D18*
X152500000Y-70250000D03*
X158500000Y-70250000D03*
D19*
X156250000Y-68500000D03*
D13*
G36*
X154832351Y-68000361D02*
G01*
X154839632Y-68001441D01*
X154846771Y-68003229D01*
X154853701Y-68005709D01*
X154860355Y-68008856D01*
X154866668Y-68012640D01*
X154872579Y-68017024D01*
X154878033Y-68021967D01*
X154882976Y-68027421D01*
X154887360Y-68033332D01*
X154891144Y-68039645D01*
X154894291Y-68046299D01*
X154896771Y-68053229D01*
X154898559Y-68060368D01*
X154899639Y-68067649D01*
X154900000Y-68075000D01*
X154900000Y-68925000D01*
X154899639Y-68932351D01*
X154898559Y-68939632D01*
X154896771Y-68946771D01*
X154894291Y-68953701D01*
X154891144Y-68960355D01*
X154887360Y-68966668D01*
X154882976Y-68972579D01*
X154878033Y-68978033D01*
X154872579Y-68982976D01*
X154866668Y-68987360D01*
X154860355Y-68991144D01*
X154853701Y-68994291D01*
X154846771Y-68996771D01*
X154839632Y-68998559D01*
X154832351Y-68999639D01*
X154825000Y-69000000D01*
X154675000Y-69000000D01*
X154667649Y-68999639D01*
X154660368Y-68998559D01*
X154653229Y-68996771D01*
X154646299Y-68994291D01*
X154639645Y-68991144D01*
X154633332Y-68987360D01*
X154627421Y-68982976D01*
X154621967Y-68978033D01*
X154617024Y-68972579D01*
X154612640Y-68966668D01*
X154608856Y-68960355D01*
X154605709Y-68953701D01*
X154603229Y-68946771D01*
X154601441Y-68939632D01*
X154600361Y-68932351D01*
X154600000Y-68925000D01*
X154600000Y-68075000D01*
X154600361Y-68067649D01*
X154601441Y-68060368D01*
X154603229Y-68053229D01*
X154605709Y-68046299D01*
X154608856Y-68039645D01*
X154612640Y-68033332D01*
X154617024Y-68027421D01*
X154621967Y-68021967D01*
X154627421Y-68017024D01*
X154633332Y-68012640D01*
X154639645Y-68008856D01*
X154646299Y-68005709D01*
X154653229Y-68003229D01*
X154660368Y-68001441D01*
X154667649Y-68000361D01*
X154675000Y-68000000D01*
X154825000Y-68000000D01*
X154832351Y-68000361D01*
G37*
D19*
X155250000Y-68500000D03*
X155750000Y-68500000D03*
D18*
X103500000Y-110750000D03*
X97500000Y-110750000D03*
D19*
X99750000Y-112500000D03*
D13*
G36*
X101332351Y-112000361D02*
G01*
X101339632Y-112001441D01*
X101346771Y-112003229D01*
X101353701Y-112005709D01*
X101360355Y-112008856D01*
X101366668Y-112012640D01*
X101372579Y-112017024D01*
X101378033Y-112021967D01*
X101382976Y-112027421D01*
X101387360Y-112033332D01*
X101391144Y-112039645D01*
X101394291Y-112046299D01*
X101396771Y-112053229D01*
X101398559Y-112060368D01*
X101399639Y-112067649D01*
X101400000Y-112075000D01*
X101400000Y-112925000D01*
X101399639Y-112932351D01*
X101398559Y-112939632D01*
X101396771Y-112946771D01*
X101394291Y-112953701D01*
X101391144Y-112960355D01*
X101387360Y-112966668D01*
X101382976Y-112972579D01*
X101378033Y-112978033D01*
X101372579Y-112982976D01*
X101366668Y-112987360D01*
X101360355Y-112991144D01*
X101353701Y-112994291D01*
X101346771Y-112996771D01*
X101339632Y-112998559D01*
X101332351Y-112999639D01*
X101325000Y-113000000D01*
X101175000Y-113000000D01*
X101167649Y-112999639D01*
X101160368Y-112998559D01*
X101153229Y-112996771D01*
X101146299Y-112994291D01*
X101139645Y-112991144D01*
X101133332Y-112987360D01*
X101127421Y-112982976D01*
X101121967Y-112978033D01*
X101117024Y-112972579D01*
X101112640Y-112966668D01*
X101108856Y-112960355D01*
X101105709Y-112953701D01*
X101103229Y-112946771D01*
X101101441Y-112939632D01*
X101100361Y-112932351D01*
X101100000Y-112925000D01*
X101100000Y-112075000D01*
X101100361Y-112067649D01*
X101101441Y-112060368D01*
X101103229Y-112053229D01*
X101105709Y-112046299D01*
X101108856Y-112039645D01*
X101112640Y-112033332D01*
X101117024Y-112027421D01*
X101121967Y-112021967D01*
X101127421Y-112017024D01*
X101133332Y-112012640D01*
X101139645Y-112008856D01*
X101146299Y-112005709D01*
X101153229Y-112003229D01*
X101160368Y-112001441D01*
X101167649Y-112000361D01*
X101175000Y-112000000D01*
X101325000Y-112000000D01*
X101332351Y-112000361D01*
G37*
D19*
X100750000Y-112500000D03*
X100250000Y-112500000D03*
D20*
X133550000Y-78000000D03*
X142450000Y-78000000D03*
D21*
X140250000Y-82600000D03*
X140250000Y-73400000D03*
X135750000Y-73400000D03*
X135750000Y-82600000D03*
D22*
X157850000Y-60000000D03*
X163150000Y-60000000D03*
D23*
X158050000Y-58900000D03*
X162950000Y-58900000D03*
X158050000Y-61100000D03*
X162950000Y-61100000D03*
D22*
X112850000Y-60000000D03*
X118150000Y-60000000D03*
D23*
X113050000Y-58900000D03*
X117950000Y-58900000D03*
X113050000Y-61100000D03*
X117950000Y-61100000D03*
D22*
X144350000Y-78000000D03*
X149650000Y-78000000D03*
D23*
X144550000Y-76900000D03*
X149450000Y-76900000D03*
X144550000Y-79100000D03*
X149450000Y-79100000D03*
X131450000Y-79100000D03*
X126550000Y-79100000D03*
X131450000Y-76900000D03*
X126550000Y-76900000D03*
D22*
X131650000Y-78000000D03*
X126350000Y-78000000D03*
D24*
X85000000Y-107500000D03*
X85000000Y-63500000D03*
X191000000Y-63500000D03*
X191000000Y-107500000D03*
D25*
X116000000Y-96700000D03*
X116000000Y-107300000D03*
D26*
X110700000Y-102000000D03*
X121300000Y-102000000D03*
D13*
G36*
X118583274Y-98143934D02*
G01*
X119643934Y-97083274D01*
X120916726Y-98356066D01*
X119856066Y-99416726D01*
X118583274Y-98143934D01*
G37*
G36*
X111083274Y-105643934D02*
G01*
X112143934Y-104583274D01*
X113416726Y-105856066D01*
X112356066Y-106916726D01*
X111083274Y-105643934D01*
G37*
D27*
X118330000Y-99670000D03*
D11*
X113670000Y-104330000D03*
D13*
G36*
X113431066Y-98159594D02*
G01*
X112370406Y-97098934D01*
X113218934Y-96250406D01*
X114279594Y-97311066D01*
X113431066Y-98159594D01*
G37*
G36*
X118781066Y-107749594D02*
G01*
X117720406Y-106688934D01*
X118568934Y-105840406D01*
X119629594Y-106901066D01*
X118781066Y-107749594D01*
G37*
D27*
X168050000Y-111400000D03*
D15*
X152900000Y-112700000D03*
D27*
X87950000Y-69600000D03*
D15*
X103100000Y-68300000D03*
D27*
X97500000Y-58450000D03*
X93500000Y-58450000D03*
D28*
X98550000Y-62400000D03*
X92450000Y-62400000D03*
D29*
X95500000Y-59000000D03*
D27*
X101500000Y-58450000D03*
X105500000Y-58450000D03*
D28*
X100450000Y-62400000D03*
X106550000Y-62400000D03*
D29*
X103500000Y-59000000D03*
D27*
X170500000Y-58450000D03*
X174500000Y-58450000D03*
D28*
X169450000Y-62400000D03*
X175550000Y-62400000D03*
D29*
X172500000Y-59000000D03*
D27*
X182500000Y-58450000D03*
X178500000Y-58450000D03*
D28*
X183550000Y-62400000D03*
X177450000Y-62400000D03*
D29*
X180500000Y-59000000D03*
D15*
X183040000Y-67000000D03*
X180500000Y-64460000D03*
X180500000Y-69540000D03*
X183040000Y-64460000D03*
X183040000Y-69540000D03*
X177960000Y-64460000D03*
D16*
X177960000Y-69540000D03*
D15*
X183040000Y-89000000D03*
X180500000Y-86460000D03*
X180500000Y-91540000D03*
X183040000Y-86460000D03*
X183040000Y-91540000D03*
X177960000Y-86460000D03*
D16*
X177960000Y-91540000D03*
D15*
X172040000Y-78000000D03*
X169500000Y-75460000D03*
X169500000Y-80540000D03*
X172040000Y-75460000D03*
X172040000Y-80540000D03*
X166960000Y-75460000D03*
D16*
X166960000Y-80540000D03*
D30*
X151000000Y-66000000D03*
D31*
X151000000Y-63460000D03*
X148460000Y-66000000D03*
X148460000Y-63460000D03*
X145920000Y-66000000D03*
X145920000Y-63460000D03*
M02*
