G04 #@! TF.GenerationSoftware,KiCad,Pcbnew,(5.1.5)-3*
G04 #@! TF.CreationDate,2021-06-05T08:31:08+02:00*
G04 #@! TF.ProjectId,gamerino,67616d65-7269-46e6-9f2e-6b696361645f,01*
G04 #@! TF.SameCoordinates,Original*
G04 #@! TF.FileFunction,Paste,Top*
G04 #@! TF.FilePolarity,Positive*
%FSLAX46Y46*%
G04 Gerber Fmt 4.6, Leading zero omitted, Abs format (unit mm)*
G04 Created by KiCad (PCBNEW (5.1.5)-3) date 2021-06-05 08:31:08*
%MOMM*%
%LPD*%
G04 APERTURE LIST*
%ADD10R,0.650000X1.060000*%
%ADD11R,0.300000X1.000000*%
%ADD12C,0.100000*%
%ADD13R,1.800000X1.300000*%
%ADD14R,1.300000X1.800000*%
%ADD15R,0.700000X0.700000*%
%ADD16R,1.100000X0.900000*%
%ADD17R,1.800000X1.500000*%
%ADD18R,1.500000X1.800000*%
G04 APERTURE END LIST*
D10*
X138620000Y-68970000D03*
X136720000Y-68970000D03*
X136720000Y-66770000D03*
X137670000Y-66770000D03*
X138620000Y-66770000D03*
D11*
X156250000Y-68500000D03*
D12*
G36*
X154832351Y-68000361D02*
G01*
X154839632Y-68001441D01*
X154846771Y-68003229D01*
X154853701Y-68005709D01*
X154860355Y-68008856D01*
X154866668Y-68012640D01*
X154872579Y-68017024D01*
X154878033Y-68021967D01*
X154882976Y-68027421D01*
X154887360Y-68033332D01*
X154891144Y-68039645D01*
X154894291Y-68046299D01*
X154896771Y-68053229D01*
X154898559Y-68060368D01*
X154899639Y-68067649D01*
X154900000Y-68075000D01*
X154900000Y-68925000D01*
X154899639Y-68932351D01*
X154898559Y-68939632D01*
X154896771Y-68946771D01*
X154894291Y-68953701D01*
X154891144Y-68960355D01*
X154887360Y-68966668D01*
X154882976Y-68972579D01*
X154878033Y-68978033D01*
X154872579Y-68982976D01*
X154866668Y-68987360D01*
X154860355Y-68991144D01*
X154853701Y-68994291D01*
X154846771Y-68996771D01*
X154839632Y-68998559D01*
X154832351Y-68999639D01*
X154825000Y-69000000D01*
X154675000Y-69000000D01*
X154667649Y-68999639D01*
X154660368Y-68998559D01*
X154653229Y-68996771D01*
X154646299Y-68994291D01*
X154639645Y-68991144D01*
X154633332Y-68987360D01*
X154627421Y-68982976D01*
X154621967Y-68978033D01*
X154617024Y-68972579D01*
X154612640Y-68966668D01*
X154608856Y-68960355D01*
X154605709Y-68953701D01*
X154603229Y-68946771D01*
X154601441Y-68939632D01*
X154600361Y-68932351D01*
X154600000Y-68925000D01*
X154600000Y-68075000D01*
X154600361Y-68067649D01*
X154601441Y-68060368D01*
X154603229Y-68053229D01*
X154605709Y-68046299D01*
X154608856Y-68039645D01*
X154612640Y-68033332D01*
X154617024Y-68027421D01*
X154621967Y-68021967D01*
X154627421Y-68017024D01*
X154633332Y-68012640D01*
X154639645Y-68008856D01*
X154646299Y-68005709D01*
X154653229Y-68003229D01*
X154660368Y-68001441D01*
X154667649Y-68000361D01*
X154675000Y-68000000D01*
X154825000Y-68000000D01*
X154832351Y-68000361D01*
G37*
D11*
X155250000Y-68500000D03*
X155750000Y-68500000D03*
X99750000Y-112500000D03*
D12*
G36*
X101332351Y-112000361D02*
G01*
X101339632Y-112001441D01*
X101346771Y-112003229D01*
X101353701Y-112005709D01*
X101360355Y-112008856D01*
X101366668Y-112012640D01*
X101372579Y-112017024D01*
X101378033Y-112021967D01*
X101382976Y-112027421D01*
X101387360Y-112033332D01*
X101391144Y-112039645D01*
X101394291Y-112046299D01*
X101396771Y-112053229D01*
X101398559Y-112060368D01*
X101399639Y-112067649D01*
X101400000Y-112075000D01*
X101400000Y-112925000D01*
X101399639Y-112932351D01*
X101398559Y-112939632D01*
X101396771Y-112946771D01*
X101394291Y-112953701D01*
X101391144Y-112960355D01*
X101387360Y-112966668D01*
X101382976Y-112972579D01*
X101378033Y-112978033D01*
X101372579Y-112982976D01*
X101366668Y-112987360D01*
X101360355Y-112991144D01*
X101353701Y-112994291D01*
X101346771Y-112996771D01*
X101339632Y-112998559D01*
X101332351Y-112999639D01*
X101325000Y-113000000D01*
X101175000Y-113000000D01*
X101167649Y-112999639D01*
X101160368Y-112998559D01*
X101153229Y-112996771D01*
X101146299Y-112994291D01*
X101139645Y-112991144D01*
X101133332Y-112987360D01*
X101127421Y-112982976D01*
X101121967Y-112978033D01*
X101117024Y-112972579D01*
X101112640Y-112966668D01*
X101108856Y-112960355D01*
X101105709Y-112953701D01*
X101103229Y-112946771D01*
X101101441Y-112939632D01*
X101100361Y-112932351D01*
X101100000Y-112925000D01*
X101100000Y-112075000D01*
X101100361Y-112067649D01*
X101101441Y-112060368D01*
X101103229Y-112053229D01*
X101105709Y-112046299D01*
X101108856Y-112039645D01*
X101112640Y-112033332D01*
X101117024Y-112027421D01*
X101121967Y-112021967D01*
X101127421Y-112017024D01*
X101133332Y-112012640D01*
X101139645Y-112008856D01*
X101146299Y-112005709D01*
X101153229Y-112003229D01*
X101160368Y-112001441D01*
X101167649Y-112000361D01*
X101175000Y-112000000D01*
X101325000Y-112000000D01*
X101332351Y-112000361D01*
G37*
D11*
X100750000Y-112500000D03*
X100250000Y-112500000D03*
D13*
X133550000Y-78000000D03*
X142450000Y-78000000D03*
D14*
X140250000Y-82600000D03*
X140250000Y-73400000D03*
X135750000Y-73400000D03*
X135750000Y-82600000D03*
D15*
X157850000Y-60000000D03*
X163150000Y-60000000D03*
D16*
X158050000Y-58900000D03*
X162950000Y-58900000D03*
X158050000Y-61100000D03*
X162950000Y-61100000D03*
D15*
X112850000Y-60000000D03*
X118150000Y-60000000D03*
D16*
X113050000Y-58900000D03*
X117950000Y-58900000D03*
X113050000Y-61100000D03*
X117950000Y-61100000D03*
D15*
X144350000Y-78000000D03*
X149650000Y-78000000D03*
D16*
X144550000Y-76900000D03*
X149450000Y-76900000D03*
X144550000Y-79100000D03*
X149450000Y-79100000D03*
X131450000Y-79100000D03*
X126550000Y-79100000D03*
X131450000Y-76900000D03*
X126550000Y-76900000D03*
D15*
X131650000Y-78000000D03*
X126350000Y-78000000D03*
D17*
X116000000Y-96700000D03*
X116000000Y-107300000D03*
D18*
X110700000Y-102000000D03*
X121300000Y-102000000D03*
D12*
G36*
X118583274Y-98143934D02*
G01*
X119643934Y-97083274D01*
X120916726Y-98356066D01*
X119856066Y-99416726D01*
X118583274Y-98143934D01*
G37*
G36*
X111083274Y-105643934D02*
G01*
X112143934Y-104583274D01*
X113416726Y-105856066D01*
X112356066Y-106916726D01*
X111083274Y-105643934D01*
G37*
G36*
X113431066Y-98159594D02*
G01*
X112370406Y-97098934D01*
X113218934Y-96250406D01*
X114279594Y-97311066D01*
X113431066Y-98159594D01*
G37*
G36*
X118781066Y-107749594D02*
G01*
X117720406Y-106688934D01*
X118568934Y-105840406D01*
X119629594Y-106901066D01*
X118781066Y-107749594D01*
G37*
M02*
