M48
; DRILL file {KiCad (5.1.9)-1} date 06/08/21 22:25:09
; FORMAT={-:-/ absolute / inch / decimal}
; #@! TF.CreationDate,2021-06-08T22:25:09+02:00
; #@! TF.GenerationSoftware,Kicad,Pcbnew,(5.1.9)-1
; #@! TF.FileFunction,Plated,1,2,PTH
FMAT,2
INCH
T1C0.0079
T2C0.0157
T3C0.0197
T4C0.0276
T5C0.0315
T6C0.0394
T7C0.0433
%
G90
G05
T1
X5.4039Y-2.7602
X5.4354Y-2.7602
T2
X3.8386Y-3.7478
X3.9272Y-3.0701
X3.9272Y-4.128
X3.9665Y-3.1016
X3.9665Y-4.1791
X3.9862Y-4.4882
X4.2884Y-2.999
X4.3583Y-3.6506
X4.4488Y-4.2815
X4.4488Y-4.5394
X4.4618Y-3.683
X4.5669Y-3.6182
X4.5669Y-4.2244
X4.6437Y-2.3189
X4.6437Y-3.521
X4.6894Y-4.1882
X4.7756Y-3.7154
X4.9429Y-3.1585
X4.9437Y-3.7802
X4.9642Y-2.489
X4.972Y-2.5689
X4.972Y-2.628
X4.9823Y-3.0276
X4.9823Y-3.5534
X5.0343Y-2.4744
X5.035Y-2.5217
X5.0866Y-3.1329
X5.0866Y-3.8126
X5.1368Y-3.1644
X5.1368Y-3.5858
X5.2026Y-3.2276
X5.2126Y-3.3351
X5.2126Y-3.3976
X5.2224Y-2.9126
X5.2756Y-2.8642
X5.3071Y-2.5768
X5.3439Y-3.4886
X5.3496Y-2.6394
X5.381Y-3.4473
X5.404Y-3.3438
X5.418Y-3.4886
X5.4551Y-3.4473
X5.4921Y-3.4886
X5.5213Y-3.8457
X5.5614Y-3.4886
X5.5929Y-2.6772
X5.5929Y-3.4473
X5.6244Y-2.628
X5.6244Y-3.3528
X5.6559Y-2.7067
X5.689Y-3.4886
X5.6988Y-2.874
X5.7283Y-3.4473
X5.7283Y-4.2522
X5.7673Y-3.8784
X5.7677Y-3.4886
X5.7709Y-2.9756
X5.7976Y-2.8429
X5.8071Y-3.314
X5.8071Y-3.521
X5.8465Y-3.3425
X5.8465Y-3.5534
X5.8492Y-2.9126
X5.8839Y-3.2884
X5.8858Y-3.3707
X5.8858Y-3.8457
X5.9252Y-3.3991
X5.9252Y-3.6182
X5.9496Y-3.0272
X5.9634Y-3.2374
X5.9646Y-3.4275
X5.9646Y-3.6506
X6.0039Y-3.4559
X6.0039Y-3.683
X6.0335Y-3.0689
X6.0433Y-3.4843
X6.0433Y-3.7154
X6.0925Y-2.6378
X6.0984Y-3.1314
X6.1366Y-2.9469
X6.1366Y-3.5858
X6.1776Y-2.998
X6.1776Y-3.8122
X6.222Y-2.4055
X6.3228Y-2.9126
X6.3228Y-3.1575
X6.4154Y-3.2628
X6.4157Y-3.4449
X6.4157Y-3.7478
X6.4512Y-4.2236
X6.4516Y-3.4286
X6.4882Y-3.7802
X7.3228Y-3.878
X7.3228Y-4.5079
T3
X3.563Y-4.2077
X3.563Y-4.2569
X4.3504Y-2.313
X4.3504Y-2.3622
X4.3504Y-2.4114
X6.5551Y-2.313
X6.5551Y-2.3622
X6.5551Y-2.4114
X7.2736Y-4.2175
X7.2736Y-4.2667
T4
X5.2081Y-4.0453
X5.2581Y-4.0453
X5.3081Y-4.0453
X5.3581Y-4.0453
X5.4081Y-4.0453
X5.4581Y-4.0453
X5.5081Y-4.0453
X5.5581Y-4.0453
X5.6081Y-4.0453
X5.6581Y-4.0453
T5
X3.6398Y-2.4567
X3.8799Y-2.4567
X3.9547Y-2.4567
X4.1949Y-2.4567
X6.6713Y-2.4567
X6.9114Y-2.4567
X6.9862Y-2.4567
X7.2264Y-2.4567
T6
X5.7449Y-2.4984
X5.7449Y-2.5984
X5.8449Y-2.4984
X5.8449Y-2.5984
X5.9449Y-2.4984
X5.9449Y-2.5984
X6.5732Y-2.9709
X6.5732Y-3.1709
X6.6732Y-2.9709
X6.6732Y-3.1709
X6.7732Y-2.9709
X6.7732Y-3.1709
X7.0063Y-2.5378
X7.0063Y-2.7378
X7.0063Y-3.4039
X7.0063Y-3.6039
X7.1063Y-2.5378
X7.1063Y-2.7378
X7.1063Y-3.4039
X7.1063Y-3.6039
X7.2063Y-2.5378
X7.2063Y-2.7378
X7.2063Y-3.4039
X7.2063Y-3.6039
X7.4394Y-2.9709
X7.4394Y-3.1709
X7.5394Y-2.9709
X7.5394Y-3.1709
X7.6394Y-2.9709
X7.6394Y-3.1709
T7
X3.6811Y-2.3012
X3.8386Y-2.3012
X3.9961Y-2.3012
X4.1535Y-2.3012
X6.7126Y-2.3012
X6.8701Y-2.3012
X7.0276Y-2.3012
X7.185Y-2.3012
T0
M30
