G04 #@! TF.GenerationSoftware,KiCad,Pcbnew,(5.1.5)-3*
G04 #@! TF.CreationDate,2021-06-05T08:31:09+02:00*
G04 #@! TF.ProjectId,gamerino,67616d65-7269-46e6-9f2e-6b696361645f,01*
G04 #@! TF.SameCoordinates,Original*
G04 #@! TF.FileFunction,Legend,Top*
G04 #@! TF.FilePolarity,Positive*
%FSLAX46Y46*%
G04 Gerber Fmt 4.6, Leading zero omitted, Abs format (unit mm)*
G04 Created by KiCad (PCBNEW (5.1.5)-3) date 2021-06-05 08:31:09*
%MOMM*%
%LPD*%
G04 APERTURE LIST*
%ADD10C,0.120000*%
%ADD11C,0.150000*%
%ADD12C,0.010000*%
%ADD13C,0.100000*%
G04 APERTURE END LIST*
D10*
X79100000Y-82800000D02*
X79100000Y-80200000D01*
X76900000Y-82800000D02*
X79100000Y-82800000D01*
X76900000Y-80200000D02*
X76900000Y-82800000D01*
D11*
X78547619Y-80976190D02*
X78547619Y-81071428D01*
X78500000Y-81166666D01*
X78452380Y-81214285D01*
X78357142Y-81261904D01*
X78166666Y-81309523D01*
X77928571Y-81309523D01*
X77738095Y-81261904D01*
X77642857Y-81214285D01*
X77595238Y-81166666D01*
X77547619Y-81071428D01*
X77547619Y-80976190D01*
X77595238Y-80880952D01*
X77642857Y-80833333D01*
X77738095Y-80785714D01*
X77928571Y-80738095D01*
X78166666Y-80738095D01*
X78357142Y-80785714D01*
X78452380Y-80833333D01*
X78500000Y-80880952D01*
X78547619Y-80976190D01*
X77547619Y-82261904D02*
X77547619Y-81690476D01*
X77547619Y-81976190D02*
X78547619Y-81976190D01*
X78404761Y-81880952D01*
X78309523Y-81785714D01*
X78261904Y-81690476D01*
D10*
X79100000Y-71900000D02*
X76900000Y-71900000D01*
X79100000Y-80200000D02*
X79100000Y-71900000D01*
X76900000Y-80200000D02*
X79100000Y-80200000D01*
X76900000Y-71900000D02*
X76900000Y-80200000D01*
D11*
X78500000Y-73023809D02*
X78547619Y-72928571D01*
X78547619Y-72785714D01*
X78500000Y-72642857D01*
X78404761Y-72547619D01*
X78309523Y-72500000D01*
X78119047Y-72452380D01*
X77976190Y-72452380D01*
X77785714Y-72500000D01*
X77690476Y-72547619D01*
X77595238Y-72642857D01*
X77547619Y-72785714D01*
X77547619Y-72880952D01*
X77595238Y-73023809D01*
X77642857Y-73071428D01*
X77976190Y-73071428D01*
X77976190Y-72880952D01*
X77833333Y-73452380D02*
X77833333Y-73928571D01*
X77547619Y-73357142D02*
X78547619Y-73690476D01*
X77547619Y-74023809D01*
X77547619Y-74357142D02*
X78547619Y-74357142D01*
X77833333Y-74690476D01*
X78547619Y-75023809D01*
X77547619Y-75023809D01*
X78071428Y-75500000D02*
X78071428Y-75833333D01*
X77547619Y-75976190D02*
X77547619Y-75500000D01*
X78547619Y-75500000D01*
X78547619Y-75976190D01*
X77547619Y-76976190D02*
X78023809Y-76642857D01*
X77547619Y-76404761D02*
X78547619Y-76404761D01*
X78547619Y-76785714D01*
X78500000Y-76880952D01*
X78452380Y-76928571D01*
X78357142Y-76976190D01*
X78214285Y-76976190D01*
X78119047Y-76928571D01*
X78071428Y-76880952D01*
X78023809Y-76785714D01*
X78023809Y-76404761D01*
X77547619Y-77404761D02*
X78547619Y-77404761D01*
X77547619Y-77880952D02*
X78547619Y-77880952D01*
X77547619Y-78452380D01*
X78547619Y-78452380D01*
X78547619Y-79119047D02*
X78547619Y-79309523D01*
X78500000Y-79404761D01*
X78404761Y-79500000D01*
X78214285Y-79547619D01*
X77880952Y-79547619D01*
X77690476Y-79500000D01*
X77595238Y-79404761D01*
X77547619Y-79309523D01*
X77547619Y-79119047D01*
X77595238Y-79023809D01*
X77690476Y-78928571D01*
X77880952Y-78880952D01*
X78214285Y-78880952D01*
X78404761Y-78928571D01*
X78500000Y-79023809D01*
X78547619Y-79119047D01*
D10*
X79100000Y-92100000D02*
X76900000Y-92100000D01*
X79100000Y-95100000D02*
X79100000Y-92100000D01*
X76900000Y-95100000D02*
X79100000Y-95100000D01*
X76900000Y-92100000D02*
X76900000Y-95100000D01*
X139280000Y-68770000D02*
X139280000Y-66320000D01*
X136060000Y-66970000D02*
X136060000Y-68770000D01*
D12*
G36*
X188047983Y-92991832D02*
G01*
X188058848Y-93105771D01*
X188090465Y-93213394D01*
X188141368Y-93312393D01*
X188210090Y-93400462D01*
X188295164Y-93475294D01*
X188392151Y-93533162D01*
X188498419Y-93572783D01*
X188605433Y-93591351D01*
X188711083Y-93590212D01*
X188813258Y-93570708D01*
X188909849Y-93534184D01*
X188998745Y-93481983D01*
X189077837Y-93415451D01*
X189145014Y-93335930D01*
X189198166Y-93244765D01*
X189235184Y-93143301D01*
X189253956Y-93032880D01*
X189255894Y-92982984D01*
X189255894Y-92895045D01*
X189307823Y-92895045D01*
X189344130Y-92897889D01*
X189371028Y-92909689D01*
X189398134Y-92933427D01*
X189436516Y-92971809D01*
X189436516Y-95163380D01*
X189436507Y-95425517D01*
X189436475Y-95666019D01*
X189436411Y-95885826D01*
X189436307Y-96085879D01*
X189436156Y-96267122D01*
X189435949Y-96430494D01*
X189435677Y-96576938D01*
X189435333Y-96707395D01*
X189434909Y-96822807D01*
X189434396Y-96924116D01*
X189433786Y-97012262D01*
X189433071Y-97088188D01*
X189432243Y-97152835D01*
X189431294Y-97207145D01*
X189430216Y-97252058D01*
X189429000Y-97288518D01*
X189427638Y-97317465D01*
X189426122Y-97339841D01*
X189424445Y-97356587D01*
X189422597Y-97368646D01*
X189420570Y-97376958D01*
X189418358Y-97382465D01*
X189417275Y-97384315D01*
X189413112Y-97391327D01*
X189409578Y-97397774D01*
X189405748Y-97403678D01*
X189400701Y-97409064D01*
X189393512Y-97413956D01*
X189383260Y-97418376D01*
X189369019Y-97422350D01*
X189349869Y-97425899D01*
X189324884Y-97429048D01*
X189293143Y-97431820D01*
X189253721Y-97434239D01*
X189205697Y-97436329D01*
X189148146Y-97438113D01*
X189080146Y-97439615D01*
X189000773Y-97440858D01*
X188909104Y-97441867D01*
X188804217Y-97442663D01*
X188685187Y-97443272D01*
X188551093Y-97443717D01*
X188401010Y-97444021D01*
X188234016Y-97444208D01*
X188049187Y-97444302D01*
X187845600Y-97444326D01*
X187622333Y-97444303D01*
X187378461Y-97444258D01*
X187113062Y-97444215D01*
X187074679Y-97444210D01*
X186807701Y-97444167D01*
X186562381Y-97444096D01*
X186337800Y-97443991D01*
X186133038Y-97443844D01*
X185947177Y-97443647D01*
X185779295Y-97443394D01*
X185628475Y-97443078D01*
X185493796Y-97442691D01*
X185374339Y-97442225D01*
X185269184Y-97441675D01*
X185177412Y-97441031D01*
X185098104Y-97440289D01*
X185030340Y-97439439D01*
X184973201Y-97438475D01*
X184925766Y-97437389D01*
X184887117Y-97436175D01*
X184856334Y-97434825D01*
X184832498Y-97433333D01*
X184814689Y-97431689D01*
X184801988Y-97429889D01*
X184793475Y-97427923D01*
X184789117Y-97426255D01*
X184780655Y-97422684D01*
X184772886Y-97420048D01*
X184765781Y-97417412D01*
X184759310Y-97413840D01*
X184753444Y-97408399D01*
X184748154Y-97400153D01*
X184743409Y-97388168D01*
X184739181Y-97371509D01*
X184735440Y-97349241D01*
X184732156Y-97320430D01*
X184729300Y-97284141D01*
X184726843Y-97239439D01*
X184724754Y-97185389D01*
X184723005Y-97121057D01*
X184721566Y-97045508D01*
X184720407Y-96957808D01*
X184719500Y-96857021D01*
X184718814Y-96742212D01*
X184718320Y-96612448D01*
X184717988Y-96466793D01*
X184717790Y-96304313D01*
X184717696Y-96124073D01*
X184717675Y-95925138D01*
X184717698Y-95706574D01*
X184717737Y-95467446D01*
X184717761Y-95206818D01*
X184717761Y-95164667D01*
X184717747Y-94901770D01*
X184717722Y-94660510D01*
X184717712Y-94439943D01*
X184717741Y-94239130D01*
X184717835Y-94057127D01*
X184718021Y-93892994D01*
X184718324Y-93745789D01*
X184718769Y-93614570D01*
X184719349Y-93504645D01*
X185022186Y-93504645D01*
X185061976Y-93562489D01*
X185073147Y-93578257D01*
X185083217Y-93592219D01*
X185092245Y-93605562D01*
X185100286Y-93619471D01*
X185107397Y-93635134D01*
X185113636Y-93653736D01*
X185119058Y-93676464D01*
X185123721Y-93704505D01*
X185127682Y-93739045D01*
X185130998Y-93781270D01*
X185133724Y-93832367D01*
X185135919Y-93893522D01*
X185137638Y-93965922D01*
X185138939Y-94050753D01*
X185139878Y-94149200D01*
X185140513Y-94262452D01*
X185140899Y-94391694D01*
X185141095Y-94538112D01*
X185141156Y-94702894D01*
X185141140Y-94887225D01*
X185141103Y-95092291D01*
X185141094Y-95214911D01*
X185141118Y-95431860D01*
X185141152Y-95627420D01*
X185141140Y-95802777D01*
X185141025Y-95959119D01*
X185140753Y-96097635D01*
X185140265Y-96219512D01*
X185139507Y-96325938D01*
X185138421Y-96418100D01*
X185136952Y-96497187D01*
X185135043Y-96564386D01*
X185132639Y-96620885D01*
X185129682Y-96667871D01*
X185126117Y-96706533D01*
X185121888Y-96738058D01*
X185116937Y-96763633D01*
X185111210Y-96784448D01*
X185104650Y-96801689D01*
X185097200Y-96816543D01*
X185088804Y-96830200D01*
X185079407Y-96843847D01*
X185068951Y-96858671D01*
X185062860Y-96867561D01*
X185024087Y-96925178D01*
X185555651Y-96925178D01*
X185678900Y-96925143D01*
X185781396Y-96924993D01*
X185864963Y-96924656D01*
X185931427Y-96924064D01*
X185982612Y-96923145D01*
X186020342Y-96921829D01*
X186046443Y-96920047D01*
X186062739Y-96917729D01*
X186071055Y-96914804D01*
X186073215Y-96911202D01*
X186071044Y-96906853D01*
X186069848Y-96905423D01*
X186044698Y-96868351D01*
X186018800Y-96815550D01*
X185995191Y-96753548D01*
X185986922Y-96727135D01*
X185982305Y-96709194D01*
X185978404Y-96688133D01*
X185975135Y-96661867D01*
X185972417Y-96628310D01*
X185970168Y-96585377D01*
X185968306Y-96530982D01*
X185966747Y-96463040D01*
X185965411Y-96379466D01*
X185964214Y-96278173D01*
X185963075Y-96157078D01*
X185962698Y-96112378D01*
X185961681Y-95987227D01*
X185960923Y-95882860D01*
X185960480Y-95797485D01*
X185960413Y-95729311D01*
X185960778Y-95676543D01*
X185961635Y-95637392D01*
X185963042Y-95610063D01*
X185965058Y-95592764D01*
X185967740Y-95583704D01*
X185971147Y-95581090D01*
X185975339Y-95583129D01*
X185979812Y-95587445D01*
X185990167Y-95600380D01*
X186012225Y-95629454D01*
X186044426Y-95672537D01*
X186085209Y-95727496D01*
X186133013Y-95792201D01*
X186186278Y-95864520D01*
X186243443Y-95942322D01*
X186302946Y-96023476D01*
X186363228Y-96105850D01*
X186422728Y-96187314D01*
X186479885Y-96265735D01*
X186533138Y-96338982D01*
X186580926Y-96404925D01*
X186621690Y-96461432D01*
X186653867Y-96506371D01*
X186675898Y-96537612D01*
X186680466Y-96544244D01*
X186703387Y-96581147D01*
X186730195Y-96629137D01*
X186755594Y-96678675D01*
X186758815Y-96685355D01*
X186780493Y-96733550D01*
X186793079Y-96771112D01*
X186798809Y-96806938D01*
X186799927Y-96848978D01*
X186799293Y-96925178D01*
X187953732Y-96925178D01*
X187862568Y-96831447D01*
X187815771Y-96781553D01*
X187765484Y-96725073D01*
X187719439Y-96670804D01*
X187699014Y-96645451D01*
X187668576Y-96605906D01*
X187628521Y-96552694D01*
X187580022Y-96487445D01*
X187524248Y-96411789D01*
X187462372Y-96327355D01*
X187395564Y-96235772D01*
X187324996Y-96138670D01*
X187251838Y-96037679D01*
X187177262Y-95934428D01*
X187102439Y-95830546D01*
X187028540Y-95727663D01*
X186956737Y-95627409D01*
X186888199Y-95531414D01*
X186824099Y-95441305D01*
X186765608Y-95358714D01*
X186713897Y-95285270D01*
X186670136Y-95222602D01*
X186635498Y-95172339D01*
X186611153Y-95136112D01*
X186598272Y-95115549D01*
X186596514Y-95111446D01*
X186604473Y-95100120D01*
X186625268Y-95072940D01*
X186657536Y-95031607D01*
X186699913Y-94977822D01*
X186751036Y-94913284D01*
X186809542Y-94839696D01*
X186874069Y-94758756D01*
X186943252Y-94672166D01*
X187015730Y-94581626D01*
X187090137Y-94488838D01*
X187149866Y-94414480D01*
X188160872Y-94414480D01*
X188166781Y-94427437D01*
X188181111Y-94449686D01*
X188182158Y-94451169D01*
X188200945Y-94481322D01*
X188220592Y-94518153D01*
X188224491Y-94526289D01*
X188228027Y-94534718D01*
X188231153Y-94544837D01*
X188233897Y-94558038D01*
X188236291Y-94575716D01*
X188238364Y-94599262D01*
X188240148Y-94630071D01*
X188241671Y-94669535D01*
X188242964Y-94719047D01*
X188244057Y-94780001D01*
X188244980Y-94853789D01*
X188245764Y-94941806D01*
X188246438Y-95045443D01*
X188247033Y-95166094D01*
X188247578Y-95305152D01*
X188248104Y-95464010D01*
X188248638Y-95642867D01*
X188249177Y-95827985D01*
X188249611Y-95991923D01*
X188249874Y-96136081D01*
X188249899Y-96261857D01*
X188249618Y-96370649D01*
X188248964Y-96463855D01*
X188247869Y-96542875D01*
X188246265Y-96609106D01*
X188244086Y-96663948D01*
X188241264Y-96708799D01*
X188237732Y-96745056D01*
X188233422Y-96774119D01*
X188228266Y-96797387D01*
X188222198Y-96816257D01*
X188215150Y-96832129D01*
X188207054Y-96846400D01*
X188197843Y-96860469D01*
X188189343Y-96872936D01*
X188172207Y-96899230D01*
X188162061Y-96916815D01*
X188160872Y-96920035D01*
X188171779Y-96921112D01*
X188202972Y-96922113D01*
X188252160Y-96923013D01*
X188317050Y-96923788D01*
X188395353Y-96924415D01*
X188484776Y-96924869D01*
X188583027Y-96925127D01*
X188651938Y-96925178D01*
X188756931Y-96924958D01*
X188853773Y-96924326D01*
X188940276Y-96923327D01*
X189014251Y-96922005D01*
X189073509Y-96920404D01*
X189115863Y-96918569D01*
X189139123Y-96916543D01*
X189143005Y-96915271D01*
X189135307Y-96900369D01*
X189127309Y-96892338D01*
X189114137Y-96875212D01*
X189096898Y-96844961D01*
X189084976Y-96820400D01*
X189058338Y-96761489D01*
X189055263Y-95584623D01*
X189052188Y-94407756D01*
X188606530Y-94407756D01*
X188508713Y-94407920D01*
X188418319Y-94408389D01*
X188337753Y-94409125D01*
X188269421Y-94410094D01*
X188215727Y-94411258D01*
X188179078Y-94412581D01*
X188161879Y-94414027D01*
X188160872Y-94414480D01*
X187149866Y-94414480D01*
X187165113Y-94395500D01*
X187239293Y-94303315D01*
X187311314Y-94213982D01*
X187379814Y-94129202D01*
X187443428Y-94050676D01*
X187500795Y-93980104D01*
X187550550Y-93919187D01*
X187591331Y-93869625D01*
X187608495Y-93848956D01*
X187694787Y-93748294D01*
X187771386Y-93665037D01*
X187840200Y-93597216D01*
X187903135Y-93542867D01*
X187912516Y-93535500D01*
X187952027Y-93504895D01*
X186820267Y-93504645D01*
X186825556Y-93552622D01*
X186822253Y-93609966D01*
X186800722Y-93678241D01*
X186760748Y-93757990D01*
X186715440Y-93830273D01*
X186699222Y-93852918D01*
X186671169Y-93890474D01*
X186632953Y-93940799D01*
X186586246Y-94001751D01*
X186532722Y-94071189D01*
X186474052Y-94146972D01*
X186411908Y-94226958D01*
X186347962Y-94309006D01*
X186283888Y-94390974D01*
X186221356Y-94470721D01*
X186162040Y-94546105D01*
X186107612Y-94614985D01*
X186059744Y-94675220D01*
X186020108Y-94724667D01*
X185990377Y-94761186D01*
X185972222Y-94782636D01*
X185969163Y-94785934D01*
X185966304Y-94777927D01*
X185964090Y-94747633D01*
X185962526Y-94695334D01*
X185961616Y-94621309D01*
X185961363Y-94525841D01*
X185961770Y-94409212D01*
X185962679Y-94289223D01*
X185964001Y-94157111D01*
X185965526Y-94045372D01*
X185967502Y-93951803D01*
X185970177Y-93874197D01*
X185973801Y-93810352D01*
X185978622Y-93758061D01*
X185984889Y-93715122D01*
X185992851Y-93679329D01*
X186002756Y-93648478D01*
X186014852Y-93620364D01*
X186029390Y-93592783D01*
X186044072Y-93567744D01*
X186082069Y-93504645D01*
X185022186Y-93504645D01*
X184719349Y-93504645D01*
X184719382Y-93498395D01*
X184720188Y-93396322D01*
X184721213Y-93307411D01*
X184722483Y-93230719D01*
X184724023Y-93165305D01*
X184725859Y-93110227D01*
X184728016Y-93064543D01*
X184730520Y-93027312D01*
X184733396Y-92997591D01*
X184736670Y-92974440D01*
X184740368Y-92956917D01*
X184744514Y-92944079D01*
X184749136Y-92934986D01*
X184754257Y-92928696D01*
X184759905Y-92924266D01*
X184766104Y-92920756D01*
X184772879Y-92917223D01*
X184778875Y-92913654D01*
X184784108Y-92911078D01*
X184792284Y-92908750D01*
X184804497Y-92906656D01*
X184821842Y-92904785D01*
X184845414Y-92903125D01*
X184876306Y-92901662D01*
X184915615Y-92900386D01*
X184964433Y-92899282D01*
X185023856Y-92898339D01*
X185094979Y-92897545D01*
X185178895Y-92896887D01*
X185276700Y-92896353D01*
X185389489Y-92895931D01*
X185518354Y-92895607D01*
X185664392Y-92895370D01*
X185828697Y-92895208D01*
X186012363Y-92895108D01*
X186216486Y-92895058D01*
X186427630Y-92895045D01*
X188047983Y-92895045D01*
X188047983Y-92991832D01*
G37*
X188047983Y-92991832D02*
X188058848Y-93105771D01*
X188090465Y-93213394D01*
X188141368Y-93312393D01*
X188210090Y-93400462D01*
X188295164Y-93475294D01*
X188392151Y-93533162D01*
X188498419Y-93572783D01*
X188605433Y-93591351D01*
X188711083Y-93590212D01*
X188813258Y-93570708D01*
X188909849Y-93534184D01*
X188998745Y-93481983D01*
X189077837Y-93415451D01*
X189145014Y-93335930D01*
X189198166Y-93244765D01*
X189235184Y-93143301D01*
X189253956Y-93032880D01*
X189255894Y-92982984D01*
X189255894Y-92895045D01*
X189307823Y-92895045D01*
X189344130Y-92897889D01*
X189371028Y-92909689D01*
X189398134Y-92933427D01*
X189436516Y-92971809D01*
X189436516Y-95163380D01*
X189436507Y-95425517D01*
X189436475Y-95666019D01*
X189436411Y-95885826D01*
X189436307Y-96085879D01*
X189436156Y-96267122D01*
X189435949Y-96430494D01*
X189435677Y-96576938D01*
X189435333Y-96707395D01*
X189434909Y-96822807D01*
X189434396Y-96924116D01*
X189433786Y-97012262D01*
X189433071Y-97088188D01*
X189432243Y-97152835D01*
X189431294Y-97207145D01*
X189430216Y-97252058D01*
X189429000Y-97288518D01*
X189427638Y-97317465D01*
X189426122Y-97339841D01*
X189424445Y-97356587D01*
X189422597Y-97368646D01*
X189420570Y-97376958D01*
X189418358Y-97382465D01*
X189417275Y-97384315D01*
X189413112Y-97391327D01*
X189409578Y-97397774D01*
X189405748Y-97403678D01*
X189400701Y-97409064D01*
X189393512Y-97413956D01*
X189383260Y-97418376D01*
X189369019Y-97422350D01*
X189349869Y-97425899D01*
X189324884Y-97429048D01*
X189293143Y-97431820D01*
X189253721Y-97434239D01*
X189205697Y-97436329D01*
X189148146Y-97438113D01*
X189080146Y-97439615D01*
X189000773Y-97440858D01*
X188909104Y-97441867D01*
X188804217Y-97442663D01*
X188685187Y-97443272D01*
X188551093Y-97443717D01*
X188401010Y-97444021D01*
X188234016Y-97444208D01*
X188049187Y-97444302D01*
X187845600Y-97444326D01*
X187622333Y-97444303D01*
X187378461Y-97444258D01*
X187113062Y-97444215D01*
X187074679Y-97444210D01*
X186807701Y-97444167D01*
X186562381Y-97444096D01*
X186337800Y-97443991D01*
X186133038Y-97443844D01*
X185947177Y-97443647D01*
X185779295Y-97443394D01*
X185628475Y-97443078D01*
X185493796Y-97442691D01*
X185374339Y-97442225D01*
X185269184Y-97441675D01*
X185177412Y-97441031D01*
X185098104Y-97440289D01*
X185030340Y-97439439D01*
X184973201Y-97438475D01*
X184925766Y-97437389D01*
X184887117Y-97436175D01*
X184856334Y-97434825D01*
X184832498Y-97433333D01*
X184814689Y-97431689D01*
X184801988Y-97429889D01*
X184793475Y-97427923D01*
X184789117Y-97426255D01*
X184780655Y-97422684D01*
X184772886Y-97420048D01*
X184765781Y-97417412D01*
X184759310Y-97413840D01*
X184753444Y-97408399D01*
X184748154Y-97400153D01*
X184743409Y-97388168D01*
X184739181Y-97371509D01*
X184735440Y-97349241D01*
X184732156Y-97320430D01*
X184729300Y-97284141D01*
X184726843Y-97239439D01*
X184724754Y-97185389D01*
X184723005Y-97121057D01*
X184721566Y-97045508D01*
X184720407Y-96957808D01*
X184719500Y-96857021D01*
X184718814Y-96742212D01*
X184718320Y-96612448D01*
X184717988Y-96466793D01*
X184717790Y-96304313D01*
X184717696Y-96124073D01*
X184717675Y-95925138D01*
X184717698Y-95706574D01*
X184717737Y-95467446D01*
X184717761Y-95206818D01*
X184717761Y-95164667D01*
X184717747Y-94901770D01*
X184717722Y-94660510D01*
X184717712Y-94439943D01*
X184717741Y-94239130D01*
X184717835Y-94057127D01*
X184718021Y-93892994D01*
X184718324Y-93745789D01*
X184718769Y-93614570D01*
X184719349Y-93504645D01*
X185022186Y-93504645D01*
X185061976Y-93562489D01*
X185073147Y-93578257D01*
X185083217Y-93592219D01*
X185092245Y-93605562D01*
X185100286Y-93619471D01*
X185107397Y-93635134D01*
X185113636Y-93653736D01*
X185119058Y-93676464D01*
X185123721Y-93704505D01*
X185127682Y-93739045D01*
X185130998Y-93781270D01*
X185133724Y-93832367D01*
X185135919Y-93893522D01*
X185137638Y-93965922D01*
X185138939Y-94050753D01*
X185139878Y-94149200D01*
X185140513Y-94262452D01*
X185140899Y-94391694D01*
X185141095Y-94538112D01*
X185141156Y-94702894D01*
X185141140Y-94887225D01*
X185141103Y-95092291D01*
X185141094Y-95214911D01*
X185141118Y-95431860D01*
X185141152Y-95627420D01*
X185141140Y-95802777D01*
X185141025Y-95959119D01*
X185140753Y-96097635D01*
X185140265Y-96219512D01*
X185139507Y-96325938D01*
X185138421Y-96418100D01*
X185136952Y-96497187D01*
X185135043Y-96564386D01*
X185132639Y-96620885D01*
X185129682Y-96667871D01*
X185126117Y-96706533D01*
X185121888Y-96738058D01*
X185116937Y-96763633D01*
X185111210Y-96784448D01*
X185104650Y-96801689D01*
X185097200Y-96816543D01*
X185088804Y-96830200D01*
X185079407Y-96843847D01*
X185068951Y-96858671D01*
X185062860Y-96867561D01*
X185024087Y-96925178D01*
X185555651Y-96925178D01*
X185678900Y-96925143D01*
X185781396Y-96924993D01*
X185864963Y-96924656D01*
X185931427Y-96924064D01*
X185982612Y-96923145D01*
X186020342Y-96921829D01*
X186046443Y-96920047D01*
X186062739Y-96917729D01*
X186071055Y-96914804D01*
X186073215Y-96911202D01*
X186071044Y-96906853D01*
X186069848Y-96905423D01*
X186044698Y-96868351D01*
X186018800Y-96815550D01*
X185995191Y-96753548D01*
X185986922Y-96727135D01*
X185982305Y-96709194D01*
X185978404Y-96688133D01*
X185975135Y-96661867D01*
X185972417Y-96628310D01*
X185970168Y-96585377D01*
X185968306Y-96530982D01*
X185966747Y-96463040D01*
X185965411Y-96379466D01*
X185964214Y-96278173D01*
X185963075Y-96157078D01*
X185962698Y-96112378D01*
X185961681Y-95987227D01*
X185960923Y-95882860D01*
X185960480Y-95797485D01*
X185960413Y-95729311D01*
X185960778Y-95676543D01*
X185961635Y-95637392D01*
X185963042Y-95610063D01*
X185965058Y-95592764D01*
X185967740Y-95583704D01*
X185971147Y-95581090D01*
X185975339Y-95583129D01*
X185979812Y-95587445D01*
X185990167Y-95600380D01*
X186012225Y-95629454D01*
X186044426Y-95672537D01*
X186085209Y-95727496D01*
X186133013Y-95792201D01*
X186186278Y-95864520D01*
X186243443Y-95942322D01*
X186302946Y-96023476D01*
X186363228Y-96105850D01*
X186422728Y-96187314D01*
X186479885Y-96265735D01*
X186533138Y-96338982D01*
X186580926Y-96404925D01*
X186621690Y-96461432D01*
X186653867Y-96506371D01*
X186675898Y-96537612D01*
X186680466Y-96544244D01*
X186703387Y-96581147D01*
X186730195Y-96629137D01*
X186755594Y-96678675D01*
X186758815Y-96685355D01*
X186780493Y-96733550D01*
X186793079Y-96771112D01*
X186798809Y-96806938D01*
X186799927Y-96848978D01*
X186799293Y-96925178D01*
X187953732Y-96925178D01*
X187862568Y-96831447D01*
X187815771Y-96781553D01*
X187765484Y-96725073D01*
X187719439Y-96670804D01*
X187699014Y-96645451D01*
X187668576Y-96605906D01*
X187628521Y-96552694D01*
X187580022Y-96487445D01*
X187524248Y-96411789D01*
X187462372Y-96327355D01*
X187395564Y-96235772D01*
X187324996Y-96138670D01*
X187251838Y-96037679D01*
X187177262Y-95934428D01*
X187102439Y-95830546D01*
X187028540Y-95727663D01*
X186956737Y-95627409D01*
X186888199Y-95531414D01*
X186824099Y-95441305D01*
X186765608Y-95358714D01*
X186713897Y-95285270D01*
X186670136Y-95222602D01*
X186635498Y-95172339D01*
X186611153Y-95136112D01*
X186598272Y-95115549D01*
X186596514Y-95111446D01*
X186604473Y-95100120D01*
X186625268Y-95072940D01*
X186657536Y-95031607D01*
X186699913Y-94977822D01*
X186751036Y-94913284D01*
X186809542Y-94839696D01*
X186874069Y-94758756D01*
X186943252Y-94672166D01*
X187015730Y-94581626D01*
X187090137Y-94488838D01*
X187149866Y-94414480D01*
X188160872Y-94414480D01*
X188166781Y-94427437D01*
X188181111Y-94449686D01*
X188182158Y-94451169D01*
X188200945Y-94481322D01*
X188220592Y-94518153D01*
X188224491Y-94526289D01*
X188228027Y-94534718D01*
X188231153Y-94544837D01*
X188233897Y-94558038D01*
X188236291Y-94575716D01*
X188238364Y-94599262D01*
X188240148Y-94630071D01*
X188241671Y-94669535D01*
X188242964Y-94719047D01*
X188244057Y-94780001D01*
X188244980Y-94853789D01*
X188245764Y-94941806D01*
X188246438Y-95045443D01*
X188247033Y-95166094D01*
X188247578Y-95305152D01*
X188248104Y-95464010D01*
X188248638Y-95642867D01*
X188249177Y-95827985D01*
X188249611Y-95991923D01*
X188249874Y-96136081D01*
X188249899Y-96261857D01*
X188249618Y-96370649D01*
X188248964Y-96463855D01*
X188247869Y-96542875D01*
X188246265Y-96609106D01*
X188244086Y-96663948D01*
X188241264Y-96708799D01*
X188237732Y-96745056D01*
X188233422Y-96774119D01*
X188228266Y-96797387D01*
X188222198Y-96816257D01*
X188215150Y-96832129D01*
X188207054Y-96846400D01*
X188197843Y-96860469D01*
X188189343Y-96872936D01*
X188172207Y-96899230D01*
X188162061Y-96916815D01*
X188160872Y-96920035D01*
X188171779Y-96921112D01*
X188202972Y-96922113D01*
X188252160Y-96923013D01*
X188317050Y-96923788D01*
X188395353Y-96924415D01*
X188484776Y-96924869D01*
X188583027Y-96925127D01*
X188651938Y-96925178D01*
X188756931Y-96924958D01*
X188853773Y-96924326D01*
X188940276Y-96923327D01*
X189014251Y-96922005D01*
X189073509Y-96920404D01*
X189115863Y-96918569D01*
X189139123Y-96916543D01*
X189143005Y-96915271D01*
X189135307Y-96900369D01*
X189127309Y-96892338D01*
X189114137Y-96875212D01*
X189096898Y-96844961D01*
X189084976Y-96820400D01*
X189058338Y-96761489D01*
X189055263Y-95584623D01*
X189052188Y-94407756D01*
X188606530Y-94407756D01*
X188508713Y-94407920D01*
X188418319Y-94408389D01*
X188337753Y-94409125D01*
X188269421Y-94410094D01*
X188215727Y-94411258D01*
X188179078Y-94412581D01*
X188161879Y-94414027D01*
X188160872Y-94414480D01*
X187149866Y-94414480D01*
X187165113Y-94395500D01*
X187239293Y-94303315D01*
X187311314Y-94213982D01*
X187379814Y-94129202D01*
X187443428Y-94050676D01*
X187500795Y-93980104D01*
X187550550Y-93919187D01*
X187591331Y-93869625D01*
X187608495Y-93848956D01*
X187694787Y-93748294D01*
X187771386Y-93665037D01*
X187840200Y-93597216D01*
X187903135Y-93542867D01*
X187912516Y-93535500D01*
X187952027Y-93504895D01*
X186820267Y-93504645D01*
X186825556Y-93552622D01*
X186822253Y-93609966D01*
X186800722Y-93678241D01*
X186760748Y-93757990D01*
X186715440Y-93830273D01*
X186699222Y-93852918D01*
X186671169Y-93890474D01*
X186632953Y-93940799D01*
X186586246Y-94001751D01*
X186532722Y-94071189D01*
X186474052Y-94146972D01*
X186411908Y-94226958D01*
X186347962Y-94309006D01*
X186283888Y-94390974D01*
X186221356Y-94470721D01*
X186162040Y-94546105D01*
X186107612Y-94614985D01*
X186059744Y-94675220D01*
X186020108Y-94724667D01*
X185990377Y-94761186D01*
X185972222Y-94782636D01*
X185969163Y-94785934D01*
X185966304Y-94777927D01*
X185964090Y-94747633D01*
X185962526Y-94695334D01*
X185961616Y-94621309D01*
X185961363Y-94525841D01*
X185961770Y-94409212D01*
X185962679Y-94289223D01*
X185964001Y-94157111D01*
X185965526Y-94045372D01*
X185967502Y-93951803D01*
X185970177Y-93874197D01*
X185973801Y-93810352D01*
X185978622Y-93758061D01*
X185984889Y-93715122D01*
X185992851Y-93679329D01*
X186002756Y-93648478D01*
X186014852Y-93620364D01*
X186029390Y-93592783D01*
X186044072Y-93567744D01*
X186082069Y-93504645D01*
X185022186Y-93504645D01*
X184719349Y-93504645D01*
X184719382Y-93498395D01*
X184720188Y-93396322D01*
X184721213Y-93307411D01*
X184722483Y-93230719D01*
X184724023Y-93165305D01*
X184725859Y-93110227D01*
X184728016Y-93064543D01*
X184730520Y-93027312D01*
X184733396Y-92997591D01*
X184736670Y-92974440D01*
X184740368Y-92956917D01*
X184744514Y-92944079D01*
X184749136Y-92934986D01*
X184754257Y-92928696D01*
X184759905Y-92924266D01*
X184766104Y-92920756D01*
X184772879Y-92917223D01*
X184778875Y-92913654D01*
X184784108Y-92911078D01*
X184792284Y-92908750D01*
X184804497Y-92906656D01*
X184821842Y-92904785D01*
X184845414Y-92903125D01*
X184876306Y-92901662D01*
X184915615Y-92900386D01*
X184964433Y-92899282D01*
X185023856Y-92898339D01*
X185094979Y-92897545D01*
X185178895Y-92896887D01*
X185276700Y-92896353D01*
X185389489Y-92895931D01*
X185518354Y-92895607D01*
X185664392Y-92895370D01*
X185828697Y-92895208D01*
X186012363Y-92895108D01*
X186216486Y-92895058D01*
X186427630Y-92895045D01*
X188047983Y-92895045D01*
X188047983Y-92991832D01*
G36*
X191322812Y-93451849D02*
G01*
X191482953Y-93473023D01*
X191646893Y-93513163D01*
X191816696Y-93572667D01*
X191994426Y-93651932D01*
X192005693Y-93657477D01*
X192063388Y-93685503D01*
X192114935Y-93709580D01*
X192156574Y-93728027D01*
X192184545Y-93739164D01*
X192194116Y-93741711D01*
X192213333Y-93746719D01*
X192217944Y-93750925D01*
X192212841Y-93761358D01*
X192196801Y-93787646D01*
X192171671Y-93827035D01*
X192139297Y-93876769D01*
X192101526Y-93934093D01*
X192060205Y-93996254D01*
X192017181Y-94060496D01*
X191974300Y-94124063D01*
X191933409Y-94184203D01*
X191896354Y-94238158D01*
X191864983Y-94283175D01*
X191841142Y-94316499D01*
X191826677Y-94335375D01*
X191824692Y-94337565D01*
X191814574Y-94332916D01*
X191792233Y-94315740D01*
X191761663Y-94289218D01*
X191745919Y-94274742D01*
X191649430Y-94199460D01*
X191542719Y-94144019D01*
X191427215Y-94108919D01*
X191304345Y-94094658D01*
X191234944Y-94095829D01*
X191113806Y-94112990D01*
X191004588Y-94148872D01*
X190906965Y-94203737D01*
X190820611Y-94277848D01*
X190745198Y-94371466D01*
X190680401Y-94484854D01*
X190642984Y-94571445D01*
X190599131Y-94707144D01*
X190566811Y-94854628D01*
X190545940Y-95010092D01*
X190536434Y-95169734D01*
X190538210Y-95329751D01*
X190551186Y-95486339D01*
X190575277Y-95635696D01*
X190610401Y-95774018D01*
X190656475Y-95897502D01*
X190672756Y-95931756D01*
X190741003Y-96045842D01*
X190821462Y-96142335D01*
X190912953Y-96220448D01*
X191014294Y-96279395D01*
X191124303Y-96318390D01*
X191241798Y-96336646D01*
X191283266Y-96337989D01*
X191404824Y-96327068D01*
X191525261Y-96294252D01*
X191643049Y-96240217D01*
X191756660Y-96165643D01*
X191848068Y-96087317D01*
X191894598Y-96042786D01*
X192075866Y-96340049D01*
X192120963Y-96414211D01*
X192162202Y-96482424D01*
X192198118Y-96542237D01*
X192227249Y-96591198D01*
X192248133Y-96626857D01*
X192259307Y-96646762D01*
X192260758Y-96649857D01*
X192252529Y-96659496D01*
X192226950Y-96676777D01*
X192187256Y-96700061D01*
X192136680Y-96727712D01*
X192078457Y-96758093D01*
X192015820Y-96789568D01*
X191952004Y-96820500D01*
X191890243Y-96849251D01*
X191833771Y-96874186D01*
X191785821Y-96893667D01*
X191762369Y-96902096D01*
X191628604Y-96939911D01*
X191490710Y-96964914D01*
X191343005Y-96977918D01*
X191216216Y-96980246D01*
X191148261Y-96979151D01*
X191082660Y-96977053D01*
X191025230Y-96974212D01*
X190981786Y-96970884D01*
X190967681Y-96969200D01*
X190828667Y-96940365D01*
X190687140Y-96895246D01*
X190549658Y-96836528D01*
X190422777Y-96766898D01*
X190345272Y-96714219D01*
X190217864Y-96606017D01*
X190099561Y-96479449D01*
X189992555Y-96337644D01*
X189899035Y-96183729D01*
X189821193Y-96020831D01*
X189777339Y-95903534D01*
X189727091Y-95719906D01*
X189693592Y-95525359D01*
X189676832Y-95324103D01*
X189676799Y-95120346D01*
X189693484Y-94918299D01*
X189726876Y-94722170D01*
X189776963Y-94536169D01*
X189780780Y-94524581D01*
X189843664Y-94362528D01*
X189920411Y-94214610D01*
X190013625Y-94076643D01*
X190125910Y-93944439D01*
X190169775Y-93899177D01*
X190305917Y-93775235D01*
X190445874Y-93672693D01*
X190591794Y-93590434D01*
X190745825Y-93527342D01*
X190910115Y-93482301D01*
X191005672Y-93464811D01*
X191164406Y-93449244D01*
X191322812Y-93451849D01*
G37*
X191322812Y-93451849D02*
X191482953Y-93473023D01*
X191646893Y-93513163D01*
X191816696Y-93572667D01*
X191994426Y-93651932D01*
X192005693Y-93657477D01*
X192063388Y-93685503D01*
X192114935Y-93709580D01*
X192156574Y-93728027D01*
X192184545Y-93739164D01*
X192194116Y-93741711D01*
X192213333Y-93746719D01*
X192217944Y-93750925D01*
X192212841Y-93761358D01*
X192196801Y-93787646D01*
X192171671Y-93827035D01*
X192139297Y-93876769D01*
X192101526Y-93934093D01*
X192060205Y-93996254D01*
X192017181Y-94060496D01*
X191974300Y-94124063D01*
X191933409Y-94184203D01*
X191896354Y-94238158D01*
X191864983Y-94283175D01*
X191841142Y-94316499D01*
X191826677Y-94335375D01*
X191824692Y-94337565D01*
X191814574Y-94332916D01*
X191792233Y-94315740D01*
X191761663Y-94289218D01*
X191745919Y-94274742D01*
X191649430Y-94199460D01*
X191542719Y-94144019D01*
X191427215Y-94108919D01*
X191304345Y-94094658D01*
X191234944Y-94095829D01*
X191113806Y-94112990D01*
X191004588Y-94148872D01*
X190906965Y-94203737D01*
X190820611Y-94277848D01*
X190745198Y-94371466D01*
X190680401Y-94484854D01*
X190642984Y-94571445D01*
X190599131Y-94707144D01*
X190566811Y-94854628D01*
X190545940Y-95010092D01*
X190536434Y-95169734D01*
X190538210Y-95329751D01*
X190551186Y-95486339D01*
X190575277Y-95635696D01*
X190610401Y-95774018D01*
X190656475Y-95897502D01*
X190672756Y-95931756D01*
X190741003Y-96045842D01*
X190821462Y-96142335D01*
X190912953Y-96220448D01*
X191014294Y-96279395D01*
X191124303Y-96318390D01*
X191241798Y-96336646D01*
X191283266Y-96337989D01*
X191404824Y-96327068D01*
X191525261Y-96294252D01*
X191643049Y-96240217D01*
X191756660Y-96165643D01*
X191848068Y-96087317D01*
X191894598Y-96042786D01*
X192075866Y-96340049D01*
X192120963Y-96414211D01*
X192162202Y-96482424D01*
X192198118Y-96542237D01*
X192227249Y-96591198D01*
X192248133Y-96626857D01*
X192259307Y-96646762D01*
X192260758Y-96649857D01*
X192252529Y-96659496D01*
X192226950Y-96676777D01*
X192187256Y-96700061D01*
X192136680Y-96727712D01*
X192078457Y-96758093D01*
X192015820Y-96789568D01*
X191952004Y-96820500D01*
X191890243Y-96849251D01*
X191833771Y-96874186D01*
X191785821Y-96893667D01*
X191762369Y-96902096D01*
X191628604Y-96939911D01*
X191490710Y-96964914D01*
X191343005Y-96977918D01*
X191216216Y-96980246D01*
X191148261Y-96979151D01*
X191082660Y-96977053D01*
X191025230Y-96974212D01*
X190981786Y-96970884D01*
X190967681Y-96969200D01*
X190828667Y-96940365D01*
X190687140Y-96895246D01*
X190549658Y-96836528D01*
X190422777Y-96766898D01*
X190345272Y-96714219D01*
X190217864Y-96606017D01*
X190099561Y-96479449D01*
X189992555Y-96337644D01*
X189899035Y-96183729D01*
X189821193Y-96020831D01*
X189777339Y-95903534D01*
X189727091Y-95719906D01*
X189693592Y-95525359D01*
X189676832Y-95324103D01*
X189676799Y-95120346D01*
X189693484Y-94918299D01*
X189726876Y-94722170D01*
X189776963Y-94536169D01*
X189780780Y-94524581D01*
X189843664Y-94362528D01*
X189920411Y-94214610D01*
X190013625Y-94076643D01*
X190125910Y-93944439D01*
X190169775Y-93899177D01*
X190305917Y-93775235D01*
X190445874Y-93672693D01*
X190591794Y-93590434D01*
X190745825Y-93527342D01*
X190910115Y-93482301D01*
X191005672Y-93464811D01*
X191164406Y-93449244D01*
X191322812Y-93451849D01*
G36*
X193667957Y-94369330D02*
G01*
X193819875Y-94389345D01*
X193955139Y-94422980D01*
X194074622Y-94470503D01*
X194179198Y-94532183D01*
X194256807Y-94595743D01*
X194325648Y-94669877D01*
X194379389Y-94749649D01*
X194422293Y-94841869D01*
X194437767Y-94884939D01*
X194450627Y-94923920D01*
X194461829Y-94960067D01*
X194471503Y-94995212D01*
X194479779Y-95031188D01*
X194486786Y-95069828D01*
X194492655Y-95112963D01*
X194497514Y-95162427D01*
X194501493Y-95220051D01*
X194504723Y-95287669D01*
X194507332Y-95367112D01*
X194509450Y-95460214D01*
X194511207Y-95568805D01*
X194512732Y-95694720D01*
X194514155Y-95839790D01*
X194515408Y-95982556D01*
X194516734Y-96138746D01*
X194517939Y-96274017D01*
X194519149Y-96390024D01*
X194520489Y-96488423D01*
X194522083Y-96570871D01*
X194524058Y-96639024D01*
X194526539Y-96694538D01*
X194529652Y-96739070D01*
X194533521Y-96774276D01*
X194538272Y-96801812D01*
X194544031Y-96823334D01*
X194550922Y-96840500D01*
X194559072Y-96854964D01*
X194568606Y-96868384D01*
X194579649Y-96882416D01*
X194583949Y-96887849D01*
X194599769Y-96910688D01*
X194606805Y-96926241D01*
X194606827Y-96926700D01*
X194595950Y-96928899D01*
X194564965Y-96930925D01*
X194516340Y-96932720D01*
X194452546Y-96934229D01*
X194376052Y-96935394D01*
X194289327Y-96936158D01*
X194194840Y-96936464D01*
X194183933Y-96936467D01*
X193761040Y-96936467D01*
X193757778Y-96840400D01*
X193754516Y-96744334D01*
X193692427Y-96795321D01*
X193595097Y-96862835D01*
X193485196Y-96917527D01*
X193398732Y-96947756D01*
X193329661Y-96962444D01*
X193246308Y-96972437D01*
X193156542Y-96977424D01*
X193068228Y-96977091D01*
X192989234Y-96971129D01*
X192953005Y-96965416D01*
X192812986Y-96927554D01*
X192686561Y-96872710D01*
X192574643Y-96801702D01*
X192478145Y-96715346D01*
X192397983Y-96614457D01*
X192335070Y-96499854D01*
X192290695Y-96373762D01*
X192278361Y-96317179D01*
X192270751Y-96254980D01*
X192267122Y-96180141D01*
X192266628Y-96146245D01*
X192266693Y-96143060D01*
X193026631Y-96143060D01*
X193035924Y-96218111D01*
X193064111Y-96281938D01*
X193112580Y-96337576D01*
X193117637Y-96341989D01*
X193165931Y-96376815D01*
X193217640Y-96399398D01*
X193278372Y-96411318D01*
X193353735Y-96414161D01*
X193371842Y-96413756D01*
X193425661Y-96411103D01*
X193465691Y-96405687D01*
X193500707Y-96395523D01*
X193539486Y-96378628D01*
X193550128Y-96373450D01*
X193610779Y-96337622D01*
X193657598Y-96294990D01*
X193670335Y-96279751D01*
X193715005Y-96223240D01*
X193715005Y-96027364D01*
X193714469Y-95948717D01*
X193712779Y-95890766D01*
X193709811Y-95851653D01*
X193705440Y-95829519D01*
X193701355Y-95823052D01*
X193685430Y-95819889D01*
X193651647Y-95817266D01*
X193604723Y-95815433D01*
X193549376Y-95814635D01*
X193540489Y-95814620D01*
X193419713Y-95819874D01*
X193317043Y-95836041D01*
X193230489Y-95863739D01*
X193158064Y-95903586D01*
X193103134Y-95950536D01*
X193058587Y-96008423D01*
X193033863Y-96071471D01*
X193026631Y-96143060D01*
X192266693Y-96143060D01*
X192268561Y-96052490D01*
X192276905Y-95973590D01*
X192293151Y-95902368D01*
X192318788Y-95831642D01*
X192342784Y-95779271D01*
X192401403Y-95683974D01*
X192479500Y-95595948D01*
X192574698Y-95516795D01*
X192684621Y-95448118D01*
X192806893Y-95391519D01*
X192939138Y-95348599D01*
X193003805Y-95333660D01*
X193139987Y-95311555D01*
X193288432Y-95296972D01*
X193439888Y-95290591D01*
X193566447Y-95292223D01*
X193728333Y-95299002D01*
X193720913Y-95240023D01*
X193701621Y-95140870D01*
X193670487Y-95060150D01*
X193626652Y-94997244D01*
X193569254Y-94951534D01*
X193497431Y-94922400D01*
X193410324Y-94909225D01*
X193307069Y-94911389D01*
X193269094Y-94915390D01*
X193127903Y-94940558D01*
X192991090Y-94981592D01*
X192896561Y-95019593D01*
X192851401Y-95038968D01*
X192812968Y-95054538D01*
X192786617Y-95064183D01*
X192778929Y-95066230D01*
X192769185Y-95057152D01*
X192752466Y-95028183D01*
X192728615Y-94978995D01*
X192697476Y-94909262D01*
X192658890Y-94818657D01*
X192652293Y-94802867D01*
X192622236Y-94730550D01*
X192595257Y-94665203D01*
X192572519Y-94609684D01*
X192555189Y-94566850D01*
X192544431Y-94539559D01*
X192541324Y-94530720D01*
X192551323Y-94525965D01*
X192577600Y-94520688D01*
X192605872Y-94517009D01*
X192636029Y-94512252D01*
X192683816Y-94502806D01*
X192744995Y-94489598D01*
X192815329Y-94473554D01*
X192890577Y-94455598D01*
X192919138Y-94448575D01*
X193024199Y-94422987D01*
X193111863Y-94402925D01*
X193186451Y-94387747D01*
X193252286Y-94376813D01*
X193313690Y-94369482D01*
X193374985Y-94365113D01*
X193440493Y-94363065D01*
X193498511Y-94362667D01*
X193667957Y-94369330D01*
G37*
X193667957Y-94369330D02*
X193819875Y-94389345D01*
X193955139Y-94422980D01*
X194074622Y-94470503D01*
X194179198Y-94532183D01*
X194256807Y-94595743D01*
X194325648Y-94669877D01*
X194379389Y-94749649D01*
X194422293Y-94841869D01*
X194437767Y-94884939D01*
X194450627Y-94923920D01*
X194461829Y-94960067D01*
X194471503Y-94995212D01*
X194479779Y-95031188D01*
X194486786Y-95069828D01*
X194492655Y-95112963D01*
X194497514Y-95162427D01*
X194501493Y-95220051D01*
X194504723Y-95287669D01*
X194507332Y-95367112D01*
X194509450Y-95460214D01*
X194511207Y-95568805D01*
X194512732Y-95694720D01*
X194514155Y-95839790D01*
X194515408Y-95982556D01*
X194516734Y-96138746D01*
X194517939Y-96274017D01*
X194519149Y-96390024D01*
X194520489Y-96488423D01*
X194522083Y-96570871D01*
X194524058Y-96639024D01*
X194526539Y-96694538D01*
X194529652Y-96739070D01*
X194533521Y-96774276D01*
X194538272Y-96801812D01*
X194544031Y-96823334D01*
X194550922Y-96840500D01*
X194559072Y-96854964D01*
X194568606Y-96868384D01*
X194579649Y-96882416D01*
X194583949Y-96887849D01*
X194599769Y-96910688D01*
X194606805Y-96926241D01*
X194606827Y-96926700D01*
X194595950Y-96928899D01*
X194564965Y-96930925D01*
X194516340Y-96932720D01*
X194452546Y-96934229D01*
X194376052Y-96935394D01*
X194289327Y-96936158D01*
X194194840Y-96936464D01*
X194183933Y-96936467D01*
X193761040Y-96936467D01*
X193757778Y-96840400D01*
X193754516Y-96744334D01*
X193692427Y-96795321D01*
X193595097Y-96862835D01*
X193485196Y-96917527D01*
X193398732Y-96947756D01*
X193329661Y-96962444D01*
X193246308Y-96972437D01*
X193156542Y-96977424D01*
X193068228Y-96977091D01*
X192989234Y-96971129D01*
X192953005Y-96965416D01*
X192812986Y-96927554D01*
X192686561Y-96872710D01*
X192574643Y-96801702D01*
X192478145Y-96715346D01*
X192397983Y-96614457D01*
X192335070Y-96499854D01*
X192290695Y-96373762D01*
X192278361Y-96317179D01*
X192270751Y-96254980D01*
X192267122Y-96180141D01*
X192266628Y-96146245D01*
X192266693Y-96143060D01*
X193026631Y-96143060D01*
X193035924Y-96218111D01*
X193064111Y-96281938D01*
X193112580Y-96337576D01*
X193117637Y-96341989D01*
X193165931Y-96376815D01*
X193217640Y-96399398D01*
X193278372Y-96411318D01*
X193353735Y-96414161D01*
X193371842Y-96413756D01*
X193425661Y-96411103D01*
X193465691Y-96405687D01*
X193500707Y-96395523D01*
X193539486Y-96378628D01*
X193550128Y-96373450D01*
X193610779Y-96337622D01*
X193657598Y-96294990D01*
X193670335Y-96279751D01*
X193715005Y-96223240D01*
X193715005Y-96027364D01*
X193714469Y-95948717D01*
X193712779Y-95890766D01*
X193709811Y-95851653D01*
X193705440Y-95829519D01*
X193701355Y-95823052D01*
X193685430Y-95819889D01*
X193651647Y-95817266D01*
X193604723Y-95815433D01*
X193549376Y-95814635D01*
X193540489Y-95814620D01*
X193419713Y-95819874D01*
X193317043Y-95836041D01*
X193230489Y-95863739D01*
X193158064Y-95903586D01*
X193103134Y-95950536D01*
X193058587Y-96008423D01*
X193033863Y-96071471D01*
X193026631Y-96143060D01*
X192266693Y-96143060D01*
X192268561Y-96052490D01*
X192276905Y-95973590D01*
X192293151Y-95902368D01*
X192318788Y-95831642D01*
X192342784Y-95779271D01*
X192401403Y-95683974D01*
X192479500Y-95595948D01*
X192574698Y-95516795D01*
X192684621Y-95448118D01*
X192806893Y-95391519D01*
X192939138Y-95348599D01*
X193003805Y-95333660D01*
X193139987Y-95311555D01*
X193288432Y-95296972D01*
X193439888Y-95290591D01*
X193566447Y-95292223D01*
X193728333Y-95299002D01*
X193720913Y-95240023D01*
X193701621Y-95140870D01*
X193670487Y-95060150D01*
X193626652Y-94997244D01*
X193569254Y-94951534D01*
X193497431Y-94922400D01*
X193410324Y-94909225D01*
X193307069Y-94911389D01*
X193269094Y-94915390D01*
X193127903Y-94940558D01*
X192991090Y-94981592D01*
X192896561Y-95019593D01*
X192851401Y-95038968D01*
X192812968Y-95054538D01*
X192786617Y-95064183D01*
X192778929Y-95066230D01*
X192769185Y-95057152D01*
X192752466Y-95028183D01*
X192728615Y-94978995D01*
X192697476Y-94909262D01*
X192658890Y-94818657D01*
X192652293Y-94802867D01*
X192622236Y-94730550D01*
X192595257Y-94665203D01*
X192572519Y-94609684D01*
X192555189Y-94566850D01*
X192544431Y-94539559D01*
X192541324Y-94530720D01*
X192551323Y-94525965D01*
X192577600Y-94520688D01*
X192605872Y-94517009D01*
X192636029Y-94512252D01*
X192683816Y-94502806D01*
X192744995Y-94489598D01*
X192815329Y-94473554D01*
X192890577Y-94455598D01*
X192919138Y-94448575D01*
X193024199Y-94422987D01*
X193111863Y-94402925D01*
X193186451Y-94387747D01*
X193252286Y-94376813D01*
X193313690Y-94369482D01*
X193374985Y-94365113D01*
X193440493Y-94363065D01*
X193498511Y-94362667D01*
X193667957Y-94369330D01*
G36*
X197180890Y-94975023D02*
G01*
X197180909Y-95209440D01*
X197180935Y-95422381D01*
X197181008Y-95614946D01*
X197181165Y-95788237D01*
X197181447Y-95943354D01*
X197181892Y-96081398D01*
X197182539Y-96203470D01*
X197183428Y-96310672D01*
X197184596Y-96404104D01*
X197186084Y-96484868D01*
X197187929Y-96554064D01*
X197190172Y-96612793D01*
X197192852Y-96662157D01*
X197196006Y-96703256D01*
X197199675Y-96737191D01*
X197203896Y-96765064D01*
X197208710Y-96787976D01*
X197214156Y-96807027D01*
X197220271Y-96823318D01*
X197227095Y-96837951D01*
X197234668Y-96852027D01*
X197243028Y-96866646D01*
X197248222Y-96875752D01*
X197282487Y-96936467D01*
X196424338Y-96936467D01*
X196424338Y-96840511D01*
X196423607Y-96797148D01*
X196421655Y-96763983D01*
X196418846Y-96746202D01*
X196417604Y-96744556D01*
X196406182Y-96751440D01*
X196383467Y-96769283D01*
X196360768Y-96788657D01*
X196306183Y-96829392D01*
X196236704Y-96870395D01*
X196159653Y-96907901D01*
X196082348Y-96938142D01*
X196051496Y-96947790D01*
X195982999Y-96962356D01*
X195900147Y-96972317D01*
X195810754Y-96977361D01*
X195722631Y-96977174D01*
X195643590Y-96971444D01*
X195605894Y-96965636D01*
X195467797Y-96927575D01*
X195340496Y-96869851D01*
X195224675Y-96792989D01*
X195121020Y-96697517D01*
X195030216Y-96583957D01*
X194963414Y-96473159D01*
X194908547Y-96356403D01*
X194866546Y-96237054D01*
X194836550Y-96111061D01*
X194817694Y-95974372D01*
X194809115Y-95822936D01*
X194808389Y-95745489D01*
X194810483Y-95688712D01*
X195639600Y-95688712D01*
X195639807Y-95781780D01*
X195642720Y-95869470D01*
X195648383Y-95946550D01*
X195656838Y-96007787D01*
X195659421Y-96020128D01*
X195691223Y-96127411D01*
X195732881Y-96214436D01*
X195784746Y-96281420D01*
X195847164Y-96328583D01*
X195920483Y-96356143D01*
X196005052Y-96364319D01*
X196101218Y-96353329D01*
X196164694Y-96337607D01*
X196213837Y-96319417D01*
X196267966Y-96293569D01*
X196308627Y-96269867D01*
X196379183Y-96223499D01*
X196379183Y-95073308D01*
X196311775Y-95029740D01*
X196233250Y-94988818D01*
X196149064Y-94962167D01*
X196063940Y-94950243D01*
X195982599Y-94953500D01*
X195909763Y-94972393D01*
X195877809Y-94987962D01*
X195819884Y-95030959D01*
X195770927Y-95087731D01*
X195729773Y-95160353D01*
X195695257Y-95250899D01*
X195666216Y-95361444D01*
X195664935Y-95367311D01*
X195654764Y-95429566D01*
X195647122Y-95507372D01*
X195642053Y-95595498D01*
X195639600Y-95688712D01*
X194810483Y-95688712D01*
X194816240Y-95532673D01*
X194838185Y-95336837D01*
X194874169Y-95158110D01*
X194924142Y-94996623D01*
X194988051Y-94852504D01*
X195065845Y-94725884D01*
X195157472Y-94616893D01*
X195262880Y-94525661D01*
X195308045Y-94494710D01*
X195408994Y-94438563D01*
X195512284Y-94398952D01*
X195622372Y-94374792D01*
X195743713Y-94364997D01*
X195836219Y-94366043D01*
X195965873Y-94377009D01*
X196078467Y-94398824D01*
X196177258Y-94432492D01*
X196265504Y-94479014D01*
X196314369Y-94513226D01*
X196343736Y-94535140D01*
X196365426Y-94550111D01*
X196373636Y-94554511D01*
X196375251Y-94543682D01*
X196376542Y-94513029D01*
X196377521Y-94465304D01*
X196378200Y-94403257D01*
X196378593Y-94329640D01*
X196378713Y-94247205D01*
X196378571Y-94158703D01*
X196378180Y-94066885D01*
X196377554Y-93974502D01*
X196376703Y-93884306D01*
X196375643Y-93799049D01*
X196374384Y-93721481D01*
X196372939Y-93654354D01*
X196371321Y-93600419D01*
X196369544Y-93562428D01*
X196369052Y-93555445D01*
X196361475Y-93485029D01*
X196349914Y-93429880D01*
X196332175Y-93382759D01*
X196306065Y-93336425D01*
X196299798Y-93326845D01*
X196275366Y-93290156D01*
X197180694Y-93290156D01*
X197180890Y-94975023D01*
G37*
X197180890Y-94975023D02*
X197180909Y-95209440D01*
X197180935Y-95422381D01*
X197181008Y-95614946D01*
X197181165Y-95788237D01*
X197181447Y-95943354D01*
X197181892Y-96081398D01*
X197182539Y-96203470D01*
X197183428Y-96310672D01*
X197184596Y-96404104D01*
X197186084Y-96484868D01*
X197187929Y-96554064D01*
X197190172Y-96612793D01*
X197192852Y-96662157D01*
X197196006Y-96703256D01*
X197199675Y-96737191D01*
X197203896Y-96765064D01*
X197208710Y-96787976D01*
X197214156Y-96807027D01*
X197220271Y-96823318D01*
X197227095Y-96837951D01*
X197234668Y-96852027D01*
X197243028Y-96866646D01*
X197248222Y-96875752D01*
X197282487Y-96936467D01*
X196424338Y-96936467D01*
X196424338Y-96840511D01*
X196423607Y-96797148D01*
X196421655Y-96763983D01*
X196418846Y-96746202D01*
X196417604Y-96744556D01*
X196406182Y-96751440D01*
X196383467Y-96769283D01*
X196360768Y-96788657D01*
X196306183Y-96829392D01*
X196236704Y-96870395D01*
X196159653Y-96907901D01*
X196082348Y-96938142D01*
X196051496Y-96947790D01*
X195982999Y-96962356D01*
X195900147Y-96972317D01*
X195810754Y-96977361D01*
X195722631Y-96977174D01*
X195643590Y-96971444D01*
X195605894Y-96965636D01*
X195467797Y-96927575D01*
X195340496Y-96869851D01*
X195224675Y-96792989D01*
X195121020Y-96697517D01*
X195030216Y-96583957D01*
X194963414Y-96473159D01*
X194908547Y-96356403D01*
X194866546Y-96237054D01*
X194836550Y-96111061D01*
X194817694Y-95974372D01*
X194809115Y-95822936D01*
X194808389Y-95745489D01*
X194810483Y-95688712D01*
X195639600Y-95688712D01*
X195639807Y-95781780D01*
X195642720Y-95869470D01*
X195648383Y-95946550D01*
X195656838Y-96007787D01*
X195659421Y-96020128D01*
X195691223Y-96127411D01*
X195732881Y-96214436D01*
X195784746Y-96281420D01*
X195847164Y-96328583D01*
X195920483Y-96356143D01*
X196005052Y-96364319D01*
X196101218Y-96353329D01*
X196164694Y-96337607D01*
X196213837Y-96319417D01*
X196267966Y-96293569D01*
X196308627Y-96269867D01*
X196379183Y-96223499D01*
X196379183Y-95073308D01*
X196311775Y-95029740D01*
X196233250Y-94988818D01*
X196149064Y-94962167D01*
X196063940Y-94950243D01*
X195982599Y-94953500D01*
X195909763Y-94972393D01*
X195877809Y-94987962D01*
X195819884Y-95030959D01*
X195770927Y-95087731D01*
X195729773Y-95160353D01*
X195695257Y-95250899D01*
X195666216Y-95361444D01*
X195664935Y-95367311D01*
X195654764Y-95429566D01*
X195647122Y-95507372D01*
X195642053Y-95595498D01*
X195639600Y-95688712D01*
X194810483Y-95688712D01*
X194816240Y-95532673D01*
X194838185Y-95336837D01*
X194874169Y-95158110D01*
X194924142Y-94996623D01*
X194988051Y-94852504D01*
X195065845Y-94725884D01*
X195157472Y-94616893D01*
X195262880Y-94525661D01*
X195308045Y-94494710D01*
X195408994Y-94438563D01*
X195512284Y-94398952D01*
X195622372Y-94374792D01*
X195743713Y-94364997D01*
X195836219Y-94366043D01*
X195965873Y-94377009D01*
X196078467Y-94398824D01*
X196177258Y-94432492D01*
X196265504Y-94479014D01*
X196314369Y-94513226D01*
X196343736Y-94535140D01*
X196365426Y-94550111D01*
X196373636Y-94554511D01*
X196375251Y-94543682D01*
X196376542Y-94513029D01*
X196377521Y-94465304D01*
X196378200Y-94403257D01*
X196378593Y-94329640D01*
X196378713Y-94247205D01*
X196378571Y-94158703D01*
X196378180Y-94066885D01*
X196377554Y-93974502D01*
X196376703Y-93884306D01*
X196375643Y-93799049D01*
X196374384Y-93721481D01*
X196372939Y-93654354D01*
X196371321Y-93600419D01*
X196369544Y-93562428D01*
X196369052Y-93555445D01*
X196361475Y-93485029D01*
X196349914Y-93429880D01*
X196332175Y-93382759D01*
X196306065Y-93336425D01*
X196299798Y-93326845D01*
X196275366Y-93290156D01*
X197180694Y-93290156D01*
X197180890Y-94975023D01*
G36*
X188721340Y-92529349D02*
G01*
X188817615Y-92553587D01*
X188904199Y-92596419D01*
X188979010Y-92656197D01*
X189039965Y-92731272D01*
X189084984Y-92819998D01*
X189111247Y-92916308D01*
X189117097Y-93013573D01*
X189102243Y-93107432D01*
X189068543Y-93195289D01*
X189017855Y-93274548D01*
X188952038Y-93342614D01*
X188872949Y-93396890D01*
X188782449Y-93434780D01*
X188731183Y-93447204D01*
X188686685Y-93454725D01*
X188652384Y-93457697D01*
X188619423Y-93455872D01*
X188578949Y-93449003D01*
X188545852Y-93442028D01*
X188452436Y-93410519D01*
X188368764Y-93359395D01*
X188296718Y-93290207D01*
X188238183Y-93204506D01*
X188224235Y-93177267D01*
X188207797Y-93140900D01*
X188197489Y-93110360D01*
X188191923Y-93078228D01*
X188189714Y-93037085D01*
X188189435Y-92991000D01*
X188193522Y-92906643D01*
X188206937Y-92837364D01*
X188232127Y-92776739D01*
X188271537Y-92718345D01*
X188310085Y-92674080D01*
X188381977Y-92608262D01*
X188457070Y-92562831D01*
X188539821Y-92535628D01*
X188617455Y-92525354D01*
X188721340Y-92529349D01*
G37*
X188721340Y-92529349D02*
X188817615Y-92553587D01*
X188904199Y-92596419D01*
X188979010Y-92656197D01*
X189039965Y-92731272D01*
X189084984Y-92819998D01*
X189111247Y-92916308D01*
X189117097Y-93013573D01*
X189102243Y-93107432D01*
X189068543Y-93195289D01*
X189017855Y-93274548D01*
X188952038Y-93342614D01*
X188872949Y-93396890D01*
X188782449Y-93434780D01*
X188731183Y-93447204D01*
X188686685Y-93454725D01*
X188652384Y-93457697D01*
X188619423Y-93455872D01*
X188578949Y-93449003D01*
X188545852Y-93442028D01*
X188452436Y-93410519D01*
X188368764Y-93359395D01*
X188296718Y-93290207D01*
X188238183Y-93204506D01*
X188224235Y-93177267D01*
X188207797Y-93140900D01*
X188197489Y-93110360D01*
X188191923Y-93078228D01*
X188189714Y-93037085D01*
X188189435Y-92991000D01*
X188193522Y-92906643D01*
X188206937Y-92837364D01*
X188232127Y-92776739D01*
X188271537Y-92718345D01*
X188310085Y-92674080D01*
X188381977Y-92608262D01*
X188457070Y-92562831D01*
X188539821Y-92535628D01*
X188617455Y-92525354D01*
X188721340Y-92529349D01*
G36*
X184873012Y-97771844D02*
G01*
X184912494Y-97772245D01*
X185028183Y-97775037D01*
X185125072Y-97783328D01*
X185206464Y-97798010D01*
X185275660Y-97819971D01*
X185335963Y-97850100D01*
X185390675Y-97889288D01*
X185410216Y-97906310D01*
X185442633Y-97946141D01*
X185471863Y-98000191D01*
X185494392Y-98060101D01*
X185506704Y-98117517D01*
X185507983Y-98138734D01*
X185499966Y-98197547D01*
X185478484Y-98261791D01*
X185447384Y-98322599D01*
X185410517Y-98371108D01*
X185404529Y-98376960D01*
X185353804Y-98418099D01*
X185298258Y-98450213D01*
X185234687Y-98474143D01*
X185159889Y-98490731D01*
X185070661Y-98500819D01*
X184963801Y-98505247D01*
X184914855Y-98505623D01*
X184852621Y-98505323D01*
X184808855Y-98504070D01*
X184779452Y-98501332D01*
X184760304Y-98496579D01*
X184747306Y-98489279D01*
X184740338Y-98483045D01*
X184733757Y-98475472D01*
X184728595Y-98465702D01*
X184724680Y-98451118D01*
X184721840Y-98429104D01*
X184719903Y-98397042D01*
X184718699Y-98352314D01*
X184718055Y-98292304D01*
X184717800Y-98214395D01*
X184717761Y-98138734D01*
X184717513Y-98037819D01*
X184717566Y-97957205D01*
X184718526Y-97918600D01*
X184864516Y-97918600D01*
X184864516Y-98358867D01*
X184957649Y-98358782D01*
X185013690Y-98357174D01*
X185072384Y-98353034D01*
X185121355Y-98347242D01*
X185122845Y-98347004D01*
X185201991Y-98327868D01*
X185263381Y-98298065D01*
X185310078Y-98255656D01*
X185339748Y-98209739D01*
X185358030Y-98158804D01*
X185356612Y-98110978D01*
X185335395Y-98059711D01*
X185293894Y-98006677D01*
X185236385Y-97967378D01*
X185161633Y-97941109D01*
X185111675Y-97931813D01*
X185054967Y-97925285D01*
X184994864Y-97920560D01*
X184943744Y-97918595D01*
X184940716Y-97918586D01*
X184864516Y-97918600D01*
X184718526Y-97918600D01*
X184719123Y-97894629D01*
X184723385Y-97847833D01*
X184731553Y-97814556D01*
X184744827Y-97792537D01*
X184764409Y-97779517D01*
X184791500Y-97773235D01*
X184827301Y-97771431D01*
X184873012Y-97771844D01*
G37*
X184873012Y-97771844D02*
X184912494Y-97772245D01*
X185028183Y-97775037D01*
X185125072Y-97783328D01*
X185206464Y-97798010D01*
X185275660Y-97819971D01*
X185335963Y-97850100D01*
X185390675Y-97889288D01*
X185410216Y-97906310D01*
X185442633Y-97946141D01*
X185471863Y-98000191D01*
X185494392Y-98060101D01*
X185506704Y-98117517D01*
X185507983Y-98138734D01*
X185499966Y-98197547D01*
X185478484Y-98261791D01*
X185447384Y-98322599D01*
X185410517Y-98371108D01*
X185404529Y-98376960D01*
X185353804Y-98418099D01*
X185298258Y-98450213D01*
X185234687Y-98474143D01*
X185159889Y-98490731D01*
X185070661Y-98500819D01*
X184963801Y-98505247D01*
X184914855Y-98505623D01*
X184852621Y-98505323D01*
X184808855Y-98504070D01*
X184779452Y-98501332D01*
X184760304Y-98496579D01*
X184747306Y-98489279D01*
X184740338Y-98483045D01*
X184733757Y-98475472D01*
X184728595Y-98465702D01*
X184724680Y-98451118D01*
X184721840Y-98429104D01*
X184719903Y-98397042D01*
X184718699Y-98352314D01*
X184718055Y-98292304D01*
X184717800Y-98214395D01*
X184717761Y-98138734D01*
X184717513Y-98037819D01*
X184717566Y-97957205D01*
X184718526Y-97918600D01*
X184864516Y-97918600D01*
X184864516Y-98358867D01*
X184957649Y-98358782D01*
X185013690Y-98357174D01*
X185072384Y-98353034D01*
X185121355Y-98347242D01*
X185122845Y-98347004D01*
X185201991Y-98327868D01*
X185263381Y-98298065D01*
X185310078Y-98255656D01*
X185339748Y-98209739D01*
X185358030Y-98158804D01*
X185356612Y-98110978D01*
X185335395Y-98059711D01*
X185293894Y-98006677D01*
X185236385Y-97967378D01*
X185161633Y-97941109D01*
X185111675Y-97931813D01*
X185054967Y-97925285D01*
X184994864Y-97920560D01*
X184943744Y-97918595D01*
X184940716Y-97918586D01*
X184864516Y-97918600D01*
X184718526Y-97918600D01*
X184719123Y-97894629D01*
X184723385Y-97847833D01*
X184731553Y-97814556D01*
X184744827Y-97792537D01*
X184764409Y-97779517D01*
X184791500Y-97773235D01*
X184827301Y-97771431D01*
X184873012Y-97771844D01*
G36*
X186281589Y-97771924D02*
G01*
X186350997Y-97772296D01*
X186403386Y-97773163D01*
X186441536Y-97774724D01*
X186468224Y-97777181D01*
X186486230Y-97780735D01*
X186498334Y-97785588D01*
X186507314Y-97791939D01*
X186510565Y-97794862D01*
X186530340Y-97825920D01*
X186533901Y-97861606D01*
X186520892Y-97893288D01*
X186514877Y-97899691D01*
X186505148Y-97905899D01*
X186489482Y-97910688D01*
X186464975Y-97914292D01*
X186428722Y-97916942D01*
X186377818Y-97918873D01*
X186309357Y-97920317D01*
X186246766Y-97921196D01*
X185999049Y-97924245D01*
X185995664Y-97989156D01*
X185992278Y-98054067D01*
X186160425Y-98054067D01*
X186233424Y-98054697D01*
X186286866Y-98057331D01*
X186323755Y-98063087D01*
X186347095Y-98073082D01*
X186359889Y-98088434D01*
X186365141Y-98110260D01*
X186365938Y-98130516D01*
X186363460Y-98155370D01*
X186354106Y-98173684D01*
X186335000Y-98186415D01*
X186303265Y-98194519D01*
X186256024Y-98198954D01*
X186190400Y-98200677D01*
X186154582Y-98200823D01*
X185993405Y-98200823D01*
X185993405Y-98358867D01*
X186241761Y-98358867D01*
X186323170Y-98358980D01*
X186385041Y-98359490D01*
X186430415Y-98360648D01*
X186462329Y-98362708D01*
X186483824Y-98365924D01*
X186497940Y-98370550D01*
X186507715Y-98376837D01*
X186512694Y-98381445D01*
X186529773Y-98408338D01*
X186535272Y-98432245D01*
X186527420Y-98461445D01*
X186512694Y-98483045D01*
X186504837Y-98489844D01*
X186494695Y-98495124D01*
X186479539Y-98499076D01*
X186456642Y-98501891D01*
X186423274Y-98503760D01*
X186376708Y-98504876D01*
X186314216Y-98505429D01*
X186233069Y-98505611D01*
X186190961Y-98505623D01*
X186100785Y-98505543D01*
X186030459Y-98505176D01*
X185977254Y-98504330D01*
X185938443Y-98502814D01*
X185911296Y-98500437D01*
X185893085Y-98497007D01*
X185881083Y-98492332D01*
X185872561Y-98486222D01*
X185869227Y-98483045D01*
X185862628Y-98475448D01*
X185857456Y-98465648D01*
X185853537Y-98451017D01*
X185850699Y-98428930D01*
X185848768Y-98396760D01*
X185847571Y-98351881D01*
X185846935Y-98291667D01*
X185846686Y-98213491D01*
X185846649Y-98140701D01*
X185846683Y-98047485D01*
X185846918Y-97974209D01*
X185847553Y-97918236D01*
X185848789Y-97876929D01*
X185850827Y-97847650D01*
X185853866Y-97827762D01*
X185858106Y-97814628D01*
X185863748Y-97805610D01*
X185870992Y-97798071D01*
X185872777Y-97796390D01*
X185881438Y-97788950D01*
X185891501Y-97783187D01*
X185905758Y-97778890D01*
X185927000Y-97775842D01*
X185958019Y-97773829D01*
X186001606Y-97772638D01*
X186060552Y-97772053D01*
X186137649Y-97771861D01*
X186192382Y-97771845D01*
X186281589Y-97771924D01*
G37*
X186281589Y-97771924D02*
X186350997Y-97772296D01*
X186403386Y-97773163D01*
X186441536Y-97774724D01*
X186468224Y-97777181D01*
X186486230Y-97780735D01*
X186498334Y-97785588D01*
X186507314Y-97791939D01*
X186510565Y-97794862D01*
X186530340Y-97825920D01*
X186533901Y-97861606D01*
X186520892Y-97893288D01*
X186514877Y-97899691D01*
X186505148Y-97905899D01*
X186489482Y-97910688D01*
X186464975Y-97914292D01*
X186428722Y-97916942D01*
X186377818Y-97918873D01*
X186309357Y-97920317D01*
X186246766Y-97921196D01*
X185999049Y-97924245D01*
X185995664Y-97989156D01*
X185992278Y-98054067D01*
X186160425Y-98054067D01*
X186233424Y-98054697D01*
X186286866Y-98057331D01*
X186323755Y-98063087D01*
X186347095Y-98073082D01*
X186359889Y-98088434D01*
X186365141Y-98110260D01*
X186365938Y-98130516D01*
X186363460Y-98155370D01*
X186354106Y-98173684D01*
X186335000Y-98186415D01*
X186303265Y-98194519D01*
X186256024Y-98198954D01*
X186190400Y-98200677D01*
X186154582Y-98200823D01*
X185993405Y-98200823D01*
X185993405Y-98358867D01*
X186241761Y-98358867D01*
X186323170Y-98358980D01*
X186385041Y-98359490D01*
X186430415Y-98360648D01*
X186462329Y-98362708D01*
X186483824Y-98365924D01*
X186497940Y-98370550D01*
X186507715Y-98376837D01*
X186512694Y-98381445D01*
X186529773Y-98408338D01*
X186535272Y-98432245D01*
X186527420Y-98461445D01*
X186512694Y-98483045D01*
X186504837Y-98489844D01*
X186494695Y-98495124D01*
X186479539Y-98499076D01*
X186456642Y-98501891D01*
X186423274Y-98503760D01*
X186376708Y-98504876D01*
X186314216Y-98505429D01*
X186233069Y-98505611D01*
X186190961Y-98505623D01*
X186100785Y-98505543D01*
X186030459Y-98505176D01*
X185977254Y-98504330D01*
X185938443Y-98502814D01*
X185911296Y-98500437D01*
X185893085Y-98497007D01*
X185881083Y-98492332D01*
X185872561Y-98486222D01*
X185869227Y-98483045D01*
X185862628Y-98475448D01*
X185857456Y-98465648D01*
X185853537Y-98451017D01*
X185850699Y-98428930D01*
X185848768Y-98396760D01*
X185847571Y-98351881D01*
X185846935Y-98291667D01*
X185846686Y-98213491D01*
X185846649Y-98140701D01*
X185846683Y-98047485D01*
X185846918Y-97974209D01*
X185847553Y-97918236D01*
X185848789Y-97876929D01*
X185850827Y-97847650D01*
X185853866Y-97827762D01*
X185858106Y-97814628D01*
X185863748Y-97805610D01*
X185870992Y-97798071D01*
X185872777Y-97796390D01*
X185881438Y-97788950D01*
X185891501Y-97783187D01*
X185905758Y-97778890D01*
X185927000Y-97775842D01*
X185958019Y-97773829D01*
X186001606Y-97772638D01*
X186060552Y-97772053D01*
X186137649Y-97771861D01*
X186192382Y-97771845D01*
X186281589Y-97771924D01*
G36*
X187302680Y-97773129D02*
G01*
X187377495Y-97778359D01*
X187447077Y-97786528D01*
X187507381Y-97797328D01*
X187554363Y-97810451D01*
X187583977Y-97825591D01*
X187588523Y-97830047D01*
X187604329Y-97864628D01*
X187599536Y-97900129D01*
X187575019Y-97930503D01*
X187573849Y-97931374D01*
X187559429Y-97940732D01*
X187544375Y-97945654D01*
X187523378Y-97946251D01*
X187491126Y-97942639D01*
X187442310Y-97934932D01*
X187438383Y-97934283D01*
X187365644Y-97925347D01*
X187287166Y-97920939D01*
X187208456Y-97920897D01*
X187135022Y-97925057D01*
X187072372Y-97933257D01*
X187026013Y-97945335D01*
X187022967Y-97946549D01*
X186989335Y-97965393D01*
X186977519Y-97984463D01*
X186986769Y-98003217D01*
X187016336Y-98021115D01*
X187065472Y-98037615D01*
X187133426Y-98052174D01*
X187178738Y-98059184D01*
X187272927Y-98072667D01*
X187347839Y-98084992D01*
X187406666Y-98097227D01*
X187452598Y-98110439D01*
X187488828Y-98125695D01*
X187518545Y-98144063D01*
X187544941Y-98166609D01*
X187566153Y-98188749D01*
X187591318Y-98219597D01*
X187603702Y-98246123D01*
X187607575Y-98278804D01*
X187607716Y-98290773D01*
X187604807Y-98330490D01*
X187593181Y-98360037D01*
X187573060Y-98386264D01*
X187532167Y-98426354D01*
X187486566Y-98456927D01*
X187432870Y-98478981D01*
X187367691Y-98493513D01*
X187287639Y-98501519D01*
X187189326Y-98503996D01*
X187173094Y-98503955D01*
X187107534Y-98502596D01*
X187042517Y-98499508D01*
X186985131Y-98495134D01*
X186942461Y-98489918D01*
X186939011Y-98489319D01*
X186896587Y-98479269D01*
X186860603Y-98466574D01*
X186840233Y-98454968D01*
X186821276Y-98424350D01*
X186819956Y-98388696D01*
X186836298Y-98356922D01*
X186839954Y-98353329D01*
X186855068Y-98342654D01*
X186873968Y-98338054D01*
X186903221Y-98338837D01*
X186938732Y-98342905D01*
X186978413Y-98346540D01*
X187034038Y-98349606D01*
X187098977Y-98351831D01*
X187166598Y-98352942D01*
X187184383Y-98353015D01*
X187252255Y-98352742D01*
X187301929Y-98351424D01*
X187337773Y-98348605D01*
X187364159Y-98343828D01*
X187385457Y-98336635D01*
X187398257Y-98330645D01*
X187426383Y-98314011D01*
X187444315Y-98298946D01*
X187446936Y-98294675D01*
X187441407Y-98277041D01*
X187415123Y-98259970D01*
X187369905Y-98244236D01*
X187307575Y-98230616D01*
X187289212Y-98227582D01*
X187193293Y-98212516D01*
X187116742Y-98199924D01*
X187056603Y-98188889D01*
X187009923Y-98178498D01*
X186973746Y-98167834D01*
X186945118Y-98155983D01*
X186921085Y-98142029D01*
X186898691Y-98125059D01*
X186874981Y-98104156D01*
X186867003Y-98096827D01*
X186839030Y-98069477D01*
X186824223Y-98047807D01*
X186818431Y-98023010D01*
X186817494Y-97991761D01*
X186827808Y-97930483D01*
X186858631Y-97878418D01*
X186909788Y-97835736D01*
X186981100Y-97802603D01*
X187031983Y-97787742D01*
X187087283Y-97778144D01*
X187153530Y-97772714D01*
X187226677Y-97771145D01*
X187302680Y-97773129D01*
G37*
X187302680Y-97773129D02*
X187377495Y-97778359D01*
X187447077Y-97786528D01*
X187507381Y-97797328D01*
X187554363Y-97810451D01*
X187583977Y-97825591D01*
X187588523Y-97830047D01*
X187604329Y-97864628D01*
X187599536Y-97900129D01*
X187575019Y-97930503D01*
X187573849Y-97931374D01*
X187559429Y-97940732D01*
X187544375Y-97945654D01*
X187523378Y-97946251D01*
X187491126Y-97942639D01*
X187442310Y-97934932D01*
X187438383Y-97934283D01*
X187365644Y-97925347D01*
X187287166Y-97920939D01*
X187208456Y-97920897D01*
X187135022Y-97925057D01*
X187072372Y-97933257D01*
X187026013Y-97945335D01*
X187022967Y-97946549D01*
X186989335Y-97965393D01*
X186977519Y-97984463D01*
X186986769Y-98003217D01*
X187016336Y-98021115D01*
X187065472Y-98037615D01*
X187133426Y-98052174D01*
X187178738Y-98059184D01*
X187272927Y-98072667D01*
X187347839Y-98084992D01*
X187406666Y-98097227D01*
X187452598Y-98110439D01*
X187488828Y-98125695D01*
X187518545Y-98144063D01*
X187544941Y-98166609D01*
X187566153Y-98188749D01*
X187591318Y-98219597D01*
X187603702Y-98246123D01*
X187607575Y-98278804D01*
X187607716Y-98290773D01*
X187604807Y-98330490D01*
X187593181Y-98360037D01*
X187573060Y-98386264D01*
X187532167Y-98426354D01*
X187486566Y-98456927D01*
X187432870Y-98478981D01*
X187367691Y-98493513D01*
X187287639Y-98501519D01*
X187189326Y-98503996D01*
X187173094Y-98503955D01*
X187107534Y-98502596D01*
X187042517Y-98499508D01*
X186985131Y-98495134D01*
X186942461Y-98489918D01*
X186939011Y-98489319D01*
X186896587Y-98479269D01*
X186860603Y-98466574D01*
X186840233Y-98454968D01*
X186821276Y-98424350D01*
X186819956Y-98388696D01*
X186836298Y-98356922D01*
X186839954Y-98353329D01*
X186855068Y-98342654D01*
X186873968Y-98338054D01*
X186903221Y-98338837D01*
X186938732Y-98342905D01*
X186978413Y-98346540D01*
X187034038Y-98349606D01*
X187098977Y-98351831D01*
X187166598Y-98352942D01*
X187184383Y-98353015D01*
X187252255Y-98352742D01*
X187301929Y-98351424D01*
X187337773Y-98348605D01*
X187364159Y-98343828D01*
X187385457Y-98336635D01*
X187398257Y-98330645D01*
X187426383Y-98314011D01*
X187444315Y-98298946D01*
X187446936Y-98294675D01*
X187441407Y-98277041D01*
X187415123Y-98259970D01*
X187369905Y-98244236D01*
X187307575Y-98230616D01*
X187289212Y-98227582D01*
X187193293Y-98212516D01*
X187116742Y-98199924D01*
X187056603Y-98188889D01*
X187009923Y-98178498D01*
X186973746Y-98167834D01*
X186945118Y-98155983D01*
X186921085Y-98142029D01*
X186898691Y-98125059D01*
X186874981Y-98104156D01*
X186867003Y-98096827D01*
X186839030Y-98069477D01*
X186824223Y-98047807D01*
X186818431Y-98023010D01*
X186817494Y-97991761D01*
X186827808Y-97930483D01*
X186858631Y-97878418D01*
X186909788Y-97835736D01*
X186981100Y-97802603D01*
X187031983Y-97787742D01*
X187087283Y-97778144D01*
X187153530Y-97772714D01*
X187226677Y-97771145D01*
X187302680Y-97773129D01*
G36*
X188070561Y-97794423D02*
G01*
X188077141Y-97801996D01*
X188082304Y-97811765D01*
X188086219Y-97826349D01*
X188089059Y-97848363D01*
X188090996Y-97880426D01*
X188092200Y-97925153D01*
X188092844Y-97985163D01*
X188093099Y-98063072D01*
X188093138Y-98138734D01*
X188093069Y-98232580D01*
X188092745Y-98306467D01*
X188091997Y-98363010D01*
X188090651Y-98404827D01*
X188088537Y-98434535D01*
X188085483Y-98454751D01*
X188081317Y-98468092D01*
X188075867Y-98477176D01*
X188070561Y-98483045D01*
X188037557Y-98502725D01*
X188002392Y-98500959D01*
X187970928Y-98479495D01*
X187963699Y-98471115D01*
X187958049Y-98461392D01*
X187953784Y-98447639D01*
X187950710Y-98427167D01*
X187948631Y-98397290D01*
X187947353Y-98355319D01*
X187946682Y-98298567D01*
X187946424Y-98224345D01*
X187946383Y-98140315D01*
X187946383Y-97827263D01*
X187974092Y-97799554D01*
X188008246Y-97776241D01*
X188041377Y-97775401D01*
X188070561Y-97794423D01*
G37*
X188070561Y-97794423D02*
X188077141Y-97801996D01*
X188082304Y-97811765D01*
X188086219Y-97826349D01*
X188089059Y-97848363D01*
X188090996Y-97880426D01*
X188092200Y-97925153D01*
X188092844Y-97985163D01*
X188093099Y-98063072D01*
X188093138Y-98138734D01*
X188093069Y-98232580D01*
X188092745Y-98306467D01*
X188091997Y-98363010D01*
X188090651Y-98404827D01*
X188088537Y-98434535D01*
X188085483Y-98454751D01*
X188081317Y-98468092D01*
X188075867Y-98477176D01*
X188070561Y-98483045D01*
X188037557Y-98502725D01*
X188002392Y-98500959D01*
X187970928Y-98479495D01*
X187963699Y-98471115D01*
X187958049Y-98461392D01*
X187953784Y-98447639D01*
X187950710Y-98427167D01*
X187948631Y-98397290D01*
X187947353Y-98355319D01*
X187946682Y-98298567D01*
X187946424Y-98224345D01*
X187946383Y-98140315D01*
X187946383Y-97827263D01*
X187974092Y-97799554D01*
X188008246Y-97776241D01*
X188041377Y-97775401D01*
X188070561Y-97794423D01*
G36*
X189044302Y-97777377D02*
G01*
X189112818Y-97788873D01*
X189165440Y-97806745D01*
X189199675Y-97830277D01*
X189209004Y-97843702D01*
X189218490Y-97874926D01*
X189212106Y-97903173D01*
X189191953Y-97929960D01*
X189160638Y-97942491D01*
X189115200Y-97941474D01*
X189080057Y-97934684D01*
X189001964Y-97921749D01*
X188922157Y-97920520D01*
X188832828Y-97931019D01*
X188808154Y-97935468D01*
X188725092Y-97958886D01*
X188660110Y-97993723D01*
X188613922Y-98039382D01*
X188587238Y-98095272D01*
X188581720Y-98124166D01*
X188585332Y-98182790D01*
X188608654Y-98234657D01*
X188649559Y-98278756D01*
X188705924Y-98314077D01*
X188775623Y-98339607D01*
X188856531Y-98354337D01*
X188946523Y-98357256D01*
X189043473Y-98347353D01*
X189048947Y-98346419D01*
X189087508Y-98339237D01*
X189108889Y-98332299D01*
X189118156Y-98322005D01*
X189120377Y-98304754D01*
X189120427Y-98295619D01*
X189120427Y-98257267D01*
X189051952Y-98257267D01*
X188991483Y-98253125D01*
X188950218Y-98239925D01*
X188926208Y-98216508D01*
X188917506Y-98181714D01*
X188917400Y-98177172D01*
X188922491Y-98147432D01*
X188939950Y-98126197D01*
X188972444Y-98112144D01*
X189022640Y-98103951D01*
X189071260Y-98100939D01*
X189141927Y-98099211D01*
X189193185Y-98101848D01*
X189228144Y-98111578D01*
X189249913Y-98131131D01*
X189261603Y-98163234D01*
X189266323Y-98210616D01*
X189267183Y-98272849D01*
X189265774Y-98342313D01*
X189261535Y-98389564D01*
X189254447Y-98414790D01*
X189253072Y-98416766D01*
X189214155Y-98448286D01*
X189157097Y-98473248D01*
X189085514Y-98491118D01*
X189003025Y-98501364D01*
X188913244Y-98503451D01*
X188819791Y-98496846D01*
X188764827Y-98488734D01*
X188678617Y-98464332D01*
X188598491Y-98424440D01*
X188531406Y-98372665D01*
X188521210Y-98362317D01*
X188488081Y-98318813D01*
X188458189Y-98264896D01*
X188435026Y-98208370D01*
X188422085Y-98157037D01*
X188420525Y-98137322D01*
X188427165Y-98096197D01*
X188444815Y-98045030D01*
X188470086Y-97991172D01*
X188499594Y-97941973D01*
X188525664Y-97909112D01*
X188586618Y-97860230D01*
X188665414Y-97821323D01*
X188759226Y-97793272D01*
X188865233Y-97776957D01*
X188962383Y-97772970D01*
X189044302Y-97777377D01*
G37*
X189044302Y-97777377D02*
X189112818Y-97788873D01*
X189165440Y-97806745D01*
X189199675Y-97830277D01*
X189209004Y-97843702D01*
X189218490Y-97874926D01*
X189212106Y-97903173D01*
X189191953Y-97929960D01*
X189160638Y-97942491D01*
X189115200Y-97941474D01*
X189080057Y-97934684D01*
X189001964Y-97921749D01*
X188922157Y-97920520D01*
X188832828Y-97931019D01*
X188808154Y-97935468D01*
X188725092Y-97958886D01*
X188660110Y-97993723D01*
X188613922Y-98039382D01*
X188587238Y-98095272D01*
X188581720Y-98124166D01*
X188585332Y-98182790D01*
X188608654Y-98234657D01*
X188649559Y-98278756D01*
X188705924Y-98314077D01*
X188775623Y-98339607D01*
X188856531Y-98354337D01*
X188946523Y-98357256D01*
X189043473Y-98347353D01*
X189048947Y-98346419D01*
X189087508Y-98339237D01*
X189108889Y-98332299D01*
X189118156Y-98322005D01*
X189120377Y-98304754D01*
X189120427Y-98295619D01*
X189120427Y-98257267D01*
X189051952Y-98257267D01*
X188991483Y-98253125D01*
X188950218Y-98239925D01*
X188926208Y-98216508D01*
X188917506Y-98181714D01*
X188917400Y-98177172D01*
X188922491Y-98147432D01*
X188939950Y-98126197D01*
X188972444Y-98112144D01*
X189022640Y-98103951D01*
X189071260Y-98100939D01*
X189141927Y-98099211D01*
X189193185Y-98101848D01*
X189228144Y-98111578D01*
X189249913Y-98131131D01*
X189261603Y-98163234D01*
X189266323Y-98210616D01*
X189267183Y-98272849D01*
X189265774Y-98342313D01*
X189261535Y-98389564D01*
X189254447Y-98414790D01*
X189253072Y-98416766D01*
X189214155Y-98448286D01*
X189157097Y-98473248D01*
X189085514Y-98491118D01*
X189003025Y-98501364D01*
X188913244Y-98503451D01*
X188819791Y-98496846D01*
X188764827Y-98488734D01*
X188678617Y-98464332D01*
X188598491Y-98424440D01*
X188531406Y-98372665D01*
X188521210Y-98362317D01*
X188488081Y-98318813D01*
X188458189Y-98264896D01*
X188435026Y-98208370D01*
X188422085Y-98157037D01*
X188420525Y-98137322D01*
X188427165Y-98096197D01*
X188444815Y-98045030D01*
X188470086Y-97991172D01*
X188499594Y-97941973D01*
X188525664Y-97909112D01*
X188586618Y-97860230D01*
X188665414Y-97821323D01*
X188759226Y-97793272D01*
X188865233Y-97776957D01*
X188962383Y-97772970D01*
X189044302Y-97777377D01*
G36*
X189694269Y-97776226D02*
G01*
X189717835Y-97790051D01*
X189748648Y-97812659D01*
X189788305Y-97845116D01*
X189838403Y-97888486D01*
X189900540Y-97943836D01*
X189976311Y-98012229D01*
X190063049Y-98090862D01*
X190243672Y-98254656D01*
X190249316Y-98034807D01*
X190251354Y-97959129D01*
X190253320Y-97902772D01*
X190255649Y-97862484D01*
X190258777Y-97835013D01*
X190263138Y-97817107D01*
X190269167Y-97805515D01*
X190277299Y-97796986D01*
X190281611Y-97793401D01*
X190316142Y-97774448D01*
X190349000Y-97777219D01*
X190375065Y-97793411D01*
X190401716Y-97814977D01*
X190405031Y-98129929D01*
X190405948Y-98222557D01*
X190406415Y-98295322D01*
X190406270Y-98350939D01*
X190405351Y-98392120D01*
X190403496Y-98421581D01*
X190400544Y-98442033D01*
X190396333Y-98456191D01*
X190390701Y-98466769D01*
X190384456Y-98475252D01*
X190370944Y-98490985D01*
X190357500Y-98501414D01*
X190342259Y-98505417D01*
X190323357Y-98501872D01*
X190298928Y-98489657D01*
X190267110Y-98467649D01*
X190226035Y-98434727D01*
X190173841Y-98389769D01*
X190108661Y-98331653D01*
X190034827Y-98264877D01*
X189769538Y-98024236D01*
X189763894Y-98243367D01*
X189761852Y-98318906D01*
X189759881Y-98375132D01*
X189757544Y-98415302D01*
X189754402Y-98442674D01*
X189750019Y-98460506D01*
X189743959Y-98472057D01*
X189735783Y-98480585D01*
X189731599Y-98484060D01*
X189694618Y-98503150D01*
X189659675Y-98500271D01*
X189629247Y-98475878D01*
X189622286Y-98466064D01*
X189616860Y-98454604D01*
X189612780Y-98438746D01*
X189609854Y-98415741D01*
X189607891Y-98382840D01*
X189606700Y-98337294D01*
X189606091Y-98276351D01*
X189605872Y-98197264D01*
X189605849Y-98138734D01*
X189605923Y-98047185D01*
X189606270Y-97975465D01*
X189607082Y-97920823D01*
X189608550Y-97880510D01*
X189610864Y-97851776D01*
X189614216Y-97831871D01*
X189618795Y-97818046D01*
X189624794Y-97807550D01*
X189629247Y-97801589D01*
X189640533Y-97787469D01*
X189651082Y-97776807D01*
X189662490Y-97770670D01*
X189676353Y-97770121D01*
X189694269Y-97776226D01*
G37*
X189694269Y-97776226D02*
X189717835Y-97790051D01*
X189748648Y-97812659D01*
X189788305Y-97845116D01*
X189838403Y-97888486D01*
X189900540Y-97943836D01*
X189976311Y-98012229D01*
X190063049Y-98090862D01*
X190243672Y-98254656D01*
X190249316Y-98034807D01*
X190251354Y-97959129D01*
X190253320Y-97902772D01*
X190255649Y-97862484D01*
X190258777Y-97835013D01*
X190263138Y-97817107D01*
X190269167Y-97805515D01*
X190277299Y-97796986D01*
X190281611Y-97793401D01*
X190316142Y-97774448D01*
X190349000Y-97777219D01*
X190375065Y-97793411D01*
X190401716Y-97814977D01*
X190405031Y-98129929D01*
X190405948Y-98222557D01*
X190406415Y-98295322D01*
X190406270Y-98350939D01*
X190405351Y-98392120D01*
X190403496Y-98421581D01*
X190400544Y-98442033D01*
X190396333Y-98456191D01*
X190390701Y-98466769D01*
X190384456Y-98475252D01*
X190370944Y-98490985D01*
X190357500Y-98501414D01*
X190342259Y-98505417D01*
X190323357Y-98501872D01*
X190298928Y-98489657D01*
X190267110Y-98467649D01*
X190226035Y-98434727D01*
X190173841Y-98389769D01*
X190108661Y-98331653D01*
X190034827Y-98264877D01*
X189769538Y-98024236D01*
X189763894Y-98243367D01*
X189761852Y-98318906D01*
X189759881Y-98375132D01*
X189757544Y-98415302D01*
X189754402Y-98442674D01*
X189750019Y-98460506D01*
X189743959Y-98472057D01*
X189735783Y-98480585D01*
X189731599Y-98484060D01*
X189694618Y-98503150D01*
X189659675Y-98500271D01*
X189629247Y-98475878D01*
X189622286Y-98466064D01*
X189616860Y-98454604D01*
X189612780Y-98438746D01*
X189609854Y-98415741D01*
X189607891Y-98382840D01*
X189606700Y-98337294D01*
X189606091Y-98276351D01*
X189605872Y-98197264D01*
X189605849Y-98138734D01*
X189605923Y-98047185D01*
X189606270Y-97975465D01*
X189607082Y-97920823D01*
X189608550Y-97880510D01*
X189610864Y-97851776D01*
X189614216Y-97831871D01*
X189618795Y-97818046D01*
X189624794Y-97807550D01*
X189629247Y-97801589D01*
X189640533Y-97787469D01*
X189651082Y-97776807D01*
X189662490Y-97770670D01*
X189676353Y-97770121D01*
X189694269Y-97776226D01*
G36*
X191224726Y-97772038D02*
G01*
X191301084Y-97772952D01*
X191359600Y-97775089D01*
X191402638Y-97778953D01*
X191432566Y-97785045D01*
X191451751Y-97793868D01*
X191462559Y-97805924D01*
X191467356Y-97821717D01*
X191468510Y-97841748D01*
X191468516Y-97844113D01*
X191467514Y-97866770D01*
X191462779Y-97884281D01*
X191451716Y-97897352D01*
X191431731Y-97906691D01*
X191400229Y-97913005D01*
X191354615Y-97917000D01*
X191292296Y-97919384D01*
X191210676Y-97920864D01*
X191185660Y-97921192D01*
X190943583Y-97924245D01*
X190940197Y-97989156D01*
X190936812Y-98054067D01*
X191104959Y-98054067D01*
X191170649Y-98054309D01*
X191217555Y-98055334D01*
X191249466Y-98057589D01*
X191270174Y-98061520D01*
X191283467Y-98067576D01*
X191293138Y-98076202D01*
X191293200Y-98076271D01*
X191310739Y-98109890D01*
X191310105Y-98146226D01*
X191291697Y-98177201D01*
X191288054Y-98180385D01*
X191275124Y-98188590D01*
X191257407Y-98194299D01*
X191230953Y-98197940D01*
X191191815Y-98199945D01*
X191136045Y-98200742D01*
X191100377Y-98200823D01*
X190937938Y-98200823D01*
X190937938Y-98358867D01*
X191184544Y-98358867D01*
X191265963Y-98359009D01*
X191327793Y-98359592D01*
X191373020Y-98360846D01*
X191404631Y-98363005D01*
X191425614Y-98366301D01*
X191438956Y-98370967D01*
X191447644Y-98377235D01*
X191449833Y-98379511D01*
X191465997Y-98411058D01*
X191467180Y-98446946D01*
X191453919Y-98478063D01*
X191443426Y-98488049D01*
X191432512Y-98493547D01*
X191415600Y-98497800D01*
X191390016Y-98500958D01*
X191353084Y-98503170D01*
X191302129Y-98504584D01*
X191234477Y-98505350D01*
X191147452Y-98505616D01*
X191127777Y-98505623D01*
X191039294Y-98505565D01*
X190970610Y-98505245D01*
X190918947Y-98504445D01*
X190881528Y-98502945D01*
X190855573Y-98500527D01*
X190838305Y-98496972D01*
X190826945Y-98492060D01*
X190818715Y-98485573D01*
X190814200Y-98480916D01*
X190807404Y-98472667D01*
X190802095Y-98462447D01*
X190798089Y-98447578D01*
X190795204Y-98425380D01*
X190793257Y-98393171D01*
X190792064Y-98348274D01*
X190791444Y-98288006D01*
X190791212Y-98209689D01*
X190791183Y-98143772D01*
X190791254Y-98051406D01*
X190791591Y-97978895D01*
X190792381Y-97923515D01*
X190793809Y-97882543D01*
X190796062Y-97853256D01*
X190799326Y-97832931D01*
X190803787Y-97818844D01*
X190809631Y-97808273D01*
X190814580Y-97801589D01*
X190837977Y-97771845D01*
X191128157Y-97771845D01*
X191224726Y-97772038D01*
G37*
X191224726Y-97772038D02*
X191301084Y-97772952D01*
X191359600Y-97775089D01*
X191402638Y-97778953D01*
X191432566Y-97785045D01*
X191451751Y-97793868D01*
X191462559Y-97805924D01*
X191467356Y-97821717D01*
X191468510Y-97841748D01*
X191468516Y-97844113D01*
X191467514Y-97866770D01*
X191462779Y-97884281D01*
X191451716Y-97897352D01*
X191431731Y-97906691D01*
X191400229Y-97913005D01*
X191354615Y-97917000D01*
X191292296Y-97919384D01*
X191210676Y-97920864D01*
X191185660Y-97921192D01*
X190943583Y-97924245D01*
X190940197Y-97989156D01*
X190936812Y-98054067D01*
X191104959Y-98054067D01*
X191170649Y-98054309D01*
X191217555Y-98055334D01*
X191249466Y-98057589D01*
X191270174Y-98061520D01*
X191283467Y-98067576D01*
X191293138Y-98076202D01*
X191293200Y-98076271D01*
X191310739Y-98109890D01*
X191310105Y-98146226D01*
X191291697Y-98177201D01*
X191288054Y-98180385D01*
X191275124Y-98188590D01*
X191257407Y-98194299D01*
X191230953Y-98197940D01*
X191191815Y-98199945D01*
X191136045Y-98200742D01*
X191100377Y-98200823D01*
X190937938Y-98200823D01*
X190937938Y-98358867D01*
X191184544Y-98358867D01*
X191265963Y-98359009D01*
X191327793Y-98359592D01*
X191373020Y-98360846D01*
X191404631Y-98363005D01*
X191425614Y-98366301D01*
X191438956Y-98370967D01*
X191447644Y-98377235D01*
X191449833Y-98379511D01*
X191465997Y-98411058D01*
X191467180Y-98446946D01*
X191453919Y-98478063D01*
X191443426Y-98488049D01*
X191432512Y-98493547D01*
X191415600Y-98497800D01*
X191390016Y-98500958D01*
X191353084Y-98503170D01*
X191302129Y-98504584D01*
X191234477Y-98505350D01*
X191147452Y-98505616D01*
X191127777Y-98505623D01*
X191039294Y-98505565D01*
X190970610Y-98505245D01*
X190918947Y-98504445D01*
X190881528Y-98502945D01*
X190855573Y-98500527D01*
X190838305Y-98496972D01*
X190826945Y-98492060D01*
X190818715Y-98485573D01*
X190814200Y-98480916D01*
X190807404Y-98472667D01*
X190802095Y-98462447D01*
X190798089Y-98447578D01*
X190795204Y-98425380D01*
X190793257Y-98393171D01*
X190792064Y-98348274D01*
X190791444Y-98288006D01*
X190791212Y-98209689D01*
X190791183Y-98143772D01*
X190791254Y-98051406D01*
X190791591Y-97978895D01*
X190792381Y-97923515D01*
X190793809Y-97882543D01*
X190796062Y-97853256D01*
X190799326Y-97832931D01*
X190803787Y-97818844D01*
X190809631Y-97808273D01*
X190814580Y-97801589D01*
X190837977Y-97771845D01*
X191128157Y-97771845D01*
X191224726Y-97772038D01*
G36*
X192012692Y-97772053D02*
G01*
X192141671Y-97776414D01*
X192251374Y-97789639D01*
X192343609Y-97812519D01*
X192420185Y-97845848D01*
X192482910Y-97890416D01*
X192533595Y-97947014D01*
X192574046Y-98016436D01*
X192574842Y-98018129D01*
X192598984Y-98080261D01*
X192607586Y-98135287D01*
X192600614Y-98190665D01*
X192578037Y-98253851D01*
X192573755Y-98263467D01*
X192544555Y-98319744D01*
X192511739Y-98363229D01*
X192469385Y-98400195D01*
X192411573Y-98436913D01*
X192408214Y-98438830D01*
X192357887Y-98463005D01*
X192301004Y-98481060D01*
X192233910Y-98493617D01*
X192152948Y-98501300D01*
X192054465Y-98504731D01*
X192019669Y-98505029D01*
X191853977Y-98505623D01*
X191830580Y-98475878D01*
X191823640Y-98466097D01*
X191818225Y-98454675D01*
X191814148Y-98438873D01*
X191811220Y-98415953D01*
X191809250Y-98383174D01*
X191808608Y-98358867D01*
X191965227Y-98358867D01*
X192059109Y-98358867D01*
X192114047Y-98357261D01*
X192170443Y-98353033D01*
X192216728Y-98347070D01*
X192219522Y-98346568D01*
X192301731Y-98324514D01*
X192365497Y-98291378D01*
X192412835Y-98245625D01*
X192445765Y-98185717D01*
X192451491Y-98169839D01*
X192457104Y-98145111D01*
X192454674Y-98120680D01*
X192442850Y-98088178D01*
X192435723Y-98072212D01*
X192412383Y-98029784D01*
X192384263Y-98000018D01*
X192353323Y-97979289D01*
X192291349Y-97952315D01*
X192212034Y-97932776D01*
X192119636Y-97921524D01*
X192052716Y-97919048D01*
X191965227Y-97918600D01*
X191965227Y-98358867D01*
X191808608Y-98358867D01*
X191808051Y-98337799D01*
X191807433Y-98277089D01*
X191807208Y-98198304D01*
X191807183Y-98136698D01*
X191807183Y-97827263D01*
X191834892Y-97799554D01*
X191847189Y-97788322D01*
X191860486Y-97780631D01*
X191879055Y-97775818D01*
X191907169Y-97773224D01*
X191949100Y-97772188D01*
X192009120Y-97772048D01*
X192012692Y-97772053D01*
G37*
X192012692Y-97772053D02*
X192141671Y-97776414D01*
X192251374Y-97789639D01*
X192343609Y-97812519D01*
X192420185Y-97845848D01*
X192482910Y-97890416D01*
X192533595Y-97947014D01*
X192574046Y-98016436D01*
X192574842Y-98018129D01*
X192598984Y-98080261D01*
X192607586Y-98135287D01*
X192600614Y-98190665D01*
X192578037Y-98253851D01*
X192573755Y-98263467D01*
X192544555Y-98319744D01*
X192511739Y-98363229D01*
X192469385Y-98400195D01*
X192411573Y-98436913D01*
X192408214Y-98438830D01*
X192357887Y-98463005D01*
X192301004Y-98481060D01*
X192233910Y-98493617D01*
X192152948Y-98501300D01*
X192054465Y-98504731D01*
X192019669Y-98505029D01*
X191853977Y-98505623D01*
X191830580Y-98475878D01*
X191823640Y-98466097D01*
X191818225Y-98454675D01*
X191814148Y-98438873D01*
X191811220Y-98415953D01*
X191809250Y-98383174D01*
X191808608Y-98358867D01*
X191965227Y-98358867D01*
X192059109Y-98358867D01*
X192114047Y-98357261D01*
X192170443Y-98353033D01*
X192216728Y-98347070D01*
X192219522Y-98346568D01*
X192301731Y-98324514D01*
X192365497Y-98291378D01*
X192412835Y-98245625D01*
X192445765Y-98185717D01*
X192451491Y-98169839D01*
X192457104Y-98145111D01*
X192454674Y-98120680D01*
X192442850Y-98088178D01*
X192435723Y-98072212D01*
X192412383Y-98029784D01*
X192384263Y-98000018D01*
X192353323Y-97979289D01*
X192291349Y-97952315D01*
X192212034Y-97932776D01*
X192119636Y-97921524D01*
X192052716Y-97919048D01*
X191965227Y-97918600D01*
X191965227Y-98358867D01*
X191808608Y-98358867D01*
X191808051Y-98337799D01*
X191807433Y-98277089D01*
X191807208Y-98198304D01*
X191807183Y-98136698D01*
X191807183Y-97827263D01*
X191834892Y-97799554D01*
X191847189Y-97788322D01*
X191860486Y-97780631D01*
X191879055Y-97775818D01*
X191907169Y-97773224D01*
X191949100Y-97772188D01*
X192009120Y-97772048D01*
X192012692Y-97772053D01*
G36*
X194739048Y-97773812D02*
G01*
X194758638Y-97780813D01*
X194759393Y-97781155D01*
X194785996Y-97801456D01*
X194800653Y-97822339D01*
X194803521Y-97832130D01*
X194803379Y-97845139D01*
X194799344Y-97863673D01*
X194790529Y-97890035D01*
X194776052Y-97926530D01*
X194755028Y-97975465D01*
X194726571Y-98039143D01*
X194689798Y-98119871D01*
X194669558Y-98163994D01*
X194633008Y-98242763D01*
X194598698Y-98315201D01*
X194567935Y-98378658D01*
X194542031Y-98430486D01*
X194522293Y-98468037D01*
X194510033Y-98488662D01*
X194507607Y-98491511D01*
X194476566Y-98504080D01*
X194441504Y-98502397D01*
X194413383Y-98487110D01*
X194412237Y-98485867D01*
X194401051Y-98468932D01*
X194382287Y-98435948D01*
X194358258Y-98391158D01*
X194331280Y-98338810D01*
X194321584Y-98319520D01*
X194248397Y-98172928D01*
X194168623Y-98332171D01*
X194140150Y-98387193D01*
X194113733Y-98434910D01*
X194091531Y-98471671D01*
X194075702Y-98493822D01*
X194070337Y-98498519D01*
X194028640Y-98504880D01*
X193994232Y-98491511D01*
X193984111Y-98477224D01*
X193966597Y-98445470D01*
X193943118Y-98399375D01*
X193915103Y-98342063D01*
X193883982Y-98276658D01*
X193851182Y-98206285D01*
X193818133Y-98134069D01*
X193786264Y-98063133D01*
X193757002Y-97996603D01*
X193731778Y-97937604D01*
X193712019Y-97889259D01*
X193699155Y-97854693D01*
X193694614Y-97837031D01*
X193694660Y-97836391D01*
X193705709Y-97814166D01*
X193727793Y-97791531D01*
X193729093Y-97790546D01*
X193756236Y-97775203D01*
X193781341Y-97775352D01*
X193790751Y-97778244D01*
X193802217Y-97784496D01*
X193814393Y-97796792D01*
X193828740Y-97817686D01*
X193846719Y-97849727D01*
X193869790Y-97895466D01*
X193899413Y-97957455D01*
X193926128Y-98014676D01*
X193956863Y-98081004D01*
X193984404Y-98140652D01*
X194007321Y-98190503D01*
X194024181Y-98227442D01*
X194033556Y-98248351D01*
X194034923Y-98251623D01*
X194041072Y-98246275D01*
X194055205Y-98223887D01*
X194075440Y-98187724D01*
X194099898Y-98141055D01*
X194109631Y-98121800D01*
X194142600Y-98056782D01*
X194168026Y-98009432D01*
X194187995Y-97976997D01*
X194204593Y-97956724D01*
X194219907Y-97945860D01*
X194236023Y-97941653D01*
X194246526Y-97941178D01*
X194265053Y-97942820D01*
X194281287Y-97949609D01*
X194297418Y-97964344D01*
X194315634Y-97989822D01*
X194338122Y-98028839D01*
X194367072Y-98084192D01*
X194383045Y-98115681D01*
X194408953Y-98165865D01*
X194431550Y-98207482D01*
X194448841Y-98237020D01*
X194458833Y-98250967D01*
X194460192Y-98251548D01*
X194466644Y-98240571D01*
X194481091Y-98212068D01*
X194502086Y-98169022D01*
X194528180Y-98114416D01*
X194557929Y-98051232D01*
X194572563Y-98019849D01*
X194610633Y-97938856D01*
X194641288Y-97876534D01*
X194666120Y-97830849D01*
X194686720Y-97799767D01*
X194704681Y-97781256D01*
X194721593Y-97773282D01*
X194739048Y-97773812D01*
G37*
X194739048Y-97773812D02*
X194758638Y-97780813D01*
X194759393Y-97781155D01*
X194785996Y-97801456D01*
X194800653Y-97822339D01*
X194803521Y-97832130D01*
X194803379Y-97845139D01*
X194799344Y-97863673D01*
X194790529Y-97890035D01*
X194776052Y-97926530D01*
X194755028Y-97975465D01*
X194726571Y-98039143D01*
X194689798Y-98119871D01*
X194669558Y-98163994D01*
X194633008Y-98242763D01*
X194598698Y-98315201D01*
X194567935Y-98378658D01*
X194542031Y-98430486D01*
X194522293Y-98468037D01*
X194510033Y-98488662D01*
X194507607Y-98491511D01*
X194476566Y-98504080D01*
X194441504Y-98502397D01*
X194413383Y-98487110D01*
X194412237Y-98485867D01*
X194401051Y-98468932D01*
X194382287Y-98435948D01*
X194358258Y-98391158D01*
X194331280Y-98338810D01*
X194321584Y-98319520D01*
X194248397Y-98172928D01*
X194168623Y-98332171D01*
X194140150Y-98387193D01*
X194113733Y-98434910D01*
X194091531Y-98471671D01*
X194075702Y-98493822D01*
X194070337Y-98498519D01*
X194028640Y-98504880D01*
X193994232Y-98491511D01*
X193984111Y-98477224D01*
X193966597Y-98445470D01*
X193943118Y-98399375D01*
X193915103Y-98342063D01*
X193883982Y-98276658D01*
X193851182Y-98206285D01*
X193818133Y-98134069D01*
X193786264Y-98063133D01*
X193757002Y-97996603D01*
X193731778Y-97937604D01*
X193712019Y-97889259D01*
X193699155Y-97854693D01*
X193694614Y-97837031D01*
X193694660Y-97836391D01*
X193705709Y-97814166D01*
X193727793Y-97791531D01*
X193729093Y-97790546D01*
X193756236Y-97775203D01*
X193781341Y-97775352D01*
X193790751Y-97778244D01*
X193802217Y-97784496D01*
X193814393Y-97796792D01*
X193828740Y-97817686D01*
X193846719Y-97849727D01*
X193869790Y-97895466D01*
X193899413Y-97957455D01*
X193926128Y-98014676D01*
X193956863Y-98081004D01*
X193984404Y-98140652D01*
X194007321Y-98190503D01*
X194024181Y-98227442D01*
X194033556Y-98248351D01*
X194034923Y-98251623D01*
X194041072Y-98246275D01*
X194055205Y-98223887D01*
X194075440Y-98187724D01*
X194099898Y-98141055D01*
X194109631Y-98121800D01*
X194142600Y-98056782D01*
X194168026Y-98009432D01*
X194187995Y-97976997D01*
X194204593Y-97956724D01*
X194219907Y-97945860D01*
X194236023Y-97941653D01*
X194246526Y-97941178D01*
X194265053Y-97942820D01*
X194281287Y-97949609D01*
X194297418Y-97964344D01*
X194315634Y-97989822D01*
X194338122Y-98028839D01*
X194367072Y-98084192D01*
X194383045Y-98115681D01*
X194408953Y-98165865D01*
X194431550Y-98207482D01*
X194448841Y-98237020D01*
X194458833Y-98250967D01*
X194460192Y-98251548D01*
X194466644Y-98240571D01*
X194481091Y-98212068D01*
X194502086Y-98169022D01*
X194528180Y-98114416D01*
X194557929Y-98051232D01*
X194572563Y-98019849D01*
X194610633Y-97938856D01*
X194641288Y-97876534D01*
X194666120Y-97830849D01*
X194686720Y-97799767D01*
X194704681Y-97781256D01*
X194721593Y-97773282D01*
X194739048Y-97773812D01*
G36*
X195182997Y-97778655D02*
G01*
X195206710Y-97793425D01*
X195233361Y-97815005D01*
X195233361Y-98136551D01*
X195233276Y-98230608D01*
X195232912Y-98304710D01*
X195232107Y-98361482D01*
X195230696Y-98403546D01*
X195228516Y-98433526D01*
X195225404Y-98454045D01*
X195221197Y-98467727D01*
X195215731Y-98477194D01*
X195211855Y-98481860D01*
X195180417Y-98502353D01*
X195144616Y-98501517D01*
X195113256Y-98484042D01*
X195086605Y-98462462D01*
X195086605Y-97815005D01*
X195113256Y-97793425D01*
X195138977Y-97777727D01*
X195159983Y-97771845D01*
X195182997Y-97778655D01*
G37*
X195182997Y-97778655D02*
X195206710Y-97793425D01*
X195233361Y-97815005D01*
X195233361Y-98136551D01*
X195233276Y-98230608D01*
X195232912Y-98304710D01*
X195232107Y-98361482D01*
X195230696Y-98403546D01*
X195228516Y-98433526D01*
X195225404Y-98454045D01*
X195221197Y-98467727D01*
X195215731Y-98477194D01*
X195211855Y-98481860D01*
X195180417Y-98502353D01*
X195144616Y-98501517D01*
X195113256Y-98484042D01*
X195086605Y-98462462D01*
X195086605Y-97815005D01*
X195113256Y-97793425D01*
X195138977Y-97777727D01*
X195159983Y-97771845D01*
X195182997Y-97778655D01*
G36*
X195957448Y-97771941D02*
G01*
X196036155Y-97772320D01*
X196097246Y-97773111D01*
X196143200Y-97774448D01*
X196176497Y-97776461D01*
X196199619Y-97779284D01*
X196215045Y-97783047D01*
X196225254Y-97787883D01*
X196230196Y-97791600D01*
X196255840Y-97824136D01*
X196258942Y-97857916D01*
X196243094Y-97888604D01*
X196232731Y-97900867D01*
X196221579Y-97909228D01*
X196205418Y-97914435D01*
X196180025Y-97917235D01*
X196141181Y-97918374D01*
X196084663Y-97918599D01*
X196073563Y-97918600D01*
X195927627Y-97918600D01*
X195927627Y-98189534D01*
X195927531Y-98274932D01*
X195927094Y-98340642D01*
X195926095Y-98389552D01*
X195924311Y-98424551D01*
X195921520Y-98448527D01*
X195917500Y-98464371D01*
X195912028Y-98474969D01*
X195905049Y-98483045D01*
X195872117Y-98502890D01*
X195837737Y-98501326D01*
X195806559Y-98478684D01*
X195804269Y-98475878D01*
X195796812Y-98465270D01*
X195791130Y-98452859D01*
X195786984Y-98435628D01*
X195784133Y-98410562D01*
X195782337Y-98374645D01*
X195781355Y-98324861D01*
X195780947Y-98258195D01*
X195780872Y-98182367D01*
X195780872Y-97918600D01*
X195641510Y-97918600D01*
X195581705Y-97918196D01*
X195540301Y-97916618D01*
X195513131Y-97913325D01*
X195496029Y-97907770D01*
X195484826Y-97899409D01*
X195483466Y-97897956D01*
X195467108Y-97864717D01*
X195468555Y-97827140D01*
X195487361Y-97794423D01*
X195494633Y-97788076D01*
X195504010Y-97783044D01*
X195517992Y-97779174D01*
X195539079Y-97776315D01*
X195569772Y-97774313D01*
X195612572Y-97773017D01*
X195669978Y-97772276D01*
X195744493Y-97771936D01*
X195838616Y-97771846D01*
X195858643Y-97771845D01*
X195957448Y-97771941D01*
G37*
X195957448Y-97771941D02*
X196036155Y-97772320D01*
X196097246Y-97773111D01*
X196143200Y-97774448D01*
X196176497Y-97776461D01*
X196199619Y-97779284D01*
X196215045Y-97783047D01*
X196225254Y-97787883D01*
X196230196Y-97791600D01*
X196255840Y-97824136D01*
X196258942Y-97857916D01*
X196243094Y-97888604D01*
X196232731Y-97900867D01*
X196221579Y-97909228D01*
X196205418Y-97914435D01*
X196180025Y-97917235D01*
X196141181Y-97918374D01*
X196084663Y-97918599D01*
X196073563Y-97918600D01*
X195927627Y-97918600D01*
X195927627Y-98189534D01*
X195927531Y-98274932D01*
X195927094Y-98340642D01*
X195926095Y-98389552D01*
X195924311Y-98424551D01*
X195921520Y-98448527D01*
X195917500Y-98464371D01*
X195912028Y-98474969D01*
X195905049Y-98483045D01*
X195872117Y-98502890D01*
X195837737Y-98501326D01*
X195806559Y-98478684D01*
X195804269Y-98475878D01*
X195796812Y-98465270D01*
X195791130Y-98452859D01*
X195786984Y-98435628D01*
X195784133Y-98410562D01*
X195782337Y-98374645D01*
X195781355Y-98324861D01*
X195780947Y-98258195D01*
X195780872Y-98182367D01*
X195780872Y-97918600D01*
X195641510Y-97918600D01*
X195581705Y-97918196D01*
X195540301Y-97916618D01*
X195513131Y-97913325D01*
X195496029Y-97907770D01*
X195484826Y-97899409D01*
X195483466Y-97897956D01*
X195467108Y-97864717D01*
X195468555Y-97827140D01*
X195487361Y-97794423D01*
X195494633Y-97788076D01*
X195504010Y-97783044D01*
X195517992Y-97779174D01*
X195539079Y-97776315D01*
X195569772Y-97774313D01*
X195612572Y-97773017D01*
X195669978Y-97772276D01*
X195744493Y-97771936D01*
X195838616Y-97771846D01*
X195858643Y-97771845D01*
X195957448Y-97771941D01*
G36*
X197223206Y-97777311D02*
G01*
X197254585Y-97799554D01*
X197282294Y-97827263D01*
X197282294Y-98136698D01*
X197282221Y-98228577D01*
X197281878Y-98300618D01*
X197281075Y-98355558D01*
X197279624Y-98396138D01*
X197277335Y-98425095D01*
X197274019Y-98445169D01*
X197269488Y-98459099D01*
X197263552Y-98469623D01*
X197258897Y-98475878D01*
X197228166Y-98500451D01*
X197192879Y-98503119D01*
X197160628Y-98488049D01*
X197149971Y-98479152D01*
X197142847Y-98467335D01*
X197138550Y-98448304D01*
X197136374Y-98417770D01*
X197135611Y-98371440D01*
X197135538Y-98335649D01*
X197135538Y-98200823D01*
X196638827Y-98200823D01*
X196638827Y-98323478D01*
X196638314Y-98379565D01*
X196636259Y-98418111D01*
X196631891Y-98444139D01*
X196624439Y-98462675D01*
X196615430Y-98475878D01*
X196584527Y-98500382D01*
X196549579Y-98503284D01*
X196516121Y-98485867D01*
X196506987Y-98476737D01*
X196500535Y-98464633D01*
X196496280Y-98445779D01*
X196493735Y-98416398D01*
X196492412Y-98372715D01*
X196491826Y-98310953D01*
X196491758Y-98296778D01*
X196491274Y-98180409D01*
X196491024Y-98084505D01*
X196491106Y-98006955D01*
X196491614Y-97945647D01*
X196492645Y-97898468D01*
X196494296Y-97863308D01*
X196496662Y-97838054D01*
X196499840Y-97820595D01*
X196503927Y-97808819D01*
X196509017Y-97800613D01*
X196514649Y-97794423D01*
X196546511Y-97774622D01*
X196579740Y-97777311D01*
X196611118Y-97799554D01*
X196623816Y-97813904D01*
X196631909Y-97829756D01*
X196636425Y-97852332D01*
X196638389Y-97886856D01*
X196638827Y-97938554D01*
X196638827Y-98054067D01*
X197135538Y-98054067D01*
X197135538Y-97935534D01*
X197136045Y-97880926D01*
X197138081Y-97844053D01*
X197142418Y-97820085D01*
X197149830Y-97804193D01*
X197158116Y-97794423D01*
X197189977Y-97774622D01*
X197223206Y-97777311D01*
G37*
X197223206Y-97777311D02*
X197254585Y-97799554D01*
X197282294Y-97827263D01*
X197282294Y-98136698D01*
X197282221Y-98228577D01*
X197281878Y-98300618D01*
X197281075Y-98355558D01*
X197279624Y-98396138D01*
X197277335Y-98425095D01*
X197274019Y-98445169D01*
X197269488Y-98459099D01*
X197263552Y-98469623D01*
X197258897Y-98475878D01*
X197228166Y-98500451D01*
X197192879Y-98503119D01*
X197160628Y-98488049D01*
X197149971Y-98479152D01*
X197142847Y-98467335D01*
X197138550Y-98448304D01*
X197136374Y-98417770D01*
X197135611Y-98371440D01*
X197135538Y-98335649D01*
X197135538Y-98200823D01*
X196638827Y-98200823D01*
X196638827Y-98323478D01*
X196638314Y-98379565D01*
X196636259Y-98418111D01*
X196631891Y-98444139D01*
X196624439Y-98462675D01*
X196615430Y-98475878D01*
X196584527Y-98500382D01*
X196549579Y-98503284D01*
X196516121Y-98485867D01*
X196506987Y-98476737D01*
X196500535Y-98464633D01*
X196496280Y-98445779D01*
X196493735Y-98416398D01*
X196492412Y-98372715D01*
X196491826Y-98310953D01*
X196491758Y-98296778D01*
X196491274Y-98180409D01*
X196491024Y-98084505D01*
X196491106Y-98006955D01*
X196491614Y-97945647D01*
X196492645Y-97898468D01*
X196494296Y-97863308D01*
X196496662Y-97838054D01*
X196499840Y-97820595D01*
X196503927Y-97808819D01*
X196509017Y-97800613D01*
X196514649Y-97794423D01*
X196546511Y-97774622D01*
X196579740Y-97777311D01*
X196611118Y-97799554D01*
X196623816Y-97813904D01*
X196631909Y-97829756D01*
X196636425Y-97852332D01*
X196638389Y-97886856D01*
X196638827Y-97938554D01*
X196638827Y-98054067D01*
X197135538Y-98054067D01*
X197135538Y-97935534D01*
X197136045Y-97880926D01*
X197138081Y-97844053D01*
X197142418Y-97820085D01*
X197149830Y-97804193D01*
X197158116Y-97794423D01*
X197189977Y-97774622D01*
X197223206Y-97777311D01*
G36*
X83330334Y-95791158D02*
G01*
X83362859Y-95803736D01*
X83412433Y-95828712D01*
X83483614Y-95867876D01*
X83489156Y-95870988D01*
X83554714Y-95908476D01*
X83610038Y-95941319D01*
X83649695Y-95966205D01*
X83668252Y-95979820D01*
X83668771Y-95980487D01*
X83664288Y-95999390D01*
X83643726Y-96041605D01*
X83608423Y-96104832D01*
X83559720Y-96186772D01*
X83498958Y-96285122D01*
X83427476Y-96397585D01*
X83409685Y-96425165D01*
X83363333Y-96501699D01*
X83329582Y-96567556D01*
X83311393Y-96616782D01*
X83309526Y-96626507D01*
X83310355Y-96669312D01*
X83319634Y-96737209D01*
X83336208Y-96825843D01*
X83358920Y-96930859D01*
X83386613Y-97047902D01*
X83418130Y-97172616D01*
X83452315Y-97300645D01*
X83488011Y-97427634D01*
X83524061Y-97549228D01*
X83559308Y-97661072D01*
X83592596Y-97758810D01*
X83622768Y-97838087D01*
X83643801Y-97885122D01*
X83668577Y-97935225D01*
X83691970Y-97983168D01*
X83693237Y-97985793D01*
X83731939Y-98034220D01*
X83788424Y-98066828D01*
X83854179Y-98082454D01*
X83920691Y-98079937D01*
X83979445Y-98058114D01*
X84012498Y-98029382D01*
X84060099Y-97950583D01*
X84094979Y-97852378D01*
X84114117Y-97744779D01*
X84116828Y-97683780D01*
X84105910Y-97569935D01*
X84073864Y-97475660D01*
X84018966Y-97396379D01*
X84001847Y-97378733D01*
X83950901Y-97329235D01*
X83947403Y-96979362D01*
X83943904Y-96629489D01*
X84033058Y-96494531D01*
X84074894Y-96433445D01*
X84115185Y-96378493D01*
X84148183Y-96337336D01*
X84162366Y-96322192D01*
X84202521Y-96284810D01*
X84256905Y-96314098D01*
X84291279Y-96335084D01*
X84310086Y-96351378D01*
X84311289Y-96354307D01*
X84324143Y-96366728D01*
X84346136Y-96375977D01*
X84367390Y-96384313D01*
X84399934Y-96400149D01*
X84446562Y-96425033D01*
X84510069Y-96460509D01*
X84593248Y-96508123D01*
X84698893Y-96569422D01*
X84756302Y-96602932D01*
X84823834Y-96643071D01*
X84868125Y-96671659D01*
X84893095Y-96692039D01*
X84902663Y-96707553D01*
X84900748Y-96721546D01*
X84899151Y-96724796D01*
X84883616Y-96745266D01*
X84850376Y-96783665D01*
X84803302Y-96835696D01*
X84746268Y-96897066D01*
X84696940Y-96949090D01*
X84583270Y-97072567D01*
X84494345Y-97179591D01*
X84429374Y-97271240D01*
X84387561Y-97348588D01*
X84373457Y-97387866D01*
X84367632Y-97422249D01*
X84361615Y-97480899D01*
X84355936Y-97557117D01*
X84351124Y-97644202D01*
X84348859Y-97699268D01*
X84345699Y-97794464D01*
X84344309Y-97864062D01*
X84345098Y-97913409D01*
X84348475Y-97947854D01*
X84354848Y-97972743D01*
X84364627Y-97993425D01*
X84372307Y-98006053D01*
X84416661Y-98054726D01*
X84473814Y-98088645D01*
X84533948Y-98103438D01*
X84579013Y-98098086D01*
X84619816Y-98074930D01*
X84670964Y-98033462D01*
X84725282Y-97980912D01*
X84775597Y-97924516D01*
X84814734Y-97871505D01*
X84829145Y-97845889D01*
X84850731Y-97810814D01*
X84889993Y-97757389D01*
X84943342Y-97689789D01*
X85007192Y-97612190D01*
X85077955Y-97528768D01*
X85152044Y-97443698D01*
X85225872Y-97361155D01*
X85295851Y-97285316D01*
X85358395Y-97220356D01*
X85407500Y-97172669D01*
X85462019Y-97125032D01*
X85507882Y-97089908D01*
X85540051Y-97070949D01*
X85550729Y-97068864D01*
X85567093Y-97077274D01*
X85607911Y-97099846D01*
X85670826Y-97135224D01*
X85753484Y-97182054D01*
X85853529Y-97238981D01*
X85968606Y-97304649D01*
X86096359Y-97377703D01*
X86234434Y-97456788D01*
X86380474Y-97540548D01*
X86532124Y-97627629D01*
X86687030Y-97716676D01*
X86842835Y-97806332D01*
X86997184Y-97895243D01*
X87147722Y-97982054D01*
X87292094Y-98065409D01*
X87427944Y-98143954D01*
X87552917Y-98216333D01*
X87664657Y-98281190D01*
X87760810Y-98337171D01*
X87839019Y-98382920D01*
X87896929Y-98417083D01*
X87932186Y-98438304D01*
X87942405Y-98444963D01*
X87928642Y-98446280D01*
X87885344Y-98447559D01*
X87813954Y-98448796D01*
X87715913Y-98449983D01*
X87592662Y-98451115D01*
X87445643Y-98452186D01*
X87276297Y-98453189D01*
X87086066Y-98454119D01*
X86876391Y-98454968D01*
X86648713Y-98455732D01*
X86404475Y-98456403D01*
X86145117Y-98456976D01*
X85872081Y-98457444D01*
X85586808Y-98457802D01*
X85290740Y-98458042D01*
X84985319Y-98458159D01*
X84857164Y-98458171D01*
X81757210Y-98458171D01*
X81978293Y-98074847D01*
X82025096Y-97993680D01*
X82085342Y-97889166D01*
X82157018Y-97764801D01*
X82238109Y-97624082D01*
X82326602Y-97470503D01*
X82420480Y-97307562D01*
X82517731Y-97138754D01*
X82616340Y-96967575D01*
X82714293Y-96797521D01*
X82739065Y-96754512D01*
X82829392Y-96597857D01*
X82915529Y-96448803D01*
X82996182Y-96309568D01*
X83070056Y-96182371D01*
X83135857Y-96069432D01*
X83192290Y-95972968D01*
X83238061Y-95895200D01*
X83271875Y-95838346D01*
X83292438Y-95804625D01*
X83298193Y-95796040D01*
X83310298Y-95789189D01*
X83330334Y-95791158D01*
G37*
X83330334Y-95791158D02*
X83362859Y-95803736D01*
X83412433Y-95828712D01*
X83483614Y-95867876D01*
X83489156Y-95870988D01*
X83554714Y-95908476D01*
X83610038Y-95941319D01*
X83649695Y-95966205D01*
X83668252Y-95979820D01*
X83668771Y-95980487D01*
X83664288Y-95999390D01*
X83643726Y-96041605D01*
X83608423Y-96104832D01*
X83559720Y-96186772D01*
X83498958Y-96285122D01*
X83427476Y-96397585D01*
X83409685Y-96425165D01*
X83363333Y-96501699D01*
X83329582Y-96567556D01*
X83311393Y-96616782D01*
X83309526Y-96626507D01*
X83310355Y-96669312D01*
X83319634Y-96737209D01*
X83336208Y-96825843D01*
X83358920Y-96930859D01*
X83386613Y-97047902D01*
X83418130Y-97172616D01*
X83452315Y-97300645D01*
X83488011Y-97427634D01*
X83524061Y-97549228D01*
X83559308Y-97661072D01*
X83592596Y-97758810D01*
X83622768Y-97838087D01*
X83643801Y-97885122D01*
X83668577Y-97935225D01*
X83691970Y-97983168D01*
X83693237Y-97985793D01*
X83731939Y-98034220D01*
X83788424Y-98066828D01*
X83854179Y-98082454D01*
X83920691Y-98079937D01*
X83979445Y-98058114D01*
X84012498Y-98029382D01*
X84060099Y-97950583D01*
X84094979Y-97852378D01*
X84114117Y-97744779D01*
X84116828Y-97683780D01*
X84105910Y-97569935D01*
X84073864Y-97475660D01*
X84018966Y-97396379D01*
X84001847Y-97378733D01*
X83950901Y-97329235D01*
X83947403Y-96979362D01*
X83943904Y-96629489D01*
X84033058Y-96494531D01*
X84074894Y-96433445D01*
X84115185Y-96378493D01*
X84148183Y-96337336D01*
X84162366Y-96322192D01*
X84202521Y-96284810D01*
X84256905Y-96314098D01*
X84291279Y-96335084D01*
X84310086Y-96351378D01*
X84311289Y-96354307D01*
X84324143Y-96366728D01*
X84346136Y-96375977D01*
X84367390Y-96384313D01*
X84399934Y-96400149D01*
X84446562Y-96425033D01*
X84510069Y-96460509D01*
X84593248Y-96508123D01*
X84698893Y-96569422D01*
X84756302Y-96602932D01*
X84823834Y-96643071D01*
X84868125Y-96671659D01*
X84893095Y-96692039D01*
X84902663Y-96707553D01*
X84900748Y-96721546D01*
X84899151Y-96724796D01*
X84883616Y-96745266D01*
X84850376Y-96783665D01*
X84803302Y-96835696D01*
X84746268Y-96897066D01*
X84696940Y-96949090D01*
X84583270Y-97072567D01*
X84494345Y-97179591D01*
X84429374Y-97271240D01*
X84387561Y-97348588D01*
X84373457Y-97387866D01*
X84367632Y-97422249D01*
X84361615Y-97480899D01*
X84355936Y-97557117D01*
X84351124Y-97644202D01*
X84348859Y-97699268D01*
X84345699Y-97794464D01*
X84344309Y-97864062D01*
X84345098Y-97913409D01*
X84348475Y-97947854D01*
X84354848Y-97972743D01*
X84364627Y-97993425D01*
X84372307Y-98006053D01*
X84416661Y-98054726D01*
X84473814Y-98088645D01*
X84533948Y-98103438D01*
X84579013Y-98098086D01*
X84619816Y-98074930D01*
X84670964Y-98033462D01*
X84725282Y-97980912D01*
X84775597Y-97924516D01*
X84814734Y-97871505D01*
X84829145Y-97845889D01*
X84850731Y-97810814D01*
X84889993Y-97757389D01*
X84943342Y-97689789D01*
X85007192Y-97612190D01*
X85077955Y-97528768D01*
X85152044Y-97443698D01*
X85225872Y-97361155D01*
X85295851Y-97285316D01*
X85358395Y-97220356D01*
X85407500Y-97172669D01*
X85462019Y-97125032D01*
X85507882Y-97089908D01*
X85540051Y-97070949D01*
X85550729Y-97068864D01*
X85567093Y-97077274D01*
X85607911Y-97099846D01*
X85670826Y-97135224D01*
X85753484Y-97182054D01*
X85853529Y-97238981D01*
X85968606Y-97304649D01*
X86096359Y-97377703D01*
X86234434Y-97456788D01*
X86380474Y-97540548D01*
X86532124Y-97627629D01*
X86687030Y-97716676D01*
X86842835Y-97806332D01*
X86997184Y-97895243D01*
X87147722Y-97982054D01*
X87292094Y-98065409D01*
X87427944Y-98143954D01*
X87552917Y-98216333D01*
X87664657Y-98281190D01*
X87760810Y-98337171D01*
X87839019Y-98382920D01*
X87896929Y-98417083D01*
X87932186Y-98438304D01*
X87942405Y-98444963D01*
X87928642Y-98446280D01*
X87885344Y-98447559D01*
X87813954Y-98448796D01*
X87715913Y-98449983D01*
X87592662Y-98451115D01*
X87445643Y-98452186D01*
X87276297Y-98453189D01*
X87086066Y-98454119D01*
X86876391Y-98454968D01*
X86648713Y-98455732D01*
X86404475Y-98456403D01*
X86145117Y-98456976D01*
X85872081Y-98457444D01*
X85586808Y-98457802D01*
X85290740Y-98458042D01*
X84985319Y-98458159D01*
X84857164Y-98458171D01*
X81757210Y-98458171D01*
X81978293Y-98074847D01*
X82025096Y-97993680D01*
X82085342Y-97889166D01*
X82157018Y-97764801D01*
X82238109Y-97624082D01*
X82326602Y-97470503D01*
X82420480Y-97307562D01*
X82517731Y-97138754D01*
X82616340Y-96967575D01*
X82714293Y-96797521D01*
X82739065Y-96754512D01*
X82829392Y-96597857D01*
X82915529Y-96448803D01*
X82996182Y-96309568D01*
X83070056Y-96182371D01*
X83135857Y-96069432D01*
X83192290Y-95972968D01*
X83238061Y-95895200D01*
X83271875Y-95838346D01*
X83292438Y-95804625D01*
X83298193Y-95796040D01*
X83310298Y-95789189D01*
X83330334Y-95791158D01*
G36*
X86995768Y-95734619D02*
G01*
X87007148Y-95753693D01*
X87032728Y-95797421D01*
X87071242Y-95863619D01*
X87121426Y-95950102D01*
X87182015Y-96054685D01*
X87251743Y-96175183D01*
X87329347Y-96309412D01*
X87413560Y-96455187D01*
X87503119Y-96610323D01*
X87595238Y-96770000D01*
X87689316Y-96933117D01*
X87779642Y-97089709D01*
X87864905Y-97237506D01*
X87943797Y-97374240D01*
X88015009Y-97497642D01*
X88077231Y-97605444D01*
X88129153Y-97695377D01*
X88169468Y-97765173D01*
X88196864Y-97812564D01*
X88209747Y-97834786D01*
X88230747Y-97872330D01*
X88242165Y-97895831D01*
X88242791Y-97899920D01*
X88228876Y-97892242D01*
X88190181Y-97870203D01*
X88128727Y-97834971D01*
X88046538Y-97787711D01*
X87945636Y-97729589D01*
X87828045Y-97661771D01*
X87695786Y-97585424D01*
X87550882Y-97501714D01*
X87395357Y-97411806D01*
X87231232Y-97316867D01*
X87168789Y-97280732D01*
X87001727Y-97184083D01*
X86842314Y-97091938D01*
X86692595Y-97005475D01*
X86554616Y-96925871D01*
X86430425Y-96854305D01*
X86322067Y-96791955D01*
X86231588Y-96739998D01*
X86161036Y-96699613D01*
X86112455Y-96671978D01*
X86087894Y-96658272D01*
X86085325Y-96656974D01*
X86092809Y-96645220D01*
X86118854Y-96613795D01*
X86160799Y-96565594D01*
X86215986Y-96503510D01*
X86281757Y-96430439D01*
X86355452Y-96349276D01*
X86434413Y-96262916D01*
X86515980Y-96174253D01*
X86597494Y-96086182D01*
X86676297Y-96001599D01*
X86749730Y-95923397D01*
X86815133Y-95854472D01*
X86869848Y-95797719D01*
X86911217Y-95756032D01*
X86925404Y-95742363D01*
X86972420Y-95698201D01*
X86995768Y-95734619D01*
G37*
X86995768Y-95734619D02*
X87007148Y-95753693D01*
X87032728Y-95797421D01*
X87071242Y-95863619D01*
X87121426Y-95950102D01*
X87182015Y-96054685D01*
X87251743Y-96175183D01*
X87329347Y-96309412D01*
X87413560Y-96455187D01*
X87503119Y-96610323D01*
X87595238Y-96770000D01*
X87689316Y-96933117D01*
X87779642Y-97089709D01*
X87864905Y-97237506D01*
X87943797Y-97374240D01*
X88015009Y-97497642D01*
X88077231Y-97605444D01*
X88129153Y-97695377D01*
X88169468Y-97765173D01*
X88196864Y-97812564D01*
X88209747Y-97834786D01*
X88230747Y-97872330D01*
X88242165Y-97895831D01*
X88242791Y-97899920D01*
X88228876Y-97892242D01*
X88190181Y-97870203D01*
X88128727Y-97834971D01*
X88046538Y-97787711D01*
X87945636Y-97729589D01*
X87828045Y-97661771D01*
X87695786Y-97585424D01*
X87550882Y-97501714D01*
X87395357Y-97411806D01*
X87231232Y-97316867D01*
X87168789Y-97280732D01*
X87001727Y-97184083D01*
X86842314Y-97091938D01*
X86692595Y-97005475D01*
X86554616Y-96925871D01*
X86430425Y-96854305D01*
X86322067Y-96791955D01*
X86231588Y-96739998D01*
X86161036Y-96699613D01*
X86112455Y-96671978D01*
X86087894Y-96658272D01*
X86085325Y-96656974D01*
X86092809Y-96645220D01*
X86118854Y-96613795D01*
X86160799Y-96565594D01*
X86215986Y-96503510D01*
X86281757Y-96430439D01*
X86355452Y-96349276D01*
X86434413Y-96262916D01*
X86515980Y-96174253D01*
X86597494Y-96086182D01*
X86676297Y-96001599D01*
X86749730Y-95923397D01*
X86815133Y-95854472D01*
X86869848Y-95797719D01*
X86911217Y-95756032D01*
X86925404Y-95742363D01*
X86972420Y-95698201D01*
X86995768Y-95734619D01*
G36*
X85172283Y-92585835D02*
G01*
X85195305Y-92623245D01*
X85230774Y-92682514D01*
X85277236Y-92761118D01*
X85333236Y-92856538D01*
X85397321Y-92966250D01*
X85468036Y-93087734D01*
X85543927Y-93218468D01*
X85623539Y-93355930D01*
X85705418Y-93497598D01*
X85788110Y-93640951D01*
X85870161Y-93783467D01*
X85950116Y-93922624D01*
X86026521Y-94055901D01*
X86097922Y-94180776D01*
X86162864Y-94294727D01*
X86219893Y-94395233D01*
X86267555Y-94479772D01*
X86304395Y-94545822D01*
X86328960Y-94590862D01*
X86339794Y-94612370D01*
X86340191Y-94613714D01*
X86326741Y-94631965D01*
X86289354Y-94659882D01*
X86232475Y-94694725D01*
X86160552Y-94733754D01*
X86085255Y-94770843D01*
X85982800Y-94815817D01*
X85875057Y-94856226D01*
X85758313Y-94892969D01*
X85628858Y-94926942D01*
X85482980Y-94959044D01*
X85316966Y-94990173D01*
X85127106Y-95021227D01*
X84930709Y-95050145D01*
X84760074Y-95075800D01*
X84616785Y-95101198D01*
X84497248Y-95127602D01*
X84397870Y-95156273D01*
X84315058Y-95188473D01*
X84245218Y-95225465D01*
X84184758Y-95268512D01*
X84130085Y-95318875D01*
X84112454Y-95337583D01*
X84074240Y-95381139D01*
X84045972Y-95416682D01*
X84032858Y-95437583D01*
X84032508Y-95439297D01*
X84027920Y-95449806D01*
X84011998Y-95449924D01*
X83981506Y-95438254D01*
X83933208Y-95413396D01*
X83863867Y-95373952D01*
X83815679Y-95345587D01*
X83743823Y-95301247D01*
X83687982Y-95263279D01*
X83651907Y-95234416D01*
X83639353Y-95217388D01*
X83639361Y-95217264D01*
X83647146Y-95201037D01*
X83669132Y-95160400D01*
X83704043Y-95097567D01*
X83750603Y-95014752D01*
X83807535Y-94914172D01*
X83873563Y-94798040D01*
X83947412Y-94668571D01*
X84027804Y-94527980D01*
X84113464Y-94378482D01*
X84203116Y-94222292D01*
X84295483Y-94061624D01*
X84389289Y-93898693D01*
X84483258Y-93735713D01*
X84576114Y-93574900D01*
X84666580Y-93418468D01*
X84753381Y-93268633D01*
X84835240Y-93127608D01*
X84910881Y-92997609D01*
X84979027Y-92880849D01*
X85038403Y-92779545D01*
X85087733Y-92695911D01*
X85125740Y-92632162D01*
X85151147Y-92590511D01*
X85162680Y-92573175D01*
X85163163Y-92572805D01*
X85172283Y-92585835D01*
G37*
X85172283Y-92585835D02*
X85195305Y-92623245D01*
X85230774Y-92682514D01*
X85277236Y-92761118D01*
X85333236Y-92856538D01*
X85397321Y-92966250D01*
X85468036Y-93087734D01*
X85543927Y-93218468D01*
X85623539Y-93355930D01*
X85705418Y-93497598D01*
X85788110Y-93640951D01*
X85870161Y-93783467D01*
X85950116Y-93922624D01*
X86026521Y-94055901D01*
X86097922Y-94180776D01*
X86162864Y-94294727D01*
X86219893Y-94395233D01*
X86267555Y-94479772D01*
X86304395Y-94545822D01*
X86328960Y-94590862D01*
X86339794Y-94612370D01*
X86340191Y-94613714D01*
X86326741Y-94631965D01*
X86289354Y-94659882D01*
X86232475Y-94694725D01*
X86160552Y-94733754D01*
X86085255Y-94770843D01*
X85982800Y-94815817D01*
X85875057Y-94856226D01*
X85758313Y-94892969D01*
X85628858Y-94926942D01*
X85482980Y-94959044D01*
X85316966Y-94990173D01*
X85127106Y-95021227D01*
X84930709Y-95050145D01*
X84760074Y-95075800D01*
X84616785Y-95101198D01*
X84497248Y-95127602D01*
X84397870Y-95156273D01*
X84315058Y-95188473D01*
X84245218Y-95225465D01*
X84184758Y-95268512D01*
X84130085Y-95318875D01*
X84112454Y-95337583D01*
X84074240Y-95381139D01*
X84045972Y-95416682D01*
X84032858Y-95437583D01*
X84032508Y-95439297D01*
X84027920Y-95449806D01*
X84011998Y-95449924D01*
X83981506Y-95438254D01*
X83933208Y-95413396D01*
X83863867Y-95373952D01*
X83815679Y-95345587D01*
X83743823Y-95301247D01*
X83687982Y-95263279D01*
X83651907Y-95234416D01*
X83639353Y-95217388D01*
X83639361Y-95217264D01*
X83647146Y-95201037D01*
X83669132Y-95160400D01*
X83704043Y-95097567D01*
X83750603Y-95014752D01*
X83807535Y-94914172D01*
X83873563Y-94798040D01*
X83947412Y-94668571D01*
X84027804Y-94527980D01*
X84113464Y-94378482D01*
X84203116Y-94222292D01*
X84295483Y-94061624D01*
X84389289Y-93898693D01*
X84483258Y-93735713D01*
X84576114Y-93574900D01*
X84666580Y-93418468D01*
X84753381Y-93268633D01*
X84835240Y-93127608D01*
X84910881Y-92997609D01*
X84979027Y-92880849D01*
X85038403Y-92779545D01*
X85087733Y-92695911D01*
X85125740Y-92632162D01*
X85151147Y-92590511D01*
X85162680Y-92573175D01*
X85163163Y-92572805D01*
X85172283Y-92585835D01*
D13*
X169450543Y-102900000D02*
G75*
G03X169450543Y-102900000I-9200543J0D01*
G01*
X164500000Y-102900000D02*
G75*
G03X164500000Y-102900000I-4250000J0D01*
G01*
X154250000Y-70400000D02*
X156750000Y-70400000D01*
X160250000Y-112200000D02*
X154650000Y-112200000D01*
X160250000Y-93600000D02*
X150950000Y-93600000D01*
X150950000Y-93600000D02*
X150950000Y-112200000D01*
X151300000Y-112200000D02*
X151300000Y-113400000D01*
X154650000Y-112700000D02*
X154650000Y-112200000D01*
X160250000Y-112200000D02*
X166750000Y-112200000D01*
X151300000Y-112200000D02*
X150950000Y-112200000D01*
X169550000Y-111400000D02*
X169550000Y-102900000D01*
X169550000Y-102900000D02*
X169550000Y-97563000D01*
X160250000Y-93600000D02*
X165587000Y-93600000D01*
X169550000Y-97563000D02*
X165600000Y-93600000D01*
X151500000Y-88300000D02*
X160250000Y-88300000D01*
X160250000Y-88300000D02*
X162050000Y-88300000D01*
X162050000Y-88300000D02*
X162050000Y-93600000D01*
X151500000Y-93600000D02*
X151500000Y-88300000D01*
X154250000Y-88300000D02*
X154250000Y-70400000D01*
X156750000Y-88300000D02*
X156750000Y-70400000D01*
X154646424Y-112700001D02*
G75*
G02X151300001Y-113399999I-1746424J1D01*
G01*
X169550832Y-111400000D02*
G75*
G02X166750001Y-112149999I-1500832J0D01*
G01*
D11*
X194500000Y-74250000D02*
X193500000Y-74250000D01*
X194500000Y-75000000D02*
X194500000Y-74250000D01*
X188500000Y-74250000D02*
X189500000Y-74250000D01*
X188500000Y-75000000D02*
X188500000Y-74250000D01*
X188500000Y-81750000D02*
X188500000Y-81000000D01*
X189500000Y-81750000D02*
X188500000Y-81750000D01*
X194500000Y-81750000D02*
X193500000Y-81750000D01*
X194500000Y-81750000D02*
X194500000Y-81000000D01*
X195750000Y-78000000D02*
G75*
G03X195750000Y-78000000I-4250000J0D01*
G01*
D13*
X99250000Y-92700000D02*
X99250000Y-110600000D01*
X101750000Y-92700000D02*
X101750000Y-110600000D01*
X104500000Y-87400000D02*
X104500000Y-92700000D01*
X93950000Y-92700000D02*
X93950000Y-87400000D01*
X95750000Y-92700000D02*
X93950000Y-92700000D01*
X104500000Y-92700000D02*
X95750000Y-92700000D01*
X86450000Y-83437000D02*
X90400000Y-87400000D01*
X95750000Y-87400000D02*
X90413000Y-87400000D01*
X86450000Y-78100000D02*
X86450000Y-83437000D01*
X86450000Y-69600000D02*
X86450000Y-78100000D01*
X104700000Y-68800000D02*
X105050000Y-68800000D01*
X95750000Y-68800000D02*
X89250000Y-68800000D01*
X101350000Y-68300000D02*
X101350000Y-68800000D01*
X104700000Y-68800000D02*
X104700000Y-67600000D01*
X105050000Y-87400000D02*
X105050000Y-68800000D01*
X95750000Y-87400000D02*
X105050000Y-87400000D01*
X95750000Y-68800000D02*
X101350000Y-68800000D01*
X101750000Y-110600000D02*
X99250000Y-110600000D01*
X100000000Y-78100000D02*
G75*
G03X100000000Y-78100000I-4250000J0D01*
G01*
X104950543Y-78100000D02*
G75*
G03X104950543Y-78100000I-9200543J0D01*
G01*
X86449168Y-69600000D02*
G75*
G02X89249999Y-68850001I1500832J0D01*
G01*
X101353576Y-68299999D02*
G75*
G02X104699999Y-67600001I1746424J-1D01*
G01*
D10*
X142000000Y-78000000D02*
G75*
G03X142000000Y-78000000I-4000000J0D01*
G01*
X140500000Y-78000000D02*
G75*
G03X140500000Y-78000000I-2500000J0D01*
G01*
X141400000Y-81500000D02*
X141400000Y-74500000D01*
X134600000Y-81500000D02*
X134600000Y-74500000D01*
X141400000Y-74500000D02*
X134600000Y-74500000D01*
X141400000Y-81500000D02*
X134600000Y-81500000D01*
X158400000Y-57700000D02*
X158400000Y-62300000D01*
X162600000Y-62300000D02*
X158400000Y-62300000D01*
X162600000Y-57700000D02*
X158400000Y-57700000D01*
X162600000Y-57700000D02*
X162600000Y-62300000D01*
X113400000Y-57700000D02*
X113400000Y-62300000D01*
X117600000Y-62300000D02*
X113400000Y-62300000D01*
X117600000Y-57700000D02*
X113400000Y-57700000D01*
X117600000Y-57700000D02*
X117600000Y-62300000D01*
X144900000Y-75700000D02*
X144900000Y-80300000D01*
X149100000Y-80300000D02*
X144900000Y-80300000D01*
X149100000Y-75700000D02*
X144900000Y-75700000D01*
X149100000Y-75700000D02*
X149100000Y-80300000D01*
X131100000Y-75700000D02*
X131100000Y-80300000D01*
X131100000Y-75700000D02*
X126900000Y-75700000D01*
X131100000Y-80300000D02*
X126900000Y-80300000D01*
X126900000Y-75700000D02*
X126900000Y-80300000D01*
D11*
X121850000Y-102000000D02*
G75*
G03X121850000Y-102000000I-5850000J0D01*
G01*
X97800000Y-54520000D02*
X93200000Y-54520000D01*
X99500000Y-63250000D02*
X91500000Y-63250000D01*
X91500000Y-63250000D02*
X91500000Y-56750000D01*
X99500000Y-63250000D02*
X99500000Y-56750000D01*
X99500000Y-56750000D02*
X98000000Y-56750000D01*
X91500000Y-56750000D02*
X93000000Y-56750000D01*
X182800000Y-54520000D02*
X178200000Y-54520000D01*
X184500000Y-63250000D02*
X176500000Y-63250000D01*
X176500000Y-63250000D02*
X176500000Y-56750000D01*
X184500000Y-63250000D02*
X184500000Y-56750000D01*
X184500000Y-56750000D02*
X183000000Y-56750000D01*
X176500000Y-56750000D02*
X178000000Y-56750000D01*
X183500000Y-63250000D02*
X182500000Y-63250000D01*
X183500000Y-64000000D02*
X183500000Y-63250000D01*
X177500000Y-63250000D02*
X178500000Y-63250000D01*
X177500000Y-64000000D02*
X177500000Y-63250000D01*
X177500000Y-70750000D02*
X177500000Y-70000000D01*
X178500000Y-70750000D02*
X177500000Y-70750000D01*
X183500000Y-70750000D02*
X182500000Y-70750000D01*
X183500000Y-70750000D02*
X183500000Y-70000000D01*
X184750000Y-67000000D02*
G75*
G03X184750000Y-67000000I-4250000J0D01*
G01*
X183500000Y-85250000D02*
X182500000Y-85250000D01*
X183500000Y-86000000D02*
X183500000Y-85250000D01*
X177500000Y-85250000D02*
X178500000Y-85250000D01*
X177500000Y-86000000D02*
X177500000Y-85250000D01*
X177500000Y-92750000D02*
X177500000Y-92000000D01*
X178500000Y-92750000D02*
X177500000Y-92750000D01*
X183500000Y-92750000D02*
X182500000Y-92750000D01*
X183500000Y-92750000D02*
X183500000Y-92000000D01*
X184750000Y-89000000D02*
G75*
G03X184750000Y-89000000I-4250000J0D01*
G01*
X172500000Y-74250000D02*
X171500000Y-74250000D01*
X172500000Y-75000000D02*
X172500000Y-74250000D01*
X166500000Y-74250000D02*
X167500000Y-74250000D01*
X166500000Y-75000000D02*
X166500000Y-74250000D01*
X166500000Y-81750000D02*
X166500000Y-81000000D01*
X167500000Y-81750000D02*
X166500000Y-81750000D01*
X172500000Y-81750000D02*
X171500000Y-81750000D01*
X172500000Y-81750000D02*
X172500000Y-81000000D01*
X173750000Y-78000000D02*
G75*
G03X173750000Y-78000000I-4250000J0D01*
G01*
X136908095Y-64822380D02*
X136908095Y-65631904D01*
X136955714Y-65727142D01*
X137003333Y-65774761D01*
X137098571Y-65822380D01*
X137289047Y-65822380D01*
X137384285Y-65774761D01*
X137431904Y-65727142D01*
X137479523Y-65631904D01*
X137479523Y-64822380D01*
X138384285Y-65155714D02*
X138384285Y-65822380D01*
X138146190Y-64774761D02*
X137908095Y-65489047D01*
X138527142Y-65489047D01*
X158964285Y-112352380D02*
X158964285Y-113066666D01*
X158916666Y-113209523D01*
X158821428Y-113304761D01*
X158678571Y-113352380D01*
X158583333Y-113352380D01*
X159630952Y-112352380D02*
X159821428Y-112352380D01*
X159916666Y-112400000D01*
X160011904Y-112495238D01*
X160059523Y-112685714D01*
X160059523Y-113019047D01*
X160011904Y-113209523D01*
X159916666Y-113304761D01*
X159821428Y-113352380D01*
X159630952Y-113352380D01*
X159535714Y-113304761D01*
X159440476Y-113209523D01*
X159392857Y-113019047D01*
X159392857Y-112685714D01*
X159440476Y-112495238D01*
X159535714Y-112400000D01*
X159630952Y-112352380D01*
X160678571Y-112876190D02*
X160678571Y-113352380D01*
X160345238Y-112352380D02*
X160678571Y-112876190D01*
X161011904Y-112352380D01*
X161297619Y-112447619D02*
X161345238Y-112400000D01*
X161440476Y-112352380D01*
X161678571Y-112352380D01*
X161773809Y-112400000D01*
X161821428Y-112447619D01*
X161869047Y-112542857D01*
X161869047Y-112638095D01*
X161821428Y-112780952D01*
X161250000Y-113352380D01*
X161869047Y-113352380D01*
X189690475Y-83404761D02*
X189833332Y-83452380D01*
X190071427Y-83452380D01*
X190166665Y-83404761D01*
X190214284Y-83357142D01*
X190261903Y-83261904D01*
X190261903Y-83166666D01*
X190214284Y-83071428D01*
X190166665Y-83023809D01*
X190071427Y-82976190D01*
X189880951Y-82928571D01*
X189785713Y-82880952D01*
X189738094Y-82833333D01*
X189690475Y-82738095D01*
X189690475Y-82642857D01*
X189738094Y-82547619D01*
X189785713Y-82500000D01*
X189880951Y-82452380D01*
X190119046Y-82452380D01*
X190261903Y-82500000D01*
X190595237Y-82452380D02*
X190833332Y-83452380D01*
X191023808Y-82738095D01*
X191214284Y-83452380D01*
X191452379Y-82452380D01*
X192357141Y-83452380D02*
X191785713Y-83452380D01*
X192071427Y-83452380D02*
X192071427Y-82452380D01*
X191976189Y-82595238D01*
X191880951Y-82690476D01*
X191785713Y-82738095D01*
X192738094Y-82547619D02*
X192785713Y-82500000D01*
X192880951Y-82452380D01*
X193119046Y-82452380D01*
X193214284Y-82500000D01*
X193261903Y-82547619D01*
X193309522Y-82642857D01*
X193309522Y-82738095D01*
X193261903Y-82880952D01*
X192690475Y-83452380D01*
X193309522Y-83452380D01*
X94464285Y-67552380D02*
X94464285Y-68266666D01*
X94416666Y-68409523D01*
X94321428Y-68504761D01*
X94178571Y-68552380D01*
X94083333Y-68552380D01*
X95130952Y-67552380D02*
X95321428Y-67552380D01*
X95416666Y-67600000D01*
X95511904Y-67695238D01*
X95559523Y-67885714D01*
X95559523Y-68219047D01*
X95511904Y-68409523D01*
X95416666Y-68504761D01*
X95321428Y-68552380D01*
X95130952Y-68552380D01*
X95035714Y-68504761D01*
X94940476Y-68409523D01*
X94892857Y-68219047D01*
X94892857Y-67885714D01*
X94940476Y-67695238D01*
X95035714Y-67600000D01*
X95130952Y-67552380D01*
X96178571Y-68076190D02*
X96178571Y-68552380D01*
X95845238Y-67552380D02*
X96178571Y-68076190D01*
X96511904Y-67552380D01*
X97369047Y-68552380D02*
X96797619Y-68552380D01*
X97083333Y-68552380D02*
X97083333Y-67552380D01*
X96988095Y-67695238D01*
X96892857Y-67790476D01*
X96797619Y-67838095D01*
X133535714Y-110952380D02*
X133535714Y-109952380D01*
X133964285Y-110952380D02*
X133964285Y-110428571D01*
X133916666Y-110333333D01*
X133821428Y-110285714D01*
X133678571Y-110285714D01*
X133583333Y-110333333D01*
X133535714Y-110380952D01*
X134964285Y-110000000D02*
X134869047Y-109952380D01*
X134726190Y-109952380D01*
X134583333Y-110000000D01*
X134488095Y-110095238D01*
X134440476Y-110190476D01*
X134392857Y-110380952D01*
X134392857Y-110523809D01*
X134440476Y-110714285D01*
X134488095Y-110809523D01*
X134583333Y-110904761D01*
X134726190Y-110952380D01*
X134821428Y-110952380D01*
X134964285Y-110904761D01*
X135011904Y-110857142D01*
X135011904Y-110523809D01*
X134821428Y-110523809D01*
X110857142Y-65952380D02*
X110857142Y-64952380D01*
X111285714Y-65952380D02*
X111285714Y-65428571D01*
X111238095Y-65333333D01*
X111142857Y-65285714D01*
X111000000Y-65285714D01*
X110904761Y-65333333D01*
X110857142Y-65380952D01*
X112095238Y-65428571D02*
X111761904Y-65428571D01*
X111761904Y-65952380D02*
X111761904Y-64952380D01*
X112238095Y-64952380D01*
X156333333Y-65952380D02*
X156333333Y-64952380D01*
X156761904Y-65952380D02*
X156761904Y-65428571D01*
X156714285Y-65333333D01*
X156619047Y-65285714D01*
X156476190Y-65285714D01*
X156380952Y-65333333D01*
X156333333Y-65380952D01*
X157238095Y-65428571D02*
X157571428Y-65428571D01*
X157714285Y-65952380D02*
X157238095Y-65952380D01*
X157238095Y-64952380D01*
X157714285Y-64952380D01*
X154761904Y-67702380D02*
X154761904Y-66702380D01*
X155142857Y-66702380D01*
X155238095Y-66750000D01*
X155285714Y-66797619D01*
X155333333Y-66892857D01*
X155333333Y-67035714D01*
X155285714Y-67130952D01*
X155238095Y-67178571D01*
X155142857Y-67226190D01*
X154761904Y-67226190D01*
X156285714Y-67702380D02*
X155714285Y-67702380D01*
X156000000Y-67702380D02*
X156000000Y-66702380D01*
X155904761Y-66845238D01*
X155809523Y-66940476D01*
X155714285Y-66988095D01*
X99761904Y-114202380D02*
X99761904Y-113202380D01*
X100142857Y-113202380D01*
X100238095Y-113250000D01*
X100285714Y-113297619D01*
X100333333Y-113392857D01*
X100333333Y-113535714D01*
X100285714Y-113630952D01*
X100238095Y-113678571D01*
X100142857Y-113726190D01*
X99761904Y-113726190D01*
X100714285Y-113297619D02*
X100761904Y-113250000D01*
X100857142Y-113202380D01*
X101095238Y-113202380D01*
X101190476Y-113250000D01*
X101238095Y-113297619D01*
X101285714Y-113392857D01*
X101285714Y-113488095D01*
X101238095Y-113630952D01*
X100666666Y-114202380D01*
X101285714Y-114202380D01*
X136666666Y-72204761D02*
X136809523Y-72252380D01*
X137047619Y-72252380D01*
X137142857Y-72204761D01*
X137190476Y-72157142D01*
X137238095Y-72061904D01*
X137238095Y-71966666D01*
X137190476Y-71871428D01*
X137142857Y-71823809D01*
X137047619Y-71776190D01*
X136857142Y-71728571D01*
X136761904Y-71680952D01*
X136714285Y-71633333D01*
X136666666Y-71538095D01*
X136666666Y-71442857D01*
X136714285Y-71347619D01*
X136761904Y-71300000D01*
X136857142Y-71252380D01*
X137095238Y-71252380D01*
X137238095Y-71300000D01*
X137571428Y-71252380D02*
X137809523Y-72252380D01*
X138000000Y-71538095D01*
X138190476Y-72252380D01*
X138428571Y-71252380D01*
X138857142Y-72252380D02*
X139047619Y-72252380D01*
X139142857Y-72204761D01*
X139190476Y-72157142D01*
X139285714Y-72014285D01*
X139333333Y-71823809D01*
X139333333Y-71442857D01*
X139285714Y-71347619D01*
X139238095Y-71300000D01*
X139142857Y-71252380D01*
X138952380Y-71252380D01*
X138857142Y-71300000D01*
X138809523Y-71347619D01*
X138761904Y-71442857D01*
X138761904Y-71680952D01*
X138809523Y-71776190D01*
X138857142Y-71823809D01*
X138952380Y-71871428D01*
X139142857Y-71871428D01*
X139238095Y-71823809D01*
X139285714Y-71776190D01*
X139333333Y-71680952D01*
X159166666Y-56904761D02*
X159309523Y-56952380D01*
X159547619Y-56952380D01*
X159642857Y-56904761D01*
X159690476Y-56857142D01*
X159738095Y-56761904D01*
X159738095Y-56666666D01*
X159690476Y-56571428D01*
X159642857Y-56523809D01*
X159547619Y-56476190D01*
X159357142Y-56428571D01*
X159261904Y-56380952D01*
X159214285Y-56333333D01*
X159166666Y-56238095D01*
X159166666Y-56142857D01*
X159214285Y-56047619D01*
X159261904Y-56000000D01*
X159357142Y-55952380D01*
X159595238Y-55952380D01*
X159738095Y-56000000D01*
X160071428Y-55952380D02*
X160309523Y-56952380D01*
X160500000Y-56238095D01*
X160690476Y-56952380D01*
X160928571Y-55952380D01*
X161214285Y-55952380D02*
X161880952Y-55952380D01*
X161452380Y-56952380D01*
X114166666Y-56904761D02*
X114309523Y-56952380D01*
X114547619Y-56952380D01*
X114642857Y-56904761D01*
X114690476Y-56857142D01*
X114738095Y-56761904D01*
X114738095Y-56666666D01*
X114690476Y-56571428D01*
X114642857Y-56523809D01*
X114547619Y-56476190D01*
X114357142Y-56428571D01*
X114261904Y-56380952D01*
X114214285Y-56333333D01*
X114166666Y-56238095D01*
X114166666Y-56142857D01*
X114214285Y-56047619D01*
X114261904Y-56000000D01*
X114357142Y-55952380D01*
X114595238Y-55952380D01*
X114738095Y-56000000D01*
X115071428Y-55952380D02*
X115309523Y-56952380D01*
X115500000Y-56238095D01*
X115690476Y-56952380D01*
X115928571Y-55952380D01*
X116738095Y-55952380D02*
X116547619Y-55952380D01*
X116452380Y-56000000D01*
X116404761Y-56047619D01*
X116309523Y-56190476D01*
X116261904Y-56380952D01*
X116261904Y-56761904D01*
X116309523Y-56857142D01*
X116357142Y-56904761D01*
X116452380Y-56952380D01*
X116642857Y-56952380D01*
X116738095Y-56904761D01*
X116785714Y-56857142D01*
X116833333Y-56761904D01*
X116833333Y-56523809D01*
X116785714Y-56428571D01*
X116738095Y-56380952D01*
X116642857Y-56333333D01*
X116452380Y-56333333D01*
X116357142Y-56380952D01*
X116309523Y-56428571D01*
X116261904Y-56523809D01*
X145190476Y-75404761D02*
X145333333Y-75452380D01*
X145571428Y-75452380D01*
X145666666Y-75404761D01*
X145714285Y-75357142D01*
X145761904Y-75261904D01*
X145761904Y-75166666D01*
X145714285Y-75071428D01*
X145666666Y-75023809D01*
X145571428Y-74976190D01*
X145380952Y-74928571D01*
X145285714Y-74880952D01*
X145238095Y-74833333D01*
X145190476Y-74738095D01*
X145190476Y-74642857D01*
X145238095Y-74547619D01*
X145285714Y-74500000D01*
X145380952Y-74452380D01*
X145619047Y-74452380D01*
X145761904Y-74500000D01*
X146095238Y-74452380D02*
X146333333Y-75452380D01*
X146523809Y-74738095D01*
X146714285Y-75452380D01*
X146952380Y-74452380D01*
X147857142Y-75452380D02*
X147285714Y-75452380D01*
X147571428Y-75452380D02*
X147571428Y-74452380D01*
X147476190Y-74595238D01*
X147380952Y-74690476D01*
X147285714Y-74738095D01*
X148476190Y-74452380D02*
X148571428Y-74452380D01*
X148666666Y-74500000D01*
X148714285Y-74547619D01*
X148761904Y-74642857D01*
X148809523Y-74833333D01*
X148809523Y-75071428D01*
X148761904Y-75261904D01*
X148714285Y-75357142D01*
X148666666Y-75404761D01*
X148571428Y-75452380D01*
X148476190Y-75452380D01*
X148380952Y-75404761D01*
X148333333Y-75357142D01*
X148285714Y-75261904D01*
X148238095Y-75071428D01*
X148238095Y-74833333D01*
X148285714Y-74642857D01*
X148333333Y-74547619D01*
X148380952Y-74500000D01*
X148476190Y-74452380D01*
X127666666Y-75404761D02*
X127809523Y-75452380D01*
X128047619Y-75452380D01*
X128142857Y-75404761D01*
X128190476Y-75357142D01*
X128238095Y-75261904D01*
X128238095Y-75166666D01*
X128190476Y-75071428D01*
X128142857Y-75023809D01*
X128047619Y-74976190D01*
X127857142Y-74928571D01*
X127761904Y-74880952D01*
X127714285Y-74833333D01*
X127666666Y-74738095D01*
X127666666Y-74642857D01*
X127714285Y-74547619D01*
X127761904Y-74500000D01*
X127857142Y-74452380D01*
X128095238Y-74452380D01*
X128238095Y-74500000D01*
X128571428Y-74452380D02*
X128809523Y-75452380D01*
X129000000Y-74738095D01*
X129190476Y-75452380D01*
X129428571Y-74452380D01*
X129952380Y-74880952D02*
X129857142Y-74833333D01*
X129809523Y-74785714D01*
X129761904Y-74690476D01*
X129761904Y-74642857D01*
X129809523Y-74547619D01*
X129857142Y-74500000D01*
X129952380Y-74452380D01*
X130142857Y-74452380D01*
X130238095Y-74500000D01*
X130285714Y-74547619D01*
X130333333Y-74642857D01*
X130333333Y-74690476D01*
X130285714Y-74785714D01*
X130238095Y-74833333D01*
X130142857Y-74880952D01*
X129952380Y-74880952D01*
X129857142Y-74928571D01*
X129809523Y-74976190D01*
X129761904Y-75071428D01*
X129761904Y-75261904D01*
X129809523Y-75357142D01*
X129857142Y-75404761D01*
X129952380Y-75452380D01*
X130142857Y-75452380D01*
X130238095Y-75404761D01*
X130285714Y-75357142D01*
X130333333Y-75261904D01*
X130333333Y-75071428D01*
X130285714Y-74976190D01*
X130238095Y-74928571D01*
X130142857Y-74880952D01*
X84285714Y-103752380D02*
X84285714Y-102752380D01*
X84714285Y-103752380D02*
X84714285Y-103228571D01*
X84666666Y-103133333D01*
X84571428Y-103085714D01*
X84428571Y-103085714D01*
X84333333Y-103133333D01*
X84285714Y-103180952D01*
X85190476Y-103752380D02*
X85190476Y-102752380D01*
X85428571Y-102752380D01*
X85571428Y-102800000D01*
X85666666Y-102895238D01*
X85714285Y-102990476D01*
X85761904Y-103180952D01*
X85761904Y-103323809D01*
X85714285Y-103514285D01*
X85666666Y-103609523D01*
X85571428Y-103704761D01*
X85428571Y-103752380D01*
X85190476Y-103752380D01*
X84357142Y-59752380D02*
X84357142Y-58752380D01*
X84785714Y-59752380D02*
X84785714Y-59228571D01*
X84738095Y-59133333D01*
X84642857Y-59085714D01*
X84500000Y-59085714D01*
X84404761Y-59133333D01*
X84357142Y-59180952D01*
X85214285Y-59466666D02*
X85690476Y-59466666D01*
X85119047Y-59752380D02*
X85452380Y-58752380D01*
X85785714Y-59752380D01*
X190285714Y-59752380D02*
X190285714Y-58752380D01*
X190714285Y-59752380D02*
X190714285Y-59228571D01*
X190666666Y-59133333D01*
X190571428Y-59085714D01*
X190428571Y-59085714D01*
X190333333Y-59133333D01*
X190285714Y-59180952D01*
X191523809Y-59228571D02*
X191666666Y-59276190D01*
X191714285Y-59323809D01*
X191761904Y-59419047D01*
X191761904Y-59561904D01*
X191714285Y-59657142D01*
X191666666Y-59704761D01*
X191571428Y-59752380D01*
X191190476Y-59752380D01*
X191190476Y-58752380D01*
X191523809Y-58752380D01*
X191619047Y-58800000D01*
X191666666Y-58847619D01*
X191714285Y-58942857D01*
X191714285Y-59038095D01*
X191666666Y-59133333D01*
X191619047Y-59180952D01*
X191523809Y-59228571D01*
X191190476Y-59228571D01*
X190285714Y-103752380D02*
X190285714Y-102752380D01*
X190714285Y-103752380D02*
X190714285Y-103228571D01*
X190666666Y-103133333D01*
X190571428Y-103085714D01*
X190428571Y-103085714D01*
X190333333Y-103133333D01*
X190285714Y-103180952D01*
X191761904Y-103657142D02*
X191714285Y-103704761D01*
X191571428Y-103752380D01*
X191476190Y-103752380D01*
X191333333Y-103704761D01*
X191238095Y-103609523D01*
X191190476Y-103514285D01*
X191142857Y-103323809D01*
X191142857Y-103180952D01*
X191190476Y-102990476D01*
X191238095Y-102895238D01*
X191333333Y-102800000D01*
X191476190Y-102752380D01*
X191571428Y-102752380D01*
X191714285Y-102800000D01*
X191761904Y-102847619D01*
X114666666Y-94904761D02*
X114809523Y-94952380D01*
X115047619Y-94952380D01*
X115142857Y-94904761D01*
X115190476Y-94857142D01*
X115238095Y-94761904D01*
X115238095Y-94666666D01*
X115190476Y-94571428D01*
X115142857Y-94523809D01*
X115047619Y-94476190D01*
X114857142Y-94428571D01*
X114761904Y-94380952D01*
X114714285Y-94333333D01*
X114666666Y-94238095D01*
X114666666Y-94142857D01*
X114714285Y-94047619D01*
X114761904Y-94000000D01*
X114857142Y-93952380D01*
X115095238Y-93952380D01*
X115238095Y-94000000D01*
X115571428Y-93952380D02*
X115809523Y-94952380D01*
X116000000Y-94238095D01*
X116190476Y-94952380D01*
X116428571Y-93952380D01*
X117333333Y-94952380D02*
X116761904Y-94952380D01*
X117047619Y-94952380D02*
X117047619Y-93952380D01*
X116952380Y-94095238D01*
X116857142Y-94190476D01*
X116761904Y-94238095D01*
X172309523Y-111784880D02*
X172309523Y-110784880D01*
X172738095Y-111784880D02*
X172738095Y-111261071D01*
X172690476Y-111165833D01*
X172595238Y-111118214D01*
X172452380Y-111118214D01*
X172357142Y-111165833D01*
X172309523Y-111213452D01*
X173119047Y-110784880D02*
X173738095Y-110784880D01*
X173404761Y-111165833D01*
X173547619Y-111165833D01*
X173642857Y-111213452D01*
X173690476Y-111261071D01*
X173738095Y-111356309D01*
X173738095Y-111594404D01*
X173690476Y-111689642D01*
X173642857Y-111737261D01*
X173547619Y-111784880D01*
X173261904Y-111784880D01*
X173166666Y-111737261D01*
X173119047Y-111689642D01*
X147409523Y-111952380D02*
X147409523Y-110952380D01*
X147838095Y-111952380D02*
X147838095Y-111428571D01*
X147790476Y-111333333D01*
X147695238Y-111285714D01*
X147552380Y-111285714D01*
X147457142Y-111333333D01*
X147409523Y-111380952D01*
X148742857Y-111285714D02*
X148742857Y-111952380D01*
X148504761Y-110904761D02*
X148266666Y-111619047D01*
X148885714Y-111619047D01*
X87259523Y-66852380D02*
X87259523Y-65852380D01*
X87688095Y-66852380D02*
X87688095Y-66328571D01*
X87640476Y-66233333D01*
X87545238Y-66185714D01*
X87402380Y-66185714D01*
X87307142Y-66233333D01*
X87259523Y-66280952D01*
X88116666Y-65947619D02*
X88164285Y-65900000D01*
X88259523Y-65852380D01*
X88497619Y-65852380D01*
X88592857Y-65900000D01*
X88640476Y-65947619D01*
X88688095Y-66042857D01*
X88688095Y-66138095D01*
X88640476Y-66280952D01*
X88069047Y-66852380D01*
X88688095Y-66852380D01*
X102409523Y-65552380D02*
X102409523Y-64552380D01*
X102838095Y-65552380D02*
X102838095Y-65028571D01*
X102790476Y-64933333D01*
X102695238Y-64885714D01*
X102552380Y-64885714D01*
X102457142Y-64933333D01*
X102409523Y-64980952D01*
X103838095Y-65552380D02*
X103266666Y-65552380D01*
X103552380Y-65552380D02*
X103552380Y-64552380D01*
X103457142Y-64695238D01*
X103361904Y-64790476D01*
X103266666Y-64838095D01*
X88166666Y-59404761D02*
X88309523Y-59452380D01*
X88547619Y-59452380D01*
X88642857Y-59404761D01*
X88690476Y-59357142D01*
X88738095Y-59261904D01*
X88738095Y-59166666D01*
X88690476Y-59071428D01*
X88642857Y-59023809D01*
X88547619Y-58976190D01*
X88357142Y-58928571D01*
X88261904Y-58880952D01*
X88214285Y-58833333D01*
X88166666Y-58738095D01*
X88166666Y-58642857D01*
X88214285Y-58547619D01*
X88261904Y-58500000D01*
X88357142Y-58452380D01*
X88595238Y-58452380D01*
X88738095Y-58500000D01*
X89071428Y-58452380D02*
X89309523Y-59452380D01*
X89500000Y-58738095D01*
X89690476Y-59452380D01*
X89928571Y-58452380D01*
X90261904Y-58547619D02*
X90309523Y-58500000D01*
X90404761Y-58452380D01*
X90642857Y-58452380D01*
X90738095Y-58500000D01*
X90785714Y-58547619D01*
X90833333Y-58642857D01*
X90833333Y-58738095D01*
X90785714Y-58880952D01*
X90214285Y-59452380D01*
X90833333Y-59452380D01*
X185166666Y-59404761D02*
X185309523Y-59452380D01*
X185547619Y-59452380D01*
X185642857Y-59404761D01*
X185690476Y-59357142D01*
X185738095Y-59261904D01*
X185738095Y-59166666D01*
X185690476Y-59071428D01*
X185642857Y-59023809D01*
X185547619Y-58976190D01*
X185357142Y-58928571D01*
X185261904Y-58880952D01*
X185214285Y-58833333D01*
X185166666Y-58738095D01*
X185166666Y-58642857D01*
X185214285Y-58547619D01*
X185261904Y-58500000D01*
X185357142Y-58452380D01*
X185595238Y-58452380D01*
X185738095Y-58500000D01*
X186071428Y-58452380D02*
X186309523Y-59452380D01*
X186500000Y-58738095D01*
X186690476Y-59452380D01*
X186928571Y-58452380D01*
X187738095Y-58785714D02*
X187738095Y-59452380D01*
X187500000Y-58404761D02*
X187261904Y-59119047D01*
X187880952Y-59119047D01*
X178690475Y-72404761D02*
X178833332Y-72452380D01*
X179071427Y-72452380D01*
X179166665Y-72404761D01*
X179214284Y-72357142D01*
X179261903Y-72261904D01*
X179261903Y-72166666D01*
X179214284Y-72071428D01*
X179166665Y-72023809D01*
X179071427Y-71976190D01*
X178880951Y-71928571D01*
X178785713Y-71880952D01*
X178738094Y-71833333D01*
X178690475Y-71738095D01*
X178690475Y-71642857D01*
X178738094Y-71547619D01*
X178785713Y-71500000D01*
X178880951Y-71452380D01*
X179119046Y-71452380D01*
X179261903Y-71500000D01*
X179595237Y-71452380D02*
X179833332Y-72452380D01*
X180023808Y-71738095D01*
X180214284Y-72452380D01*
X180452379Y-71452380D01*
X181357141Y-72452380D02*
X180785713Y-72452380D01*
X181071427Y-72452380D02*
X181071427Y-71452380D01*
X180976189Y-71595238D01*
X180880951Y-71690476D01*
X180785713Y-71738095D01*
X182214284Y-71785714D02*
X182214284Y-72452380D01*
X181976189Y-71404761D02*
X181738094Y-72119047D01*
X182357141Y-72119047D01*
X178690476Y-94404761D02*
X178833333Y-94452380D01*
X179071428Y-94452380D01*
X179166666Y-94404761D01*
X179214285Y-94357142D01*
X179261904Y-94261904D01*
X179261904Y-94166666D01*
X179214285Y-94071428D01*
X179166666Y-94023809D01*
X179071428Y-93976190D01*
X178880952Y-93928571D01*
X178785714Y-93880952D01*
X178738095Y-93833333D01*
X178690476Y-93738095D01*
X178690476Y-93642857D01*
X178738095Y-93547619D01*
X178785714Y-93500000D01*
X178880952Y-93452380D01*
X179119047Y-93452380D01*
X179261904Y-93500000D01*
X179595238Y-93452380D02*
X179833333Y-94452380D01*
X180023809Y-93738095D01*
X180214285Y-94452380D01*
X180452380Y-93452380D01*
X181357142Y-94452380D02*
X180785714Y-94452380D01*
X181071428Y-94452380D02*
X181071428Y-93452380D01*
X180976190Y-93595238D01*
X180880952Y-93690476D01*
X180785714Y-93738095D01*
X181690476Y-93452380D02*
X182309523Y-93452380D01*
X181976190Y-93833333D01*
X182119047Y-93833333D01*
X182214285Y-93880952D01*
X182261904Y-93928571D01*
X182309523Y-94023809D01*
X182309523Y-94261904D01*
X182261904Y-94357142D01*
X182214285Y-94404761D01*
X182119047Y-94452380D01*
X181833333Y-94452380D01*
X181738095Y-94404761D01*
X181690476Y-94357142D01*
X167690476Y-83404761D02*
X167833333Y-83452380D01*
X168071428Y-83452380D01*
X168166666Y-83404761D01*
X168214285Y-83357142D01*
X168261904Y-83261904D01*
X168261904Y-83166666D01*
X168214285Y-83071428D01*
X168166666Y-83023809D01*
X168071428Y-82976190D01*
X167880952Y-82928571D01*
X167785714Y-82880952D01*
X167738095Y-82833333D01*
X167690476Y-82738095D01*
X167690476Y-82642857D01*
X167738095Y-82547619D01*
X167785714Y-82500000D01*
X167880952Y-82452380D01*
X168119047Y-82452380D01*
X168261904Y-82500000D01*
X168595238Y-82452380D02*
X168833333Y-83452380D01*
X169023809Y-82738095D01*
X169214285Y-83452380D01*
X169452380Y-82452380D01*
X170357142Y-83452380D02*
X169785714Y-83452380D01*
X170071428Y-83452380D02*
X170071428Y-82452380D01*
X169976190Y-82595238D01*
X169880952Y-82690476D01*
X169785714Y-82738095D01*
X171309523Y-83452380D02*
X170738095Y-83452380D01*
X171023809Y-83452380D02*
X171023809Y-82452380D01*
X170928571Y-82595238D01*
X170833333Y-82690476D01*
X170738095Y-82738095D01*
M02*
