G04 #@! TF.GenerationSoftware,KiCad,Pcbnew,(5.1.9)-1*
G04 #@! TF.CreationDate,2021-06-05T12:11:13+02:00*
G04 #@! TF.ProjectId,gamerino,67616d65-7269-46e6-9f2e-6b696361645f,01*
G04 #@! TF.SameCoordinates,Original*
G04 #@! TF.FileFunction,Legend,Top*
G04 #@! TF.FilePolarity,Positive*
%FSLAX46Y46*%
G04 Gerber Fmt 4.6, Leading zero omitted, Abs format (unit mm)*
G04 Created by KiCad (PCBNEW (5.1.9)-1) date 2021-06-05 12:11:13*
%MOMM*%
%LPD*%
G01*
G04 APERTURE LIST*
%ADD10C,0.120000*%
%ADD11C,0.150000*%
%ADD12C,0.010000*%
%ADD13C,0.100000*%
G04 APERTURE END LIST*
D10*
X79100000Y-82800000D02*
X79100000Y-80200000D01*
X76900000Y-82800000D02*
X79100000Y-82800000D01*
X76900000Y-80200000D02*
X76900000Y-82800000D01*
D11*
X78547619Y-80976190D02*
X78547619Y-81071428D01*
X78500000Y-81166666D01*
X78452380Y-81214285D01*
X78357142Y-81261904D01*
X78166666Y-81309523D01*
X77928571Y-81309523D01*
X77738095Y-81261904D01*
X77642857Y-81214285D01*
X77595238Y-81166666D01*
X77547619Y-81071428D01*
X77547619Y-80976190D01*
X77595238Y-80880952D01*
X77642857Y-80833333D01*
X77738095Y-80785714D01*
X77928571Y-80738095D01*
X78166666Y-80738095D01*
X78357142Y-80785714D01*
X78452380Y-80833333D01*
X78500000Y-80880952D01*
X78547619Y-80976190D01*
X77547619Y-82261904D02*
X77547619Y-81690476D01*
X77547619Y-81976190D02*
X78547619Y-81976190D01*
X78404761Y-81880952D01*
X78309523Y-81785714D01*
X78261904Y-81690476D01*
D10*
X79100000Y-71900000D02*
X76900000Y-71900000D01*
X79100000Y-80200000D02*
X79100000Y-71900000D01*
X76900000Y-80200000D02*
X79100000Y-80200000D01*
X76900000Y-71900000D02*
X76900000Y-80200000D01*
D11*
X78500000Y-73023809D02*
X78547619Y-72928571D01*
X78547619Y-72785714D01*
X78500000Y-72642857D01*
X78404761Y-72547619D01*
X78309523Y-72500000D01*
X78119047Y-72452380D01*
X77976190Y-72452380D01*
X77785714Y-72500000D01*
X77690476Y-72547619D01*
X77595238Y-72642857D01*
X77547619Y-72785714D01*
X77547619Y-72880952D01*
X77595238Y-73023809D01*
X77642857Y-73071428D01*
X77976190Y-73071428D01*
X77976190Y-72880952D01*
X77833333Y-73452380D02*
X77833333Y-73928571D01*
X77547619Y-73357142D02*
X78547619Y-73690476D01*
X77547619Y-74023809D01*
X77547619Y-74357142D02*
X78547619Y-74357142D01*
X77833333Y-74690476D01*
X78547619Y-75023809D01*
X77547619Y-75023809D01*
X78071428Y-75500000D02*
X78071428Y-75833333D01*
X77547619Y-75976190D02*
X77547619Y-75500000D01*
X78547619Y-75500000D01*
X78547619Y-75976190D01*
X77547619Y-76976190D02*
X78023809Y-76642857D01*
X77547619Y-76404761D02*
X78547619Y-76404761D01*
X78547619Y-76785714D01*
X78500000Y-76880952D01*
X78452380Y-76928571D01*
X78357142Y-76976190D01*
X78214285Y-76976190D01*
X78119047Y-76928571D01*
X78071428Y-76880952D01*
X78023809Y-76785714D01*
X78023809Y-76404761D01*
X77547619Y-77404761D02*
X78547619Y-77404761D01*
X77547619Y-77880952D02*
X78547619Y-77880952D01*
X77547619Y-78452380D01*
X78547619Y-78452380D01*
X78547619Y-79119047D02*
X78547619Y-79309523D01*
X78500000Y-79404761D01*
X78404761Y-79500000D01*
X78214285Y-79547619D01*
X77880952Y-79547619D01*
X77690476Y-79500000D01*
X77595238Y-79404761D01*
X77547619Y-79309523D01*
X77547619Y-79119047D01*
X77595238Y-79023809D01*
X77690476Y-78928571D01*
X77880952Y-78880952D01*
X78214285Y-78880952D01*
X78404761Y-78928571D01*
X78500000Y-79023809D01*
X78547619Y-79119047D01*
D10*
X79100000Y-92100000D02*
X76900000Y-92100000D01*
X79100000Y-95100000D02*
X79100000Y-92100000D01*
X76900000Y-95100000D02*
X79100000Y-95100000D01*
X76900000Y-92100000D02*
X76900000Y-95100000D01*
X139280000Y-68770000D02*
X139280000Y-66320000D01*
X136060000Y-66970000D02*
X136060000Y-68770000D01*
D12*
G36*
X188053600Y-92989054D02*
G01*
X188064465Y-93102993D01*
X188096082Y-93210616D01*
X188146985Y-93309615D01*
X188215707Y-93397684D01*
X188300781Y-93472516D01*
X188397768Y-93530384D01*
X188504036Y-93570005D01*
X188611050Y-93588573D01*
X188716700Y-93587434D01*
X188818875Y-93567930D01*
X188915466Y-93531406D01*
X189004362Y-93479205D01*
X189083454Y-93412673D01*
X189150631Y-93333152D01*
X189203783Y-93241987D01*
X189240801Y-93140523D01*
X189259573Y-93030102D01*
X189261511Y-92980206D01*
X189261511Y-92892267D01*
X189313440Y-92892267D01*
X189349747Y-92895111D01*
X189376645Y-92906911D01*
X189403751Y-92930649D01*
X189442133Y-92969031D01*
X189442133Y-95160602D01*
X189442124Y-95422739D01*
X189442092Y-95663241D01*
X189442028Y-95883048D01*
X189441924Y-96083101D01*
X189441773Y-96264344D01*
X189441566Y-96427716D01*
X189441294Y-96574160D01*
X189440950Y-96704617D01*
X189440526Y-96820029D01*
X189440013Y-96921338D01*
X189439403Y-97009484D01*
X189438688Y-97085410D01*
X189437860Y-97150057D01*
X189436911Y-97204367D01*
X189435833Y-97249280D01*
X189434617Y-97285740D01*
X189433255Y-97314687D01*
X189431739Y-97337063D01*
X189430062Y-97353809D01*
X189428214Y-97365868D01*
X189426187Y-97374180D01*
X189423975Y-97379687D01*
X189422892Y-97381537D01*
X189418729Y-97388549D01*
X189415195Y-97394996D01*
X189411365Y-97400900D01*
X189406318Y-97406286D01*
X189399129Y-97411178D01*
X189388877Y-97415598D01*
X189374636Y-97419572D01*
X189355486Y-97423121D01*
X189330501Y-97426270D01*
X189298760Y-97429042D01*
X189259338Y-97431461D01*
X189211314Y-97433551D01*
X189153763Y-97435335D01*
X189085763Y-97436837D01*
X189006390Y-97438080D01*
X188914721Y-97439089D01*
X188809834Y-97439885D01*
X188690804Y-97440494D01*
X188556710Y-97440939D01*
X188406627Y-97441243D01*
X188239633Y-97441430D01*
X188054804Y-97441524D01*
X187851217Y-97441548D01*
X187627950Y-97441525D01*
X187384078Y-97441480D01*
X187118679Y-97441437D01*
X187080296Y-97441432D01*
X186813318Y-97441389D01*
X186567998Y-97441318D01*
X186343417Y-97441213D01*
X186138655Y-97441066D01*
X185952794Y-97440869D01*
X185784912Y-97440616D01*
X185634092Y-97440300D01*
X185499413Y-97439913D01*
X185379956Y-97439447D01*
X185274801Y-97438897D01*
X185183029Y-97438253D01*
X185103721Y-97437511D01*
X185035957Y-97436661D01*
X184978818Y-97435697D01*
X184931383Y-97434611D01*
X184892734Y-97433397D01*
X184861951Y-97432047D01*
X184838115Y-97430555D01*
X184820306Y-97428911D01*
X184807605Y-97427111D01*
X184799092Y-97425145D01*
X184794734Y-97423477D01*
X184786272Y-97419906D01*
X184778503Y-97417270D01*
X184771398Y-97414634D01*
X184764927Y-97411062D01*
X184759061Y-97405621D01*
X184753771Y-97397375D01*
X184749026Y-97385390D01*
X184744798Y-97368731D01*
X184741057Y-97346463D01*
X184737773Y-97317652D01*
X184734917Y-97281363D01*
X184732460Y-97236661D01*
X184730371Y-97182611D01*
X184728622Y-97118279D01*
X184727183Y-97042730D01*
X184726024Y-96955030D01*
X184725117Y-96854243D01*
X184724431Y-96739434D01*
X184723937Y-96609670D01*
X184723605Y-96464015D01*
X184723407Y-96301535D01*
X184723313Y-96121295D01*
X184723292Y-95922360D01*
X184723315Y-95703796D01*
X184723354Y-95464668D01*
X184723378Y-95204040D01*
X184723378Y-95161889D01*
X184723364Y-94898992D01*
X184723339Y-94657732D01*
X184723329Y-94437165D01*
X184723358Y-94236352D01*
X184723452Y-94054349D01*
X184723638Y-93890216D01*
X184723941Y-93743011D01*
X184724386Y-93611792D01*
X184724966Y-93501867D01*
X185027803Y-93501867D01*
X185067593Y-93559711D01*
X185078764Y-93575479D01*
X185088834Y-93589441D01*
X185097862Y-93602784D01*
X185105903Y-93616693D01*
X185113014Y-93632356D01*
X185119253Y-93650958D01*
X185124675Y-93673686D01*
X185129338Y-93701727D01*
X185133299Y-93736267D01*
X185136615Y-93778492D01*
X185139341Y-93829589D01*
X185141536Y-93890744D01*
X185143255Y-93963144D01*
X185144556Y-94047975D01*
X185145495Y-94146422D01*
X185146130Y-94259674D01*
X185146516Y-94388916D01*
X185146712Y-94535334D01*
X185146773Y-94700116D01*
X185146757Y-94884447D01*
X185146720Y-95089513D01*
X185146711Y-95212133D01*
X185146735Y-95429082D01*
X185146769Y-95624642D01*
X185146757Y-95799999D01*
X185146642Y-95956341D01*
X185146370Y-96094857D01*
X185145882Y-96216734D01*
X185145124Y-96323160D01*
X185144038Y-96415322D01*
X185142569Y-96494409D01*
X185140660Y-96561608D01*
X185138256Y-96618107D01*
X185135299Y-96665093D01*
X185131734Y-96703755D01*
X185127505Y-96735280D01*
X185122554Y-96760855D01*
X185116827Y-96781670D01*
X185110267Y-96798911D01*
X185102817Y-96813765D01*
X185094421Y-96827422D01*
X185085024Y-96841069D01*
X185074568Y-96855893D01*
X185068477Y-96864783D01*
X185029704Y-96922400D01*
X185561268Y-96922400D01*
X185684517Y-96922365D01*
X185787013Y-96922215D01*
X185870580Y-96921878D01*
X185937044Y-96921286D01*
X185988229Y-96920367D01*
X186025959Y-96919051D01*
X186052060Y-96917269D01*
X186068356Y-96914951D01*
X186076672Y-96912026D01*
X186078832Y-96908424D01*
X186076661Y-96904075D01*
X186075465Y-96902645D01*
X186050315Y-96865573D01*
X186024417Y-96812772D01*
X186000808Y-96750770D01*
X185992539Y-96724357D01*
X185987922Y-96706416D01*
X185984021Y-96685355D01*
X185980752Y-96659089D01*
X185978034Y-96625532D01*
X185975785Y-96582599D01*
X185973923Y-96528204D01*
X185972364Y-96460262D01*
X185971028Y-96376688D01*
X185969831Y-96275395D01*
X185968692Y-96154300D01*
X185968315Y-96109600D01*
X185967298Y-95984449D01*
X185966540Y-95880082D01*
X185966097Y-95794707D01*
X185966030Y-95726533D01*
X185966395Y-95673765D01*
X185967252Y-95634614D01*
X185968659Y-95607285D01*
X185970675Y-95589986D01*
X185973357Y-95580926D01*
X185976764Y-95578312D01*
X185980956Y-95580351D01*
X185985429Y-95584667D01*
X185995784Y-95597602D01*
X186017842Y-95626676D01*
X186050043Y-95669759D01*
X186090826Y-95724718D01*
X186138630Y-95789423D01*
X186191895Y-95861742D01*
X186249060Y-95939544D01*
X186308563Y-96020698D01*
X186368845Y-96103072D01*
X186428345Y-96184536D01*
X186485502Y-96262957D01*
X186538755Y-96336204D01*
X186586543Y-96402147D01*
X186627307Y-96458654D01*
X186659484Y-96503593D01*
X186681515Y-96534834D01*
X186686083Y-96541466D01*
X186709004Y-96578369D01*
X186735812Y-96626359D01*
X186761211Y-96675897D01*
X186764432Y-96682577D01*
X186786110Y-96730772D01*
X186798696Y-96768334D01*
X186804426Y-96804160D01*
X186805544Y-96846200D01*
X186804910Y-96922400D01*
X187959349Y-96922400D01*
X187868185Y-96828669D01*
X187821388Y-96778775D01*
X187771101Y-96722295D01*
X187725056Y-96668026D01*
X187704631Y-96642673D01*
X187674193Y-96603128D01*
X187634138Y-96549916D01*
X187585639Y-96484667D01*
X187529865Y-96409011D01*
X187467989Y-96324577D01*
X187401181Y-96232994D01*
X187330613Y-96135892D01*
X187257455Y-96034901D01*
X187182879Y-95931650D01*
X187108056Y-95827768D01*
X187034157Y-95724885D01*
X186962354Y-95624631D01*
X186893816Y-95528636D01*
X186829716Y-95438527D01*
X186771225Y-95355936D01*
X186719514Y-95282492D01*
X186675753Y-95219824D01*
X186641115Y-95169561D01*
X186616770Y-95133334D01*
X186603889Y-95112771D01*
X186602131Y-95108668D01*
X186610090Y-95097342D01*
X186630885Y-95070162D01*
X186663153Y-95028829D01*
X186705530Y-94975044D01*
X186756653Y-94910506D01*
X186815159Y-94836918D01*
X186879686Y-94755978D01*
X186948869Y-94669388D01*
X187021347Y-94578848D01*
X187095754Y-94486060D01*
X187155483Y-94411702D01*
X188166489Y-94411702D01*
X188172398Y-94424659D01*
X188186728Y-94446908D01*
X188187775Y-94448391D01*
X188206562Y-94478544D01*
X188226209Y-94515375D01*
X188230108Y-94523511D01*
X188233644Y-94531940D01*
X188236770Y-94542059D01*
X188239514Y-94555260D01*
X188241908Y-94572938D01*
X188243981Y-94596484D01*
X188245765Y-94627293D01*
X188247288Y-94666757D01*
X188248581Y-94716269D01*
X188249674Y-94777223D01*
X188250597Y-94851011D01*
X188251381Y-94939028D01*
X188252055Y-95042665D01*
X188252650Y-95163316D01*
X188253195Y-95302374D01*
X188253721Y-95461232D01*
X188254255Y-95640089D01*
X188254794Y-95825207D01*
X188255228Y-95989145D01*
X188255491Y-96133303D01*
X188255516Y-96259079D01*
X188255235Y-96367871D01*
X188254581Y-96461077D01*
X188253486Y-96540097D01*
X188251882Y-96606328D01*
X188249703Y-96661170D01*
X188246881Y-96706021D01*
X188243349Y-96742278D01*
X188239039Y-96771341D01*
X188233883Y-96794609D01*
X188227815Y-96813479D01*
X188220767Y-96829351D01*
X188212671Y-96843622D01*
X188203460Y-96857691D01*
X188194960Y-96870158D01*
X188177824Y-96896452D01*
X188167678Y-96914037D01*
X188166489Y-96917257D01*
X188177396Y-96918334D01*
X188208589Y-96919335D01*
X188257777Y-96920235D01*
X188322667Y-96921010D01*
X188400970Y-96921637D01*
X188490393Y-96922091D01*
X188588644Y-96922349D01*
X188657555Y-96922400D01*
X188762548Y-96922180D01*
X188859390Y-96921548D01*
X188945893Y-96920549D01*
X189019868Y-96919227D01*
X189079126Y-96917626D01*
X189121480Y-96915791D01*
X189144740Y-96913765D01*
X189148622Y-96912493D01*
X189140924Y-96897591D01*
X189132926Y-96889560D01*
X189119754Y-96872434D01*
X189102515Y-96842183D01*
X189090593Y-96817622D01*
X189063955Y-96758711D01*
X189060880Y-95581845D01*
X189057805Y-94404978D01*
X188612147Y-94404978D01*
X188514330Y-94405142D01*
X188423936Y-94405611D01*
X188343370Y-94406347D01*
X188275038Y-94407316D01*
X188221344Y-94408480D01*
X188184695Y-94409803D01*
X188167496Y-94411249D01*
X188166489Y-94411702D01*
X187155483Y-94411702D01*
X187170730Y-94392722D01*
X187244910Y-94300537D01*
X187316931Y-94211204D01*
X187385431Y-94126424D01*
X187449045Y-94047898D01*
X187506412Y-93977326D01*
X187556167Y-93916409D01*
X187596948Y-93866847D01*
X187614112Y-93846178D01*
X187700404Y-93745516D01*
X187777003Y-93662259D01*
X187845817Y-93594438D01*
X187908752Y-93540089D01*
X187918133Y-93532722D01*
X187957644Y-93502117D01*
X186825884Y-93501867D01*
X186831173Y-93549844D01*
X186827870Y-93607188D01*
X186806339Y-93675463D01*
X186766365Y-93755212D01*
X186721057Y-93827495D01*
X186704839Y-93850140D01*
X186676786Y-93887696D01*
X186638570Y-93938021D01*
X186591863Y-93998973D01*
X186538339Y-94068411D01*
X186479669Y-94144194D01*
X186417525Y-94224180D01*
X186353579Y-94306228D01*
X186289505Y-94388196D01*
X186226973Y-94467943D01*
X186167657Y-94543327D01*
X186113229Y-94612207D01*
X186065361Y-94672442D01*
X186025725Y-94721889D01*
X185995994Y-94758408D01*
X185977839Y-94779858D01*
X185974780Y-94783156D01*
X185971921Y-94775149D01*
X185969707Y-94744855D01*
X185968143Y-94692556D01*
X185967233Y-94618531D01*
X185966980Y-94523063D01*
X185967387Y-94406434D01*
X185968296Y-94286445D01*
X185969618Y-94154333D01*
X185971143Y-94042594D01*
X185973119Y-93949025D01*
X185975794Y-93871419D01*
X185979418Y-93807574D01*
X185984239Y-93755283D01*
X185990506Y-93712344D01*
X185998468Y-93676551D01*
X186008373Y-93645700D01*
X186020469Y-93617586D01*
X186035007Y-93590005D01*
X186049689Y-93564966D01*
X186087686Y-93501867D01*
X185027803Y-93501867D01*
X184724966Y-93501867D01*
X184724999Y-93495617D01*
X184725805Y-93393544D01*
X184726830Y-93304633D01*
X184728100Y-93227941D01*
X184729640Y-93162527D01*
X184731476Y-93107449D01*
X184733633Y-93061765D01*
X184736137Y-93024534D01*
X184739013Y-92994813D01*
X184742287Y-92971662D01*
X184745985Y-92954139D01*
X184750131Y-92941301D01*
X184754753Y-92932208D01*
X184759874Y-92925918D01*
X184765522Y-92921488D01*
X184771721Y-92917978D01*
X184778496Y-92914445D01*
X184784492Y-92910876D01*
X184789725Y-92908300D01*
X184797901Y-92905972D01*
X184810114Y-92903878D01*
X184827459Y-92902007D01*
X184851031Y-92900347D01*
X184881923Y-92898884D01*
X184921232Y-92897608D01*
X184970050Y-92896504D01*
X185029473Y-92895561D01*
X185100596Y-92894767D01*
X185184512Y-92894109D01*
X185282317Y-92893575D01*
X185395106Y-92893153D01*
X185523971Y-92892829D01*
X185670009Y-92892592D01*
X185834314Y-92892430D01*
X186017980Y-92892330D01*
X186222103Y-92892280D01*
X186433247Y-92892267D01*
X188053600Y-92892267D01*
X188053600Y-92989054D01*
G37*
X188053600Y-92989054D02*
X188064465Y-93102993D01*
X188096082Y-93210616D01*
X188146985Y-93309615D01*
X188215707Y-93397684D01*
X188300781Y-93472516D01*
X188397768Y-93530384D01*
X188504036Y-93570005D01*
X188611050Y-93588573D01*
X188716700Y-93587434D01*
X188818875Y-93567930D01*
X188915466Y-93531406D01*
X189004362Y-93479205D01*
X189083454Y-93412673D01*
X189150631Y-93333152D01*
X189203783Y-93241987D01*
X189240801Y-93140523D01*
X189259573Y-93030102D01*
X189261511Y-92980206D01*
X189261511Y-92892267D01*
X189313440Y-92892267D01*
X189349747Y-92895111D01*
X189376645Y-92906911D01*
X189403751Y-92930649D01*
X189442133Y-92969031D01*
X189442133Y-95160602D01*
X189442124Y-95422739D01*
X189442092Y-95663241D01*
X189442028Y-95883048D01*
X189441924Y-96083101D01*
X189441773Y-96264344D01*
X189441566Y-96427716D01*
X189441294Y-96574160D01*
X189440950Y-96704617D01*
X189440526Y-96820029D01*
X189440013Y-96921338D01*
X189439403Y-97009484D01*
X189438688Y-97085410D01*
X189437860Y-97150057D01*
X189436911Y-97204367D01*
X189435833Y-97249280D01*
X189434617Y-97285740D01*
X189433255Y-97314687D01*
X189431739Y-97337063D01*
X189430062Y-97353809D01*
X189428214Y-97365868D01*
X189426187Y-97374180D01*
X189423975Y-97379687D01*
X189422892Y-97381537D01*
X189418729Y-97388549D01*
X189415195Y-97394996D01*
X189411365Y-97400900D01*
X189406318Y-97406286D01*
X189399129Y-97411178D01*
X189388877Y-97415598D01*
X189374636Y-97419572D01*
X189355486Y-97423121D01*
X189330501Y-97426270D01*
X189298760Y-97429042D01*
X189259338Y-97431461D01*
X189211314Y-97433551D01*
X189153763Y-97435335D01*
X189085763Y-97436837D01*
X189006390Y-97438080D01*
X188914721Y-97439089D01*
X188809834Y-97439885D01*
X188690804Y-97440494D01*
X188556710Y-97440939D01*
X188406627Y-97441243D01*
X188239633Y-97441430D01*
X188054804Y-97441524D01*
X187851217Y-97441548D01*
X187627950Y-97441525D01*
X187384078Y-97441480D01*
X187118679Y-97441437D01*
X187080296Y-97441432D01*
X186813318Y-97441389D01*
X186567998Y-97441318D01*
X186343417Y-97441213D01*
X186138655Y-97441066D01*
X185952794Y-97440869D01*
X185784912Y-97440616D01*
X185634092Y-97440300D01*
X185499413Y-97439913D01*
X185379956Y-97439447D01*
X185274801Y-97438897D01*
X185183029Y-97438253D01*
X185103721Y-97437511D01*
X185035957Y-97436661D01*
X184978818Y-97435697D01*
X184931383Y-97434611D01*
X184892734Y-97433397D01*
X184861951Y-97432047D01*
X184838115Y-97430555D01*
X184820306Y-97428911D01*
X184807605Y-97427111D01*
X184799092Y-97425145D01*
X184794734Y-97423477D01*
X184786272Y-97419906D01*
X184778503Y-97417270D01*
X184771398Y-97414634D01*
X184764927Y-97411062D01*
X184759061Y-97405621D01*
X184753771Y-97397375D01*
X184749026Y-97385390D01*
X184744798Y-97368731D01*
X184741057Y-97346463D01*
X184737773Y-97317652D01*
X184734917Y-97281363D01*
X184732460Y-97236661D01*
X184730371Y-97182611D01*
X184728622Y-97118279D01*
X184727183Y-97042730D01*
X184726024Y-96955030D01*
X184725117Y-96854243D01*
X184724431Y-96739434D01*
X184723937Y-96609670D01*
X184723605Y-96464015D01*
X184723407Y-96301535D01*
X184723313Y-96121295D01*
X184723292Y-95922360D01*
X184723315Y-95703796D01*
X184723354Y-95464668D01*
X184723378Y-95204040D01*
X184723378Y-95161889D01*
X184723364Y-94898992D01*
X184723339Y-94657732D01*
X184723329Y-94437165D01*
X184723358Y-94236352D01*
X184723452Y-94054349D01*
X184723638Y-93890216D01*
X184723941Y-93743011D01*
X184724386Y-93611792D01*
X184724966Y-93501867D01*
X185027803Y-93501867D01*
X185067593Y-93559711D01*
X185078764Y-93575479D01*
X185088834Y-93589441D01*
X185097862Y-93602784D01*
X185105903Y-93616693D01*
X185113014Y-93632356D01*
X185119253Y-93650958D01*
X185124675Y-93673686D01*
X185129338Y-93701727D01*
X185133299Y-93736267D01*
X185136615Y-93778492D01*
X185139341Y-93829589D01*
X185141536Y-93890744D01*
X185143255Y-93963144D01*
X185144556Y-94047975D01*
X185145495Y-94146422D01*
X185146130Y-94259674D01*
X185146516Y-94388916D01*
X185146712Y-94535334D01*
X185146773Y-94700116D01*
X185146757Y-94884447D01*
X185146720Y-95089513D01*
X185146711Y-95212133D01*
X185146735Y-95429082D01*
X185146769Y-95624642D01*
X185146757Y-95799999D01*
X185146642Y-95956341D01*
X185146370Y-96094857D01*
X185145882Y-96216734D01*
X185145124Y-96323160D01*
X185144038Y-96415322D01*
X185142569Y-96494409D01*
X185140660Y-96561608D01*
X185138256Y-96618107D01*
X185135299Y-96665093D01*
X185131734Y-96703755D01*
X185127505Y-96735280D01*
X185122554Y-96760855D01*
X185116827Y-96781670D01*
X185110267Y-96798911D01*
X185102817Y-96813765D01*
X185094421Y-96827422D01*
X185085024Y-96841069D01*
X185074568Y-96855893D01*
X185068477Y-96864783D01*
X185029704Y-96922400D01*
X185561268Y-96922400D01*
X185684517Y-96922365D01*
X185787013Y-96922215D01*
X185870580Y-96921878D01*
X185937044Y-96921286D01*
X185988229Y-96920367D01*
X186025959Y-96919051D01*
X186052060Y-96917269D01*
X186068356Y-96914951D01*
X186076672Y-96912026D01*
X186078832Y-96908424D01*
X186076661Y-96904075D01*
X186075465Y-96902645D01*
X186050315Y-96865573D01*
X186024417Y-96812772D01*
X186000808Y-96750770D01*
X185992539Y-96724357D01*
X185987922Y-96706416D01*
X185984021Y-96685355D01*
X185980752Y-96659089D01*
X185978034Y-96625532D01*
X185975785Y-96582599D01*
X185973923Y-96528204D01*
X185972364Y-96460262D01*
X185971028Y-96376688D01*
X185969831Y-96275395D01*
X185968692Y-96154300D01*
X185968315Y-96109600D01*
X185967298Y-95984449D01*
X185966540Y-95880082D01*
X185966097Y-95794707D01*
X185966030Y-95726533D01*
X185966395Y-95673765D01*
X185967252Y-95634614D01*
X185968659Y-95607285D01*
X185970675Y-95589986D01*
X185973357Y-95580926D01*
X185976764Y-95578312D01*
X185980956Y-95580351D01*
X185985429Y-95584667D01*
X185995784Y-95597602D01*
X186017842Y-95626676D01*
X186050043Y-95669759D01*
X186090826Y-95724718D01*
X186138630Y-95789423D01*
X186191895Y-95861742D01*
X186249060Y-95939544D01*
X186308563Y-96020698D01*
X186368845Y-96103072D01*
X186428345Y-96184536D01*
X186485502Y-96262957D01*
X186538755Y-96336204D01*
X186586543Y-96402147D01*
X186627307Y-96458654D01*
X186659484Y-96503593D01*
X186681515Y-96534834D01*
X186686083Y-96541466D01*
X186709004Y-96578369D01*
X186735812Y-96626359D01*
X186761211Y-96675897D01*
X186764432Y-96682577D01*
X186786110Y-96730772D01*
X186798696Y-96768334D01*
X186804426Y-96804160D01*
X186805544Y-96846200D01*
X186804910Y-96922400D01*
X187959349Y-96922400D01*
X187868185Y-96828669D01*
X187821388Y-96778775D01*
X187771101Y-96722295D01*
X187725056Y-96668026D01*
X187704631Y-96642673D01*
X187674193Y-96603128D01*
X187634138Y-96549916D01*
X187585639Y-96484667D01*
X187529865Y-96409011D01*
X187467989Y-96324577D01*
X187401181Y-96232994D01*
X187330613Y-96135892D01*
X187257455Y-96034901D01*
X187182879Y-95931650D01*
X187108056Y-95827768D01*
X187034157Y-95724885D01*
X186962354Y-95624631D01*
X186893816Y-95528636D01*
X186829716Y-95438527D01*
X186771225Y-95355936D01*
X186719514Y-95282492D01*
X186675753Y-95219824D01*
X186641115Y-95169561D01*
X186616770Y-95133334D01*
X186603889Y-95112771D01*
X186602131Y-95108668D01*
X186610090Y-95097342D01*
X186630885Y-95070162D01*
X186663153Y-95028829D01*
X186705530Y-94975044D01*
X186756653Y-94910506D01*
X186815159Y-94836918D01*
X186879686Y-94755978D01*
X186948869Y-94669388D01*
X187021347Y-94578848D01*
X187095754Y-94486060D01*
X187155483Y-94411702D01*
X188166489Y-94411702D01*
X188172398Y-94424659D01*
X188186728Y-94446908D01*
X188187775Y-94448391D01*
X188206562Y-94478544D01*
X188226209Y-94515375D01*
X188230108Y-94523511D01*
X188233644Y-94531940D01*
X188236770Y-94542059D01*
X188239514Y-94555260D01*
X188241908Y-94572938D01*
X188243981Y-94596484D01*
X188245765Y-94627293D01*
X188247288Y-94666757D01*
X188248581Y-94716269D01*
X188249674Y-94777223D01*
X188250597Y-94851011D01*
X188251381Y-94939028D01*
X188252055Y-95042665D01*
X188252650Y-95163316D01*
X188253195Y-95302374D01*
X188253721Y-95461232D01*
X188254255Y-95640089D01*
X188254794Y-95825207D01*
X188255228Y-95989145D01*
X188255491Y-96133303D01*
X188255516Y-96259079D01*
X188255235Y-96367871D01*
X188254581Y-96461077D01*
X188253486Y-96540097D01*
X188251882Y-96606328D01*
X188249703Y-96661170D01*
X188246881Y-96706021D01*
X188243349Y-96742278D01*
X188239039Y-96771341D01*
X188233883Y-96794609D01*
X188227815Y-96813479D01*
X188220767Y-96829351D01*
X188212671Y-96843622D01*
X188203460Y-96857691D01*
X188194960Y-96870158D01*
X188177824Y-96896452D01*
X188167678Y-96914037D01*
X188166489Y-96917257D01*
X188177396Y-96918334D01*
X188208589Y-96919335D01*
X188257777Y-96920235D01*
X188322667Y-96921010D01*
X188400970Y-96921637D01*
X188490393Y-96922091D01*
X188588644Y-96922349D01*
X188657555Y-96922400D01*
X188762548Y-96922180D01*
X188859390Y-96921548D01*
X188945893Y-96920549D01*
X189019868Y-96919227D01*
X189079126Y-96917626D01*
X189121480Y-96915791D01*
X189144740Y-96913765D01*
X189148622Y-96912493D01*
X189140924Y-96897591D01*
X189132926Y-96889560D01*
X189119754Y-96872434D01*
X189102515Y-96842183D01*
X189090593Y-96817622D01*
X189063955Y-96758711D01*
X189060880Y-95581845D01*
X189057805Y-94404978D01*
X188612147Y-94404978D01*
X188514330Y-94405142D01*
X188423936Y-94405611D01*
X188343370Y-94406347D01*
X188275038Y-94407316D01*
X188221344Y-94408480D01*
X188184695Y-94409803D01*
X188167496Y-94411249D01*
X188166489Y-94411702D01*
X187155483Y-94411702D01*
X187170730Y-94392722D01*
X187244910Y-94300537D01*
X187316931Y-94211204D01*
X187385431Y-94126424D01*
X187449045Y-94047898D01*
X187506412Y-93977326D01*
X187556167Y-93916409D01*
X187596948Y-93866847D01*
X187614112Y-93846178D01*
X187700404Y-93745516D01*
X187777003Y-93662259D01*
X187845817Y-93594438D01*
X187908752Y-93540089D01*
X187918133Y-93532722D01*
X187957644Y-93502117D01*
X186825884Y-93501867D01*
X186831173Y-93549844D01*
X186827870Y-93607188D01*
X186806339Y-93675463D01*
X186766365Y-93755212D01*
X186721057Y-93827495D01*
X186704839Y-93850140D01*
X186676786Y-93887696D01*
X186638570Y-93938021D01*
X186591863Y-93998973D01*
X186538339Y-94068411D01*
X186479669Y-94144194D01*
X186417525Y-94224180D01*
X186353579Y-94306228D01*
X186289505Y-94388196D01*
X186226973Y-94467943D01*
X186167657Y-94543327D01*
X186113229Y-94612207D01*
X186065361Y-94672442D01*
X186025725Y-94721889D01*
X185995994Y-94758408D01*
X185977839Y-94779858D01*
X185974780Y-94783156D01*
X185971921Y-94775149D01*
X185969707Y-94744855D01*
X185968143Y-94692556D01*
X185967233Y-94618531D01*
X185966980Y-94523063D01*
X185967387Y-94406434D01*
X185968296Y-94286445D01*
X185969618Y-94154333D01*
X185971143Y-94042594D01*
X185973119Y-93949025D01*
X185975794Y-93871419D01*
X185979418Y-93807574D01*
X185984239Y-93755283D01*
X185990506Y-93712344D01*
X185998468Y-93676551D01*
X186008373Y-93645700D01*
X186020469Y-93617586D01*
X186035007Y-93590005D01*
X186049689Y-93564966D01*
X186087686Y-93501867D01*
X185027803Y-93501867D01*
X184724966Y-93501867D01*
X184724999Y-93495617D01*
X184725805Y-93393544D01*
X184726830Y-93304633D01*
X184728100Y-93227941D01*
X184729640Y-93162527D01*
X184731476Y-93107449D01*
X184733633Y-93061765D01*
X184736137Y-93024534D01*
X184739013Y-92994813D01*
X184742287Y-92971662D01*
X184745985Y-92954139D01*
X184750131Y-92941301D01*
X184754753Y-92932208D01*
X184759874Y-92925918D01*
X184765522Y-92921488D01*
X184771721Y-92917978D01*
X184778496Y-92914445D01*
X184784492Y-92910876D01*
X184789725Y-92908300D01*
X184797901Y-92905972D01*
X184810114Y-92903878D01*
X184827459Y-92902007D01*
X184851031Y-92900347D01*
X184881923Y-92898884D01*
X184921232Y-92897608D01*
X184970050Y-92896504D01*
X185029473Y-92895561D01*
X185100596Y-92894767D01*
X185184512Y-92894109D01*
X185282317Y-92893575D01*
X185395106Y-92893153D01*
X185523971Y-92892829D01*
X185670009Y-92892592D01*
X185834314Y-92892430D01*
X186017980Y-92892330D01*
X186222103Y-92892280D01*
X186433247Y-92892267D01*
X188053600Y-92892267D01*
X188053600Y-92989054D01*
G36*
X191328429Y-93449071D02*
G01*
X191488570Y-93470245D01*
X191652510Y-93510385D01*
X191822313Y-93569889D01*
X192000043Y-93649154D01*
X192011310Y-93654699D01*
X192069005Y-93682725D01*
X192120552Y-93706802D01*
X192162191Y-93725249D01*
X192190162Y-93736386D01*
X192199733Y-93738933D01*
X192218950Y-93743941D01*
X192223561Y-93748147D01*
X192218458Y-93758580D01*
X192202418Y-93784868D01*
X192177288Y-93824257D01*
X192144914Y-93873991D01*
X192107143Y-93931315D01*
X192065822Y-93993476D01*
X192022798Y-94057718D01*
X191979917Y-94121285D01*
X191939026Y-94181425D01*
X191901971Y-94235380D01*
X191870600Y-94280397D01*
X191846759Y-94313721D01*
X191832294Y-94332597D01*
X191830309Y-94334787D01*
X191820191Y-94330138D01*
X191797850Y-94312962D01*
X191767280Y-94286440D01*
X191751536Y-94271964D01*
X191655047Y-94196682D01*
X191548336Y-94141241D01*
X191432832Y-94106141D01*
X191309962Y-94091880D01*
X191240561Y-94093051D01*
X191119423Y-94110212D01*
X191010205Y-94146094D01*
X190912582Y-94200959D01*
X190826228Y-94275070D01*
X190750815Y-94368688D01*
X190686018Y-94482076D01*
X190648601Y-94568667D01*
X190604748Y-94704366D01*
X190572428Y-94851850D01*
X190551557Y-95007314D01*
X190542051Y-95166956D01*
X190543827Y-95326973D01*
X190556803Y-95483561D01*
X190580894Y-95632918D01*
X190616018Y-95771240D01*
X190662092Y-95894724D01*
X190678373Y-95928978D01*
X190746620Y-96043064D01*
X190827079Y-96139557D01*
X190918570Y-96217670D01*
X191019911Y-96276617D01*
X191129920Y-96315612D01*
X191247415Y-96333868D01*
X191288883Y-96335211D01*
X191410441Y-96324290D01*
X191530878Y-96291474D01*
X191648666Y-96237439D01*
X191762277Y-96162865D01*
X191853685Y-96084539D01*
X191900215Y-96040008D01*
X192081483Y-96337271D01*
X192126580Y-96411433D01*
X192167819Y-96479646D01*
X192203735Y-96539459D01*
X192232866Y-96588420D01*
X192253750Y-96624079D01*
X192264924Y-96643984D01*
X192266375Y-96647079D01*
X192258146Y-96656718D01*
X192232567Y-96673999D01*
X192192873Y-96697283D01*
X192142297Y-96724934D01*
X192084074Y-96755315D01*
X192021437Y-96786790D01*
X191957621Y-96817722D01*
X191895860Y-96846473D01*
X191839388Y-96871408D01*
X191791438Y-96890889D01*
X191767986Y-96899318D01*
X191634221Y-96937133D01*
X191496327Y-96962136D01*
X191348622Y-96975140D01*
X191221833Y-96977468D01*
X191153878Y-96976373D01*
X191088277Y-96974275D01*
X191030847Y-96971434D01*
X190987403Y-96968106D01*
X190973298Y-96966422D01*
X190834284Y-96937587D01*
X190692757Y-96892468D01*
X190555275Y-96833750D01*
X190428394Y-96764120D01*
X190350889Y-96711441D01*
X190223481Y-96603239D01*
X190105178Y-96476671D01*
X189998172Y-96334866D01*
X189904652Y-96180951D01*
X189826810Y-96018053D01*
X189782956Y-95900756D01*
X189732708Y-95717128D01*
X189699209Y-95522581D01*
X189682449Y-95321325D01*
X189682416Y-95117568D01*
X189699101Y-94915521D01*
X189732493Y-94719392D01*
X189782580Y-94533391D01*
X189786397Y-94521803D01*
X189849281Y-94359750D01*
X189926028Y-94211832D01*
X190019242Y-94073865D01*
X190131527Y-93941661D01*
X190175392Y-93896399D01*
X190311534Y-93772457D01*
X190451491Y-93669915D01*
X190597411Y-93587656D01*
X190751442Y-93524564D01*
X190915732Y-93479523D01*
X191011289Y-93462033D01*
X191170023Y-93446466D01*
X191328429Y-93449071D01*
G37*
X191328429Y-93449071D02*
X191488570Y-93470245D01*
X191652510Y-93510385D01*
X191822313Y-93569889D01*
X192000043Y-93649154D01*
X192011310Y-93654699D01*
X192069005Y-93682725D01*
X192120552Y-93706802D01*
X192162191Y-93725249D01*
X192190162Y-93736386D01*
X192199733Y-93738933D01*
X192218950Y-93743941D01*
X192223561Y-93748147D01*
X192218458Y-93758580D01*
X192202418Y-93784868D01*
X192177288Y-93824257D01*
X192144914Y-93873991D01*
X192107143Y-93931315D01*
X192065822Y-93993476D01*
X192022798Y-94057718D01*
X191979917Y-94121285D01*
X191939026Y-94181425D01*
X191901971Y-94235380D01*
X191870600Y-94280397D01*
X191846759Y-94313721D01*
X191832294Y-94332597D01*
X191830309Y-94334787D01*
X191820191Y-94330138D01*
X191797850Y-94312962D01*
X191767280Y-94286440D01*
X191751536Y-94271964D01*
X191655047Y-94196682D01*
X191548336Y-94141241D01*
X191432832Y-94106141D01*
X191309962Y-94091880D01*
X191240561Y-94093051D01*
X191119423Y-94110212D01*
X191010205Y-94146094D01*
X190912582Y-94200959D01*
X190826228Y-94275070D01*
X190750815Y-94368688D01*
X190686018Y-94482076D01*
X190648601Y-94568667D01*
X190604748Y-94704366D01*
X190572428Y-94851850D01*
X190551557Y-95007314D01*
X190542051Y-95166956D01*
X190543827Y-95326973D01*
X190556803Y-95483561D01*
X190580894Y-95632918D01*
X190616018Y-95771240D01*
X190662092Y-95894724D01*
X190678373Y-95928978D01*
X190746620Y-96043064D01*
X190827079Y-96139557D01*
X190918570Y-96217670D01*
X191019911Y-96276617D01*
X191129920Y-96315612D01*
X191247415Y-96333868D01*
X191288883Y-96335211D01*
X191410441Y-96324290D01*
X191530878Y-96291474D01*
X191648666Y-96237439D01*
X191762277Y-96162865D01*
X191853685Y-96084539D01*
X191900215Y-96040008D01*
X192081483Y-96337271D01*
X192126580Y-96411433D01*
X192167819Y-96479646D01*
X192203735Y-96539459D01*
X192232866Y-96588420D01*
X192253750Y-96624079D01*
X192264924Y-96643984D01*
X192266375Y-96647079D01*
X192258146Y-96656718D01*
X192232567Y-96673999D01*
X192192873Y-96697283D01*
X192142297Y-96724934D01*
X192084074Y-96755315D01*
X192021437Y-96786790D01*
X191957621Y-96817722D01*
X191895860Y-96846473D01*
X191839388Y-96871408D01*
X191791438Y-96890889D01*
X191767986Y-96899318D01*
X191634221Y-96937133D01*
X191496327Y-96962136D01*
X191348622Y-96975140D01*
X191221833Y-96977468D01*
X191153878Y-96976373D01*
X191088277Y-96974275D01*
X191030847Y-96971434D01*
X190987403Y-96968106D01*
X190973298Y-96966422D01*
X190834284Y-96937587D01*
X190692757Y-96892468D01*
X190555275Y-96833750D01*
X190428394Y-96764120D01*
X190350889Y-96711441D01*
X190223481Y-96603239D01*
X190105178Y-96476671D01*
X189998172Y-96334866D01*
X189904652Y-96180951D01*
X189826810Y-96018053D01*
X189782956Y-95900756D01*
X189732708Y-95717128D01*
X189699209Y-95522581D01*
X189682449Y-95321325D01*
X189682416Y-95117568D01*
X189699101Y-94915521D01*
X189732493Y-94719392D01*
X189782580Y-94533391D01*
X189786397Y-94521803D01*
X189849281Y-94359750D01*
X189926028Y-94211832D01*
X190019242Y-94073865D01*
X190131527Y-93941661D01*
X190175392Y-93896399D01*
X190311534Y-93772457D01*
X190451491Y-93669915D01*
X190597411Y-93587656D01*
X190751442Y-93524564D01*
X190915732Y-93479523D01*
X191011289Y-93462033D01*
X191170023Y-93446466D01*
X191328429Y-93449071D01*
G36*
X193673574Y-94366552D02*
G01*
X193825492Y-94386567D01*
X193960756Y-94420202D01*
X194080239Y-94467725D01*
X194184815Y-94529405D01*
X194262424Y-94592965D01*
X194331265Y-94667099D01*
X194385006Y-94746871D01*
X194427910Y-94839091D01*
X194443384Y-94882161D01*
X194456244Y-94921142D01*
X194467446Y-94957289D01*
X194477120Y-94992434D01*
X194485396Y-95028410D01*
X194492403Y-95067050D01*
X194498272Y-95110185D01*
X194503131Y-95159649D01*
X194507110Y-95217273D01*
X194510340Y-95284891D01*
X194512949Y-95364334D01*
X194515067Y-95457436D01*
X194516824Y-95566027D01*
X194518349Y-95691942D01*
X194519772Y-95837012D01*
X194521025Y-95979778D01*
X194522351Y-96135968D01*
X194523556Y-96271239D01*
X194524766Y-96387246D01*
X194526106Y-96485645D01*
X194527700Y-96568093D01*
X194529675Y-96636246D01*
X194532156Y-96691760D01*
X194535269Y-96736292D01*
X194539138Y-96771498D01*
X194543889Y-96799034D01*
X194549648Y-96820556D01*
X194556539Y-96837722D01*
X194564689Y-96852186D01*
X194574223Y-96865606D01*
X194585266Y-96879638D01*
X194589566Y-96885071D01*
X194605386Y-96907910D01*
X194612422Y-96923463D01*
X194612444Y-96923922D01*
X194601567Y-96926121D01*
X194570582Y-96928147D01*
X194521957Y-96929942D01*
X194458163Y-96931451D01*
X194381669Y-96932616D01*
X194294944Y-96933380D01*
X194200457Y-96933686D01*
X194189550Y-96933689D01*
X193766657Y-96933689D01*
X193763395Y-96837622D01*
X193760133Y-96741556D01*
X193698044Y-96792543D01*
X193600714Y-96860057D01*
X193490813Y-96914749D01*
X193404349Y-96944978D01*
X193335278Y-96959666D01*
X193251925Y-96969659D01*
X193162159Y-96974646D01*
X193073845Y-96974313D01*
X192994851Y-96968351D01*
X192958622Y-96962638D01*
X192818603Y-96924776D01*
X192692178Y-96869932D01*
X192580260Y-96798924D01*
X192483762Y-96712568D01*
X192403600Y-96611679D01*
X192340687Y-96497076D01*
X192296312Y-96370984D01*
X192283978Y-96314401D01*
X192276368Y-96252202D01*
X192272739Y-96177363D01*
X192272245Y-96143467D01*
X192272310Y-96140282D01*
X193032248Y-96140282D01*
X193041541Y-96215333D01*
X193069728Y-96279160D01*
X193118197Y-96334798D01*
X193123254Y-96339211D01*
X193171548Y-96374037D01*
X193223257Y-96396620D01*
X193283989Y-96408540D01*
X193359352Y-96411383D01*
X193377459Y-96410978D01*
X193431278Y-96408325D01*
X193471308Y-96402909D01*
X193506324Y-96392745D01*
X193545103Y-96375850D01*
X193555745Y-96370672D01*
X193616396Y-96334844D01*
X193663215Y-96292212D01*
X193675952Y-96276973D01*
X193720622Y-96220462D01*
X193720622Y-96024586D01*
X193720086Y-95945939D01*
X193718396Y-95887988D01*
X193715428Y-95848875D01*
X193711057Y-95826741D01*
X193706972Y-95820274D01*
X193691047Y-95817111D01*
X193657264Y-95814488D01*
X193610340Y-95812655D01*
X193554993Y-95811857D01*
X193546106Y-95811842D01*
X193425330Y-95817096D01*
X193322660Y-95833263D01*
X193236106Y-95860961D01*
X193163681Y-95900808D01*
X193108751Y-95947758D01*
X193064204Y-96005645D01*
X193039480Y-96068693D01*
X193032248Y-96140282D01*
X192272310Y-96140282D01*
X192274178Y-96049712D01*
X192282522Y-95970812D01*
X192298768Y-95899590D01*
X192324405Y-95828864D01*
X192348401Y-95776493D01*
X192407020Y-95681196D01*
X192485117Y-95593170D01*
X192580315Y-95514017D01*
X192690238Y-95445340D01*
X192812510Y-95388741D01*
X192944755Y-95345821D01*
X193009422Y-95330882D01*
X193145604Y-95308777D01*
X193294049Y-95294194D01*
X193445505Y-95287813D01*
X193572064Y-95289445D01*
X193733950Y-95296224D01*
X193726530Y-95237245D01*
X193707238Y-95138092D01*
X193676104Y-95057372D01*
X193632269Y-94994466D01*
X193574871Y-94948756D01*
X193503048Y-94919622D01*
X193415941Y-94906447D01*
X193312686Y-94908611D01*
X193274711Y-94912612D01*
X193133520Y-94937780D01*
X192996707Y-94978814D01*
X192902178Y-95016815D01*
X192857018Y-95036190D01*
X192818585Y-95051760D01*
X192792234Y-95061405D01*
X192784546Y-95063452D01*
X192774802Y-95054374D01*
X192758083Y-95025405D01*
X192734232Y-94976217D01*
X192703093Y-94906484D01*
X192664507Y-94815879D01*
X192657910Y-94800089D01*
X192627853Y-94727772D01*
X192600874Y-94662425D01*
X192578136Y-94606906D01*
X192560806Y-94564072D01*
X192550048Y-94536781D01*
X192546941Y-94527942D01*
X192556940Y-94523187D01*
X192583217Y-94517910D01*
X192611489Y-94514231D01*
X192641646Y-94509474D01*
X192689433Y-94500028D01*
X192750612Y-94486820D01*
X192820946Y-94470776D01*
X192896194Y-94452820D01*
X192924755Y-94445797D01*
X193029816Y-94420209D01*
X193117480Y-94400147D01*
X193192068Y-94384969D01*
X193257903Y-94374035D01*
X193319307Y-94366704D01*
X193380602Y-94362335D01*
X193446110Y-94360287D01*
X193504128Y-94359889D01*
X193673574Y-94366552D01*
G37*
X193673574Y-94366552D02*
X193825492Y-94386567D01*
X193960756Y-94420202D01*
X194080239Y-94467725D01*
X194184815Y-94529405D01*
X194262424Y-94592965D01*
X194331265Y-94667099D01*
X194385006Y-94746871D01*
X194427910Y-94839091D01*
X194443384Y-94882161D01*
X194456244Y-94921142D01*
X194467446Y-94957289D01*
X194477120Y-94992434D01*
X194485396Y-95028410D01*
X194492403Y-95067050D01*
X194498272Y-95110185D01*
X194503131Y-95159649D01*
X194507110Y-95217273D01*
X194510340Y-95284891D01*
X194512949Y-95364334D01*
X194515067Y-95457436D01*
X194516824Y-95566027D01*
X194518349Y-95691942D01*
X194519772Y-95837012D01*
X194521025Y-95979778D01*
X194522351Y-96135968D01*
X194523556Y-96271239D01*
X194524766Y-96387246D01*
X194526106Y-96485645D01*
X194527700Y-96568093D01*
X194529675Y-96636246D01*
X194532156Y-96691760D01*
X194535269Y-96736292D01*
X194539138Y-96771498D01*
X194543889Y-96799034D01*
X194549648Y-96820556D01*
X194556539Y-96837722D01*
X194564689Y-96852186D01*
X194574223Y-96865606D01*
X194585266Y-96879638D01*
X194589566Y-96885071D01*
X194605386Y-96907910D01*
X194612422Y-96923463D01*
X194612444Y-96923922D01*
X194601567Y-96926121D01*
X194570582Y-96928147D01*
X194521957Y-96929942D01*
X194458163Y-96931451D01*
X194381669Y-96932616D01*
X194294944Y-96933380D01*
X194200457Y-96933686D01*
X194189550Y-96933689D01*
X193766657Y-96933689D01*
X193763395Y-96837622D01*
X193760133Y-96741556D01*
X193698044Y-96792543D01*
X193600714Y-96860057D01*
X193490813Y-96914749D01*
X193404349Y-96944978D01*
X193335278Y-96959666D01*
X193251925Y-96969659D01*
X193162159Y-96974646D01*
X193073845Y-96974313D01*
X192994851Y-96968351D01*
X192958622Y-96962638D01*
X192818603Y-96924776D01*
X192692178Y-96869932D01*
X192580260Y-96798924D01*
X192483762Y-96712568D01*
X192403600Y-96611679D01*
X192340687Y-96497076D01*
X192296312Y-96370984D01*
X192283978Y-96314401D01*
X192276368Y-96252202D01*
X192272739Y-96177363D01*
X192272245Y-96143467D01*
X192272310Y-96140282D01*
X193032248Y-96140282D01*
X193041541Y-96215333D01*
X193069728Y-96279160D01*
X193118197Y-96334798D01*
X193123254Y-96339211D01*
X193171548Y-96374037D01*
X193223257Y-96396620D01*
X193283989Y-96408540D01*
X193359352Y-96411383D01*
X193377459Y-96410978D01*
X193431278Y-96408325D01*
X193471308Y-96402909D01*
X193506324Y-96392745D01*
X193545103Y-96375850D01*
X193555745Y-96370672D01*
X193616396Y-96334844D01*
X193663215Y-96292212D01*
X193675952Y-96276973D01*
X193720622Y-96220462D01*
X193720622Y-96024586D01*
X193720086Y-95945939D01*
X193718396Y-95887988D01*
X193715428Y-95848875D01*
X193711057Y-95826741D01*
X193706972Y-95820274D01*
X193691047Y-95817111D01*
X193657264Y-95814488D01*
X193610340Y-95812655D01*
X193554993Y-95811857D01*
X193546106Y-95811842D01*
X193425330Y-95817096D01*
X193322660Y-95833263D01*
X193236106Y-95860961D01*
X193163681Y-95900808D01*
X193108751Y-95947758D01*
X193064204Y-96005645D01*
X193039480Y-96068693D01*
X193032248Y-96140282D01*
X192272310Y-96140282D01*
X192274178Y-96049712D01*
X192282522Y-95970812D01*
X192298768Y-95899590D01*
X192324405Y-95828864D01*
X192348401Y-95776493D01*
X192407020Y-95681196D01*
X192485117Y-95593170D01*
X192580315Y-95514017D01*
X192690238Y-95445340D01*
X192812510Y-95388741D01*
X192944755Y-95345821D01*
X193009422Y-95330882D01*
X193145604Y-95308777D01*
X193294049Y-95294194D01*
X193445505Y-95287813D01*
X193572064Y-95289445D01*
X193733950Y-95296224D01*
X193726530Y-95237245D01*
X193707238Y-95138092D01*
X193676104Y-95057372D01*
X193632269Y-94994466D01*
X193574871Y-94948756D01*
X193503048Y-94919622D01*
X193415941Y-94906447D01*
X193312686Y-94908611D01*
X193274711Y-94912612D01*
X193133520Y-94937780D01*
X192996707Y-94978814D01*
X192902178Y-95016815D01*
X192857018Y-95036190D01*
X192818585Y-95051760D01*
X192792234Y-95061405D01*
X192784546Y-95063452D01*
X192774802Y-95054374D01*
X192758083Y-95025405D01*
X192734232Y-94976217D01*
X192703093Y-94906484D01*
X192664507Y-94815879D01*
X192657910Y-94800089D01*
X192627853Y-94727772D01*
X192600874Y-94662425D01*
X192578136Y-94606906D01*
X192560806Y-94564072D01*
X192550048Y-94536781D01*
X192546941Y-94527942D01*
X192556940Y-94523187D01*
X192583217Y-94517910D01*
X192611489Y-94514231D01*
X192641646Y-94509474D01*
X192689433Y-94500028D01*
X192750612Y-94486820D01*
X192820946Y-94470776D01*
X192896194Y-94452820D01*
X192924755Y-94445797D01*
X193029816Y-94420209D01*
X193117480Y-94400147D01*
X193192068Y-94384969D01*
X193257903Y-94374035D01*
X193319307Y-94366704D01*
X193380602Y-94362335D01*
X193446110Y-94360287D01*
X193504128Y-94359889D01*
X193673574Y-94366552D01*
G36*
X197186507Y-94972245D02*
G01*
X197186526Y-95206662D01*
X197186552Y-95419603D01*
X197186625Y-95612168D01*
X197186782Y-95785459D01*
X197187064Y-95940576D01*
X197187509Y-96078620D01*
X197188156Y-96200692D01*
X197189045Y-96307894D01*
X197190213Y-96401326D01*
X197191701Y-96482090D01*
X197193546Y-96551286D01*
X197195789Y-96610015D01*
X197198469Y-96659379D01*
X197201623Y-96700478D01*
X197205292Y-96734413D01*
X197209513Y-96762286D01*
X197214327Y-96785198D01*
X197219773Y-96804249D01*
X197225888Y-96820540D01*
X197232712Y-96835173D01*
X197240285Y-96849249D01*
X197248645Y-96863868D01*
X197253839Y-96872974D01*
X197288104Y-96933689D01*
X196429955Y-96933689D01*
X196429955Y-96837733D01*
X196429224Y-96794370D01*
X196427272Y-96761205D01*
X196424463Y-96743424D01*
X196423221Y-96741778D01*
X196411799Y-96748662D01*
X196389084Y-96766505D01*
X196366385Y-96785879D01*
X196311800Y-96826614D01*
X196242321Y-96867617D01*
X196165270Y-96905123D01*
X196087965Y-96935364D01*
X196057113Y-96945012D01*
X195988616Y-96959578D01*
X195905764Y-96969539D01*
X195816371Y-96974583D01*
X195728248Y-96974396D01*
X195649207Y-96968666D01*
X195611511Y-96962858D01*
X195473414Y-96924797D01*
X195346113Y-96867073D01*
X195230292Y-96790211D01*
X195126637Y-96694739D01*
X195035833Y-96581179D01*
X194969031Y-96470381D01*
X194914164Y-96353625D01*
X194872163Y-96234276D01*
X194842167Y-96108283D01*
X194823311Y-95971594D01*
X194814732Y-95820158D01*
X194814006Y-95742711D01*
X194816100Y-95685934D01*
X195645217Y-95685934D01*
X195645424Y-95779002D01*
X195648337Y-95866692D01*
X195654000Y-95943772D01*
X195662455Y-96005009D01*
X195665038Y-96017350D01*
X195696840Y-96124633D01*
X195738498Y-96211658D01*
X195790363Y-96278642D01*
X195852781Y-96325805D01*
X195926100Y-96353365D01*
X196010669Y-96361541D01*
X196106835Y-96350551D01*
X196170311Y-96334829D01*
X196219454Y-96316639D01*
X196273583Y-96290791D01*
X196314244Y-96267089D01*
X196384800Y-96220721D01*
X196384800Y-95070530D01*
X196317392Y-95026962D01*
X196238867Y-94986040D01*
X196154681Y-94959389D01*
X196069557Y-94947465D01*
X195988216Y-94950722D01*
X195915380Y-94969615D01*
X195883426Y-94985184D01*
X195825501Y-95028181D01*
X195776544Y-95084953D01*
X195735390Y-95157575D01*
X195700874Y-95248121D01*
X195671833Y-95358666D01*
X195670552Y-95364533D01*
X195660381Y-95426788D01*
X195652739Y-95504594D01*
X195647670Y-95592720D01*
X195645217Y-95685934D01*
X194816100Y-95685934D01*
X194821857Y-95529895D01*
X194843802Y-95334059D01*
X194879786Y-95155332D01*
X194929759Y-94993845D01*
X194993668Y-94849726D01*
X195071462Y-94723106D01*
X195163089Y-94614115D01*
X195268497Y-94522883D01*
X195313662Y-94491932D01*
X195414611Y-94435785D01*
X195517901Y-94396174D01*
X195627989Y-94372014D01*
X195749330Y-94362219D01*
X195841836Y-94363265D01*
X195971490Y-94374231D01*
X196084084Y-94396046D01*
X196182875Y-94429714D01*
X196271121Y-94476236D01*
X196319986Y-94510448D01*
X196349353Y-94532362D01*
X196371043Y-94547333D01*
X196379253Y-94551733D01*
X196380868Y-94540904D01*
X196382159Y-94510251D01*
X196383138Y-94462526D01*
X196383817Y-94400479D01*
X196384210Y-94326862D01*
X196384330Y-94244427D01*
X196384188Y-94155925D01*
X196383797Y-94064107D01*
X196383171Y-93971724D01*
X196382320Y-93881528D01*
X196381260Y-93796271D01*
X196380001Y-93718703D01*
X196378556Y-93651576D01*
X196376938Y-93597641D01*
X196375161Y-93559650D01*
X196374669Y-93552667D01*
X196367092Y-93482251D01*
X196355531Y-93427102D01*
X196337792Y-93379981D01*
X196311682Y-93333647D01*
X196305415Y-93324067D01*
X196280983Y-93287378D01*
X197186311Y-93287378D01*
X197186507Y-94972245D01*
G37*
X197186507Y-94972245D02*
X197186526Y-95206662D01*
X197186552Y-95419603D01*
X197186625Y-95612168D01*
X197186782Y-95785459D01*
X197187064Y-95940576D01*
X197187509Y-96078620D01*
X197188156Y-96200692D01*
X197189045Y-96307894D01*
X197190213Y-96401326D01*
X197191701Y-96482090D01*
X197193546Y-96551286D01*
X197195789Y-96610015D01*
X197198469Y-96659379D01*
X197201623Y-96700478D01*
X197205292Y-96734413D01*
X197209513Y-96762286D01*
X197214327Y-96785198D01*
X197219773Y-96804249D01*
X197225888Y-96820540D01*
X197232712Y-96835173D01*
X197240285Y-96849249D01*
X197248645Y-96863868D01*
X197253839Y-96872974D01*
X197288104Y-96933689D01*
X196429955Y-96933689D01*
X196429955Y-96837733D01*
X196429224Y-96794370D01*
X196427272Y-96761205D01*
X196424463Y-96743424D01*
X196423221Y-96741778D01*
X196411799Y-96748662D01*
X196389084Y-96766505D01*
X196366385Y-96785879D01*
X196311800Y-96826614D01*
X196242321Y-96867617D01*
X196165270Y-96905123D01*
X196087965Y-96935364D01*
X196057113Y-96945012D01*
X195988616Y-96959578D01*
X195905764Y-96969539D01*
X195816371Y-96974583D01*
X195728248Y-96974396D01*
X195649207Y-96968666D01*
X195611511Y-96962858D01*
X195473414Y-96924797D01*
X195346113Y-96867073D01*
X195230292Y-96790211D01*
X195126637Y-96694739D01*
X195035833Y-96581179D01*
X194969031Y-96470381D01*
X194914164Y-96353625D01*
X194872163Y-96234276D01*
X194842167Y-96108283D01*
X194823311Y-95971594D01*
X194814732Y-95820158D01*
X194814006Y-95742711D01*
X194816100Y-95685934D01*
X195645217Y-95685934D01*
X195645424Y-95779002D01*
X195648337Y-95866692D01*
X195654000Y-95943772D01*
X195662455Y-96005009D01*
X195665038Y-96017350D01*
X195696840Y-96124633D01*
X195738498Y-96211658D01*
X195790363Y-96278642D01*
X195852781Y-96325805D01*
X195926100Y-96353365D01*
X196010669Y-96361541D01*
X196106835Y-96350551D01*
X196170311Y-96334829D01*
X196219454Y-96316639D01*
X196273583Y-96290791D01*
X196314244Y-96267089D01*
X196384800Y-96220721D01*
X196384800Y-95070530D01*
X196317392Y-95026962D01*
X196238867Y-94986040D01*
X196154681Y-94959389D01*
X196069557Y-94947465D01*
X195988216Y-94950722D01*
X195915380Y-94969615D01*
X195883426Y-94985184D01*
X195825501Y-95028181D01*
X195776544Y-95084953D01*
X195735390Y-95157575D01*
X195700874Y-95248121D01*
X195671833Y-95358666D01*
X195670552Y-95364533D01*
X195660381Y-95426788D01*
X195652739Y-95504594D01*
X195647670Y-95592720D01*
X195645217Y-95685934D01*
X194816100Y-95685934D01*
X194821857Y-95529895D01*
X194843802Y-95334059D01*
X194879786Y-95155332D01*
X194929759Y-94993845D01*
X194993668Y-94849726D01*
X195071462Y-94723106D01*
X195163089Y-94614115D01*
X195268497Y-94522883D01*
X195313662Y-94491932D01*
X195414611Y-94435785D01*
X195517901Y-94396174D01*
X195627989Y-94372014D01*
X195749330Y-94362219D01*
X195841836Y-94363265D01*
X195971490Y-94374231D01*
X196084084Y-94396046D01*
X196182875Y-94429714D01*
X196271121Y-94476236D01*
X196319986Y-94510448D01*
X196349353Y-94532362D01*
X196371043Y-94547333D01*
X196379253Y-94551733D01*
X196380868Y-94540904D01*
X196382159Y-94510251D01*
X196383138Y-94462526D01*
X196383817Y-94400479D01*
X196384210Y-94326862D01*
X196384330Y-94244427D01*
X196384188Y-94155925D01*
X196383797Y-94064107D01*
X196383171Y-93971724D01*
X196382320Y-93881528D01*
X196381260Y-93796271D01*
X196380001Y-93718703D01*
X196378556Y-93651576D01*
X196376938Y-93597641D01*
X196375161Y-93559650D01*
X196374669Y-93552667D01*
X196367092Y-93482251D01*
X196355531Y-93427102D01*
X196337792Y-93379981D01*
X196311682Y-93333647D01*
X196305415Y-93324067D01*
X196280983Y-93287378D01*
X197186311Y-93287378D01*
X197186507Y-94972245D01*
G36*
X188726957Y-92526571D02*
G01*
X188823232Y-92550809D01*
X188909816Y-92593641D01*
X188984627Y-92653419D01*
X189045582Y-92728494D01*
X189090601Y-92817220D01*
X189116864Y-92913530D01*
X189122714Y-93010795D01*
X189107860Y-93104654D01*
X189074160Y-93192511D01*
X189023472Y-93271770D01*
X188957655Y-93339836D01*
X188878566Y-93394112D01*
X188788066Y-93432002D01*
X188736800Y-93444426D01*
X188692302Y-93451947D01*
X188658001Y-93454919D01*
X188625040Y-93453094D01*
X188584566Y-93446225D01*
X188551469Y-93439250D01*
X188458053Y-93407741D01*
X188374381Y-93356617D01*
X188302335Y-93287429D01*
X188243800Y-93201728D01*
X188229852Y-93174489D01*
X188213414Y-93138122D01*
X188203106Y-93107582D01*
X188197540Y-93075450D01*
X188195331Y-93034307D01*
X188195052Y-92988222D01*
X188199139Y-92903865D01*
X188212554Y-92834586D01*
X188237744Y-92773961D01*
X188277154Y-92715567D01*
X188315702Y-92671302D01*
X188387594Y-92605484D01*
X188462687Y-92560053D01*
X188545438Y-92532850D01*
X188623072Y-92522576D01*
X188726957Y-92526571D01*
G37*
X188726957Y-92526571D02*
X188823232Y-92550809D01*
X188909816Y-92593641D01*
X188984627Y-92653419D01*
X189045582Y-92728494D01*
X189090601Y-92817220D01*
X189116864Y-92913530D01*
X189122714Y-93010795D01*
X189107860Y-93104654D01*
X189074160Y-93192511D01*
X189023472Y-93271770D01*
X188957655Y-93339836D01*
X188878566Y-93394112D01*
X188788066Y-93432002D01*
X188736800Y-93444426D01*
X188692302Y-93451947D01*
X188658001Y-93454919D01*
X188625040Y-93453094D01*
X188584566Y-93446225D01*
X188551469Y-93439250D01*
X188458053Y-93407741D01*
X188374381Y-93356617D01*
X188302335Y-93287429D01*
X188243800Y-93201728D01*
X188229852Y-93174489D01*
X188213414Y-93138122D01*
X188203106Y-93107582D01*
X188197540Y-93075450D01*
X188195331Y-93034307D01*
X188195052Y-92988222D01*
X188199139Y-92903865D01*
X188212554Y-92834586D01*
X188237744Y-92773961D01*
X188277154Y-92715567D01*
X188315702Y-92671302D01*
X188387594Y-92605484D01*
X188462687Y-92560053D01*
X188545438Y-92532850D01*
X188623072Y-92522576D01*
X188726957Y-92526571D01*
G36*
X184878629Y-97769066D02*
G01*
X184918111Y-97769467D01*
X185033800Y-97772259D01*
X185130689Y-97780550D01*
X185212081Y-97795232D01*
X185281277Y-97817193D01*
X185341580Y-97847322D01*
X185396292Y-97886510D01*
X185415833Y-97903532D01*
X185448250Y-97943363D01*
X185477480Y-97997413D01*
X185500009Y-98057323D01*
X185512321Y-98114739D01*
X185513600Y-98135956D01*
X185505583Y-98194769D01*
X185484101Y-98259013D01*
X185453001Y-98319821D01*
X185416134Y-98368330D01*
X185410146Y-98374182D01*
X185359421Y-98415321D01*
X185303875Y-98447435D01*
X185240304Y-98471365D01*
X185165506Y-98487953D01*
X185076278Y-98498041D01*
X184969418Y-98502469D01*
X184920472Y-98502845D01*
X184858238Y-98502545D01*
X184814472Y-98501292D01*
X184785069Y-98498554D01*
X184765921Y-98493801D01*
X184752923Y-98486501D01*
X184745955Y-98480267D01*
X184739374Y-98472694D01*
X184734212Y-98462924D01*
X184730297Y-98448340D01*
X184727457Y-98426326D01*
X184725520Y-98394264D01*
X184724316Y-98349536D01*
X184723672Y-98289526D01*
X184723417Y-98211617D01*
X184723378Y-98135956D01*
X184723130Y-98035041D01*
X184723183Y-97954427D01*
X184724143Y-97915822D01*
X184870133Y-97915822D01*
X184870133Y-98356089D01*
X184963266Y-98356004D01*
X185019307Y-98354396D01*
X185078001Y-98350256D01*
X185126972Y-98344464D01*
X185128462Y-98344226D01*
X185207608Y-98325090D01*
X185268998Y-98295287D01*
X185315695Y-98252878D01*
X185345365Y-98206961D01*
X185363647Y-98156026D01*
X185362229Y-98108200D01*
X185341012Y-98056933D01*
X185299511Y-98003899D01*
X185242002Y-97964600D01*
X185167250Y-97938331D01*
X185117292Y-97929035D01*
X185060584Y-97922507D01*
X185000481Y-97917782D01*
X184949361Y-97915817D01*
X184946333Y-97915808D01*
X184870133Y-97915822D01*
X184724143Y-97915822D01*
X184724740Y-97891851D01*
X184729002Y-97845055D01*
X184737170Y-97811778D01*
X184750444Y-97789759D01*
X184770026Y-97776739D01*
X184797117Y-97770457D01*
X184832918Y-97768653D01*
X184878629Y-97769066D01*
G37*
X184878629Y-97769066D02*
X184918111Y-97769467D01*
X185033800Y-97772259D01*
X185130689Y-97780550D01*
X185212081Y-97795232D01*
X185281277Y-97817193D01*
X185341580Y-97847322D01*
X185396292Y-97886510D01*
X185415833Y-97903532D01*
X185448250Y-97943363D01*
X185477480Y-97997413D01*
X185500009Y-98057323D01*
X185512321Y-98114739D01*
X185513600Y-98135956D01*
X185505583Y-98194769D01*
X185484101Y-98259013D01*
X185453001Y-98319821D01*
X185416134Y-98368330D01*
X185410146Y-98374182D01*
X185359421Y-98415321D01*
X185303875Y-98447435D01*
X185240304Y-98471365D01*
X185165506Y-98487953D01*
X185076278Y-98498041D01*
X184969418Y-98502469D01*
X184920472Y-98502845D01*
X184858238Y-98502545D01*
X184814472Y-98501292D01*
X184785069Y-98498554D01*
X184765921Y-98493801D01*
X184752923Y-98486501D01*
X184745955Y-98480267D01*
X184739374Y-98472694D01*
X184734212Y-98462924D01*
X184730297Y-98448340D01*
X184727457Y-98426326D01*
X184725520Y-98394264D01*
X184724316Y-98349536D01*
X184723672Y-98289526D01*
X184723417Y-98211617D01*
X184723378Y-98135956D01*
X184723130Y-98035041D01*
X184723183Y-97954427D01*
X184724143Y-97915822D01*
X184870133Y-97915822D01*
X184870133Y-98356089D01*
X184963266Y-98356004D01*
X185019307Y-98354396D01*
X185078001Y-98350256D01*
X185126972Y-98344464D01*
X185128462Y-98344226D01*
X185207608Y-98325090D01*
X185268998Y-98295287D01*
X185315695Y-98252878D01*
X185345365Y-98206961D01*
X185363647Y-98156026D01*
X185362229Y-98108200D01*
X185341012Y-98056933D01*
X185299511Y-98003899D01*
X185242002Y-97964600D01*
X185167250Y-97938331D01*
X185117292Y-97929035D01*
X185060584Y-97922507D01*
X185000481Y-97917782D01*
X184949361Y-97915817D01*
X184946333Y-97915808D01*
X184870133Y-97915822D01*
X184724143Y-97915822D01*
X184724740Y-97891851D01*
X184729002Y-97845055D01*
X184737170Y-97811778D01*
X184750444Y-97789759D01*
X184770026Y-97776739D01*
X184797117Y-97770457D01*
X184832918Y-97768653D01*
X184878629Y-97769066D01*
G36*
X186287206Y-97769146D02*
G01*
X186356614Y-97769518D01*
X186409003Y-97770385D01*
X186447153Y-97771946D01*
X186473841Y-97774403D01*
X186491847Y-97777957D01*
X186503951Y-97782810D01*
X186512931Y-97789161D01*
X186516182Y-97792084D01*
X186535957Y-97823142D01*
X186539518Y-97858828D01*
X186526509Y-97890510D01*
X186520494Y-97896913D01*
X186510765Y-97903121D01*
X186495099Y-97907910D01*
X186470592Y-97911514D01*
X186434339Y-97914164D01*
X186383435Y-97916095D01*
X186314974Y-97917539D01*
X186252383Y-97918418D01*
X186004666Y-97921467D01*
X186001281Y-97986378D01*
X185997895Y-98051289D01*
X186166042Y-98051289D01*
X186239041Y-98051919D01*
X186292483Y-98054553D01*
X186329372Y-98060309D01*
X186352712Y-98070304D01*
X186365506Y-98085656D01*
X186370758Y-98107482D01*
X186371555Y-98127738D01*
X186369077Y-98152592D01*
X186359723Y-98170906D01*
X186340617Y-98183637D01*
X186308882Y-98191741D01*
X186261641Y-98196176D01*
X186196017Y-98197899D01*
X186160199Y-98198045D01*
X185999022Y-98198045D01*
X185999022Y-98356089D01*
X186247378Y-98356089D01*
X186328787Y-98356202D01*
X186390658Y-98356712D01*
X186436032Y-98357870D01*
X186467946Y-98359930D01*
X186489441Y-98363146D01*
X186503557Y-98367772D01*
X186513332Y-98374059D01*
X186518311Y-98378667D01*
X186535390Y-98405560D01*
X186540889Y-98429467D01*
X186533037Y-98458667D01*
X186518311Y-98480267D01*
X186510454Y-98487066D01*
X186500312Y-98492346D01*
X186485156Y-98496298D01*
X186462259Y-98499113D01*
X186428891Y-98500982D01*
X186382325Y-98502098D01*
X186319833Y-98502651D01*
X186238686Y-98502833D01*
X186196578Y-98502845D01*
X186106402Y-98502765D01*
X186036076Y-98502398D01*
X185982871Y-98501552D01*
X185944060Y-98500036D01*
X185916913Y-98497659D01*
X185898702Y-98494229D01*
X185886700Y-98489554D01*
X185878178Y-98483444D01*
X185874844Y-98480267D01*
X185868245Y-98472670D01*
X185863073Y-98462870D01*
X185859154Y-98448239D01*
X185856316Y-98426152D01*
X185854385Y-98393982D01*
X185853188Y-98349103D01*
X185852552Y-98288889D01*
X185852303Y-98210713D01*
X185852266Y-98137923D01*
X185852300Y-98044707D01*
X185852535Y-97971431D01*
X185853170Y-97915458D01*
X185854406Y-97874151D01*
X185856444Y-97844872D01*
X185859483Y-97824984D01*
X185863723Y-97811850D01*
X185869365Y-97802832D01*
X185876609Y-97795293D01*
X185878394Y-97793612D01*
X185887055Y-97786172D01*
X185897118Y-97780409D01*
X185911375Y-97776112D01*
X185932617Y-97773064D01*
X185963636Y-97771051D01*
X186007223Y-97769860D01*
X186066169Y-97769275D01*
X186143266Y-97769083D01*
X186197999Y-97769067D01*
X186287206Y-97769146D01*
G37*
X186287206Y-97769146D02*
X186356614Y-97769518D01*
X186409003Y-97770385D01*
X186447153Y-97771946D01*
X186473841Y-97774403D01*
X186491847Y-97777957D01*
X186503951Y-97782810D01*
X186512931Y-97789161D01*
X186516182Y-97792084D01*
X186535957Y-97823142D01*
X186539518Y-97858828D01*
X186526509Y-97890510D01*
X186520494Y-97896913D01*
X186510765Y-97903121D01*
X186495099Y-97907910D01*
X186470592Y-97911514D01*
X186434339Y-97914164D01*
X186383435Y-97916095D01*
X186314974Y-97917539D01*
X186252383Y-97918418D01*
X186004666Y-97921467D01*
X186001281Y-97986378D01*
X185997895Y-98051289D01*
X186166042Y-98051289D01*
X186239041Y-98051919D01*
X186292483Y-98054553D01*
X186329372Y-98060309D01*
X186352712Y-98070304D01*
X186365506Y-98085656D01*
X186370758Y-98107482D01*
X186371555Y-98127738D01*
X186369077Y-98152592D01*
X186359723Y-98170906D01*
X186340617Y-98183637D01*
X186308882Y-98191741D01*
X186261641Y-98196176D01*
X186196017Y-98197899D01*
X186160199Y-98198045D01*
X185999022Y-98198045D01*
X185999022Y-98356089D01*
X186247378Y-98356089D01*
X186328787Y-98356202D01*
X186390658Y-98356712D01*
X186436032Y-98357870D01*
X186467946Y-98359930D01*
X186489441Y-98363146D01*
X186503557Y-98367772D01*
X186513332Y-98374059D01*
X186518311Y-98378667D01*
X186535390Y-98405560D01*
X186540889Y-98429467D01*
X186533037Y-98458667D01*
X186518311Y-98480267D01*
X186510454Y-98487066D01*
X186500312Y-98492346D01*
X186485156Y-98496298D01*
X186462259Y-98499113D01*
X186428891Y-98500982D01*
X186382325Y-98502098D01*
X186319833Y-98502651D01*
X186238686Y-98502833D01*
X186196578Y-98502845D01*
X186106402Y-98502765D01*
X186036076Y-98502398D01*
X185982871Y-98501552D01*
X185944060Y-98500036D01*
X185916913Y-98497659D01*
X185898702Y-98494229D01*
X185886700Y-98489554D01*
X185878178Y-98483444D01*
X185874844Y-98480267D01*
X185868245Y-98472670D01*
X185863073Y-98462870D01*
X185859154Y-98448239D01*
X185856316Y-98426152D01*
X185854385Y-98393982D01*
X185853188Y-98349103D01*
X185852552Y-98288889D01*
X185852303Y-98210713D01*
X185852266Y-98137923D01*
X185852300Y-98044707D01*
X185852535Y-97971431D01*
X185853170Y-97915458D01*
X185854406Y-97874151D01*
X185856444Y-97844872D01*
X185859483Y-97824984D01*
X185863723Y-97811850D01*
X185869365Y-97802832D01*
X185876609Y-97795293D01*
X185878394Y-97793612D01*
X185887055Y-97786172D01*
X185897118Y-97780409D01*
X185911375Y-97776112D01*
X185932617Y-97773064D01*
X185963636Y-97771051D01*
X186007223Y-97769860D01*
X186066169Y-97769275D01*
X186143266Y-97769083D01*
X186197999Y-97769067D01*
X186287206Y-97769146D01*
G36*
X187308297Y-97770351D02*
G01*
X187383112Y-97775581D01*
X187452694Y-97783750D01*
X187512998Y-97794550D01*
X187559980Y-97807673D01*
X187589594Y-97822813D01*
X187594140Y-97827269D01*
X187609946Y-97861850D01*
X187605153Y-97897351D01*
X187580636Y-97927725D01*
X187579466Y-97928596D01*
X187565046Y-97937954D01*
X187549992Y-97942876D01*
X187528995Y-97943473D01*
X187496743Y-97939861D01*
X187447927Y-97932154D01*
X187444000Y-97931505D01*
X187371261Y-97922569D01*
X187292783Y-97918161D01*
X187214073Y-97918119D01*
X187140639Y-97922279D01*
X187077989Y-97930479D01*
X187031630Y-97942557D01*
X187028584Y-97943771D01*
X186994952Y-97962615D01*
X186983136Y-97981685D01*
X186992386Y-98000439D01*
X187021953Y-98018337D01*
X187071089Y-98034837D01*
X187139043Y-98049396D01*
X187184355Y-98056406D01*
X187278544Y-98069889D01*
X187353456Y-98082214D01*
X187412283Y-98094449D01*
X187458215Y-98107661D01*
X187494445Y-98122917D01*
X187524162Y-98141285D01*
X187550558Y-98163831D01*
X187571770Y-98185971D01*
X187596935Y-98216819D01*
X187609319Y-98243345D01*
X187613192Y-98276026D01*
X187613333Y-98287995D01*
X187610424Y-98327712D01*
X187598798Y-98357259D01*
X187578677Y-98383486D01*
X187537784Y-98423576D01*
X187492183Y-98454149D01*
X187438487Y-98476203D01*
X187373308Y-98490735D01*
X187293256Y-98498741D01*
X187194943Y-98501218D01*
X187178711Y-98501177D01*
X187113151Y-98499818D01*
X187048134Y-98496730D01*
X186990748Y-98492356D01*
X186948078Y-98487140D01*
X186944628Y-98486541D01*
X186902204Y-98476491D01*
X186866220Y-98463796D01*
X186845850Y-98452190D01*
X186826893Y-98421572D01*
X186825573Y-98385918D01*
X186841915Y-98354144D01*
X186845571Y-98350551D01*
X186860685Y-98339876D01*
X186879585Y-98335276D01*
X186908838Y-98336059D01*
X186944349Y-98340127D01*
X186984030Y-98343762D01*
X187039655Y-98346828D01*
X187104594Y-98349053D01*
X187172215Y-98350164D01*
X187190000Y-98350237D01*
X187257872Y-98349964D01*
X187307546Y-98348646D01*
X187343390Y-98345827D01*
X187369776Y-98341050D01*
X187391074Y-98333857D01*
X187403874Y-98327867D01*
X187432000Y-98311233D01*
X187449932Y-98296168D01*
X187452553Y-98291897D01*
X187447024Y-98274263D01*
X187420740Y-98257192D01*
X187375522Y-98241458D01*
X187313192Y-98227838D01*
X187294829Y-98224804D01*
X187198910Y-98209738D01*
X187122359Y-98197146D01*
X187062220Y-98186111D01*
X187015540Y-98175720D01*
X186979363Y-98165056D01*
X186950735Y-98153205D01*
X186926702Y-98139251D01*
X186904308Y-98122281D01*
X186880598Y-98101378D01*
X186872620Y-98094049D01*
X186844647Y-98066699D01*
X186829840Y-98045029D01*
X186824048Y-98020232D01*
X186823111Y-97988983D01*
X186833425Y-97927705D01*
X186864248Y-97875640D01*
X186915405Y-97832958D01*
X186986717Y-97799825D01*
X187037600Y-97784964D01*
X187092900Y-97775366D01*
X187159147Y-97769936D01*
X187232294Y-97768367D01*
X187308297Y-97770351D01*
G37*
X187308297Y-97770351D02*
X187383112Y-97775581D01*
X187452694Y-97783750D01*
X187512998Y-97794550D01*
X187559980Y-97807673D01*
X187589594Y-97822813D01*
X187594140Y-97827269D01*
X187609946Y-97861850D01*
X187605153Y-97897351D01*
X187580636Y-97927725D01*
X187579466Y-97928596D01*
X187565046Y-97937954D01*
X187549992Y-97942876D01*
X187528995Y-97943473D01*
X187496743Y-97939861D01*
X187447927Y-97932154D01*
X187444000Y-97931505D01*
X187371261Y-97922569D01*
X187292783Y-97918161D01*
X187214073Y-97918119D01*
X187140639Y-97922279D01*
X187077989Y-97930479D01*
X187031630Y-97942557D01*
X187028584Y-97943771D01*
X186994952Y-97962615D01*
X186983136Y-97981685D01*
X186992386Y-98000439D01*
X187021953Y-98018337D01*
X187071089Y-98034837D01*
X187139043Y-98049396D01*
X187184355Y-98056406D01*
X187278544Y-98069889D01*
X187353456Y-98082214D01*
X187412283Y-98094449D01*
X187458215Y-98107661D01*
X187494445Y-98122917D01*
X187524162Y-98141285D01*
X187550558Y-98163831D01*
X187571770Y-98185971D01*
X187596935Y-98216819D01*
X187609319Y-98243345D01*
X187613192Y-98276026D01*
X187613333Y-98287995D01*
X187610424Y-98327712D01*
X187598798Y-98357259D01*
X187578677Y-98383486D01*
X187537784Y-98423576D01*
X187492183Y-98454149D01*
X187438487Y-98476203D01*
X187373308Y-98490735D01*
X187293256Y-98498741D01*
X187194943Y-98501218D01*
X187178711Y-98501177D01*
X187113151Y-98499818D01*
X187048134Y-98496730D01*
X186990748Y-98492356D01*
X186948078Y-98487140D01*
X186944628Y-98486541D01*
X186902204Y-98476491D01*
X186866220Y-98463796D01*
X186845850Y-98452190D01*
X186826893Y-98421572D01*
X186825573Y-98385918D01*
X186841915Y-98354144D01*
X186845571Y-98350551D01*
X186860685Y-98339876D01*
X186879585Y-98335276D01*
X186908838Y-98336059D01*
X186944349Y-98340127D01*
X186984030Y-98343762D01*
X187039655Y-98346828D01*
X187104594Y-98349053D01*
X187172215Y-98350164D01*
X187190000Y-98350237D01*
X187257872Y-98349964D01*
X187307546Y-98348646D01*
X187343390Y-98345827D01*
X187369776Y-98341050D01*
X187391074Y-98333857D01*
X187403874Y-98327867D01*
X187432000Y-98311233D01*
X187449932Y-98296168D01*
X187452553Y-98291897D01*
X187447024Y-98274263D01*
X187420740Y-98257192D01*
X187375522Y-98241458D01*
X187313192Y-98227838D01*
X187294829Y-98224804D01*
X187198910Y-98209738D01*
X187122359Y-98197146D01*
X187062220Y-98186111D01*
X187015540Y-98175720D01*
X186979363Y-98165056D01*
X186950735Y-98153205D01*
X186926702Y-98139251D01*
X186904308Y-98122281D01*
X186880598Y-98101378D01*
X186872620Y-98094049D01*
X186844647Y-98066699D01*
X186829840Y-98045029D01*
X186824048Y-98020232D01*
X186823111Y-97988983D01*
X186833425Y-97927705D01*
X186864248Y-97875640D01*
X186915405Y-97832958D01*
X186986717Y-97799825D01*
X187037600Y-97784964D01*
X187092900Y-97775366D01*
X187159147Y-97769936D01*
X187232294Y-97768367D01*
X187308297Y-97770351D01*
G36*
X188076178Y-97791645D02*
G01*
X188082758Y-97799218D01*
X188087921Y-97808987D01*
X188091836Y-97823571D01*
X188094676Y-97845585D01*
X188096613Y-97877648D01*
X188097817Y-97922375D01*
X188098461Y-97982385D01*
X188098716Y-98060294D01*
X188098755Y-98135956D01*
X188098686Y-98229802D01*
X188098362Y-98303689D01*
X188097614Y-98360232D01*
X188096268Y-98402049D01*
X188094154Y-98431757D01*
X188091100Y-98451973D01*
X188086934Y-98465314D01*
X188081484Y-98474398D01*
X188076178Y-98480267D01*
X188043174Y-98499947D01*
X188008009Y-98498181D01*
X187976545Y-98476717D01*
X187969316Y-98468337D01*
X187963666Y-98458614D01*
X187959401Y-98444861D01*
X187956327Y-98424389D01*
X187954248Y-98394512D01*
X187952970Y-98352541D01*
X187952299Y-98295789D01*
X187952041Y-98221567D01*
X187952000Y-98137537D01*
X187952000Y-97824485D01*
X187979709Y-97796776D01*
X188013863Y-97773463D01*
X188046994Y-97772623D01*
X188076178Y-97791645D01*
G37*
X188076178Y-97791645D02*
X188082758Y-97799218D01*
X188087921Y-97808987D01*
X188091836Y-97823571D01*
X188094676Y-97845585D01*
X188096613Y-97877648D01*
X188097817Y-97922375D01*
X188098461Y-97982385D01*
X188098716Y-98060294D01*
X188098755Y-98135956D01*
X188098686Y-98229802D01*
X188098362Y-98303689D01*
X188097614Y-98360232D01*
X188096268Y-98402049D01*
X188094154Y-98431757D01*
X188091100Y-98451973D01*
X188086934Y-98465314D01*
X188081484Y-98474398D01*
X188076178Y-98480267D01*
X188043174Y-98499947D01*
X188008009Y-98498181D01*
X187976545Y-98476717D01*
X187969316Y-98468337D01*
X187963666Y-98458614D01*
X187959401Y-98444861D01*
X187956327Y-98424389D01*
X187954248Y-98394512D01*
X187952970Y-98352541D01*
X187952299Y-98295789D01*
X187952041Y-98221567D01*
X187952000Y-98137537D01*
X187952000Y-97824485D01*
X187979709Y-97796776D01*
X188013863Y-97773463D01*
X188046994Y-97772623D01*
X188076178Y-97791645D01*
G36*
X189049919Y-97774599D02*
G01*
X189118435Y-97786095D01*
X189171057Y-97803967D01*
X189205292Y-97827499D01*
X189214621Y-97840924D01*
X189224107Y-97872148D01*
X189217723Y-97900395D01*
X189197570Y-97927182D01*
X189166255Y-97939713D01*
X189120817Y-97938696D01*
X189085674Y-97931906D01*
X189007581Y-97918971D01*
X188927774Y-97917742D01*
X188838445Y-97928241D01*
X188813771Y-97932690D01*
X188730709Y-97956108D01*
X188665727Y-97990945D01*
X188619539Y-98036604D01*
X188592855Y-98092494D01*
X188587337Y-98121388D01*
X188590949Y-98180012D01*
X188614271Y-98231879D01*
X188655176Y-98275978D01*
X188711541Y-98311299D01*
X188781240Y-98336829D01*
X188862148Y-98351559D01*
X188952140Y-98354478D01*
X189049090Y-98344575D01*
X189054564Y-98343641D01*
X189093125Y-98336459D01*
X189114506Y-98329521D01*
X189123773Y-98319227D01*
X189125994Y-98301976D01*
X189126044Y-98292841D01*
X189126044Y-98254489D01*
X189057569Y-98254489D01*
X188997100Y-98250347D01*
X188955835Y-98237147D01*
X188931825Y-98213730D01*
X188923123Y-98178936D01*
X188923017Y-98174394D01*
X188928108Y-98144654D01*
X188945567Y-98123419D01*
X188978061Y-98109366D01*
X189028257Y-98101173D01*
X189076877Y-98098161D01*
X189147544Y-98096433D01*
X189198802Y-98099070D01*
X189233761Y-98108800D01*
X189255530Y-98128353D01*
X189267220Y-98160456D01*
X189271940Y-98207838D01*
X189272800Y-98270071D01*
X189271391Y-98339535D01*
X189267152Y-98386786D01*
X189260064Y-98412012D01*
X189258689Y-98413988D01*
X189219772Y-98445508D01*
X189162714Y-98470470D01*
X189091131Y-98488340D01*
X189008642Y-98498586D01*
X188918861Y-98500673D01*
X188825408Y-98494068D01*
X188770444Y-98485956D01*
X188684234Y-98461554D01*
X188604108Y-98421662D01*
X188537023Y-98369887D01*
X188526827Y-98359539D01*
X188493698Y-98316035D01*
X188463806Y-98262118D01*
X188440643Y-98205592D01*
X188427702Y-98154259D01*
X188426142Y-98134544D01*
X188432782Y-98093419D01*
X188450432Y-98042252D01*
X188475703Y-97988394D01*
X188505211Y-97939195D01*
X188531281Y-97906334D01*
X188592235Y-97857452D01*
X188671031Y-97818545D01*
X188764843Y-97790494D01*
X188870850Y-97774179D01*
X188968000Y-97770192D01*
X189049919Y-97774599D01*
G37*
X189049919Y-97774599D02*
X189118435Y-97786095D01*
X189171057Y-97803967D01*
X189205292Y-97827499D01*
X189214621Y-97840924D01*
X189224107Y-97872148D01*
X189217723Y-97900395D01*
X189197570Y-97927182D01*
X189166255Y-97939713D01*
X189120817Y-97938696D01*
X189085674Y-97931906D01*
X189007581Y-97918971D01*
X188927774Y-97917742D01*
X188838445Y-97928241D01*
X188813771Y-97932690D01*
X188730709Y-97956108D01*
X188665727Y-97990945D01*
X188619539Y-98036604D01*
X188592855Y-98092494D01*
X188587337Y-98121388D01*
X188590949Y-98180012D01*
X188614271Y-98231879D01*
X188655176Y-98275978D01*
X188711541Y-98311299D01*
X188781240Y-98336829D01*
X188862148Y-98351559D01*
X188952140Y-98354478D01*
X189049090Y-98344575D01*
X189054564Y-98343641D01*
X189093125Y-98336459D01*
X189114506Y-98329521D01*
X189123773Y-98319227D01*
X189125994Y-98301976D01*
X189126044Y-98292841D01*
X189126044Y-98254489D01*
X189057569Y-98254489D01*
X188997100Y-98250347D01*
X188955835Y-98237147D01*
X188931825Y-98213730D01*
X188923123Y-98178936D01*
X188923017Y-98174394D01*
X188928108Y-98144654D01*
X188945567Y-98123419D01*
X188978061Y-98109366D01*
X189028257Y-98101173D01*
X189076877Y-98098161D01*
X189147544Y-98096433D01*
X189198802Y-98099070D01*
X189233761Y-98108800D01*
X189255530Y-98128353D01*
X189267220Y-98160456D01*
X189271940Y-98207838D01*
X189272800Y-98270071D01*
X189271391Y-98339535D01*
X189267152Y-98386786D01*
X189260064Y-98412012D01*
X189258689Y-98413988D01*
X189219772Y-98445508D01*
X189162714Y-98470470D01*
X189091131Y-98488340D01*
X189008642Y-98498586D01*
X188918861Y-98500673D01*
X188825408Y-98494068D01*
X188770444Y-98485956D01*
X188684234Y-98461554D01*
X188604108Y-98421662D01*
X188537023Y-98369887D01*
X188526827Y-98359539D01*
X188493698Y-98316035D01*
X188463806Y-98262118D01*
X188440643Y-98205592D01*
X188427702Y-98154259D01*
X188426142Y-98134544D01*
X188432782Y-98093419D01*
X188450432Y-98042252D01*
X188475703Y-97988394D01*
X188505211Y-97939195D01*
X188531281Y-97906334D01*
X188592235Y-97857452D01*
X188671031Y-97818545D01*
X188764843Y-97790494D01*
X188870850Y-97774179D01*
X188968000Y-97770192D01*
X189049919Y-97774599D01*
G36*
X189699886Y-97773448D02*
G01*
X189723452Y-97787273D01*
X189754265Y-97809881D01*
X189793922Y-97842338D01*
X189844020Y-97885708D01*
X189906157Y-97941058D01*
X189981928Y-98009451D01*
X190068666Y-98088084D01*
X190249289Y-98251878D01*
X190254933Y-98032029D01*
X190256971Y-97956351D01*
X190258937Y-97899994D01*
X190261266Y-97859706D01*
X190264394Y-97832235D01*
X190268755Y-97814329D01*
X190274784Y-97802737D01*
X190282916Y-97794208D01*
X190287228Y-97790623D01*
X190321759Y-97771670D01*
X190354617Y-97774441D01*
X190380682Y-97790633D01*
X190407333Y-97812199D01*
X190410648Y-98127151D01*
X190411565Y-98219779D01*
X190412032Y-98292544D01*
X190411887Y-98348161D01*
X190410968Y-98389342D01*
X190409113Y-98418803D01*
X190406161Y-98439255D01*
X190401950Y-98453413D01*
X190396318Y-98463991D01*
X190390073Y-98472474D01*
X190376561Y-98488207D01*
X190363117Y-98498636D01*
X190347876Y-98502639D01*
X190328974Y-98499094D01*
X190304545Y-98486879D01*
X190272727Y-98464871D01*
X190231652Y-98431949D01*
X190179458Y-98386991D01*
X190114278Y-98328875D01*
X190040444Y-98262099D01*
X189775155Y-98021458D01*
X189769511Y-98240589D01*
X189767469Y-98316128D01*
X189765498Y-98372354D01*
X189763161Y-98412524D01*
X189760019Y-98439896D01*
X189755636Y-98457728D01*
X189749576Y-98469279D01*
X189741400Y-98477807D01*
X189737216Y-98481282D01*
X189700235Y-98500372D01*
X189665292Y-98497493D01*
X189634864Y-98473100D01*
X189627903Y-98463286D01*
X189622477Y-98451826D01*
X189618397Y-98435968D01*
X189615471Y-98412963D01*
X189613508Y-98380062D01*
X189612317Y-98334516D01*
X189611708Y-98273573D01*
X189611489Y-98194486D01*
X189611466Y-98135956D01*
X189611540Y-98044407D01*
X189611887Y-97972687D01*
X189612699Y-97918045D01*
X189614167Y-97877732D01*
X189616481Y-97848998D01*
X189619833Y-97829093D01*
X189624412Y-97815268D01*
X189630411Y-97804772D01*
X189634864Y-97798811D01*
X189646150Y-97784691D01*
X189656699Y-97774029D01*
X189668107Y-97767892D01*
X189681970Y-97767343D01*
X189699886Y-97773448D01*
G37*
X189699886Y-97773448D02*
X189723452Y-97787273D01*
X189754265Y-97809881D01*
X189793922Y-97842338D01*
X189844020Y-97885708D01*
X189906157Y-97941058D01*
X189981928Y-98009451D01*
X190068666Y-98088084D01*
X190249289Y-98251878D01*
X190254933Y-98032029D01*
X190256971Y-97956351D01*
X190258937Y-97899994D01*
X190261266Y-97859706D01*
X190264394Y-97832235D01*
X190268755Y-97814329D01*
X190274784Y-97802737D01*
X190282916Y-97794208D01*
X190287228Y-97790623D01*
X190321759Y-97771670D01*
X190354617Y-97774441D01*
X190380682Y-97790633D01*
X190407333Y-97812199D01*
X190410648Y-98127151D01*
X190411565Y-98219779D01*
X190412032Y-98292544D01*
X190411887Y-98348161D01*
X190410968Y-98389342D01*
X190409113Y-98418803D01*
X190406161Y-98439255D01*
X190401950Y-98453413D01*
X190396318Y-98463991D01*
X190390073Y-98472474D01*
X190376561Y-98488207D01*
X190363117Y-98498636D01*
X190347876Y-98502639D01*
X190328974Y-98499094D01*
X190304545Y-98486879D01*
X190272727Y-98464871D01*
X190231652Y-98431949D01*
X190179458Y-98386991D01*
X190114278Y-98328875D01*
X190040444Y-98262099D01*
X189775155Y-98021458D01*
X189769511Y-98240589D01*
X189767469Y-98316128D01*
X189765498Y-98372354D01*
X189763161Y-98412524D01*
X189760019Y-98439896D01*
X189755636Y-98457728D01*
X189749576Y-98469279D01*
X189741400Y-98477807D01*
X189737216Y-98481282D01*
X189700235Y-98500372D01*
X189665292Y-98497493D01*
X189634864Y-98473100D01*
X189627903Y-98463286D01*
X189622477Y-98451826D01*
X189618397Y-98435968D01*
X189615471Y-98412963D01*
X189613508Y-98380062D01*
X189612317Y-98334516D01*
X189611708Y-98273573D01*
X189611489Y-98194486D01*
X189611466Y-98135956D01*
X189611540Y-98044407D01*
X189611887Y-97972687D01*
X189612699Y-97918045D01*
X189614167Y-97877732D01*
X189616481Y-97848998D01*
X189619833Y-97829093D01*
X189624412Y-97815268D01*
X189630411Y-97804772D01*
X189634864Y-97798811D01*
X189646150Y-97784691D01*
X189656699Y-97774029D01*
X189668107Y-97767892D01*
X189681970Y-97767343D01*
X189699886Y-97773448D01*
G36*
X191230343Y-97769260D02*
G01*
X191306701Y-97770174D01*
X191365217Y-97772311D01*
X191408255Y-97776175D01*
X191438183Y-97782267D01*
X191457368Y-97791090D01*
X191468176Y-97803146D01*
X191472973Y-97818939D01*
X191474127Y-97838970D01*
X191474133Y-97841335D01*
X191473131Y-97863992D01*
X191468396Y-97881503D01*
X191457333Y-97894574D01*
X191437348Y-97903913D01*
X191405846Y-97910227D01*
X191360232Y-97914222D01*
X191297913Y-97916606D01*
X191216293Y-97918086D01*
X191191277Y-97918414D01*
X190949200Y-97921467D01*
X190945814Y-97986378D01*
X190942429Y-98051289D01*
X191110576Y-98051289D01*
X191176266Y-98051531D01*
X191223172Y-98052556D01*
X191255083Y-98054811D01*
X191275791Y-98058742D01*
X191289084Y-98064798D01*
X191298755Y-98073424D01*
X191298817Y-98073493D01*
X191316356Y-98107112D01*
X191315722Y-98143448D01*
X191297314Y-98174423D01*
X191293671Y-98177607D01*
X191280741Y-98185812D01*
X191263024Y-98191521D01*
X191236570Y-98195162D01*
X191197432Y-98197167D01*
X191141662Y-98197964D01*
X191105994Y-98198045D01*
X190943555Y-98198045D01*
X190943555Y-98356089D01*
X191190161Y-98356089D01*
X191271580Y-98356231D01*
X191333410Y-98356814D01*
X191378637Y-98358068D01*
X191410248Y-98360227D01*
X191431231Y-98363523D01*
X191444573Y-98368189D01*
X191453261Y-98374457D01*
X191455450Y-98376733D01*
X191471614Y-98408280D01*
X191472797Y-98444168D01*
X191459536Y-98475285D01*
X191449043Y-98485271D01*
X191438129Y-98490769D01*
X191421217Y-98495022D01*
X191395633Y-98498180D01*
X191358701Y-98500392D01*
X191307746Y-98501806D01*
X191240094Y-98502572D01*
X191153069Y-98502838D01*
X191133394Y-98502845D01*
X191044911Y-98502787D01*
X190976227Y-98502467D01*
X190924564Y-98501667D01*
X190887145Y-98500167D01*
X190861190Y-98497749D01*
X190843922Y-98494194D01*
X190832562Y-98489282D01*
X190824332Y-98482795D01*
X190819817Y-98478138D01*
X190813021Y-98469889D01*
X190807712Y-98459669D01*
X190803706Y-98444800D01*
X190800821Y-98422602D01*
X190798874Y-98390393D01*
X190797681Y-98345496D01*
X190797061Y-98285228D01*
X190796829Y-98206911D01*
X190796800Y-98140994D01*
X190796871Y-98048628D01*
X190797208Y-97976117D01*
X190797998Y-97920737D01*
X190799426Y-97879765D01*
X190801679Y-97850478D01*
X190804943Y-97830153D01*
X190809404Y-97816066D01*
X190815248Y-97805495D01*
X190820197Y-97798811D01*
X190843594Y-97769067D01*
X191133774Y-97769067D01*
X191230343Y-97769260D01*
G37*
X191230343Y-97769260D02*
X191306701Y-97770174D01*
X191365217Y-97772311D01*
X191408255Y-97776175D01*
X191438183Y-97782267D01*
X191457368Y-97791090D01*
X191468176Y-97803146D01*
X191472973Y-97818939D01*
X191474127Y-97838970D01*
X191474133Y-97841335D01*
X191473131Y-97863992D01*
X191468396Y-97881503D01*
X191457333Y-97894574D01*
X191437348Y-97903913D01*
X191405846Y-97910227D01*
X191360232Y-97914222D01*
X191297913Y-97916606D01*
X191216293Y-97918086D01*
X191191277Y-97918414D01*
X190949200Y-97921467D01*
X190945814Y-97986378D01*
X190942429Y-98051289D01*
X191110576Y-98051289D01*
X191176266Y-98051531D01*
X191223172Y-98052556D01*
X191255083Y-98054811D01*
X191275791Y-98058742D01*
X191289084Y-98064798D01*
X191298755Y-98073424D01*
X191298817Y-98073493D01*
X191316356Y-98107112D01*
X191315722Y-98143448D01*
X191297314Y-98174423D01*
X191293671Y-98177607D01*
X191280741Y-98185812D01*
X191263024Y-98191521D01*
X191236570Y-98195162D01*
X191197432Y-98197167D01*
X191141662Y-98197964D01*
X191105994Y-98198045D01*
X190943555Y-98198045D01*
X190943555Y-98356089D01*
X191190161Y-98356089D01*
X191271580Y-98356231D01*
X191333410Y-98356814D01*
X191378637Y-98358068D01*
X191410248Y-98360227D01*
X191431231Y-98363523D01*
X191444573Y-98368189D01*
X191453261Y-98374457D01*
X191455450Y-98376733D01*
X191471614Y-98408280D01*
X191472797Y-98444168D01*
X191459536Y-98475285D01*
X191449043Y-98485271D01*
X191438129Y-98490769D01*
X191421217Y-98495022D01*
X191395633Y-98498180D01*
X191358701Y-98500392D01*
X191307746Y-98501806D01*
X191240094Y-98502572D01*
X191153069Y-98502838D01*
X191133394Y-98502845D01*
X191044911Y-98502787D01*
X190976227Y-98502467D01*
X190924564Y-98501667D01*
X190887145Y-98500167D01*
X190861190Y-98497749D01*
X190843922Y-98494194D01*
X190832562Y-98489282D01*
X190824332Y-98482795D01*
X190819817Y-98478138D01*
X190813021Y-98469889D01*
X190807712Y-98459669D01*
X190803706Y-98444800D01*
X190800821Y-98422602D01*
X190798874Y-98390393D01*
X190797681Y-98345496D01*
X190797061Y-98285228D01*
X190796829Y-98206911D01*
X190796800Y-98140994D01*
X190796871Y-98048628D01*
X190797208Y-97976117D01*
X190797998Y-97920737D01*
X190799426Y-97879765D01*
X190801679Y-97850478D01*
X190804943Y-97830153D01*
X190809404Y-97816066D01*
X190815248Y-97805495D01*
X190820197Y-97798811D01*
X190843594Y-97769067D01*
X191133774Y-97769067D01*
X191230343Y-97769260D01*
G36*
X192018309Y-97769275D02*
G01*
X192147288Y-97773636D01*
X192256991Y-97786861D01*
X192349226Y-97809741D01*
X192425802Y-97843070D01*
X192488527Y-97887638D01*
X192539212Y-97944236D01*
X192579663Y-98013658D01*
X192580459Y-98015351D01*
X192604601Y-98077483D01*
X192613203Y-98132509D01*
X192606231Y-98187887D01*
X192583654Y-98251073D01*
X192579372Y-98260689D01*
X192550172Y-98316966D01*
X192517356Y-98360451D01*
X192475002Y-98397417D01*
X192417190Y-98434135D01*
X192413831Y-98436052D01*
X192363504Y-98460227D01*
X192306621Y-98478282D01*
X192239527Y-98490839D01*
X192158565Y-98498522D01*
X192060082Y-98501953D01*
X192025286Y-98502251D01*
X191859594Y-98502845D01*
X191836197Y-98473100D01*
X191829257Y-98463319D01*
X191823842Y-98451897D01*
X191819765Y-98436095D01*
X191816837Y-98413175D01*
X191814867Y-98380396D01*
X191814225Y-98356089D01*
X191970844Y-98356089D01*
X192064726Y-98356089D01*
X192119664Y-98354483D01*
X192176060Y-98350255D01*
X192222345Y-98344292D01*
X192225139Y-98343790D01*
X192307348Y-98321736D01*
X192371114Y-98288600D01*
X192418452Y-98242847D01*
X192451382Y-98182939D01*
X192457108Y-98167061D01*
X192462721Y-98142333D01*
X192460291Y-98117902D01*
X192448467Y-98085400D01*
X192441340Y-98069434D01*
X192418000Y-98027006D01*
X192389880Y-97997240D01*
X192358940Y-97976511D01*
X192296966Y-97949537D01*
X192217651Y-97929998D01*
X192125253Y-97918746D01*
X192058333Y-97916270D01*
X191970844Y-97915822D01*
X191970844Y-98356089D01*
X191814225Y-98356089D01*
X191813668Y-98335021D01*
X191813050Y-98274311D01*
X191812825Y-98195526D01*
X191812800Y-98133920D01*
X191812800Y-97824485D01*
X191840509Y-97796776D01*
X191852806Y-97785544D01*
X191866103Y-97777853D01*
X191884672Y-97773040D01*
X191912786Y-97770446D01*
X191954717Y-97769410D01*
X192014737Y-97769270D01*
X192018309Y-97769275D01*
G37*
X192018309Y-97769275D02*
X192147288Y-97773636D01*
X192256991Y-97786861D01*
X192349226Y-97809741D01*
X192425802Y-97843070D01*
X192488527Y-97887638D01*
X192539212Y-97944236D01*
X192579663Y-98013658D01*
X192580459Y-98015351D01*
X192604601Y-98077483D01*
X192613203Y-98132509D01*
X192606231Y-98187887D01*
X192583654Y-98251073D01*
X192579372Y-98260689D01*
X192550172Y-98316966D01*
X192517356Y-98360451D01*
X192475002Y-98397417D01*
X192417190Y-98434135D01*
X192413831Y-98436052D01*
X192363504Y-98460227D01*
X192306621Y-98478282D01*
X192239527Y-98490839D01*
X192158565Y-98498522D01*
X192060082Y-98501953D01*
X192025286Y-98502251D01*
X191859594Y-98502845D01*
X191836197Y-98473100D01*
X191829257Y-98463319D01*
X191823842Y-98451897D01*
X191819765Y-98436095D01*
X191816837Y-98413175D01*
X191814867Y-98380396D01*
X191814225Y-98356089D01*
X191970844Y-98356089D01*
X192064726Y-98356089D01*
X192119664Y-98354483D01*
X192176060Y-98350255D01*
X192222345Y-98344292D01*
X192225139Y-98343790D01*
X192307348Y-98321736D01*
X192371114Y-98288600D01*
X192418452Y-98242847D01*
X192451382Y-98182939D01*
X192457108Y-98167061D01*
X192462721Y-98142333D01*
X192460291Y-98117902D01*
X192448467Y-98085400D01*
X192441340Y-98069434D01*
X192418000Y-98027006D01*
X192389880Y-97997240D01*
X192358940Y-97976511D01*
X192296966Y-97949537D01*
X192217651Y-97929998D01*
X192125253Y-97918746D01*
X192058333Y-97916270D01*
X191970844Y-97915822D01*
X191970844Y-98356089D01*
X191814225Y-98356089D01*
X191813668Y-98335021D01*
X191813050Y-98274311D01*
X191812825Y-98195526D01*
X191812800Y-98133920D01*
X191812800Y-97824485D01*
X191840509Y-97796776D01*
X191852806Y-97785544D01*
X191866103Y-97777853D01*
X191884672Y-97773040D01*
X191912786Y-97770446D01*
X191954717Y-97769410D01*
X192014737Y-97769270D01*
X192018309Y-97769275D01*
G36*
X194744665Y-97771034D02*
G01*
X194764255Y-97778035D01*
X194765010Y-97778377D01*
X194791613Y-97798678D01*
X194806270Y-97819561D01*
X194809138Y-97829352D01*
X194808996Y-97842361D01*
X194804961Y-97860895D01*
X194796146Y-97887257D01*
X194781669Y-97923752D01*
X194760645Y-97972687D01*
X194732188Y-98036365D01*
X194695415Y-98117093D01*
X194675175Y-98161216D01*
X194638625Y-98239985D01*
X194604315Y-98312423D01*
X194573552Y-98375880D01*
X194547648Y-98427708D01*
X194527910Y-98465259D01*
X194515650Y-98485884D01*
X194513224Y-98488733D01*
X194482183Y-98501302D01*
X194447121Y-98499619D01*
X194419000Y-98484332D01*
X194417854Y-98483089D01*
X194406668Y-98466154D01*
X194387904Y-98433170D01*
X194363875Y-98388380D01*
X194336897Y-98336032D01*
X194327201Y-98316742D01*
X194254014Y-98170150D01*
X194174240Y-98329393D01*
X194145767Y-98384415D01*
X194119350Y-98432132D01*
X194097148Y-98468893D01*
X194081319Y-98491044D01*
X194075954Y-98495741D01*
X194034257Y-98502102D01*
X193999849Y-98488733D01*
X193989728Y-98474446D01*
X193972214Y-98442692D01*
X193948735Y-98396597D01*
X193920720Y-98339285D01*
X193889599Y-98273880D01*
X193856799Y-98203507D01*
X193823750Y-98131291D01*
X193791881Y-98060355D01*
X193762619Y-97993825D01*
X193737395Y-97934826D01*
X193717636Y-97886481D01*
X193704772Y-97851915D01*
X193700231Y-97834253D01*
X193700277Y-97833613D01*
X193711326Y-97811388D01*
X193733410Y-97788753D01*
X193734710Y-97787768D01*
X193761853Y-97772425D01*
X193786958Y-97772574D01*
X193796368Y-97775466D01*
X193807834Y-97781718D01*
X193820010Y-97794014D01*
X193834357Y-97814908D01*
X193852336Y-97846949D01*
X193875407Y-97892688D01*
X193905030Y-97954677D01*
X193931745Y-98011898D01*
X193962480Y-98078226D01*
X193990021Y-98137874D01*
X194012938Y-98187725D01*
X194029798Y-98224664D01*
X194039173Y-98245573D01*
X194040540Y-98248845D01*
X194046689Y-98243497D01*
X194060822Y-98221109D01*
X194081057Y-98184946D01*
X194105515Y-98138277D01*
X194115248Y-98119022D01*
X194148217Y-98054004D01*
X194173643Y-98006654D01*
X194193612Y-97974219D01*
X194210210Y-97953946D01*
X194225524Y-97943082D01*
X194241640Y-97938875D01*
X194252143Y-97938400D01*
X194270670Y-97940042D01*
X194286904Y-97946831D01*
X194303035Y-97961566D01*
X194321251Y-97987044D01*
X194343739Y-98026061D01*
X194372689Y-98081414D01*
X194388662Y-98112903D01*
X194414570Y-98163087D01*
X194437167Y-98204704D01*
X194454458Y-98234242D01*
X194464450Y-98248189D01*
X194465809Y-98248770D01*
X194472261Y-98237793D01*
X194486708Y-98209290D01*
X194507703Y-98166244D01*
X194533797Y-98111638D01*
X194563546Y-98048454D01*
X194578180Y-98017071D01*
X194616250Y-97936078D01*
X194646905Y-97873756D01*
X194671737Y-97828071D01*
X194692337Y-97796989D01*
X194710298Y-97778478D01*
X194727210Y-97770504D01*
X194744665Y-97771034D01*
G37*
X194744665Y-97771034D02*
X194764255Y-97778035D01*
X194765010Y-97778377D01*
X194791613Y-97798678D01*
X194806270Y-97819561D01*
X194809138Y-97829352D01*
X194808996Y-97842361D01*
X194804961Y-97860895D01*
X194796146Y-97887257D01*
X194781669Y-97923752D01*
X194760645Y-97972687D01*
X194732188Y-98036365D01*
X194695415Y-98117093D01*
X194675175Y-98161216D01*
X194638625Y-98239985D01*
X194604315Y-98312423D01*
X194573552Y-98375880D01*
X194547648Y-98427708D01*
X194527910Y-98465259D01*
X194515650Y-98485884D01*
X194513224Y-98488733D01*
X194482183Y-98501302D01*
X194447121Y-98499619D01*
X194419000Y-98484332D01*
X194417854Y-98483089D01*
X194406668Y-98466154D01*
X194387904Y-98433170D01*
X194363875Y-98388380D01*
X194336897Y-98336032D01*
X194327201Y-98316742D01*
X194254014Y-98170150D01*
X194174240Y-98329393D01*
X194145767Y-98384415D01*
X194119350Y-98432132D01*
X194097148Y-98468893D01*
X194081319Y-98491044D01*
X194075954Y-98495741D01*
X194034257Y-98502102D01*
X193999849Y-98488733D01*
X193989728Y-98474446D01*
X193972214Y-98442692D01*
X193948735Y-98396597D01*
X193920720Y-98339285D01*
X193889599Y-98273880D01*
X193856799Y-98203507D01*
X193823750Y-98131291D01*
X193791881Y-98060355D01*
X193762619Y-97993825D01*
X193737395Y-97934826D01*
X193717636Y-97886481D01*
X193704772Y-97851915D01*
X193700231Y-97834253D01*
X193700277Y-97833613D01*
X193711326Y-97811388D01*
X193733410Y-97788753D01*
X193734710Y-97787768D01*
X193761853Y-97772425D01*
X193786958Y-97772574D01*
X193796368Y-97775466D01*
X193807834Y-97781718D01*
X193820010Y-97794014D01*
X193834357Y-97814908D01*
X193852336Y-97846949D01*
X193875407Y-97892688D01*
X193905030Y-97954677D01*
X193931745Y-98011898D01*
X193962480Y-98078226D01*
X193990021Y-98137874D01*
X194012938Y-98187725D01*
X194029798Y-98224664D01*
X194039173Y-98245573D01*
X194040540Y-98248845D01*
X194046689Y-98243497D01*
X194060822Y-98221109D01*
X194081057Y-98184946D01*
X194105515Y-98138277D01*
X194115248Y-98119022D01*
X194148217Y-98054004D01*
X194173643Y-98006654D01*
X194193612Y-97974219D01*
X194210210Y-97953946D01*
X194225524Y-97943082D01*
X194241640Y-97938875D01*
X194252143Y-97938400D01*
X194270670Y-97940042D01*
X194286904Y-97946831D01*
X194303035Y-97961566D01*
X194321251Y-97987044D01*
X194343739Y-98026061D01*
X194372689Y-98081414D01*
X194388662Y-98112903D01*
X194414570Y-98163087D01*
X194437167Y-98204704D01*
X194454458Y-98234242D01*
X194464450Y-98248189D01*
X194465809Y-98248770D01*
X194472261Y-98237793D01*
X194486708Y-98209290D01*
X194507703Y-98166244D01*
X194533797Y-98111638D01*
X194563546Y-98048454D01*
X194578180Y-98017071D01*
X194616250Y-97936078D01*
X194646905Y-97873756D01*
X194671737Y-97828071D01*
X194692337Y-97796989D01*
X194710298Y-97778478D01*
X194727210Y-97770504D01*
X194744665Y-97771034D01*
G36*
X195188614Y-97775877D02*
G01*
X195212327Y-97790647D01*
X195238978Y-97812227D01*
X195238978Y-98133773D01*
X195238893Y-98227830D01*
X195238529Y-98301932D01*
X195237724Y-98358704D01*
X195236313Y-98400768D01*
X195234133Y-98430748D01*
X195231021Y-98451267D01*
X195226814Y-98464949D01*
X195221348Y-98474416D01*
X195217472Y-98479082D01*
X195186034Y-98499575D01*
X195150233Y-98498739D01*
X195118873Y-98481264D01*
X195092222Y-98459684D01*
X195092222Y-97812227D01*
X195118873Y-97790647D01*
X195144594Y-97774949D01*
X195165600Y-97769067D01*
X195188614Y-97775877D01*
G37*
X195188614Y-97775877D02*
X195212327Y-97790647D01*
X195238978Y-97812227D01*
X195238978Y-98133773D01*
X195238893Y-98227830D01*
X195238529Y-98301932D01*
X195237724Y-98358704D01*
X195236313Y-98400768D01*
X195234133Y-98430748D01*
X195231021Y-98451267D01*
X195226814Y-98464949D01*
X195221348Y-98474416D01*
X195217472Y-98479082D01*
X195186034Y-98499575D01*
X195150233Y-98498739D01*
X195118873Y-98481264D01*
X195092222Y-98459684D01*
X195092222Y-97812227D01*
X195118873Y-97790647D01*
X195144594Y-97774949D01*
X195165600Y-97769067D01*
X195188614Y-97775877D01*
G36*
X195963065Y-97769163D02*
G01*
X196041772Y-97769542D01*
X196102863Y-97770333D01*
X196148817Y-97771670D01*
X196182114Y-97773683D01*
X196205236Y-97776506D01*
X196220662Y-97780269D01*
X196230871Y-97785105D01*
X196235813Y-97788822D01*
X196261457Y-97821358D01*
X196264559Y-97855138D01*
X196248711Y-97885826D01*
X196238348Y-97898089D01*
X196227196Y-97906450D01*
X196211035Y-97911657D01*
X196185642Y-97914457D01*
X196146798Y-97915596D01*
X196090280Y-97915821D01*
X196079180Y-97915822D01*
X195933244Y-97915822D01*
X195933244Y-98186756D01*
X195933148Y-98272154D01*
X195932711Y-98337864D01*
X195931712Y-98386774D01*
X195929928Y-98421773D01*
X195927137Y-98445749D01*
X195923117Y-98461593D01*
X195917645Y-98472191D01*
X195910666Y-98480267D01*
X195877734Y-98500112D01*
X195843354Y-98498548D01*
X195812176Y-98475906D01*
X195809886Y-98473100D01*
X195802429Y-98462492D01*
X195796747Y-98450081D01*
X195792601Y-98432850D01*
X195789750Y-98407784D01*
X195787954Y-98371867D01*
X195786972Y-98322083D01*
X195786564Y-98255417D01*
X195786489Y-98179589D01*
X195786489Y-97915822D01*
X195647127Y-97915822D01*
X195587322Y-97915418D01*
X195545918Y-97913840D01*
X195518748Y-97910547D01*
X195501646Y-97904992D01*
X195490443Y-97896631D01*
X195489083Y-97895178D01*
X195472725Y-97861939D01*
X195474172Y-97824362D01*
X195492978Y-97791645D01*
X195500250Y-97785298D01*
X195509627Y-97780266D01*
X195523609Y-97776396D01*
X195544696Y-97773537D01*
X195575389Y-97771535D01*
X195618189Y-97770239D01*
X195675595Y-97769498D01*
X195750110Y-97769158D01*
X195844233Y-97769068D01*
X195864260Y-97769067D01*
X195963065Y-97769163D01*
G37*
X195963065Y-97769163D02*
X196041772Y-97769542D01*
X196102863Y-97770333D01*
X196148817Y-97771670D01*
X196182114Y-97773683D01*
X196205236Y-97776506D01*
X196220662Y-97780269D01*
X196230871Y-97785105D01*
X196235813Y-97788822D01*
X196261457Y-97821358D01*
X196264559Y-97855138D01*
X196248711Y-97885826D01*
X196238348Y-97898089D01*
X196227196Y-97906450D01*
X196211035Y-97911657D01*
X196185642Y-97914457D01*
X196146798Y-97915596D01*
X196090280Y-97915821D01*
X196079180Y-97915822D01*
X195933244Y-97915822D01*
X195933244Y-98186756D01*
X195933148Y-98272154D01*
X195932711Y-98337864D01*
X195931712Y-98386774D01*
X195929928Y-98421773D01*
X195927137Y-98445749D01*
X195923117Y-98461593D01*
X195917645Y-98472191D01*
X195910666Y-98480267D01*
X195877734Y-98500112D01*
X195843354Y-98498548D01*
X195812176Y-98475906D01*
X195809886Y-98473100D01*
X195802429Y-98462492D01*
X195796747Y-98450081D01*
X195792601Y-98432850D01*
X195789750Y-98407784D01*
X195787954Y-98371867D01*
X195786972Y-98322083D01*
X195786564Y-98255417D01*
X195786489Y-98179589D01*
X195786489Y-97915822D01*
X195647127Y-97915822D01*
X195587322Y-97915418D01*
X195545918Y-97913840D01*
X195518748Y-97910547D01*
X195501646Y-97904992D01*
X195490443Y-97896631D01*
X195489083Y-97895178D01*
X195472725Y-97861939D01*
X195474172Y-97824362D01*
X195492978Y-97791645D01*
X195500250Y-97785298D01*
X195509627Y-97780266D01*
X195523609Y-97776396D01*
X195544696Y-97773537D01*
X195575389Y-97771535D01*
X195618189Y-97770239D01*
X195675595Y-97769498D01*
X195750110Y-97769158D01*
X195844233Y-97769068D01*
X195864260Y-97769067D01*
X195963065Y-97769163D01*
G36*
X197228823Y-97774533D02*
G01*
X197260202Y-97796776D01*
X197287911Y-97824485D01*
X197287911Y-98133920D01*
X197287838Y-98225799D01*
X197287495Y-98297840D01*
X197286692Y-98352780D01*
X197285241Y-98393360D01*
X197282952Y-98422317D01*
X197279636Y-98442391D01*
X197275105Y-98456321D01*
X197269169Y-98466845D01*
X197264514Y-98473100D01*
X197233783Y-98497673D01*
X197198496Y-98500341D01*
X197166245Y-98485271D01*
X197155588Y-98476374D01*
X197148464Y-98464557D01*
X197144167Y-98445526D01*
X197141991Y-98414992D01*
X197141228Y-98368662D01*
X197141155Y-98332871D01*
X197141155Y-98198045D01*
X196644444Y-98198045D01*
X196644444Y-98320700D01*
X196643931Y-98376787D01*
X196641876Y-98415333D01*
X196637508Y-98441361D01*
X196630056Y-98459897D01*
X196621047Y-98473100D01*
X196590144Y-98497604D01*
X196555196Y-98500506D01*
X196521738Y-98483089D01*
X196512604Y-98473959D01*
X196506152Y-98461855D01*
X196501897Y-98443001D01*
X196499352Y-98413620D01*
X196498029Y-98369937D01*
X196497443Y-98308175D01*
X196497375Y-98294000D01*
X196496891Y-98177631D01*
X196496641Y-98081727D01*
X196496723Y-98004177D01*
X196497231Y-97942869D01*
X196498262Y-97895690D01*
X196499913Y-97860530D01*
X196502279Y-97835276D01*
X196505457Y-97817817D01*
X196509544Y-97806041D01*
X196514634Y-97797835D01*
X196520266Y-97791645D01*
X196552128Y-97771844D01*
X196585357Y-97774533D01*
X196616735Y-97796776D01*
X196629433Y-97811126D01*
X196637526Y-97826978D01*
X196642042Y-97849554D01*
X196644006Y-97884078D01*
X196644444Y-97935776D01*
X196644444Y-98051289D01*
X197141155Y-98051289D01*
X197141155Y-97932756D01*
X197141662Y-97878148D01*
X197143698Y-97841275D01*
X197148035Y-97817307D01*
X197155447Y-97801415D01*
X197163733Y-97791645D01*
X197195594Y-97771844D01*
X197228823Y-97774533D01*
G37*
X197228823Y-97774533D02*
X197260202Y-97796776D01*
X197287911Y-97824485D01*
X197287911Y-98133920D01*
X197287838Y-98225799D01*
X197287495Y-98297840D01*
X197286692Y-98352780D01*
X197285241Y-98393360D01*
X197282952Y-98422317D01*
X197279636Y-98442391D01*
X197275105Y-98456321D01*
X197269169Y-98466845D01*
X197264514Y-98473100D01*
X197233783Y-98497673D01*
X197198496Y-98500341D01*
X197166245Y-98485271D01*
X197155588Y-98476374D01*
X197148464Y-98464557D01*
X197144167Y-98445526D01*
X197141991Y-98414992D01*
X197141228Y-98368662D01*
X197141155Y-98332871D01*
X197141155Y-98198045D01*
X196644444Y-98198045D01*
X196644444Y-98320700D01*
X196643931Y-98376787D01*
X196641876Y-98415333D01*
X196637508Y-98441361D01*
X196630056Y-98459897D01*
X196621047Y-98473100D01*
X196590144Y-98497604D01*
X196555196Y-98500506D01*
X196521738Y-98483089D01*
X196512604Y-98473959D01*
X196506152Y-98461855D01*
X196501897Y-98443001D01*
X196499352Y-98413620D01*
X196498029Y-98369937D01*
X196497443Y-98308175D01*
X196497375Y-98294000D01*
X196496891Y-98177631D01*
X196496641Y-98081727D01*
X196496723Y-98004177D01*
X196497231Y-97942869D01*
X196498262Y-97895690D01*
X196499913Y-97860530D01*
X196502279Y-97835276D01*
X196505457Y-97817817D01*
X196509544Y-97806041D01*
X196514634Y-97797835D01*
X196520266Y-97791645D01*
X196552128Y-97771844D01*
X196585357Y-97774533D01*
X196616735Y-97796776D01*
X196629433Y-97811126D01*
X196637526Y-97826978D01*
X196642042Y-97849554D01*
X196644006Y-97884078D01*
X196644444Y-97935776D01*
X196644444Y-98051289D01*
X197141155Y-98051289D01*
X197141155Y-97932756D01*
X197141662Y-97878148D01*
X197143698Y-97841275D01*
X197148035Y-97817307D01*
X197155447Y-97801415D01*
X197163733Y-97791645D01*
X197195594Y-97771844D01*
X197228823Y-97774533D01*
G36*
X83322094Y-95791158D02*
G01*
X83354619Y-95803736D01*
X83404193Y-95828712D01*
X83475374Y-95867876D01*
X83480916Y-95870988D01*
X83546474Y-95908476D01*
X83601798Y-95941319D01*
X83641455Y-95966205D01*
X83660012Y-95979820D01*
X83660531Y-95980487D01*
X83656048Y-95999390D01*
X83635486Y-96041605D01*
X83600183Y-96104832D01*
X83551480Y-96186772D01*
X83490718Y-96285122D01*
X83419236Y-96397585D01*
X83401445Y-96425165D01*
X83355093Y-96501699D01*
X83321342Y-96567556D01*
X83303153Y-96616782D01*
X83301286Y-96626507D01*
X83302115Y-96669312D01*
X83311394Y-96737209D01*
X83327968Y-96825843D01*
X83350680Y-96930859D01*
X83378373Y-97047902D01*
X83409890Y-97172616D01*
X83444075Y-97300645D01*
X83479771Y-97427634D01*
X83515821Y-97549228D01*
X83551068Y-97661072D01*
X83584356Y-97758810D01*
X83614528Y-97838087D01*
X83635561Y-97885122D01*
X83660337Y-97935225D01*
X83683730Y-97983168D01*
X83684997Y-97985793D01*
X83723699Y-98034220D01*
X83780184Y-98066828D01*
X83845939Y-98082454D01*
X83912451Y-98079937D01*
X83971205Y-98058114D01*
X84004258Y-98029382D01*
X84051859Y-97950583D01*
X84086739Y-97852378D01*
X84105877Y-97744779D01*
X84108588Y-97683780D01*
X84097670Y-97569935D01*
X84065624Y-97475660D01*
X84010726Y-97396379D01*
X83993607Y-97378733D01*
X83942661Y-97329235D01*
X83939163Y-96979362D01*
X83935664Y-96629489D01*
X84024818Y-96494531D01*
X84066654Y-96433445D01*
X84106945Y-96378493D01*
X84139943Y-96337336D01*
X84154126Y-96322192D01*
X84194281Y-96284810D01*
X84248665Y-96314098D01*
X84283039Y-96335084D01*
X84301846Y-96351378D01*
X84303049Y-96354307D01*
X84315903Y-96366728D01*
X84337896Y-96375977D01*
X84359150Y-96384313D01*
X84391694Y-96400149D01*
X84438322Y-96425033D01*
X84501829Y-96460509D01*
X84585008Y-96508123D01*
X84690653Y-96569422D01*
X84748062Y-96602932D01*
X84815594Y-96643071D01*
X84859885Y-96671659D01*
X84884855Y-96692039D01*
X84894423Y-96707553D01*
X84892508Y-96721546D01*
X84890911Y-96724796D01*
X84875376Y-96745266D01*
X84842136Y-96783665D01*
X84795062Y-96835696D01*
X84738028Y-96897066D01*
X84688700Y-96949090D01*
X84575030Y-97072567D01*
X84486105Y-97179591D01*
X84421134Y-97271240D01*
X84379321Y-97348588D01*
X84365217Y-97387866D01*
X84359392Y-97422249D01*
X84353375Y-97480899D01*
X84347696Y-97557117D01*
X84342884Y-97644202D01*
X84340619Y-97699268D01*
X84337459Y-97794464D01*
X84336069Y-97864062D01*
X84336858Y-97913409D01*
X84340235Y-97947854D01*
X84346608Y-97972743D01*
X84356387Y-97993425D01*
X84364067Y-98006053D01*
X84408421Y-98054726D01*
X84465574Y-98088645D01*
X84525708Y-98103438D01*
X84570773Y-98098086D01*
X84611576Y-98074930D01*
X84662724Y-98033462D01*
X84717042Y-97980912D01*
X84767357Y-97924516D01*
X84806494Y-97871505D01*
X84820905Y-97845889D01*
X84842491Y-97810814D01*
X84881753Y-97757389D01*
X84935102Y-97689789D01*
X84998952Y-97612190D01*
X85069715Y-97528768D01*
X85143804Y-97443698D01*
X85217632Y-97361155D01*
X85287611Y-97285316D01*
X85350155Y-97220356D01*
X85399260Y-97172669D01*
X85453779Y-97125032D01*
X85499642Y-97089908D01*
X85531811Y-97070949D01*
X85542489Y-97068864D01*
X85558853Y-97077274D01*
X85599671Y-97099846D01*
X85662586Y-97135224D01*
X85745244Y-97182054D01*
X85845289Y-97238981D01*
X85960366Y-97304649D01*
X86088119Y-97377703D01*
X86226194Y-97456788D01*
X86372234Y-97540548D01*
X86523884Y-97627629D01*
X86678790Y-97716676D01*
X86834595Y-97806332D01*
X86988944Y-97895243D01*
X87139482Y-97982054D01*
X87283854Y-98065409D01*
X87419704Y-98143954D01*
X87544677Y-98216333D01*
X87656417Y-98281190D01*
X87752570Y-98337171D01*
X87830779Y-98382920D01*
X87888689Y-98417083D01*
X87923946Y-98438304D01*
X87934165Y-98444963D01*
X87920402Y-98446280D01*
X87877104Y-98447559D01*
X87805714Y-98448796D01*
X87707673Y-98449983D01*
X87584422Y-98451115D01*
X87437403Y-98452186D01*
X87268057Y-98453189D01*
X87077826Y-98454119D01*
X86868151Y-98454968D01*
X86640473Y-98455732D01*
X86396235Y-98456403D01*
X86136877Y-98456976D01*
X85863841Y-98457444D01*
X85578568Y-98457802D01*
X85282500Y-98458042D01*
X84977079Y-98458159D01*
X84848924Y-98458171D01*
X81748970Y-98458171D01*
X81970053Y-98074847D01*
X82016856Y-97993680D01*
X82077102Y-97889166D01*
X82148778Y-97764801D01*
X82229869Y-97624082D01*
X82318362Y-97470503D01*
X82412240Y-97307562D01*
X82509491Y-97138754D01*
X82608100Y-96967575D01*
X82706053Y-96797521D01*
X82730825Y-96754512D01*
X82821152Y-96597857D01*
X82907289Y-96448803D01*
X82987942Y-96309568D01*
X83061816Y-96182371D01*
X83127617Y-96069432D01*
X83184050Y-95972968D01*
X83229821Y-95895200D01*
X83263635Y-95838346D01*
X83284198Y-95804625D01*
X83289953Y-95796040D01*
X83302058Y-95789189D01*
X83322094Y-95791158D01*
G37*
X83322094Y-95791158D02*
X83354619Y-95803736D01*
X83404193Y-95828712D01*
X83475374Y-95867876D01*
X83480916Y-95870988D01*
X83546474Y-95908476D01*
X83601798Y-95941319D01*
X83641455Y-95966205D01*
X83660012Y-95979820D01*
X83660531Y-95980487D01*
X83656048Y-95999390D01*
X83635486Y-96041605D01*
X83600183Y-96104832D01*
X83551480Y-96186772D01*
X83490718Y-96285122D01*
X83419236Y-96397585D01*
X83401445Y-96425165D01*
X83355093Y-96501699D01*
X83321342Y-96567556D01*
X83303153Y-96616782D01*
X83301286Y-96626507D01*
X83302115Y-96669312D01*
X83311394Y-96737209D01*
X83327968Y-96825843D01*
X83350680Y-96930859D01*
X83378373Y-97047902D01*
X83409890Y-97172616D01*
X83444075Y-97300645D01*
X83479771Y-97427634D01*
X83515821Y-97549228D01*
X83551068Y-97661072D01*
X83584356Y-97758810D01*
X83614528Y-97838087D01*
X83635561Y-97885122D01*
X83660337Y-97935225D01*
X83683730Y-97983168D01*
X83684997Y-97985793D01*
X83723699Y-98034220D01*
X83780184Y-98066828D01*
X83845939Y-98082454D01*
X83912451Y-98079937D01*
X83971205Y-98058114D01*
X84004258Y-98029382D01*
X84051859Y-97950583D01*
X84086739Y-97852378D01*
X84105877Y-97744779D01*
X84108588Y-97683780D01*
X84097670Y-97569935D01*
X84065624Y-97475660D01*
X84010726Y-97396379D01*
X83993607Y-97378733D01*
X83942661Y-97329235D01*
X83939163Y-96979362D01*
X83935664Y-96629489D01*
X84024818Y-96494531D01*
X84066654Y-96433445D01*
X84106945Y-96378493D01*
X84139943Y-96337336D01*
X84154126Y-96322192D01*
X84194281Y-96284810D01*
X84248665Y-96314098D01*
X84283039Y-96335084D01*
X84301846Y-96351378D01*
X84303049Y-96354307D01*
X84315903Y-96366728D01*
X84337896Y-96375977D01*
X84359150Y-96384313D01*
X84391694Y-96400149D01*
X84438322Y-96425033D01*
X84501829Y-96460509D01*
X84585008Y-96508123D01*
X84690653Y-96569422D01*
X84748062Y-96602932D01*
X84815594Y-96643071D01*
X84859885Y-96671659D01*
X84884855Y-96692039D01*
X84894423Y-96707553D01*
X84892508Y-96721546D01*
X84890911Y-96724796D01*
X84875376Y-96745266D01*
X84842136Y-96783665D01*
X84795062Y-96835696D01*
X84738028Y-96897066D01*
X84688700Y-96949090D01*
X84575030Y-97072567D01*
X84486105Y-97179591D01*
X84421134Y-97271240D01*
X84379321Y-97348588D01*
X84365217Y-97387866D01*
X84359392Y-97422249D01*
X84353375Y-97480899D01*
X84347696Y-97557117D01*
X84342884Y-97644202D01*
X84340619Y-97699268D01*
X84337459Y-97794464D01*
X84336069Y-97864062D01*
X84336858Y-97913409D01*
X84340235Y-97947854D01*
X84346608Y-97972743D01*
X84356387Y-97993425D01*
X84364067Y-98006053D01*
X84408421Y-98054726D01*
X84465574Y-98088645D01*
X84525708Y-98103438D01*
X84570773Y-98098086D01*
X84611576Y-98074930D01*
X84662724Y-98033462D01*
X84717042Y-97980912D01*
X84767357Y-97924516D01*
X84806494Y-97871505D01*
X84820905Y-97845889D01*
X84842491Y-97810814D01*
X84881753Y-97757389D01*
X84935102Y-97689789D01*
X84998952Y-97612190D01*
X85069715Y-97528768D01*
X85143804Y-97443698D01*
X85217632Y-97361155D01*
X85287611Y-97285316D01*
X85350155Y-97220356D01*
X85399260Y-97172669D01*
X85453779Y-97125032D01*
X85499642Y-97089908D01*
X85531811Y-97070949D01*
X85542489Y-97068864D01*
X85558853Y-97077274D01*
X85599671Y-97099846D01*
X85662586Y-97135224D01*
X85745244Y-97182054D01*
X85845289Y-97238981D01*
X85960366Y-97304649D01*
X86088119Y-97377703D01*
X86226194Y-97456788D01*
X86372234Y-97540548D01*
X86523884Y-97627629D01*
X86678790Y-97716676D01*
X86834595Y-97806332D01*
X86988944Y-97895243D01*
X87139482Y-97982054D01*
X87283854Y-98065409D01*
X87419704Y-98143954D01*
X87544677Y-98216333D01*
X87656417Y-98281190D01*
X87752570Y-98337171D01*
X87830779Y-98382920D01*
X87888689Y-98417083D01*
X87923946Y-98438304D01*
X87934165Y-98444963D01*
X87920402Y-98446280D01*
X87877104Y-98447559D01*
X87805714Y-98448796D01*
X87707673Y-98449983D01*
X87584422Y-98451115D01*
X87437403Y-98452186D01*
X87268057Y-98453189D01*
X87077826Y-98454119D01*
X86868151Y-98454968D01*
X86640473Y-98455732D01*
X86396235Y-98456403D01*
X86136877Y-98456976D01*
X85863841Y-98457444D01*
X85578568Y-98457802D01*
X85282500Y-98458042D01*
X84977079Y-98458159D01*
X84848924Y-98458171D01*
X81748970Y-98458171D01*
X81970053Y-98074847D01*
X82016856Y-97993680D01*
X82077102Y-97889166D01*
X82148778Y-97764801D01*
X82229869Y-97624082D01*
X82318362Y-97470503D01*
X82412240Y-97307562D01*
X82509491Y-97138754D01*
X82608100Y-96967575D01*
X82706053Y-96797521D01*
X82730825Y-96754512D01*
X82821152Y-96597857D01*
X82907289Y-96448803D01*
X82987942Y-96309568D01*
X83061816Y-96182371D01*
X83127617Y-96069432D01*
X83184050Y-95972968D01*
X83229821Y-95895200D01*
X83263635Y-95838346D01*
X83284198Y-95804625D01*
X83289953Y-95796040D01*
X83302058Y-95789189D01*
X83322094Y-95791158D01*
G36*
X86987528Y-95734619D02*
G01*
X86998908Y-95753693D01*
X87024488Y-95797421D01*
X87063002Y-95863619D01*
X87113186Y-95950102D01*
X87173775Y-96054685D01*
X87243503Y-96175183D01*
X87321107Y-96309412D01*
X87405320Y-96455187D01*
X87494879Y-96610323D01*
X87586998Y-96770000D01*
X87681076Y-96933117D01*
X87771402Y-97089709D01*
X87856665Y-97237506D01*
X87935557Y-97374240D01*
X88006769Y-97497642D01*
X88068991Y-97605444D01*
X88120913Y-97695377D01*
X88161228Y-97765173D01*
X88188624Y-97812564D01*
X88201507Y-97834786D01*
X88222507Y-97872330D01*
X88233925Y-97895831D01*
X88234551Y-97899920D01*
X88220636Y-97892242D01*
X88181941Y-97870203D01*
X88120487Y-97834971D01*
X88038298Y-97787711D01*
X87937396Y-97729589D01*
X87819805Y-97661771D01*
X87687546Y-97585424D01*
X87542642Y-97501714D01*
X87387117Y-97411806D01*
X87222992Y-97316867D01*
X87160549Y-97280732D01*
X86993487Y-97184083D01*
X86834074Y-97091938D01*
X86684355Y-97005475D01*
X86546376Y-96925871D01*
X86422185Y-96854305D01*
X86313827Y-96791955D01*
X86223348Y-96739998D01*
X86152796Y-96699613D01*
X86104215Y-96671978D01*
X86079654Y-96658272D01*
X86077085Y-96656974D01*
X86084569Y-96645220D01*
X86110614Y-96613795D01*
X86152559Y-96565594D01*
X86207746Y-96503510D01*
X86273517Y-96430439D01*
X86347212Y-96349276D01*
X86426173Y-96262916D01*
X86507740Y-96174253D01*
X86589254Y-96086182D01*
X86668057Y-96001599D01*
X86741490Y-95923397D01*
X86806893Y-95854472D01*
X86861608Y-95797719D01*
X86902977Y-95756032D01*
X86917164Y-95742363D01*
X86964180Y-95698201D01*
X86987528Y-95734619D01*
G37*
X86987528Y-95734619D02*
X86998908Y-95753693D01*
X87024488Y-95797421D01*
X87063002Y-95863619D01*
X87113186Y-95950102D01*
X87173775Y-96054685D01*
X87243503Y-96175183D01*
X87321107Y-96309412D01*
X87405320Y-96455187D01*
X87494879Y-96610323D01*
X87586998Y-96770000D01*
X87681076Y-96933117D01*
X87771402Y-97089709D01*
X87856665Y-97237506D01*
X87935557Y-97374240D01*
X88006769Y-97497642D01*
X88068991Y-97605444D01*
X88120913Y-97695377D01*
X88161228Y-97765173D01*
X88188624Y-97812564D01*
X88201507Y-97834786D01*
X88222507Y-97872330D01*
X88233925Y-97895831D01*
X88234551Y-97899920D01*
X88220636Y-97892242D01*
X88181941Y-97870203D01*
X88120487Y-97834971D01*
X88038298Y-97787711D01*
X87937396Y-97729589D01*
X87819805Y-97661771D01*
X87687546Y-97585424D01*
X87542642Y-97501714D01*
X87387117Y-97411806D01*
X87222992Y-97316867D01*
X87160549Y-97280732D01*
X86993487Y-97184083D01*
X86834074Y-97091938D01*
X86684355Y-97005475D01*
X86546376Y-96925871D01*
X86422185Y-96854305D01*
X86313827Y-96791955D01*
X86223348Y-96739998D01*
X86152796Y-96699613D01*
X86104215Y-96671978D01*
X86079654Y-96658272D01*
X86077085Y-96656974D01*
X86084569Y-96645220D01*
X86110614Y-96613795D01*
X86152559Y-96565594D01*
X86207746Y-96503510D01*
X86273517Y-96430439D01*
X86347212Y-96349276D01*
X86426173Y-96262916D01*
X86507740Y-96174253D01*
X86589254Y-96086182D01*
X86668057Y-96001599D01*
X86741490Y-95923397D01*
X86806893Y-95854472D01*
X86861608Y-95797719D01*
X86902977Y-95756032D01*
X86917164Y-95742363D01*
X86964180Y-95698201D01*
X86987528Y-95734619D01*
G36*
X85164043Y-92585835D02*
G01*
X85187065Y-92623245D01*
X85222534Y-92682514D01*
X85268996Y-92761118D01*
X85324996Y-92856538D01*
X85389081Y-92966250D01*
X85459796Y-93087734D01*
X85535687Y-93218468D01*
X85615299Y-93355930D01*
X85697178Y-93497598D01*
X85779870Y-93640951D01*
X85861921Y-93783467D01*
X85941876Y-93922624D01*
X86018281Y-94055901D01*
X86089682Y-94180776D01*
X86154624Y-94294727D01*
X86211653Y-94395233D01*
X86259315Y-94479772D01*
X86296155Y-94545822D01*
X86320720Y-94590862D01*
X86331554Y-94612370D01*
X86331951Y-94613714D01*
X86318501Y-94631965D01*
X86281114Y-94659882D01*
X86224235Y-94694725D01*
X86152312Y-94733754D01*
X86077015Y-94770843D01*
X85974560Y-94815817D01*
X85866817Y-94856226D01*
X85750073Y-94892969D01*
X85620618Y-94926942D01*
X85474740Y-94959044D01*
X85308726Y-94990173D01*
X85118866Y-95021227D01*
X84922469Y-95050145D01*
X84751834Y-95075800D01*
X84608545Y-95101198D01*
X84489008Y-95127602D01*
X84389630Y-95156273D01*
X84306818Y-95188473D01*
X84236978Y-95225465D01*
X84176518Y-95268512D01*
X84121845Y-95318875D01*
X84104214Y-95337583D01*
X84066000Y-95381139D01*
X84037732Y-95416682D01*
X84024618Y-95437583D01*
X84024268Y-95439297D01*
X84019680Y-95449806D01*
X84003758Y-95449924D01*
X83973266Y-95438254D01*
X83924968Y-95413396D01*
X83855627Y-95373952D01*
X83807439Y-95345587D01*
X83735583Y-95301247D01*
X83679742Y-95263279D01*
X83643667Y-95234416D01*
X83631113Y-95217388D01*
X83631121Y-95217264D01*
X83638906Y-95201037D01*
X83660892Y-95160400D01*
X83695803Y-95097567D01*
X83742363Y-95014752D01*
X83799295Y-94914172D01*
X83865323Y-94798040D01*
X83939172Y-94668571D01*
X84019564Y-94527980D01*
X84105224Y-94378482D01*
X84194876Y-94222292D01*
X84287243Y-94061624D01*
X84381049Y-93898693D01*
X84475018Y-93735713D01*
X84567874Y-93574900D01*
X84658340Y-93418468D01*
X84745141Y-93268633D01*
X84827000Y-93127608D01*
X84902641Y-92997609D01*
X84970787Y-92880849D01*
X85030163Y-92779545D01*
X85079493Y-92695911D01*
X85117500Y-92632162D01*
X85142907Y-92590511D01*
X85154440Y-92573175D01*
X85154923Y-92572805D01*
X85164043Y-92585835D01*
G37*
X85164043Y-92585835D02*
X85187065Y-92623245D01*
X85222534Y-92682514D01*
X85268996Y-92761118D01*
X85324996Y-92856538D01*
X85389081Y-92966250D01*
X85459796Y-93087734D01*
X85535687Y-93218468D01*
X85615299Y-93355930D01*
X85697178Y-93497598D01*
X85779870Y-93640951D01*
X85861921Y-93783467D01*
X85941876Y-93922624D01*
X86018281Y-94055901D01*
X86089682Y-94180776D01*
X86154624Y-94294727D01*
X86211653Y-94395233D01*
X86259315Y-94479772D01*
X86296155Y-94545822D01*
X86320720Y-94590862D01*
X86331554Y-94612370D01*
X86331951Y-94613714D01*
X86318501Y-94631965D01*
X86281114Y-94659882D01*
X86224235Y-94694725D01*
X86152312Y-94733754D01*
X86077015Y-94770843D01*
X85974560Y-94815817D01*
X85866817Y-94856226D01*
X85750073Y-94892969D01*
X85620618Y-94926942D01*
X85474740Y-94959044D01*
X85308726Y-94990173D01*
X85118866Y-95021227D01*
X84922469Y-95050145D01*
X84751834Y-95075800D01*
X84608545Y-95101198D01*
X84489008Y-95127602D01*
X84389630Y-95156273D01*
X84306818Y-95188473D01*
X84236978Y-95225465D01*
X84176518Y-95268512D01*
X84121845Y-95318875D01*
X84104214Y-95337583D01*
X84066000Y-95381139D01*
X84037732Y-95416682D01*
X84024618Y-95437583D01*
X84024268Y-95439297D01*
X84019680Y-95449806D01*
X84003758Y-95449924D01*
X83973266Y-95438254D01*
X83924968Y-95413396D01*
X83855627Y-95373952D01*
X83807439Y-95345587D01*
X83735583Y-95301247D01*
X83679742Y-95263279D01*
X83643667Y-95234416D01*
X83631113Y-95217388D01*
X83631121Y-95217264D01*
X83638906Y-95201037D01*
X83660892Y-95160400D01*
X83695803Y-95097567D01*
X83742363Y-95014752D01*
X83799295Y-94914172D01*
X83865323Y-94798040D01*
X83939172Y-94668571D01*
X84019564Y-94527980D01*
X84105224Y-94378482D01*
X84194876Y-94222292D01*
X84287243Y-94061624D01*
X84381049Y-93898693D01*
X84475018Y-93735713D01*
X84567874Y-93574900D01*
X84658340Y-93418468D01*
X84745141Y-93268633D01*
X84827000Y-93127608D01*
X84902641Y-92997609D01*
X84970787Y-92880849D01*
X85030163Y-92779545D01*
X85079493Y-92695911D01*
X85117500Y-92632162D01*
X85142907Y-92590511D01*
X85154440Y-92573175D01*
X85154923Y-92572805D01*
X85164043Y-92585835D01*
D13*
X169450543Y-102900000D02*
G75*
G03*
X169450543Y-102900000I-9200543J0D01*
G01*
X164500000Y-102900000D02*
G75*
G03*
X164500000Y-102900000I-4250000J0D01*
G01*
X154250000Y-70400000D02*
X156750000Y-70400000D01*
X160250000Y-112200000D02*
X154650000Y-112200000D01*
X160250000Y-93600000D02*
X150950000Y-93600000D01*
X150950000Y-93600000D02*
X150950000Y-112200000D01*
X151300000Y-112200000D02*
X151300000Y-113400000D01*
X154650000Y-112700000D02*
X154650000Y-112200000D01*
X160250000Y-112200000D02*
X166750000Y-112200000D01*
X151300000Y-112200000D02*
X150950000Y-112200000D01*
X169550000Y-111400000D02*
X169550000Y-102900000D01*
X169550000Y-102900000D02*
X169550000Y-97563000D01*
X160250000Y-93600000D02*
X165587000Y-93600000D01*
X169550000Y-97563000D02*
X165600000Y-93600000D01*
X151500000Y-88300000D02*
X160250000Y-88300000D01*
X160250000Y-88300000D02*
X162050000Y-88300000D01*
X162050000Y-88300000D02*
X162050000Y-93600000D01*
X151500000Y-93600000D02*
X151500000Y-88300000D01*
X154250000Y-88300000D02*
X154250000Y-70400000D01*
X156750000Y-88300000D02*
X156750000Y-70400000D01*
X154646424Y-112700001D02*
G75*
G02*
X151300001Y-113399999I-1746424J1D01*
G01*
X169550832Y-111400000D02*
G75*
G02*
X166750001Y-112149999I-1500832J0D01*
G01*
D11*
X194500000Y-74250000D02*
X193500000Y-74250000D01*
X194500000Y-75000000D02*
X194500000Y-74250000D01*
X188500000Y-74250000D02*
X189500000Y-74250000D01*
X188500000Y-75000000D02*
X188500000Y-74250000D01*
X188500000Y-81750000D02*
X188500000Y-81000000D01*
X189500000Y-81750000D02*
X188500000Y-81750000D01*
X194500000Y-81750000D02*
X193500000Y-81750000D01*
X194500000Y-81750000D02*
X194500000Y-81000000D01*
X195750000Y-78000000D02*
G75*
G03*
X195750000Y-78000000I-4250000J0D01*
G01*
D13*
X99250000Y-92700000D02*
X99250000Y-110600000D01*
X101750000Y-92700000D02*
X101750000Y-110600000D01*
X104500000Y-87400000D02*
X104500000Y-92700000D01*
X93950000Y-92700000D02*
X93950000Y-87400000D01*
X95750000Y-92700000D02*
X93950000Y-92700000D01*
X104500000Y-92700000D02*
X95750000Y-92700000D01*
X86450000Y-83437000D02*
X90400000Y-87400000D01*
X95750000Y-87400000D02*
X90413000Y-87400000D01*
X86450000Y-78100000D02*
X86450000Y-83437000D01*
X86450000Y-69600000D02*
X86450000Y-78100000D01*
X104700000Y-68800000D02*
X105050000Y-68800000D01*
X95750000Y-68800000D02*
X89250000Y-68800000D01*
X101350000Y-68300000D02*
X101350000Y-68800000D01*
X104700000Y-68800000D02*
X104700000Y-67600000D01*
X105050000Y-87400000D02*
X105050000Y-68800000D01*
X95750000Y-87400000D02*
X105050000Y-87400000D01*
X95750000Y-68800000D02*
X101350000Y-68800000D01*
X101750000Y-110600000D02*
X99250000Y-110600000D01*
X100000000Y-78100000D02*
G75*
G03*
X100000000Y-78100000I-4250000J0D01*
G01*
X104950543Y-78100000D02*
G75*
G03*
X104950543Y-78100000I-9200543J0D01*
G01*
X86449168Y-69600000D02*
G75*
G02*
X89249999Y-68850001I1500832J0D01*
G01*
X101353576Y-68299999D02*
G75*
G02*
X104699999Y-67600001I1746424J-1D01*
G01*
D10*
X142000000Y-78000000D02*
G75*
G03*
X142000000Y-78000000I-4000000J0D01*
G01*
X140500000Y-78000000D02*
G75*
G03*
X140500000Y-78000000I-2500000J0D01*
G01*
X141400000Y-81500000D02*
X141400000Y-74500000D01*
X134600000Y-81500000D02*
X134600000Y-74500000D01*
X141400000Y-74500000D02*
X134600000Y-74500000D01*
X141400000Y-81500000D02*
X134600000Y-81500000D01*
X158400000Y-57700000D02*
X158400000Y-62300000D01*
X162600000Y-62300000D02*
X158400000Y-62300000D01*
X162600000Y-57700000D02*
X158400000Y-57700000D01*
X162600000Y-57700000D02*
X162600000Y-62300000D01*
X113400000Y-57700000D02*
X113400000Y-62300000D01*
X117600000Y-62300000D02*
X113400000Y-62300000D01*
X117600000Y-57700000D02*
X113400000Y-57700000D01*
X117600000Y-57700000D02*
X117600000Y-62300000D01*
X144900000Y-75700000D02*
X144900000Y-80300000D01*
X149100000Y-80300000D02*
X144900000Y-80300000D01*
X149100000Y-75700000D02*
X144900000Y-75700000D01*
X149100000Y-75700000D02*
X149100000Y-80300000D01*
X131100000Y-75700000D02*
X131100000Y-80300000D01*
X131100000Y-75700000D02*
X126900000Y-75700000D01*
X131100000Y-80300000D02*
X126900000Y-80300000D01*
X126900000Y-75700000D02*
X126900000Y-80300000D01*
D11*
X121850000Y-102000000D02*
G75*
G03*
X121850000Y-102000000I-5850000J0D01*
G01*
X97800000Y-54520000D02*
X93200000Y-54520000D01*
X99500000Y-63250000D02*
X91500000Y-63250000D01*
X91500000Y-63250000D02*
X91500000Y-56750000D01*
X99500000Y-63250000D02*
X99500000Y-56750000D01*
X99500000Y-56750000D02*
X98000000Y-56750000D01*
X91500000Y-56750000D02*
X93000000Y-56750000D01*
X182800000Y-54520000D02*
X178200000Y-54520000D01*
X184500000Y-63250000D02*
X176500000Y-63250000D01*
X176500000Y-63250000D02*
X176500000Y-56750000D01*
X184500000Y-63250000D02*
X184500000Y-56750000D01*
X184500000Y-56750000D02*
X183000000Y-56750000D01*
X176500000Y-56750000D02*
X178000000Y-56750000D01*
X183500000Y-63250000D02*
X182500000Y-63250000D01*
X183500000Y-64000000D02*
X183500000Y-63250000D01*
X177500000Y-63250000D02*
X178500000Y-63250000D01*
X177500000Y-64000000D02*
X177500000Y-63250000D01*
X177500000Y-70750000D02*
X177500000Y-70000000D01*
X178500000Y-70750000D02*
X177500000Y-70750000D01*
X183500000Y-70750000D02*
X182500000Y-70750000D01*
X183500000Y-70750000D02*
X183500000Y-70000000D01*
X184750000Y-67000000D02*
G75*
G03*
X184750000Y-67000000I-4250000J0D01*
G01*
X183500000Y-85250000D02*
X182500000Y-85250000D01*
X183500000Y-86000000D02*
X183500000Y-85250000D01*
X177500000Y-85250000D02*
X178500000Y-85250000D01*
X177500000Y-86000000D02*
X177500000Y-85250000D01*
X177500000Y-92750000D02*
X177500000Y-92000000D01*
X178500000Y-92750000D02*
X177500000Y-92750000D01*
X183500000Y-92750000D02*
X182500000Y-92750000D01*
X183500000Y-92750000D02*
X183500000Y-92000000D01*
X184750000Y-89000000D02*
G75*
G03*
X184750000Y-89000000I-4250000J0D01*
G01*
X172500000Y-74250000D02*
X171500000Y-74250000D01*
X172500000Y-75000000D02*
X172500000Y-74250000D01*
X166500000Y-74250000D02*
X167500000Y-74250000D01*
X166500000Y-75000000D02*
X166500000Y-74250000D01*
X166500000Y-81750000D02*
X166500000Y-81000000D01*
X167500000Y-81750000D02*
X166500000Y-81750000D01*
X172500000Y-81750000D02*
X171500000Y-81750000D01*
X172500000Y-81750000D02*
X172500000Y-81000000D01*
X173750000Y-78000000D02*
G75*
G03*
X173750000Y-78000000I-4250000J0D01*
G01*
X136931904Y-65822380D02*
X136931904Y-64822380D01*
X137170000Y-64822380D01*
X137312857Y-64870000D01*
X137408095Y-64965238D01*
X137455714Y-65060476D01*
X137503333Y-65250952D01*
X137503333Y-65393809D01*
X137455714Y-65584285D01*
X137408095Y-65679523D01*
X137312857Y-65774761D01*
X137170000Y-65822380D01*
X136931904Y-65822380D01*
X137836666Y-64822380D02*
X138503333Y-64822380D01*
X138074761Y-65822380D01*
X158964285Y-112352380D02*
X158964285Y-113066666D01*
X158916666Y-113209523D01*
X158821428Y-113304761D01*
X158678571Y-113352380D01*
X158583333Y-113352380D01*
X159630952Y-112352380D02*
X159821428Y-112352380D01*
X159916666Y-112400000D01*
X160011904Y-112495238D01*
X160059523Y-112685714D01*
X160059523Y-113019047D01*
X160011904Y-113209523D01*
X159916666Y-113304761D01*
X159821428Y-113352380D01*
X159630952Y-113352380D01*
X159535714Y-113304761D01*
X159440476Y-113209523D01*
X159392857Y-113019047D01*
X159392857Y-112685714D01*
X159440476Y-112495238D01*
X159535714Y-112400000D01*
X159630952Y-112352380D01*
X160678571Y-112876190D02*
X160678571Y-113352380D01*
X160345238Y-112352380D02*
X160678571Y-112876190D01*
X161011904Y-112352380D01*
X161297619Y-112447619D02*
X161345238Y-112400000D01*
X161440476Y-112352380D01*
X161678571Y-112352380D01*
X161773809Y-112400000D01*
X161821428Y-112447619D01*
X161869047Y-112542857D01*
X161869047Y-112638095D01*
X161821428Y-112780952D01*
X161250000Y-113352380D01*
X161869047Y-113352380D01*
X189690475Y-83404761D02*
X189833332Y-83452380D01*
X190071427Y-83452380D01*
X190166665Y-83404761D01*
X190214284Y-83357142D01*
X190261903Y-83261904D01*
X190261903Y-83166666D01*
X190214284Y-83071428D01*
X190166665Y-83023809D01*
X190071427Y-82976190D01*
X189880951Y-82928571D01*
X189785713Y-82880952D01*
X189738094Y-82833333D01*
X189690475Y-82738095D01*
X189690475Y-82642857D01*
X189738094Y-82547619D01*
X189785713Y-82500000D01*
X189880951Y-82452380D01*
X190119046Y-82452380D01*
X190261903Y-82500000D01*
X190595237Y-82452380D02*
X190833332Y-83452380D01*
X191023808Y-82738095D01*
X191214284Y-83452380D01*
X191452379Y-82452380D01*
X192357141Y-83452380D02*
X191785713Y-83452380D01*
X192071427Y-83452380D02*
X192071427Y-82452380D01*
X191976189Y-82595238D01*
X191880951Y-82690476D01*
X191785713Y-82738095D01*
X192738094Y-82547619D02*
X192785713Y-82500000D01*
X192880951Y-82452380D01*
X193119046Y-82452380D01*
X193214284Y-82500000D01*
X193261903Y-82547619D01*
X193309522Y-82642857D01*
X193309522Y-82738095D01*
X193261903Y-82880952D01*
X192690475Y-83452380D01*
X193309522Y-83452380D01*
X94464285Y-67552380D02*
X94464285Y-68266666D01*
X94416666Y-68409523D01*
X94321428Y-68504761D01*
X94178571Y-68552380D01*
X94083333Y-68552380D01*
X95130952Y-67552380D02*
X95321428Y-67552380D01*
X95416666Y-67600000D01*
X95511904Y-67695238D01*
X95559523Y-67885714D01*
X95559523Y-68219047D01*
X95511904Y-68409523D01*
X95416666Y-68504761D01*
X95321428Y-68552380D01*
X95130952Y-68552380D01*
X95035714Y-68504761D01*
X94940476Y-68409523D01*
X94892857Y-68219047D01*
X94892857Y-67885714D01*
X94940476Y-67695238D01*
X95035714Y-67600000D01*
X95130952Y-67552380D01*
X96178571Y-68076190D02*
X96178571Y-68552380D01*
X95845238Y-67552380D02*
X96178571Y-68076190D01*
X96511904Y-67552380D01*
X97369047Y-68552380D02*
X96797619Y-68552380D01*
X97083333Y-68552380D02*
X97083333Y-67552380D01*
X96988095Y-67695238D01*
X96892857Y-67790476D01*
X96797619Y-67838095D01*
X133535714Y-110952380D02*
X133535714Y-109952380D01*
X133964285Y-110952380D02*
X133964285Y-110428571D01*
X133916666Y-110333333D01*
X133821428Y-110285714D01*
X133678571Y-110285714D01*
X133583333Y-110333333D01*
X133535714Y-110380952D01*
X134964285Y-110000000D02*
X134869047Y-109952380D01*
X134726190Y-109952380D01*
X134583333Y-110000000D01*
X134488095Y-110095238D01*
X134440476Y-110190476D01*
X134392857Y-110380952D01*
X134392857Y-110523809D01*
X134440476Y-110714285D01*
X134488095Y-110809523D01*
X134583333Y-110904761D01*
X134726190Y-110952380D01*
X134821428Y-110952380D01*
X134964285Y-110904761D01*
X135011904Y-110857142D01*
X135011904Y-110523809D01*
X134821428Y-110523809D01*
X110857142Y-65952380D02*
X110857142Y-64952380D01*
X111285714Y-65952380D02*
X111285714Y-65428571D01*
X111238095Y-65333333D01*
X111142857Y-65285714D01*
X111000000Y-65285714D01*
X110904761Y-65333333D01*
X110857142Y-65380952D01*
X112095238Y-65428571D02*
X111761904Y-65428571D01*
X111761904Y-65952380D02*
X111761904Y-64952380D01*
X112238095Y-64952380D01*
X156333333Y-65952380D02*
X156333333Y-64952380D01*
X156761904Y-65952380D02*
X156761904Y-65428571D01*
X156714285Y-65333333D01*
X156619047Y-65285714D01*
X156476190Y-65285714D01*
X156380952Y-65333333D01*
X156333333Y-65380952D01*
X157238095Y-65428571D02*
X157571428Y-65428571D01*
X157714285Y-65952380D02*
X157238095Y-65952380D01*
X157238095Y-64952380D01*
X157714285Y-64952380D01*
X154761904Y-67702380D02*
X154761904Y-66702380D01*
X155142857Y-66702380D01*
X155238095Y-66750000D01*
X155285714Y-66797619D01*
X155333333Y-66892857D01*
X155333333Y-67035714D01*
X155285714Y-67130952D01*
X155238095Y-67178571D01*
X155142857Y-67226190D01*
X154761904Y-67226190D01*
X156285714Y-67702380D02*
X155714285Y-67702380D01*
X156000000Y-67702380D02*
X156000000Y-66702380D01*
X155904761Y-66845238D01*
X155809523Y-66940476D01*
X155714285Y-66988095D01*
X99761904Y-114202380D02*
X99761904Y-113202380D01*
X100142857Y-113202380D01*
X100238095Y-113250000D01*
X100285714Y-113297619D01*
X100333333Y-113392857D01*
X100333333Y-113535714D01*
X100285714Y-113630952D01*
X100238095Y-113678571D01*
X100142857Y-113726190D01*
X99761904Y-113726190D01*
X100714285Y-113297619D02*
X100761904Y-113250000D01*
X100857142Y-113202380D01*
X101095238Y-113202380D01*
X101190476Y-113250000D01*
X101238095Y-113297619D01*
X101285714Y-113392857D01*
X101285714Y-113488095D01*
X101238095Y-113630952D01*
X100666666Y-114202380D01*
X101285714Y-114202380D01*
X136666666Y-72204761D02*
X136809523Y-72252380D01*
X137047619Y-72252380D01*
X137142857Y-72204761D01*
X137190476Y-72157142D01*
X137238095Y-72061904D01*
X137238095Y-71966666D01*
X137190476Y-71871428D01*
X137142857Y-71823809D01*
X137047619Y-71776190D01*
X136857142Y-71728571D01*
X136761904Y-71680952D01*
X136714285Y-71633333D01*
X136666666Y-71538095D01*
X136666666Y-71442857D01*
X136714285Y-71347619D01*
X136761904Y-71300000D01*
X136857142Y-71252380D01*
X137095238Y-71252380D01*
X137238095Y-71300000D01*
X137571428Y-71252380D02*
X137809523Y-72252380D01*
X138000000Y-71538095D01*
X138190476Y-72252380D01*
X138428571Y-71252380D01*
X138857142Y-72252380D02*
X139047619Y-72252380D01*
X139142857Y-72204761D01*
X139190476Y-72157142D01*
X139285714Y-72014285D01*
X139333333Y-71823809D01*
X139333333Y-71442857D01*
X139285714Y-71347619D01*
X139238095Y-71300000D01*
X139142857Y-71252380D01*
X138952380Y-71252380D01*
X138857142Y-71300000D01*
X138809523Y-71347619D01*
X138761904Y-71442857D01*
X138761904Y-71680952D01*
X138809523Y-71776190D01*
X138857142Y-71823809D01*
X138952380Y-71871428D01*
X139142857Y-71871428D01*
X139238095Y-71823809D01*
X139285714Y-71776190D01*
X139333333Y-71680952D01*
X159166666Y-56904761D02*
X159309523Y-56952380D01*
X159547619Y-56952380D01*
X159642857Y-56904761D01*
X159690476Y-56857142D01*
X159738095Y-56761904D01*
X159738095Y-56666666D01*
X159690476Y-56571428D01*
X159642857Y-56523809D01*
X159547619Y-56476190D01*
X159357142Y-56428571D01*
X159261904Y-56380952D01*
X159214285Y-56333333D01*
X159166666Y-56238095D01*
X159166666Y-56142857D01*
X159214285Y-56047619D01*
X159261904Y-56000000D01*
X159357142Y-55952380D01*
X159595238Y-55952380D01*
X159738095Y-56000000D01*
X160071428Y-55952380D02*
X160309523Y-56952380D01*
X160500000Y-56238095D01*
X160690476Y-56952380D01*
X160928571Y-55952380D01*
X161214285Y-55952380D02*
X161880952Y-55952380D01*
X161452380Y-56952380D01*
X114166666Y-56904761D02*
X114309523Y-56952380D01*
X114547619Y-56952380D01*
X114642857Y-56904761D01*
X114690476Y-56857142D01*
X114738095Y-56761904D01*
X114738095Y-56666666D01*
X114690476Y-56571428D01*
X114642857Y-56523809D01*
X114547619Y-56476190D01*
X114357142Y-56428571D01*
X114261904Y-56380952D01*
X114214285Y-56333333D01*
X114166666Y-56238095D01*
X114166666Y-56142857D01*
X114214285Y-56047619D01*
X114261904Y-56000000D01*
X114357142Y-55952380D01*
X114595238Y-55952380D01*
X114738095Y-56000000D01*
X115071428Y-55952380D02*
X115309523Y-56952380D01*
X115500000Y-56238095D01*
X115690476Y-56952380D01*
X115928571Y-55952380D01*
X116738095Y-55952380D02*
X116547619Y-55952380D01*
X116452380Y-56000000D01*
X116404761Y-56047619D01*
X116309523Y-56190476D01*
X116261904Y-56380952D01*
X116261904Y-56761904D01*
X116309523Y-56857142D01*
X116357142Y-56904761D01*
X116452380Y-56952380D01*
X116642857Y-56952380D01*
X116738095Y-56904761D01*
X116785714Y-56857142D01*
X116833333Y-56761904D01*
X116833333Y-56523809D01*
X116785714Y-56428571D01*
X116738095Y-56380952D01*
X116642857Y-56333333D01*
X116452380Y-56333333D01*
X116357142Y-56380952D01*
X116309523Y-56428571D01*
X116261904Y-56523809D01*
X145190476Y-75404761D02*
X145333333Y-75452380D01*
X145571428Y-75452380D01*
X145666666Y-75404761D01*
X145714285Y-75357142D01*
X145761904Y-75261904D01*
X145761904Y-75166666D01*
X145714285Y-75071428D01*
X145666666Y-75023809D01*
X145571428Y-74976190D01*
X145380952Y-74928571D01*
X145285714Y-74880952D01*
X145238095Y-74833333D01*
X145190476Y-74738095D01*
X145190476Y-74642857D01*
X145238095Y-74547619D01*
X145285714Y-74500000D01*
X145380952Y-74452380D01*
X145619047Y-74452380D01*
X145761904Y-74500000D01*
X146095238Y-74452380D02*
X146333333Y-75452380D01*
X146523809Y-74738095D01*
X146714285Y-75452380D01*
X146952380Y-74452380D01*
X147857142Y-75452380D02*
X147285714Y-75452380D01*
X147571428Y-75452380D02*
X147571428Y-74452380D01*
X147476190Y-74595238D01*
X147380952Y-74690476D01*
X147285714Y-74738095D01*
X148476190Y-74452380D02*
X148571428Y-74452380D01*
X148666666Y-74500000D01*
X148714285Y-74547619D01*
X148761904Y-74642857D01*
X148809523Y-74833333D01*
X148809523Y-75071428D01*
X148761904Y-75261904D01*
X148714285Y-75357142D01*
X148666666Y-75404761D01*
X148571428Y-75452380D01*
X148476190Y-75452380D01*
X148380952Y-75404761D01*
X148333333Y-75357142D01*
X148285714Y-75261904D01*
X148238095Y-75071428D01*
X148238095Y-74833333D01*
X148285714Y-74642857D01*
X148333333Y-74547619D01*
X148380952Y-74500000D01*
X148476190Y-74452380D01*
X127666666Y-75404761D02*
X127809523Y-75452380D01*
X128047619Y-75452380D01*
X128142857Y-75404761D01*
X128190476Y-75357142D01*
X128238095Y-75261904D01*
X128238095Y-75166666D01*
X128190476Y-75071428D01*
X128142857Y-75023809D01*
X128047619Y-74976190D01*
X127857142Y-74928571D01*
X127761904Y-74880952D01*
X127714285Y-74833333D01*
X127666666Y-74738095D01*
X127666666Y-74642857D01*
X127714285Y-74547619D01*
X127761904Y-74500000D01*
X127857142Y-74452380D01*
X128095238Y-74452380D01*
X128238095Y-74500000D01*
X128571428Y-74452380D02*
X128809523Y-75452380D01*
X129000000Y-74738095D01*
X129190476Y-75452380D01*
X129428571Y-74452380D01*
X129952380Y-74880952D02*
X129857142Y-74833333D01*
X129809523Y-74785714D01*
X129761904Y-74690476D01*
X129761904Y-74642857D01*
X129809523Y-74547619D01*
X129857142Y-74500000D01*
X129952380Y-74452380D01*
X130142857Y-74452380D01*
X130238095Y-74500000D01*
X130285714Y-74547619D01*
X130333333Y-74642857D01*
X130333333Y-74690476D01*
X130285714Y-74785714D01*
X130238095Y-74833333D01*
X130142857Y-74880952D01*
X129952380Y-74880952D01*
X129857142Y-74928571D01*
X129809523Y-74976190D01*
X129761904Y-75071428D01*
X129761904Y-75261904D01*
X129809523Y-75357142D01*
X129857142Y-75404761D01*
X129952380Y-75452380D01*
X130142857Y-75452380D01*
X130238095Y-75404761D01*
X130285714Y-75357142D01*
X130333333Y-75261904D01*
X130333333Y-75071428D01*
X130285714Y-74976190D01*
X130238095Y-74928571D01*
X130142857Y-74880952D01*
X84285714Y-103752380D02*
X84285714Y-102752380D01*
X84714285Y-103752380D02*
X84714285Y-103228571D01*
X84666666Y-103133333D01*
X84571428Y-103085714D01*
X84428571Y-103085714D01*
X84333333Y-103133333D01*
X84285714Y-103180952D01*
X85190476Y-103752380D02*
X85190476Y-102752380D01*
X85428571Y-102752380D01*
X85571428Y-102800000D01*
X85666666Y-102895238D01*
X85714285Y-102990476D01*
X85761904Y-103180952D01*
X85761904Y-103323809D01*
X85714285Y-103514285D01*
X85666666Y-103609523D01*
X85571428Y-103704761D01*
X85428571Y-103752380D01*
X85190476Y-103752380D01*
X84357142Y-59752380D02*
X84357142Y-58752380D01*
X84785714Y-59752380D02*
X84785714Y-59228571D01*
X84738095Y-59133333D01*
X84642857Y-59085714D01*
X84500000Y-59085714D01*
X84404761Y-59133333D01*
X84357142Y-59180952D01*
X85214285Y-59466666D02*
X85690476Y-59466666D01*
X85119047Y-59752380D02*
X85452380Y-58752380D01*
X85785714Y-59752380D01*
X190285714Y-59752380D02*
X190285714Y-58752380D01*
X190714285Y-59752380D02*
X190714285Y-59228571D01*
X190666666Y-59133333D01*
X190571428Y-59085714D01*
X190428571Y-59085714D01*
X190333333Y-59133333D01*
X190285714Y-59180952D01*
X191523809Y-59228571D02*
X191666666Y-59276190D01*
X191714285Y-59323809D01*
X191761904Y-59419047D01*
X191761904Y-59561904D01*
X191714285Y-59657142D01*
X191666666Y-59704761D01*
X191571428Y-59752380D01*
X191190476Y-59752380D01*
X191190476Y-58752380D01*
X191523809Y-58752380D01*
X191619047Y-58800000D01*
X191666666Y-58847619D01*
X191714285Y-58942857D01*
X191714285Y-59038095D01*
X191666666Y-59133333D01*
X191619047Y-59180952D01*
X191523809Y-59228571D01*
X191190476Y-59228571D01*
X190285714Y-103752380D02*
X190285714Y-102752380D01*
X190714285Y-103752380D02*
X190714285Y-103228571D01*
X190666666Y-103133333D01*
X190571428Y-103085714D01*
X190428571Y-103085714D01*
X190333333Y-103133333D01*
X190285714Y-103180952D01*
X191761904Y-103657142D02*
X191714285Y-103704761D01*
X191571428Y-103752380D01*
X191476190Y-103752380D01*
X191333333Y-103704761D01*
X191238095Y-103609523D01*
X191190476Y-103514285D01*
X191142857Y-103323809D01*
X191142857Y-103180952D01*
X191190476Y-102990476D01*
X191238095Y-102895238D01*
X191333333Y-102800000D01*
X191476190Y-102752380D01*
X191571428Y-102752380D01*
X191714285Y-102800000D01*
X191761904Y-102847619D01*
X114666666Y-94904761D02*
X114809523Y-94952380D01*
X115047619Y-94952380D01*
X115142857Y-94904761D01*
X115190476Y-94857142D01*
X115238095Y-94761904D01*
X115238095Y-94666666D01*
X115190476Y-94571428D01*
X115142857Y-94523809D01*
X115047619Y-94476190D01*
X114857142Y-94428571D01*
X114761904Y-94380952D01*
X114714285Y-94333333D01*
X114666666Y-94238095D01*
X114666666Y-94142857D01*
X114714285Y-94047619D01*
X114761904Y-94000000D01*
X114857142Y-93952380D01*
X115095238Y-93952380D01*
X115238095Y-94000000D01*
X115571428Y-93952380D02*
X115809523Y-94952380D01*
X116000000Y-94238095D01*
X116190476Y-94952380D01*
X116428571Y-93952380D01*
X117333333Y-94952380D02*
X116761904Y-94952380D01*
X117047619Y-94952380D02*
X117047619Y-93952380D01*
X116952380Y-94095238D01*
X116857142Y-94190476D01*
X116761904Y-94238095D01*
X172309523Y-111784880D02*
X172309523Y-110784880D01*
X172738095Y-111784880D02*
X172738095Y-111261071D01*
X172690476Y-111165833D01*
X172595238Y-111118214D01*
X172452380Y-111118214D01*
X172357142Y-111165833D01*
X172309523Y-111213452D01*
X173119047Y-110784880D02*
X173738095Y-110784880D01*
X173404761Y-111165833D01*
X173547619Y-111165833D01*
X173642857Y-111213452D01*
X173690476Y-111261071D01*
X173738095Y-111356309D01*
X173738095Y-111594404D01*
X173690476Y-111689642D01*
X173642857Y-111737261D01*
X173547619Y-111784880D01*
X173261904Y-111784880D01*
X173166666Y-111737261D01*
X173119047Y-111689642D01*
X147409523Y-111952380D02*
X147409523Y-110952380D01*
X147838095Y-111952380D02*
X147838095Y-111428571D01*
X147790476Y-111333333D01*
X147695238Y-111285714D01*
X147552380Y-111285714D01*
X147457142Y-111333333D01*
X147409523Y-111380952D01*
X148742857Y-111285714D02*
X148742857Y-111952380D01*
X148504761Y-110904761D02*
X148266666Y-111619047D01*
X148885714Y-111619047D01*
X87259523Y-66852380D02*
X87259523Y-65852380D01*
X87688095Y-66852380D02*
X87688095Y-66328571D01*
X87640476Y-66233333D01*
X87545238Y-66185714D01*
X87402380Y-66185714D01*
X87307142Y-66233333D01*
X87259523Y-66280952D01*
X88116666Y-65947619D02*
X88164285Y-65900000D01*
X88259523Y-65852380D01*
X88497619Y-65852380D01*
X88592857Y-65900000D01*
X88640476Y-65947619D01*
X88688095Y-66042857D01*
X88688095Y-66138095D01*
X88640476Y-66280952D01*
X88069047Y-66852380D01*
X88688095Y-66852380D01*
X102409523Y-65552380D02*
X102409523Y-64552380D01*
X102838095Y-65552380D02*
X102838095Y-65028571D01*
X102790476Y-64933333D01*
X102695238Y-64885714D01*
X102552380Y-64885714D01*
X102457142Y-64933333D01*
X102409523Y-64980952D01*
X103838095Y-65552380D02*
X103266666Y-65552380D01*
X103552380Y-65552380D02*
X103552380Y-64552380D01*
X103457142Y-64695238D01*
X103361904Y-64790476D01*
X103266666Y-64838095D01*
X88166666Y-59404761D02*
X88309523Y-59452380D01*
X88547619Y-59452380D01*
X88642857Y-59404761D01*
X88690476Y-59357142D01*
X88738095Y-59261904D01*
X88738095Y-59166666D01*
X88690476Y-59071428D01*
X88642857Y-59023809D01*
X88547619Y-58976190D01*
X88357142Y-58928571D01*
X88261904Y-58880952D01*
X88214285Y-58833333D01*
X88166666Y-58738095D01*
X88166666Y-58642857D01*
X88214285Y-58547619D01*
X88261904Y-58500000D01*
X88357142Y-58452380D01*
X88595238Y-58452380D01*
X88738095Y-58500000D01*
X89071428Y-58452380D02*
X89309523Y-59452380D01*
X89500000Y-58738095D01*
X89690476Y-59452380D01*
X89928571Y-58452380D01*
X90261904Y-58547619D02*
X90309523Y-58500000D01*
X90404761Y-58452380D01*
X90642857Y-58452380D01*
X90738095Y-58500000D01*
X90785714Y-58547619D01*
X90833333Y-58642857D01*
X90833333Y-58738095D01*
X90785714Y-58880952D01*
X90214285Y-59452380D01*
X90833333Y-59452380D01*
X185166666Y-59404761D02*
X185309523Y-59452380D01*
X185547619Y-59452380D01*
X185642857Y-59404761D01*
X185690476Y-59357142D01*
X185738095Y-59261904D01*
X185738095Y-59166666D01*
X185690476Y-59071428D01*
X185642857Y-59023809D01*
X185547619Y-58976190D01*
X185357142Y-58928571D01*
X185261904Y-58880952D01*
X185214285Y-58833333D01*
X185166666Y-58738095D01*
X185166666Y-58642857D01*
X185214285Y-58547619D01*
X185261904Y-58500000D01*
X185357142Y-58452380D01*
X185595238Y-58452380D01*
X185738095Y-58500000D01*
X186071428Y-58452380D02*
X186309523Y-59452380D01*
X186500000Y-58738095D01*
X186690476Y-59452380D01*
X186928571Y-58452380D01*
X187738095Y-58785714D02*
X187738095Y-59452380D01*
X187500000Y-58404761D02*
X187261904Y-59119047D01*
X187880952Y-59119047D01*
X178690475Y-72404761D02*
X178833332Y-72452380D01*
X179071427Y-72452380D01*
X179166665Y-72404761D01*
X179214284Y-72357142D01*
X179261903Y-72261904D01*
X179261903Y-72166666D01*
X179214284Y-72071428D01*
X179166665Y-72023809D01*
X179071427Y-71976190D01*
X178880951Y-71928571D01*
X178785713Y-71880952D01*
X178738094Y-71833333D01*
X178690475Y-71738095D01*
X178690475Y-71642857D01*
X178738094Y-71547619D01*
X178785713Y-71500000D01*
X178880951Y-71452380D01*
X179119046Y-71452380D01*
X179261903Y-71500000D01*
X179595237Y-71452380D02*
X179833332Y-72452380D01*
X180023808Y-71738095D01*
X180214284Y-72452380D01*
X180452379Y-71452380D01*
X181357141Y-72452380D02*
X180785713Y-72452380D01*
X181071427Y-72452380D02*
X181071427Y-71452380D01*
X180976189Y-71595238D01*
X180880951Y-71690476D01*
X180785713Y-71738095D01*
X182214284Y-71785714D02*
X182214284Y-72452380D01*
X181976189Y-71404761D02*
X181738094Y-72119047D01*
X182357141Y-72119047D01*
X178690476Y-94404761D02*
X178833333Y-94452380D01*
X179071428Y-94452380D01*
X179166666Y-94404761D01*
X179214285Y-94357142D01*
X179261904Y-94261904D01*
X179261904Y-94166666D01*
X179214285Y-94071428D01*
X179166666Y-94023809D01*
X179071428Y-93976190D01*
X178880952Y-93928571D01*
X178785714Y-93880952D01*
X178738095Y-93833333D01*
X178690476Y-93738095D01*
X178690476Y-93642857D01*
X178738095Y-93547619D01*
X178785714Y-93500000D01*
X178880952Y-93452380D01*
X179119047Y-93452380D01*
X179261904Y-93500000D01*
X179595238Y-93452380D02*
X179833333Y-94452380D01*
X180023809Y-93738095D01*
X180214285Y-94452380D01*
X180452380Y-93452380D01*
X181357142Y-94452380D02*
X180785714Y-94452380D01*
X181071428Y-94452380D02*
X181071428Y-93452380D01*
X180976190Y-93595238D01*
X180880952Y-93690476D01*
X180785714Y-93738095D01*
X181690476Y-93452380D02*
X182309523Y-93452380D01*
X181976190Y-93833333D01*
X182119047Y-93833333D01*
X182214285Y-93880952D01*
X182261904Y-93928571D01*
X182309523Y-94023809D01*
X182309523Y-94261904D01*
X182261904Y-94357142D01*
X182214285Y-94404761D01*
X182119047Y-94452380D01*
X181833333Y-94452380D01*
X181738095Y-94404761D01*
X181690476Y-94357142D01*
X167690476Y-83404761D02*
X167833333Y-83452380D01*
X168071428Y-83452380D01*
X168166666Y-83404761D01*
X168214285Y-83357142D01*
X168261904Y-83261904D01*
X168261904Y-83166666D01*
X168214285Y-83071428D01*
X168166666Y-83023809D01*
X168071428Y-82976190D01*
X167880952Y-82928571D01*
X167785714Y-82880952D01*
X167738095Y-82833333D01*
X167690476Y-82738095D01*
X167690476Y-82642857D01*
X167738095Y-82547619D01*
X167785714Y-82500000D01*
X167880952Y-82452380D01*
X168119047Y-82452380D01*
X168261904Y-82500000D01*
X168595238Y-82452380D02*
X168833333Y-83452380D01*
X169023809Y-82738095D01*
X169214285Y-83452380D01*
X169452380Y-82452380D01*
X170357142Y-83452380D02*
X169785714Y-83452380D01*
X170071428Y-83452380D02*
X170071428Y-82452380D01*
X169976190Y-82595238D01*
X169880952Y-82690476D01*
X169785714Y-82738095D01*
X171309523Y-83452380D02*
X170738095Y-83452380D01*
X171023809Y-83452380D02*
X171023809Y-82452380D01*
X170928571Y-82595238D01*
X170833333Y-82690476D01*
X170738095Y-82738095D01*
M02*
